<svg width="98" height="98" viewBox="0 0 98 98" fill="none" xmlns="http://www.w3.org/2000/svg">
<g clip-path="url(#clip0_134_369)">
<path d="M97.004 89.353V7.649C97.004 3.42457 93.5794 0 89.355 0H7.64998C3.42555 0 0.000976562 3.42457 0.000976562 7.649V89.353C0.000976562 93.5774 3.42555 97.002 7.64998 97.002H89.355C93.5794 97.002 97.004 93.5774 97.004 89.353Z" fill="black"/>
<path d="M32.3858 41.134C32.3858 40.7384 32.7084 40.4178 33.1065 40.4178H54.6953C55.0931 40.4178 55.4159 40.7384 55.4159 41.134C55.4159 41.5297 55.0931 41.8503 54.6953 41.8503H33.1065C32.7084 41.8502 32.3858 41.5297 32.3858 41.134ZM44.1747 46.4577H33.1065C32.7084 46.4577 32.3858 46.7783 32.3858 47.174C32.3858 47.5696 32.7084 47.8902 33.1065 47.8902H44.1748C44.5729 47.8902 44.8955 47.5696 44.8955 47.174C44.8955 46.7783 44.5728 46.4577 44.1747 46.4577ZM44.1747 52.4976H33.1065C32.7084 52.4976 32.3858 52.8184 32.3858 53.2138C32.3858 53.6092 32.7084 53.93 33.1065 53.93H44.1748C44.5729 53.93 44.8955 53.6092 44.8955 53.2138C44.8955 52.8184 44.5728 52.4976 44.1747 52.4976ZM44.1747 58.5374H33.1065C32.7084 58.5374 32.3858 58.8582 32.3858 59.2536C32.3858 59.649 32.7084 59.9698 33.1065 59.9698H44.1748C44.5729 59.9698 44.8955 59.649 44.8955 59.2536C44.8954 58.8582 44.5728 58.5374 44.1747 58.5374ZM77.8403 58.0301C77.6466 58.4502 77.3008 58.7696 76.8667 58.93L74.6203 59.7595C74.4242 59.8318 74.2201 59.8677 74.0165 59.8677C73.7697 59.8677 73.5234 59.815 73.2916 59.7091C73.1281 59.6346 72.9855 59.5316 72.8557 59.4156C72.8004 59.9211 72.6086 60.4054 72.274 60.7699C71.8146 61.2702 71.1953 61.4656 70.5342 61.3378C70.5177 61.6679 70.43 61.9999 70.2625 62.3104C69.7698 63.2253 68.7438 63.6771 67.7669 63.4882C67.7486 63.8161 67.6581 64.1382 67.4981 64.4357C67.4056 64.6077 67.287 64.7586 67.1575 64.8988V66.9434C67.1575 69.4642 65.1357 71.5196 62.6195 71.6043C62.0601 73.5611 60.2498 75 58.1038 75H29.6976C27.1074 75 25 72.9059 25 70.3315V30.056C25 27.5349 27.0228 25.4794 29.5394 25.3955C30.1067 23.4234 31.9457 22 34.0534 22H62.4598C65.0502 22 67.1574 24.0943 67.1574 26.6685V48.9568C67.2536 48.9961 67.3478 49.0354 67.4399 49.0737C68.1558 49.3712 68.6077 49.5339 68.9654 49.5193C68.887 49.1575 68.9212 48.7822 69.0797 48.4388C69.2734 48.019 69.6192 47.6993 70.0533 47.5392L72.3002 46.7099C72.7347 46.5502 73.2067 46.5675 73.629 46.7602C74.0513 46.9528 74.3727 47.2964 74.5341 47.7278L77.8912 56.7096C78.052 57.1413 78.0342 57.6104 77.8403 58.0301ZM66.8833 50.3951C65.5261 49.8308 64.123 49.247 62.171 50.5858C61.7572 50.8702 61.3319 51.2294 60.9063 51.6564C60.6501 51.9133 60.3873 52.1703 60.1307 52.4207C59.6085 52.9303 58.9901 53.5342 58.6569 53.9459C59.6418 54.9661 60.6684 54.6556 62.2857 54.0507C63.6032 53.5579 65.0933 52.9992 66.4136 53.9985C66.7763 54.2041 67.3107 54.4662 67.8756 54.7436C69.4836 55.5329 70.8376 56.2288 71.7098 56.9328L69.4527 50.8935C69.2814 50.9315 69.1102 50.9551 68.9397 50.9551C68.2295 50.9551 67.5299 50.6641 66.8833 50.3951ZM31.0659 25.3875H58.1038C60.6942 25.3875 62.8014 27.4819 62.8014 30.056V48.645C63.8939 48.2438 64.8634 48.28 65.716 48.4774V26.6685C65.716 24.8843 64.2555 23.4324 62.4598 23.4324H34.0534C32.7384 23.4324 31.5728 24.2312 31.0659 25.3875ZM47.795 33.6266L51.6823 31.0221C51.926 30.8589 52.2441 30.8589 52.4881 31.0221L55.9638 33.3505V26.82H47.795V33.6266ZM61.36 70.3315V68.5794C61.2091 68.6162 61.0568 68.637 60.9053 68.637C60.553 68.637 60.2062 68.5428 59.898 68.3787C59.3922 68.1101 58.9704 67.6434 58.7447 67.0993C58.7301 67.1039 58.7157 67.1086 58.7007 67.1128C58.1235 67.2863 57.5141 67.2275 56.9844 66.9459C56.5908 66.7505 56.2675 66.4288 56.0578 66.0245C55.957 66.0716 55.8523 66.1116 55.7438 66.1443C55.1668 66.3178 54.5568 66.259 54.0276 65.9774C53.5227 65.727 53.1342 65.2686 52.9508 64.6955C52.8527 64.3887 52.8213 64.067 52.8546 63.7546C52.5262 63.741 52.1959 63.6557 51.8872 63.4915C51.3828 63.2417 50.9943 62.7833 50.8109 62.2102C50.6234 61.6251 50.6788 60.9872 50.9626 60.4598L51.2218 59.9783C51.072 60.0194 50.9196 60.0457 50.7654 60.0457C50.5864 60.0457 50.4064 60.0178 50.2314 59.9614L47.9509 59.2306C47.0393 58.9383 46.5367 57.9628 46.8308 57.0568L49.7911 47.9379C49.9333 47.4998 50.2397 47.1427 50.6535 46.9319C51.0673 46.7216 51.5381 46.6836 51.9787 46.8245L54.26 47.5558C54.845 47.7436 55.258 48.2136 55.4035 48.765C55.9326 48.7834 56.4605 48.6797 57.0479 48.5637C58.2784 48.3207 59.6519 48.0515 61.3603 48.8899V30.056C61.3603 28.2718 59.8998 26.82 58.1041 26.82H57.4055V34.6972C57.4055 34.9621 57.2587 35.2053 57.0231 35.3295C56.7876 35.454 56.5033 35.4388 56.2818 35.291L52.0854 32.4797L47.7908 35.3569C47.6719 35.4366 47.5316 35.4793 47.388 35.4793H47.0746C46.6765 35.4793 46.3539 35.1587 46.3539 34.7631V26.82H29.6976C27.9022 26.82 26.4414 28.2718 26.4414 30.056V70.3315C26.4414 72.1161 27.9022 73.5675 29.6976 73.5675H58.1038C59.8994 73.5675 61.36 72.1161 61.36 70.3315ZM63.4924 64.9199C63.6023 65.375 63.5108 65.8273 63.3728 66.2022L63.446 66.24C63.8941 66.4694 64.124 66.1234 64.1827 66.0119C64.2485 65.8871 64.4002 65.4787 63.9068 65.1411L63.4924 64.9199ZM62.7792 67.51L62.7231 67.4809C62.7173 67.4909 62.7112 67.5002 62.7053 67.51H62.7792ZM60.4555 65.2468L60.4545 65.2482L60.0829 65.9388C59.8459 66.3794 60.2114 66.9212 60.5778 67.1156C60.7148 67.1893 61.1343 67.4113 61.5167 66.7012L61.7868 66.199C61.7871 66.1986 61.7872 66.1981 61.7874 66.1975C62.2983 65.2473 62.1505 65.1106 61.6062 64.8211C61.3726 64.6966 61.122 64.7549 60.994 64.7997C60.7609 64.8817 60.5647 65.0448 60.4555 65.2468ZM59.2689 62.7004C58.8752 62.4915 58.3807 62.6393 58.169 63.0324C58.1687 63.033 58.1682 63.0335 58.1678 63.0342L57.3305 64.5897V64.5903C57.2292 64.7787 57.2114 65.0123 57.2813 65.2305C57.3188 65.3471 57.4154 65.5593 57.6462 65.674C57.8536 65.784 58.0737 65.805 58.2825 65.7421C58.4912 65.6791 58.6625 65.5406 58.7643 65.3518L58.813 65.2614C58.8135 65.2605 58.8141 65.2599 58.8145 65.2592L59.1817 64.5769C59.1823 64.5757 59.1826 64.5743 59.1832 64.5732H59.1838L59.6027 63.7945C59.814 63.4012 59.6644 62.9106 59.2689 62.7004ZM57.1645 61.357C57.1012 61.149 56.9618 60.9792 56.7718 60.8781C56.3772 60.6677 55.8832 60.817 55.6716 61.2096C55.6712 61.2103 55.6707 61.2108 55.6703 61.2114L54.9368 62.5744L54.3738 63.6207C54.2725 63.8095 54.2547 64.0428 54.3245 64.2614C54.3616 64.3779 54.4587 64.5906 54.6895 64.7053C55.1034 64.9249 55.596 64.7747 55.8076 64.383L56.06 63.914C56.0603 63.9134 56.0608 63.9129 56.0612 63.9122L56.8972 62.3589C56.8975 62.3584 56.8976 62.3576 56.8979 62.3571L57.1048 61.9719C57.2068 61.7827 57.2278 61.5645 57.1645 61.357ZM54.2517 59.0148C54.0706 58.9299 53.8647 58.9146 53.6685 58.9738C53.4593 59.0368 53.2885 59.1753 53.1867 59.3641L52.8785 59.9367C52.8784 59.9368 52.8783 59.937 52.8782 59.9371L52.2333 61.1355C52.132 61.3239 52.1141 61.5576 52.184 61.7762C52.2215 61.8923 52.3182 62.105 52.5495 62.2196C52.961 62.4393 53.4546 62.2906 53.6662 61.8983C53.667 61.8971 53.668 61.8961 53.6686 61.8947L54.401 60.534V60.5335C54.401 60.5335 54.401 60.5335 54.401 60.5331L54.6206 60.126C54.7026 59.9731 54.9514 59.511 54.2517 59.0148ZM54.0078 49.2895C54.0571 49.138 53.9698 48.9682 53.8169 48.9192L51.5358 48.1879C51.5044 48.1777 51.4746 48.1737 51.4472 48.1737C51.3871 48.1737 51.3386 48.1926 51.3102 48.2071C51.2692 48.2281 51.195 48.2782 51.1629 48.3777L48.2024 57.4966C48.1531 57.6486 48.2406 57.8184 48.3933 57.8673L50.6743 58.5985C50.7749 58.6311 50.859 58.6003 50.9 58.5798C50.9411 58.5588 51.0152 58.5085 51.0473 58.4091L51.5621 56.8234C51.5804 56.7596 51.5963 56.6954 51.6169 56.6321C51.6241 56.6101 51.6352 56.591 51.6443 56.5703L54.0078 49.2895ZM65.716 66.9436V65.6306C65.7107 65.6312 65.7054 65.6333 65.7001 65.6338C65.7128 65.9994 65.6264 66.3612 65.4589 66.6779C65.0972 67.3633 64.4342 67.7461 63.7276 67.7461C63.4201 67.7461 63.1043 67.6725 62.8014 67.5206V70.1621C64.437 69.9916 65.716 68.6133 65.716 66.9436ZM71.2671 58.5093C70.7734 57.7637 68.6456 56.7188 67.2372 56.0278C66.6023 55.7163 66.0543 55.4472 65.6504 55.2145C65.6204 55.1973 65.5917 55.1777 65.5646 55.1567C64.9058 54.6391 64.0823 54.9081 62.794 55.3912C61.1828 55.9941 58.9756 56.8181 57.1904 54.433C57.0398 54.2311 57.0065 53.9658 57.1022 53.7335C57.342 53.1525 58.0256 52.4675 59.1212 51.3984C59.3726 51.1527 59.6307 50.9009 59.8817 50.6491C60.0867 50.443 60.2932 50.2499 60.4992 50.0699C59.3328 49.5728 58.3897 49.7594 57.3289 49.9688C56.6613 50.1006 55.9762 50.2333 55.2308 50.1884L52.9431 57.2351C52.8923 57.4149 52.8504 57.5962 52.825 57.7786C52.9588 57.7068 53.1014 57.6476 53.2506 57.6029C53.8282 57.4275 54.4377 57.4882 54.9674 57.7698C55.0002 57.7871 55.0313 57.8071 55.0608 57.829C55.6557 58.244 56.0207 58.7858 56.1319 59.3654C56.572 59.3151 57.0319 59.392 57.4523 59.6153C57.9815 59.8964 58.3695 60.3679 58.5441 60.9414C58.5694 61.0239 58.5896 61.1075 58.6051 61.1913C59.0523 61.134 59.5214 61.2105 59.9489 61.4371C60.4731 61.7159 60.8381 62.1733 61.0158 62.6927C61.2221 62.398 61.6196 62.2959 61.9458 62.4685L64.3365 63.7442C64.3775 63.7574 64.4182 63.7731 64.4573 63.7941C64.4583 63.7941 64.4587 63.7945 64.4597 63.7951L65.0566 64.1126C65.2593 64.2199 65.4925 64.2418 65.7153 64.1756C65.9372 64.1084 66.1192 63.9611 66.2271 63.7602C66.3356 63.5587 66.3581 63.3265 66.291 63.1055C66.2234 62.8855 66.0756 62.705 65.8749 62.5973L65.873 62.5963C65.8484 62.5833 65.8275 62.5664 65.8051 62.551L63.0438 61.0837C62.6928 60.8977 62.5604 60.4635 62.7481 60.1148C62.9353 59.7655 63.374 59.6335 63.7231 59.821L66.5566 61.3266C66.5809 61.3396 66.6015 61.3562 66.6237 61.3714L67.7971 61.9953C68.2269 62.2224 68.7627 62.0616 68.9922 61.6349C69.2136 61.2232 69.0671 60.7142 68.6695 60.4744L64.7783 58.3756C64.4288 58.1868 64.2988 57.7522 64.4889 57.4043C64.6789 57.0569 65.1161 56.9292 65.4662 57.1166L69.2739 59.1705C69.2856 59.176 69.2978 59.179 69.3093 59.1851L70.4926 59.8142C70.9675 60.0655 71.1434 59.8767 71.2096 59.8043C71.4603 59.531 71.5387 58.9187 71.2671 58.5093ZM76.5398 57.2085L73.1827 48.2264C73.1461 48.1281 73.0701 48.0812 73.0279 48.062C73.0011 48.0499 72.9565 48.0345 72.9026 48.0345C72.8717 48.0345 72.8378 48.0394 72.8022 48.0524L70.5552 48.8819C70.4563 48.9182 70.4089 48.9938 70.3896 49.0357C70.3703 49.0776 70.3437 49.1625 70.3802 49.2604L73.7373 58.2425C73.7739 58.3408 73.8499 58.3879 73.8921 58.4071C73.9339 58.4257 74.0197 58.4523 74.1183 58.4164L76.3647 57.5869C76.4636 57.5506 76.511 57.475 76.5303 57.4331C76.5497 57.3913 76.5763 57.3064 76.5398 57.2085Z" fill="white"/>
</g>
<defs>
<clipPath id="clip0_134_369">
<rect width="98" height="98" fill="white"/>
</clipPath>
</defs>
</svg>