<svg width="909" height="909" viewBox="0 0 909 909" fill="none" xmlns="http://www.w3.org/2000/svg">
<g clip-path="url(#clip0_131_142)">
<path d="M454.5 901.5C701.371 901.5 901.5 701.371 901.5 454.5C901.5 207.629 701.371 7.5 454.5 7.5C207.629 7.5 7.5 207.629 7.5 454.5C7.5 701.371 207.629 901.5 454.5 901.5Z" stroke="#6C7174" stroke-width="15"/>
<mask id="mask0_131_142" style="mask-type:luminance" maskUnits="userSpaceOnUse" x="231" y="222" width="446" height="446">
<path d="M231 222H677V668H231V222Z" fill="white"/>
</mask>
<g mask="url(#mask0_131_142)">
<path d="M588.483 338.166C589.26 338.897 590.477 338.875 591.258 338.148C594.038 335.557 597.801 333.969 601.918 333.98C610.359 334.007 617.249 340.939 617.129 349.27C616.916 364.159 595.494 376.139 590.772 378.6C590.197 378.9 589.513 378.907 588.932 378.62C584.128 376.25 562.278 364.618 562.587 349.27C562.752 341.109 569.623 334.04 577.894 333.98C582.011 333.952 585.73 335.57 588.483 338.166Z" stroke="#6C7174" stroke-width="13" stroke-miterlimit="10" stroke-linecap="round" stroke-linejoin="round"/>
<path d="M536.642 303.847H634.983C644.271 303.847 651.8 311.378 651.8 320.666V381.289C651.8 390.579 644.271 398.108 634.983 398.108H614.215C611.763 398.108 609.409 399.072 607.662 400.791L593.157 415.061C591.33 416.859 588.395 416.848 586.58 415.038L572.353 400.838C570.601 399.09 568.228 398.108 565.753 398.108H544.733C535.445 398.108 527.914 390.579 527.914 381.289V347.975" stroke="#6C7174" stroke-width="13" stroke-miterlimit="10" stroke-linecap="round" stroke-linejoin="round"/>
<path d="M316.583 338.166C317.359 338.897 318.577 338.875 319.357 338.148C322.137 335.557 325.9 333.969 330.017 333.98C338.46 334.007 345.348 340.939 345.229 349.27C345.015 364.159 323.594 376.139 318.871 378.6C318.296 378.9 317.613 378.907 317.032 378.62C312.227 376.25 290.378 364.618 290.687 349.27C290.852 341.109 297.723 334.04 305.993 333.98C310.111 333.952 313.829 335.57 316.583 338.166Z" stroke="#6C7174" stroke-width="13" stroke-miterlimit="10" stroke-linecap="round" stroke-linejoin="round"/>
<path d="M379.9 345.862V381.29C379.9 390.579 372.37 398.109 363.081 398.109H342.314C339.862 398.109 337.508 399.072 335.761 400.792L321.257 415.06C319.43 416.859 316.495 416.848 314.681 415.037L300.452 400.838C298.701 399.089 296.328 398.109 293.853 398.109H272.832C263.544 398.109 256.014 390.579 256.014 381.29V320.666C256.014 311.377 263.544 303.848 272.832 303.848H372.729" stroke="#6C7174" stroke-width="13" stroke-miterlimit="10" stroke-linecap="round" stroke-linejoin="round"/>
<path d="M458.95 228.533H512.174C525.074 228.533 535.532 238.992 535.532 251.892V328.675C535.532 341.576 525.074 352.034 512.174 352.034H484.319C480.331 352.034 476.532 353.734 473.873 356.705L459.289 373.007C456.675 375.928 452.095 375.91 449.505 372.968L435.264 356.789C432.603 353.767 428.771 352.034 424.744 352.034H396.576C383.674 352.034 373.217 341.576 373.217 328.675V251.892C373.217 238.992 383.674 228.533 396.576 228.533H428.462" stroke="#6C7174" stroke-width="13" stroke-miterlimit="10" stroke-linecap="round" stroke-linejoin="round"/>
<path d="M452.266 266.712C453.457 267.834 455.326 267.801 456.523 266.686C460.787 262.709 466.561 260.273 472.877 260.292C485.829 260.33 496.399 270.965 496.215 283.749C495.886 306.589 463.022 324.97 455.777 328.746C454.895 329.205 453.846 329.217 452.955 328.776C445.584 325.14 412.062 307.295 412.537 283.749C412.789 271.227 423.331 260.381 436.02 260.292C442.337 260.246 448.043 262.73 452.266 266.712Z" stroke="#6C7174" stroke-width="13" stroke-miterlimit="10" stroke-linecap="round" stroke-linejoin="round"/>
<path d="M299.813 596.778L262.866 612.003C254.699 615.367 249.371 623.326 249.371 632.158V652.747C249.371 657.563 253.275 661.467 258.091 661.467H367.991" stroke="#6C7174" stroke-width="13" stroke-miterlimit="10" stroke-linecap="round" stroke-linejoin="round"/>
<path d="M370.105 610.908L335.814 596.778L335.808 596.785" stroke="#6C7174" stroke-width="13" stroke-miterlimit="10" stroke-linecap="round" stroke-linejoin="round"/>
<path d="M572.185 577.351V596.778" stroke="#6C7174" stroke-width="13" stroke-miterlimit="10" stroke-linecap="round" stroke-linejoin="round"/>
<path d="M608.186 596.778V578.018" stroke="#6C7174" stroke-width="13" stroke-miterlimit="10" stroke-linecap="round" stroke-linejoin="round"/>
<path d="M540.401 661.467H590.18L587.582 658.609C572.454 641.961 572.186 619.389 572.186 596.778L538.021 610.855" stroke="#6C7174" stroke-width="13" stroke-miterlimit="10" stroke-linecap="round" stroke-linejoin="round"/>
<path d="M645.133 612.003L608.187 596.778C608.187 619.09 607.945 642.034 592.656 658.759L590.179 661.467H649.909C654.725 661.467 658.628 657.562 658.628 652.747V632.158C658.628 623.326 653.3 615.367 645.133 612.003Z" stroke="#6C7174" stroke-width="13" stroke-miterlimit="10" stroke-linecap="round" stroke-linejoin="round"/>
<path d="M299.813 569.529V596.787L299.819 596.794C309.311 607.75 326.308 607.753 335.802 596.8L335.814 596.787V569.789" stroke="#6C7174" stroke-width="13" stroke-miterlimit="10" stroke-linecap="round" stroke-linejoin="round"/>
<path d="M276.427 529.792C280.99 553.964 301.137 576.814 317.808 576.814C334.594 576.814 354.881 553.677 359.272 529.338" stroke="#6C7174" stroke-width="13" stroke-miterlimit="10" stroke-linecap="round" stroke-linejoin="round"/>
<path d="M262.866 612.003L299.813 661.467" stroke="#6C7174" stroke-width="13" stroke-miterlimit="10" stroke-linecap="round" stroke-linejoin="round"/>
<path d="M366.687 625.625L335.814 661.467" stroke="#6C7174" stroke-width="13" stroke-miterlimit="10" stroke-linecap="round" stroke-linejoin="round"/>
<path d="M268.004 486.449C262.674 504.128 267.791 524.999 273.02 533.166C273.02 533.166 283.135 515.776 306.518 507.265C328.474 499.274 338.348 476.652 330.855 464.946C324.138 454.453 305.087 452.991 287.624 462.731" stroke="#6C7174" stroke-width="13" stroke-miterlimit="10" stroke-linecap="round" stroke-linejoin="round"/>
<path d="M333.269 472.078C341.126 468.669 354.098 468.367 362.406 476.778C380.029 494.625 368.912 522.812 362.629 532.63C362.629 532.63 353.463 521.17 339.649 512.328C332.419 507.701 327.301 501.35 324.966 494.943" stroke="#6C7174" stroke-width="13" stroke-miterlimit="10" stroke-linecap="round" stroke-linejoin="round"/>
<path d="M431.525 548.141V579.99L431.532 579.998C443.487 593.797 464.895 593.801 476.855 580.006L476.869 579.99V548.141" stroke="#6C7174" stroke-width="13" stroke-miterlimit="10" stroke-linecap="round" stroke-linejoin="round"/>
<path d="M419.337 535.357C427.778 546.979 439.484 554.832 454.189 554.832C485.693 554.832 503.594 518.294 504.958 486.377" stroke="#6C7174" stroke-width="13" stroke-miterlimit="10" stroke-linecap="round" stroke-linejoin="round"/>
<path d="M404.07 493.275C404.6 498.126 405.497 503.011 406.749 507.793" stroke="#6C7174" stroke-width="13" stroke-miterlimit="10" stroke-linecap="round" stroke-linejoin="round"/>
<path d="M431.525 579.99L384.185 599.496C374.385 603.533 367.991 613.084 367.991 623.683V661.467H540.402V623.683C540.402 613.084 534.006 603.533 524.207 599.496L476.869 579.99L476.861 579.999" stroke="#6C7174" stroke-width="13" stroke-miterlimit="10" stroke-linecap="round" stroke-linejoin="round"/>
<path d="M549.947 529.571C550.583 555.378 572.449 585.525 590.18 585.525C608.185 585.525 630.427 554.476 630.427 528.425C630.427 508.261 621.924 491.054 606.003 484.304L606.002 484.307C601.505 504.829 585.428 520.828 564.885 525.224L549.932 528.425L549.947 529.571Z" stroke="#6C7174" stroke-width="13" stroke-miterlimit="10" stroke-linecap="round" stroke-linejoin="round"/>
<path d="M537.339 485.579C529.997 496.051 525.688 508.804 525.688 522.565V600.165" stroke="#6C7174" stroke-width="13" stroke-miterlimit="10" stroke-linecap="round" stroke-linejoin="round"/>
<path d="M654.684 618.987V522.565C654.684 486.944 625.807 458.067 590.186 458.067C579.584 458.067 569.579 460.624 560.755 465.158" stroke="#6C7174" stroke-width="13" stroke-miterlimit="10" stroke-linecap="round" stroke-linejoin="round"/>
<path d="M407.757 589.783L408.039 590.115C424.927 609.993 434.926 634.806 436.54 660.84L436.578 661.467" stroke="#6C7174" stroke-width="13" stroke-miterlimit="10" stroke-linecap="round" stroke-linejoin="round"/>
<path d="M499.946 590.35C483.187 610.079 473.21 634.671 471.486 660.498L471.422 661.467" stroke="#6C7174" stroke-width="13" stroke-miterlimit="10" stroke-linecap="round" stroke-linejoin="round"/>
<path d="M506.645 437.733C506.494 437.714 506.343 437.696 506.189 437.68C507.871 434.619 508.709 431.025 508.369 427.213C507.591 418.485 500.521 411.425 491.791 410.664C485.468 410.112 479.742 412.782 476.066 417.214C474.813 406.136 465.413 397.526 454 397.526C448.397 397.526 443.282 399.604 439.374 403.028C436.032 398.633 430.765 395.784 424.818 395.784C415.297 395.784 407.481 403.06 406.612 412.353C392.543 412.77 381.263 424.297 381.263 438.467C381.263 445.32 383.905 451.554 388.221 456.215C388.221 456.215 387.49 465.577 389.103 474.182C391.716 488.119 403.912 492.475 403.912 492.475C403.912 478.537 422.057 482.356 424.818 469.826C424.818 469.826 429.381 470.698 431.787 470.698C445.69 470.698 457.473 461.646 461.583 449.118C465.42 454.78 471.906 458.502 479.261 458.502C481.562 458.502 483.776 458.134 485.853 457.46C491.021 475.924 504.959 469.826 504.959 486.377C513.719 482.421 518.812 468.93 521.309 459.943C524.184 449.599 517.299 439.054 506.645 437.733Z" stroke="#6C7174" stroke-width="13" stroke-miterlimit="10" stroke-linecap="round" stroke-linejoin="round"/>
</g>
</g>
<defs>
<clipPath id="clip0_131_142">
<rect width="909" height="909" fill="white"/>
</clipPath>
</defs>
</svg>