<svg xmlns="http://www.w3.org/2000/svg" width="177.5" height="38.386" viewBox="0 0 177.5 38.386">
  <g id="Group_7" data-name="Group 7" transform="translate(-84.501 -813.587)">
    <path id="Subtraction_34" data-name="Subtraction 34" d="M37.4,37.386H11.693l1.2-2.792a1.262,1.262,0,1,0-2.319-1L8.945,37.386h-5A3.948,3.948,0,0,1,0,33.442V26.93l3.655-1.552a1.256,1.256,0,0,0,.677-.689,1.272,1.272,0,0,0,.092-.475,1.261,1.261,0,0,0-1.756-1.159L0,24.188V19.182l2.285-.047A1.26,1.26,0,0,0,3.521,17.88v-.032a1.269,1.269,0,0,0-1.262-1.237H2.233L0,16.657V11.719L3.122,12.9a1.259,1.259,0,0,0,.446.082,1.286,1.286,0,0,0,.521-.112,1.263,1.263,0,0,0-.075-2.331L0,9.022V0H9.1l1.65,3.44a1.253,1.253,0,0,0,.72.645,1.27,1.27,0,0,0,.421.072,1.244,1.244,0,0,0,.544-.125A1.268,1.268,0,0,0,13.152,2.9a1.251,1.251,0,0,0-.125-.547L11.9,0h4.61L16.6,1.366A1.262,1.262,0,0,0,17.86,2.545l.075,0h.01a1.262,1.262,0,0,0,1.179-1.261c0-.031,0-.057,0-.081L19.042,0H33.458A3.948,3.948,0,0,1,37.4,3.945V37.386ZM6.3,28.532a1.257,1.257,0,0,0-.967.451l-3.442,4.1a1.262,1.262,0,0,0,1.934,1.623l3.442-4.1a1.255,1.255,0,0,0,.295-.816c0-.036,0-.072,0-.106A1.264,1.264,0,0,0,6.3,28.532ZM20.436,3.342A15.623,15.623,0,0,0,4.583,18.688c0,8.438,7.111,15.3,15.853,15.3a16.341,16.341,0,0,0,5.717-1.019,15.783,15.783,0,0,0,6.627-4.688l-6.637-5.411a6.679,6.679,0,0,1-10.584,1.374A7.773,7.773,0,0,1,13.5,18.688a7.784,7.784,0,0,1,2.056-5.607,6.756,6.756,0,0,1,4.877-1.96A6.662,6.662,0,0,1,26.143,14.5L32.78,9.092A15.986,15.986,0,0,0,20.436,3.342ZM2.927,1.634a1.262,1.262,0,0,0-.853,2.193l3.947,3.62a1.26,1.26,0,0,0,.852.332h.055a1.262,1.262,0,0,0,.8-2.192L3.78,1.966A1.261,1.261,0,0,0,2.927,1.634Z" transform="translate(85.001 814.087)" fill="#fff" stroke="rgba(0,0,0,0)" stroke-miterlimit="10" stroke-width="1"/>
    <path id="Path_3" data-name="Path 3" d="M420.533,561.326l4.069,3.316a9.781,9.781,0,0,1-7.566,3.5,9.4,9.4,0,1,1,0-18.785,9.806,9.806,0,0,1,7.566,3.523l-4.069,3.317a4.106,4.106,0,0,0-3.5-2.073c-2.306,0-4.249,1.659-4.249,4.638,0,2.9,1.943,4.638,4.249,4.638A4.107,4.107,0,0,0,420.533,561.326Z" transform="translate(-277.99 264.494)" fill="#fff" fill-rule="evenodd"/>
    <path id="Path_4" data-name="Path 4" d="M535.107,564.936v4.2h-13.94V550.866h5.311v14.07Z" transform="translate(-372.378 263.241)" fill="#fff" fill-rule="evenodd"/>
    <rect id="Rectangle_2" data-name="Rectangle 2" width="5.312" height="18.267" transform="translate(164.907 814.108)" fill="#fff"/>
    <path id="Path_5" data-name="Path 5" d="M675.057,561.326l4.068,3.316a9.781,9.781,0,0,1-7.566,3.5,9.4,9.4,0,1,1,0-18.785,9.805,9.805,0,0,1,7.566,3.523l-4.068,3.317a4.106,4.106,0,0,0-3.5-2.073c-2.306,0-4.249,1.659-4.249,4.638,0,2.9,1.943,4.638,4.249,4.638A4.107,4.107,0,0,0,675.057,561.326Z" transform="translate(-489.006 264.494)" fill="#fff" fill-rule="evenodd"/>
    <path id="Path_6" data-name="Path 6" d="M793.387,569.135h-6.944l-4.586-5.233-1.011,1.244v3.99H775.69V550.868h5.155v7.023l5.908-7.023H793.1l-7.85,9.147Z" transform="translate(-583.392 263.24)" fill="#fff" fill-rule="evenodd"/>
    <path id="Path_7" data-name="Path 7" d="M895.537,555.194H890.2v13.94h-5.312v-13.94h-5.364v-4.328h16.013Z" transform="translate(-669.477 263.241)" fill="#fff" fill-rule="evenodd"/>
    <path id="Path_8" data-name="Path 8" d="M976.983,566.208h-6.814l-1.269,2.927h-5.545l8.991-18.267h2.487l9.017,18.267h-5.571l-1.3-2.927Zm-4.948-4.2h3.109l-1.555-3.6Z" transform="translate(-738.977 263.24)" fill="#fff" fill-rule="evenodd"/>
    <path id="Path_9" data-name="Path 9" d="M1100.815,550.867c5.675,0,7.618,3.343,7.618,6.97,0,5.286-3.446,7.385-8.395,7.385h-1.763v3.912h-5.311V550.867Zm-1.347,10.183h0c2.617,0,3.394-1.425,3.394-2.824a2.732,2.732,0,0,0-2.953-3.032h-1.633v5.856Z" transform="translate(-846.432 263.24)" fill="#fff" fill-rule="evenodd"/>
    <path id="Path_10" data-name="Path 10" d="M413.348,717.272h-4.655V706.4h4.3a5.458,5.458,0,0,1,5.474,5.443,5.335,5.335,0,0,1-5.118,5.427Zm-.184-2.02h0a3.319,3.319,0,0,0,3.127-3.407,3.371,3.371,0,0,0-3.3-3.423h-2.157v6.83Z" transform="translate(-279.13 134.292)" fill="#fff" fill-rule="evenodd"/>
    <rect id="Rectangle_3" data-name="Rectangle 3" width="2.22" height="10.869" transform="translate(153.094 840.694)" fill="#fff"/>
    <path id="Path_11" data-name="Path 11" d="M648.368,711.309v3.978a7.54,7.54,0,0,1-4.733,1.587,5.554,5.554,0,1,1,0-11.1,6.329,6.329,0,0,1,4.349,1.557l-1.389,1.542a4.414,4.414,0,0,0-2.959-1.033,3.538,3.538,0,0,0,0,7.076,4.53,4.53,0,0,0,2.529-.74v-1.018H643.4v-1.85Z" transform="translate(-469.13 134.812)" fill="#fff" fill-rule="evenodd"/>
    <rect id="Rectangle_4" data-name="Rectangle 4" width="2.22" height="10.869" transform="translate(193.117 840.694)" fill="#fff"/>
    <path id="Path_12" data-name="Path 12" d="M882.058,708.316H878.59v8.957h-2.222v-8.957h-3.453V706.4h9.142Z" transform="translate(-663.998 134.291)" fill="#fff" fill-rule="evenodd"/>
    <path id="Path_13" data-name="Path 13" d="M999.955,715.068H995.1l-.969,2.2H991.8l5.18-10.869h1.1l5.193,10.869h-2.328l-.987-2.2Zm-4.069-1.835h3.283l-1.649-3.591Z" transform="translate(-762.562 134.292)" fill="#fff" fill-rule="evenodd"/>
    <path id="Path_14" data-name="Path 14" d="M1143.93,715.423v1.85h-7.8V706.4h2.2v9.019Z" transform="translate(-882.219 134.291)" fill="#fff" fill-rule="evenodd"/>
    <path id="Path_17" data-name="Path 17" d="M420.533,561.326l4.069,3.316a9.781,9.781,0,0,1-7.566,3.5,9.4,9.4,0,1,1,0-18.785,9.806,9.806,0,0,1,7.566,3.523l-4.069,3.317a4.106,4.106,0,0,0-3.5-2.073c-2.306,0-4.249,1.659-4.249,4.638,0,2.9,1.943,4.638,4.249,4.638A4.107,4.107,0,0,0,420.533,561.326Z" transform="translate(-277.99 264.494)" fill="#fff" fill-rule="evenodd"/>
    <path id="Path_18" data-name="Path 18" d="M535.107,564.936v4.2h-13.94V550.866h5.311v14.07Z" transform="translate(-372.378 263.241)" fill="#fff" fill-rule="evenodd"/>
    <rect id="Rectangle_5" data-name="Rectangle 5" width="5.312" height="18.267" transform="translate(164.907 814.108)" fill="#fff"/>
    <path id="Path_19" data-name="Path 19" d="M675.057,561.326l4.068,3.316a9.781,9.781,0,0,1-7.566,3.5,9.4,9.4,0,1,1,0-18.785,9.805,9.805,0,0,1,7.566,3.523l-4.068,3.317a4.106,4.106,0,0,0-3.5-2.073c-2.306,0-4.249,1.659-4.249,4.638,0,2.9,1.943,4.638,4.249,4.638A4.107,4.107,0,0,0,675.057,561.326Z" transform="translate(-489.006 264.494)" fill="#fff" fill-rule="evenodd"/>
    <path id="Path_20" data-name="Path 20" d="M793.387,569.135h-6.944l-4.586-5.233-1.011,1.244v3.99H775.69V550.868h5.155v7.023l5.908-7.023H793.1l-7.85,9.147Z" transform="translate(-583.392 263.24)" fill="#fff" fill-rule="evenodd"/>
    <path id="Path_21" data-name="Path 21" d="M895.537,555.194H890.2v13.94h-5.312v-13.94h-5.364v-4.328h16.013Z" transform="translate(-669.477 263.241)" fill="#fff" fill-rule="evenodd"/>
    <path id="Path_22" data-name="Path 22" d="M976.983,566.208h-6.814l-1.269,2.927h-5.545l8.991-18.267h2.487l9.017,18.267h-5.571l-1.3-2.927Zm-4.948-4.2h3.109l-1.555-3.6Z" transform="translate(-738.977 263.24)" fill="#fff" fill-rule="evenodd"/>
    <path id="Path_23" data-name="Path 23" d="M1100.815,550.867c5.675,0,7.618,3.343,7.618,6.97,0,5.286-3.446,7.385-8.395,7.385h-1.763v3.912h-5.311V550.867Zm-1.347,10.183h0c2.617,0,3.394-1.425,3.394-2.824a2.732,2.732,0,0,0-2.953-3.032h-1.633v5.856Z" transform="translate(-846.432 263.24)" fill="#fff" fill-rule="evenodd"/>
    <path id="Path_24" data-name="Path 24" d="M413.348,717.272h-4.655V706.4h4.3a5.458,5.458,0,0,1,5.474,5.443,5.335,5.335,0,0,1-5.118,5.427Zm-.184-2.02h0a3.319,3.319,0,0,0,3.127-3.407,3.371,3.371,0,0,0-3.3-3.423h-2.157v6.83Z" transform="translate(-279.13 134.292)" fill="#fff" fill-rule="evenodd"/>
    <rect id="Rectangle_6" data-name="Rectangle 6" width="2.22" height="10.869" transform="translate(153.094 840.694)" fill="#fff"/>
    <path id="Path_25" data-name="Path 25" d="M648.368,711.309v3.978a7.54,7.54,0,0,1-4.733,1.587,5.554,5.554,0,1,1,0-11.1,6.329,6.329,0,0,1,4.349,1.557l-1.389,1.542a4.414,4.414,0,0,0-2.959-1.033,3.538,3.538,0,0,0,0,7.076,4.53,4.53,0,0,0,2.529-.74v-1.018H643.4v-1.85Z" transform="translate(-469.13 134.812)" fill="#fff" fill-rule="evenodd"/>
    <rect id="Rectangle_7" data-name="Rectangle 7" width="2.22" height="10.869" transform="translate(193.117 840.694)" fill="#fff"/>
    <path id="Path_26" data-name="Path 26" d="M882.058,708.316H878.59v8.957h-2.222v-8.957h-3.453V706.4h9.142Z" transform="translate(-663.998 134.291)" fill="#fff" fill-rule="evenodd"/>
    <path id="Path_27" data-name="Path 27" d="M999.955,715.068H995.1l-.969,2.2H991.8l5.18-10.869h1.1l5.193,10.869h-2.328l-.987-2.2Zm-4.069-1.835h3.283l-1.649-3.591Z" transform="translate(-762.562 134.292)" fill="#fff" fill-rule="evenodd"/>
    <path id="Path_28" data-name="Path 28" d="M1143.93,715.423v1.85h-7.8V706.4h2.2v9.019Z" transform="translate(-882.219 134.291)" fill="#fff" fill-rule="evenodd"/>
  </g>
</svg>
