<svg xmlns="http://www.w3.org/2000/svg" width="163.976" height="35.53" viewBox="0 0 163.976 35.53">
  <g id="Group_83" data-name="Group 83" transform="translate(-84.501 -813.569)">
    <path id="Subtraction_34" data-name="Subtraction 34" d="M34.544,34.53H10.8l1.109-2.579a1.166,1.166,0,1,0-2.142-.921l-1.506,3.5H3.643A3.646,3.646,0,0,1,0,30.887V24.873l3.375-1.434A1.159,1.159,0,0,0,4,22.8a1.174,1.174,0,0,0,.085-.439,1.165,1.165,0,0,0-1.622-1.07L0,22.34V17.717l2.11-.043a1.164,1.164,0,0,0,1.141-1.16v-.03a1.172,1.172,0,0,0-1.166-1.142H2.063L0,15.385V10.824l2.883,1.087a1.158,1.158,0,0,0,.412.075,1.189,1.189,0,0,0,.481-.1A1.166,1.166,0,0,0,3.707,9.73L0,8.333V0H8.405L9.929,3.177a1.158,1.158,0,0,0,.665.6,1.174,1.174,0,0,0,.388.066,1.149,1.149,0,0,0,.5-.115,1.172,1.172,0,0,0,.662-1.05,1.157,1.157,0,0,0-.115-.506L10.992,0H15.25l.084,1.261A1.166,1.166,0,0,0,16.5,2.35l.07,0h.009a1.166,1.166,0,0,0,1.089-1.164c0-.029,0-.053,0-.075L17.587,0H30.9a3.647,3.647,0,0,1,3.643,3.643V34.529ZM5.822,26.352a1.162,1.162,0,0,0-.893.417L1.75,30.558a1.166,1.166,0,0,0,1.786,1.5l3.179-3.79a1.16,1.16,0,0,0,.272-.754c0-.033,0-.066,0-.1a1.168,1.168,0,0,0-1.161-1.064ZM18.874,3.087A14.429,14.429,0,0,0,4.233,17.26,14.411,14.411,0,0,0,18.874,31.394a15.087,15.087,0,0,0,5.28-.941,14.575,14.575,0,0,0,6.121-4.33l-6.13-5a6.169,6.169,0,0,1-9.776,1.269,7.18,7.18,0,0,1-1.9-5.134,7.189,7.189,0,0,1,1.9-5.179,6.24,6.24,0,0,1,4.5-1.811A6.153,6.153,0,0,1,24.146,13.4l6.13-5A14.765,14.765,0,0,0,18.874,3.087ZM2.7,1.509a1.166,1.166,0,0,0-.787,2.025L5.561,6.877a1.164,1.164,0,0,0,.787.306H6.4a1.165,1.165,0,0,0,.737-2.024L3.491,1.815A1.165,1.165,0,0,0,2.7,1.509Z" transform="translate(85.001 814.069)" fill="#989696" stroke="rgba(0,0,0,0)" stroke-miterlimit="10" stroke-width="1"/>
    <path id="Path_3" data-name="Path 3" d="M419.524,560.411l3.758,3.063a9.034,9.034,0,0,1-6.988,3.23,8.68,8.68,0,1,1,0-17.349,9.056,9.056,0,0,1,6.988,3.254l-3.758,3.064a3.792,3.792,0,0,0-3.23-1.915c-2.13,0-3.925,1.532-3.925,4.284a3.95,3.95,0,0,0,3.925,4.283A3.793,3.793,0,0,0,419.524,560.411Z" transform="translate(-281.377 264.494)" fill="#989696" fill-rule="evenodd"/>
    <path id="Path_4" data-name="Path 4" d="M534.042,563.861v3.877H521.167V550.866h4.905v13Z" transform="translate(-377.252 263.222)" fill="#989696" fill-rule="evenodd"/>
    <rect id="Rectangle_2" data-name="Rectangle 2" width="4.907" height="16.871" transform="translate(158.802 814.088)" fill="#989696"/>
    <path id="Path_5" data-name="Path 5" d="M674.047,560.411l3.758,3.063a9.034,9.034,0,0,1-6.988,3.23,8.68,8.68,0,1,1,0-17.349,9.056,9.056,0,0,1,6.988,3.254l-3.758,3.064a3.792,3.792,0,0,0-3.23-1.915c-2.13,0-3.924,1.532-3.924,4.284a3.95,3.95,0,0,0,3.924,4.283A3.793,3.793,0,0,0,674.047,560.411Z" transform="translate(-495.718 264.494)" fill="#989696" fill-rule="evenodd"/>
    <path id="Path_6" data-name="Path 6" d="M792.034,567.739h-6.414l-4.236-4.834-.934,1.149v3.685H775.69V550.868h4.762v6.486l5.457-6.486h5.863l-7.25,8.448Z" transform="translate(-591.59 263.22)" fill="#989696" fill-rule="evenodd"/>
    <path id="Path_7" data-name="Path 7" d="M894.313,554.863h-4.93v12.875h-4.906V554.863h-4.954v-4h14.79Z" transform="translate(-679.031 263.221)" fill="#989696" fill-rule="evenodd"/>
    <path id="Path_8" data-name="Path 8" d="M975.941,565.035h-6.293l-1.172,2.7h-5.121l8.3-16.871h2.3l8.328,16.871h-5.145l-1.2-2.7Zm-4.57-3.877h2.872l-1.436-3.327Z" transform="translate(-749.627 263.22)" fill="#989696" fill-rule="evenodd"/>
    <path id="Path_9" data-name="Path 9" d="M1100.215,550.867c5.241,0,7.036,3.088,7.036,6.437,0,4.883-3.183,6.821-7.753,6.821h-1.628v3.614h-4.906V550.867Zm-1.244,9.405h0c2.417,0,3.134-1.316,3.134-2.608a2.523,2.523,0,0,0-2.728-2.8h-1.508v5.408Z" transform="translate(-858.774 263.221)" fill="#989696" fill-rule="evenodd"/>
    <path id="Path_10" data-name="Path 10" d="M412.993,716.442h-4.3V706.4h3.971a5.041,5.041,0,0,1,5.055,5.027,4.927,4.927,0,0,1-4.727,5.012Zm-.17-1.865h0a3.065,3.065,0,0,0,2.888-3.147,3.113,3.113,0,0,0-3.047-3.161h-1.992v6.308Z" transform="translate(-282.535 132.24)" fill="#989696" fill-rule="evenodd"/>
    <rect id="Rectangle_3" data-name="Rectangle 3" width="2.05" height="10.039" transform="translate(147.891 838.643)" fill="#989696"/>
    <path id="Path_11" data-name="Path 11" d="M647.566,710.886v3.674a6.964,6.964,0,0,1-4.371,1.466,5.129,5.129,0,1,1,0-10.251,5.846,5.846,0,0,1,4.017,1.438l-1.283,1.424a4.076,4.076,0,0,0-2.733-.954,3.268,3.268,0,0,0,0,6.535,4.184,4.184,0,0,0,2.335-.684v-.94h-2.549v-1.709Z" transform="translate(-475.528 132.769)" fill="#989696" fill-rule="evenodd"/>
    <rect id="Rectangle_4" data-name="Rectangle 4" width="2.051" height="10.039" transform="translate(184.856 838.643)" fill="#989696"/>
    <path id="Path_12" data-name="Path 12" d="M881.359,708.17h-3.2v8.272H876.1V708.17h-3.189V706.4h8.444Z" transform="translate(-673.467 132.24)" fill="#989696" fill-rule="evenodd"/>
    <path id="Path_13" data-name="Path 13" d="M999.332,714.406h-4.485l-.9,2.036H991.8l4.784-10.039H997.6l4.8,10.039h-2.15l-.911-2.036Zm-3.758-1.695h3.032l-1.523-3.317Z" transform="translate(-773.583 132.24)" fill="#989696" fill-rule="evenodd"/>
    <path id="Path_14" data-name="Path 14" d="M1143.333,714.734v1.709h-7.2V706.4h2.035v8.33Z" transform="translate(-895.125 132.24)" fill="#989696" fill-rule="evenodd"/>
    <path id="Path_17" data-name="Path 17" d="M419.524,560.411l3.758,3.063a9.034,9.034,0,0,1-6.988,3.23,8.68,8.68,0,1,1,0-17.349,9.056,9.056,0,0,1,6.988,3.254l-3.758,3.064a3.792,3.792,0,0,0-3.23-1.915c-2.13,0-3.925,1.532-3.925,4.284a3.95,3.95,0,0,0,3.925,4.283A3.793,3.793,0,0,0,419.524,560.411Z" transform="translate(-281.377 264.494)" fill="#989696" fill-rule="evenodd"/>
    <path id="Path_18" data-name="Path 18" d="M534.042,563.861v3.877H521.167V550.866h4.905v13Z" transform="translate(-377.252 263.222)" fill="#989696" fill-rule="evenodd"/>
    <rect id="Rectangle_5" data-name="Rectangle 5" width="4.907" height="16.871" transform="translate(158.802 814.088)" fill="#989696"/>
    <path id="Path_19" data-name="Path 19" d="M674.047,560.411l3.758,3.063a9.034,9.034,0,0,1-6.988,3.23,8.68,8.68,0,1,1,0-17.349,9.056,9.056,0,0,1,6.988,3.254l-3.758,3.064a3.792,3.792,0,0,0-3.23-1.915c-2.13,0-3.924,1.532-3.924,4.284a3.95,3.95,0,0,0,3.924,4.283A3.793,3.793,0,0,0,674.047,560.411Z" transform="translate(-495.718 264.494)" fill="#989696" fill-rule="evenodd"/>
    <path id="Path_20" data-name="Path 20" d="M792.034,567.739h-6.414l-4.236-4.834-.934,1.149v3.685H775.69V550.868h4.762v6.486l5.457-6.486h5.863l-7.25,8.448Z" transform="translate(-591.59 263.22)" fill="#989696" fill-rule="evenodd"/>
    <path id="Path_21" data-name="Path 21" d="M894.313,554.863h-4.93v12.875h-4.906V554.863h-4.954v-4h14.79Z" transform="translate(-679.031 263.221)" fill="#989696" fill-rule="evenodd"/>
    <path id="Path_22" data-name="Path 22" d="M975.941,565.035h-6.293l-1.172,2.7h-5.121l8.3-16.871h2.3l8.328,16.871h-5.145l-1.2-2.7Zm-4.57-3.877h2.872l-1.436-3.327Z" transform="translate(-749.627 263.22)" fill="#989696" fill-rule="evenodd"/>
    <path id="Path_23" data-name="Path 23" d="M1100.215,550.867c5.241,0,7.036,3.088,7.036,6.437,0,4.883-3.183,6.821-7.753,6.821h-1.628v3.614h-4.906V550.867Zm-1.244,9.405h0c2.417,0,3.134-1.316,3.134-2.608a2.523,2.523,0,0,0-2.728-2.8h-1.508v5.408Z" transform="translate(-858.774 263.221)" fill="#989696" fill-rule="evenodd"/>
    <path id="Path_24" data-name="Path 24" d="M412.993,716.442h-4.3V706.4h3.971a5.041,5.041,0,0,1,5.055,5.027,4.927,4.927,0,0,1-4.727,5.012Zm-.17-1.865h0a3.065,3.065,0,0,0,2.888-3.147,3.113,3.113,0,0,0-3.047-3.161h-1.992v6.308Z" transform="translate(-282.535 132.24)" fill="#989696" fill-rule="evenodd"/>
    <rect id="Rectangle_6" data-name="Rectangle 6" width="2.05" height="10.039" transform="translate(147.891 838.643)" fill="#989696"/>
    <path id="Path_25" data-name="Path 25" d="M647.566,710.886v3.674a6.964,6.964,0,0,1-4.371,1.466,5.129,5.129,0,1,1,0-10.251,5.846,5.846,0,0,1,4.017,1.438l-1.283,1.424a4.076,4.076,0,0,0-2.733-.954,3.268,3.268,0,0,0,0,6.535,4.184,4.184,0,0,0,2.335-.684v-.94h-2.549v-1.709Z" transform="translate(-475.528 132.769)" fill="#989696" fill-rule="evenodd"/>
    <rect id="Rectangle_7" data-name="Rectangle 7" width="2.051" height="10.039" transform="translate(184.856 838.643)" fill="#989696"/>
    <path id="Path_26" data-name="Path 26" d="M881.359,708.17h-3.2v8.272H876.1V708.17h-3.189V706.4h8.444Z" transform="translate(-673.467 132.24)" fill="#989696" fill-rule="evenodd"/>
    <path id="Path_27" data-name="Path 27" d="M999.332,714.406h-4.485l-.9,2.036H991.8l4.784-10.039H997.6l4.8,10.039h-2.15l-.911-2.036Zm-3.758-1.695h3.032l-1.523-3.317Z" transform="translate(-773.583 132.24)" fill="#989696" fill-rule="evenodd"/>
    <path id="Path_28" data-name="Path 28" d="M1143.333,714.734v1.709h-7.2V706.4h2.035v8.33Z" transform="translate(-895.125 132.24)" fill="#989696" fill-rule="evenodd"/>
  </g>
</svg>
