<svg xmlns="http://www.w3.org/2000/svg" width="134" height="134" viewBox="0 0 134 134">
  <g id="Group_229" data-name="Group 229" transform="translate(-942 -71.618)">
    <rect id="Rectangle_8" data-name="Rectangle 8" width="134" height="134" transform="translate(942 71.618)" fill="none"/>
    <rect id="Rectangle_9" data-name="Rectangle 9" width="118" height="118" rx="52" transform="translate(950 79.618)" fill="#fff"/>
    <path id="Subtraction_35" data-name="Subtraction 35" d="M117.942,117.9h0l-81.067,0,3.787-8.8a3.98,3.98,0,1,0-7.312-3.144l-5.142,11.948H12.437A12.45,12.45,0,0,1,0,105.459V84.923l11.525-4.895a3.957,3.957,0,0,0,2.134-2.172,4.008,4.008,0,0,0,.289-1.5A3.978,3.978,0,0,0,8.411,72.7L0,76.274,0,60.489l7.205-.148a3.974,3.974,0,0,0,3.9-3.959v-.1a4,4,0,0,0-3.979-3.9h-.08L0,52.528,0,36.957l9.844,3.712a3.953,3.953,0,0,0,1.406.258,4.06,4.06,0,0,0,1.641-.352,3.982,3.982,0,0,0-.236-7.352L0,28.45,0,0,28.7,0l5.2,10.847a3.952,3.952,0,0,0,2.269,2.035,4.009,4.009,0,0,0,1.326.226,3.924,3.924,0,0,0,1.715-.393,4,4,0,0,0,2.261-3.584A3.951,3.951,0,0,0,41.079,7.4L37.53,0,52.067,0l.287,4.307A3.98,3.98,0,0,0,56.32,8.025c.078,0,.158,0,.238-.008l.031,0A3.98,3.98,0,0,0,60.307,4.04c0-.1,0-.18-.01-.257L60.048,0H105.5a12.451,12.451,0,0,1,12.437,12.437V117.9ZM19.877,89.974A3.967,3.967,0,0,0,16.829,91.4L5.974,104.334a3.98,3.98,0,0,0,6.1,5.118L22.926,96.513a3.961,3.961,0,0,0,.93-2.573c0-.113,0-.226-.013-.333a3.989,3.989,0,0,0-3.963-3.633ZM64.442,10.54c-27.565,0-49.99,21.708-49.99,48.391,0,26.61,22.425,48.259,49.99,48.259a51.513,51.513,0,0,0,18.027-3.214,49.762,49.762,0,0,0,20.9-14.783L82.44,72.129c-4.149,6.777-10.71,10.664-18,10.664a21.2,21.2,0,0,1-15.38-6.333C44.822,72.1,42.58,66.034,42.58,58.931c0-7.255,2.241-13.37,6.482-17.682a21.3,21.3,0,0,1,15.38-6.182c7.289,0,13.849,3.888,18,10.667L103.369,28.67A50.412,50.412,0,0,0,64.442,10.54ZM9.228,5.151a3.98,3.98,0,0,0-2.688,6.915L18.985,23.482a3.975,3.975,0,0,0,2.687,1.046c.058,0,.118,0,.174,0a3.979,3.979,0,0,0,2.517-6.912L11.919,6.2A3.977,3.977,0,0,0,9.228,5.151Z" transform="translate(949.838 79.861)" fill="#ffc317" stroke="rgba(0,0,0,0)" stroke-miterlimit="10" stroke-width="1"/>
  </g>
</svg>
