<svg width="371" height="369" viewBox="0 0 371 369" fill="none" xmlns="http://www.w3.org/2000/svg">
<g clip-path="url(#clip0_566_41)">
<path d="M0 92.25C0 67.7838 9.77185 44.3196 27.1658 27.0194C44.5598 9.71917 68.1512 0 92.75 0L278.25 0C302.849 0 326.44 9.71917 343.834 27.0194C361.228 44.3196 371 67.7838 371 92.25V276.75C371 301.216 361.228 324.68 343.834 341.981C326.44 359.281 302.849 369 278.25 369H92.75C68.1512 369 44.5598 359.281 27.1658 341.981C9.77185 324.68 0 301.216 0 276.75V92.25Z" fill="#E8F0FE"/>
<mask id="mask0_566_41" style="mask-type:alpha" maskUnits="userSpaceOnUse" x="46" y="46" width="279" height="277">
<path d="M46.375 46.125H324.625V322.875H46.375V46.125Z" fill="#D9D9D9"/>
</mask>
<g mask="url(#mask0_566_41)">
<path d="M174.776 294.047C172.168 294.047 169.536 293.528 166.904 292.479C164.239 291.416 161.821 289.823 159.797 287.797L81.4697 209.892C79.4359 207.924 77.8505 205.545 76.8206 202.915C74.8619 197.881 74.8619 192.302 76.8206 187.267C77.7944 184.65 79.348 182.298 81.4697 180.199L180.828 81.2031C184.818 77.2814 190.175 75.0425 195.784 74.9531H274.39C280.245 74.9531 285.23 77.0057 289.322 81.1108C293.415 85.2159 295.467 90.1513 295.467 95.9054V174.099C295.467 176.912 294.934 179.588 293.89 182.136C292.847 184.696 291.34 186.91 289.357 188.801L189.709 287.797C187.622 289.873 185.257 291.441 182.637 292.49C180.017 293.528 177.408 294.047 174.776 294.047ZM172.191 275.643C172.933 276.381 173.814 276.75 174.811 276.75C175.301 276.753 175.786 276.657 176.236 276.466C176.687 276.276 177.094 275.996 177.431 275.643L277.068 176.474C277.42 176.134 277.687 175.715 277.845 175.252C277.993 174.825 278.071 174.377 278.076 173.926V95.9054C278.076 94.8676 277.729 94.0258 277.01 93.3685C276.662 93.0356 276.252 92.7745 275.802 92.6003C275.352 92.4261 274.872 92.3423 274.39 92.3538H194.509L93.875 192.526C93.5181 192.86 93.2342 193.264 93.0408 193.713C92.8473 194.161 92.7485 194.644 92.7504 195.132C92.7504 196.135 93.1214 197 93.8634 197.738L172.191 275.643ZM248.756 135.827C252.814 135.827 256.257 134.42 259.098 131.618C261.938 128.816 263.352 125.414 263.352 121.413C263.352 117.377 261.938 113.952 259.109 111.127C257.773 109.754 256.168 108.669 254.393 107.939C252.618 107.209 250.711 106.85 248.791 106.883C244.756 106.883 241.324 108.29 238.495 111.115C235.678 113.929 234.264 117.342 234.264 121.366C234.264 125.391 235.667 128.804 238.484 131.618C241.301 134.42 244.733 135.827 248.756 135.827Z" fill="#1967D2"/>
</g>
</g>
<defs>
<clipPath id="clip0_566_41">
<rect width="371" height="369" fill="white"/>
</clipPath>
</defs>
</svg>
