<svg width="98" height="98" viewBox="0 0 98 98" fill="none" xmlns="http://www.w3.org/2000/svg">
<path d="M97.0039 89.353V7.649C97.0039 3.42457 93.5793 0 89.3549 0L7.64991 0C3.42548 0 0.000907898 3.42457 0.000907898 7.649V89.353C0.000907898 93.5774 3.42548 97.002 7.64991 97.002H89.3549C93.5793 97.002 97.0039 93.5774 97.0039 89.353Z" fill="black"/>
<path d="M71.3621 24H25.6379C24.181 24 23 25.181 23 26.6379C23 28.0948 24.181 29.2759 25.6379 29.2759V65.3276C25.6379 65.8132 26.0316 66.2069 26.5172 66.2069H36.9977L31.1064 73.5711L32.4798 74.6703L39.2505 66.2069H47.6207V68.1273C46.2471 68.6129 45.5273 70.1202 46.013 71.4936C46.4986 72.8672 48.0058 73.5871 49.3793 73.1014C50.7528 72.6156 51.4727 71.1085 50.987 69.735C50.7215 68.9838 50.1305 68.3929 49.3793 68.1273V66.2069H57.7495L64.5202 74.6703L65.8936 73.5711L60.0023 66.2069H70.4828C70.9684 66.2069 71.3621 65.8132 71.3621 65.3276V29.2759C72.819 29.2759 74 28.0948 74 26.6379C74 25.181 72.819 24 71.3621 24ZM48.5 71.4828C48.0144 71.4828 47.6207 71.089 47.6207 70.6034C47.6207 70.1179 48.0144 69.7241 48.5 69.7241C48.9856 69.7241 49.3793 70.1179 49.3793 70.6034C49.3793 71.089 48.9856 71.4828 48.5 71.4828ZM69.6034 64.4483H27.3966V29.2759H69.6034V64.4483ZM71.3621 27.5172H25.6379C25.1523 27.5172 24.7586 27.1235 24.7586 26.6379C24.7586 26.1523 25.1523 25.7586 25.6379 25.7586H71.3621C71.8477 25.7586 72.2414 26.1523 72.2414 26.6379C72.2414 27.1235 71.8477 27.5172 71.3621 27.5172Z" fill="white"/>
<path d="M44.983 52.1379H30.9141V53.8966H44.983V52.1379Z" fill="white"/>
<path d="M44.983 55.6553H30.9141V57.4139H44.983V55.6553Z" fill="white"/>
<path d="M41.4658 59.1724H30.9141V60.931H41.4658V59.1724Z" fill="white"/>
<path d="M44.9837 48.6206H37.9492V50.3792H44.9837V48.6206Z" fill="white"/>
<path d="M66.0865 36.3103H52.0176V38.0689H66.0865V36.3103Z" fill="white"/>
<path d="M66.0865 39.8274H52.0176V41.586H66.0865V39.8274Z" fill="white"/>
<path d="M62.5693 43.3447H52.0176V45.1033H62.5693V43.3447Z" fill="white"/>
<path d="M66.0872 32.793H59.0527V34.5516H66.0872V32.793Z" fill="white"/>
<path d="M37.9485 31.9136C34.0635 31.9136 30.9141 35.063 30.9141 38.9481C30.9185 42.8313 34.0653 45.9781 37.9485 45.9825C41.8336 45.9825 44.983 42.8331 44.983 38.9481C44.983 35.063 41.8336 31.9136 37.9485 31.9136ZM38.8542 33.7566C40.1972 33.9916 41.3967 34.738 42.2009 35.8388L38.8279 37.5236L38.8542 33.7566ZM34.908 34.6454C35.5615 34.1845 36.3115 33.8788 37.1009 33.7512L37.0692 38.5963L33.6399 41.979C31.9649 39.6037 32.5327 36.3203 34.908 34.6454ZM39.4867 43.9943C38.9881 44.1464 38.4699 44.2238 37.9485 44.2239C36.8429 44.224 35.7657 43.8744 34.871 43.225L38.4832 39.6638L42.9931 37.4084C43.8434 40.1954 42.2735 43.1439 39.4867 43.9943Z" fill="white"/>
<path d="M52.0184 56.5347H50.2598V60.9312H52.0184V56.5347Z" fill="white"/>
<path d="M66.0867 54.7759H64.3281V60.9311H66.0867V54.7759Z" fill="white"/>
<path d="M55.536 53.8965H53.7773V60.931H55.536V53.8965Z" fill="white"/>
<path d="M59.0496 50.3796H57.291V60.9314H59.0496V50.3796Z" fill="white"/>
<path d="M62.5692 53.0171H60.8105V60.9309H62.5692V53.0171Z" fill="white"/>
<path d="M36.1922 48.6208H34.4336V50.3795H36.1922V48.6208Z" fill="white"/>
<path d="M57.2918 32.793H55.5332V34.5516H57.2918V32.793Z" fill="white"/>
</svg>
