<svg width="98" height="98" viewBox="0 0 98 98" fill="none" xmlns="http://www.w3.org/2000/svg">
<path d="M97.0039 89.353V7.649C97.0039 3.42457 93.5793 0 89.3549 0L7.64991 0C3.42548 0 0.000907898 3.42457 0.000907898 7.649V89.353C0.000907898 93.5774 3.42548 97.002 7.64991 97.002H89.3549C93.5793 97.002 97.0039 93.5774 97.0039 89.353Z" fill="black"/>
<path d="M74.5562 50.5688C74.0436 50.0573 73.3491 49.7701 72.625 49.7701C71.9009 49.7701 71.2064 50.0573 70.6938 50.5688L69.125 52.1376L67.9937 51.0063L66.7563 52.2437L67.8876 53.375L63.875 57.3876V51.1124L64.1313 51.3687C64.2126 51.45 64.309 51.5144 64.4152 51.5584C64.5213 51.6024 64.6351 51.625 64.75 51.625C64.8649 51.625 64.9787 51.6024 65.0849 51.5584C65.191 51.5144 65.2875 51.45 65.3687 51.3687L71.4937 45.2437C71.575 45.1625 71.6394 45.066 71.6834 44.9599C71.7274 44.8537 71.75 44.7399 71.75 44.625C71.75 44.5101 71.7274 44.3963 71.6834 44.2902C71.6394 44.184 71.575 44.0875 71.4937 44.0063L68.4126 40.9252L69.8097 37.6653C70.1478 36.8765 70.1691 35.9877 69.8693 35.1836C69.5694 34.3794 68.9715 33.7216 68.1995 33.3466C67.4275 32.9717 66.5407 32.9084 65.7233 33.1699C64.9059 33.4314 64.2205 33.9977 63.8095 34.7511L63.2551 35.7677L62.7437 35.2563C62.6069 35.1194 62.4283 35.032 62.2362 35.008L58.1144 29.1197C58.008 28.9683 57.8858 28.8287 57.75 28.7031V25.375C57.7492 24.679 57.4724 24.0118 56.9803 23.5197C56.4882 23.0276 55.821 22.7508 55.125 22.75H42.875C42.1791 22.7508 41.5118 23.0276 41.0197 23.5197C40.5276 24.0118 40.2508 24.679 40.25 25.375V28.7031C40.1142 28.8287 39.9921 28.9683 39.8857 29.1197L34.5995 36.6713C34.2899 37.1122 34.1242 37.6379 34.125 38.1766V39.8876L29.4937 35.2563C29.3296 35.0922 29.1071 35 28.875 35C28.643 35 28.4204 35.0922 28.2563 35.2563L23.0063 40.5063C22.925 40.5875 22.8606 40.684 22.8166 40.7902C22.7726 40.8963 22.75 41.0101 22.75 41.125C22.75 41.2399 22.7726 41.3537 22.8166 41.4598C22.8606 41.566 22.925 41.6625 23.0063 41.7437L34.125 52.8624V55.6376L26.8687 48.3813L25.6313 49.6187L38.1376 62.125L36.3125 63.9501L24.2437 51.8813L23.0063 53.1187L35.0751 65.1875L33.5063 66.7563L34.125 67.375V72.625C34.1258 73.3209 34.4026 73.9882 34.8947 74.4803C35.3868 74.9724 36.0541 75.2492 36.75 75.25H61.25C61.946 75.2492 62.6132 74.9724 63.1053 74.4803C63.5974 73.9882 63.8742 73.3209 63.875 72.625V65.1124L71.75 57.2374L72.8813 58.3687L74.1187 57.1313L72.9874 56L74.5562 54.4312C75.0677 53.9186 75.3549 53.2241 75.3549 52.5C75.3549 51.7759 75.0677 51.0814 74.5562 50.5688ZM65.3458 35.5892C65.5414 35.2306 65.8675 34.9611 66.2565 34.8367C66.6455 34.7122 67.0675 34.7423 67.4349 34.9207C67.8023 35.0992 68.0869 35.4122 68.2296 35.7949C68.3723 36.1776 68.3621 36.6006 68.2012 36.976L67.0799 39.5924L64.5449 37.0575L65.3458 35.5892ZM62.3816 37.369L59.6069 42.456L61.1432 43.294L63.6714 38.6588L69.6376 44.625L64.75 49.5126L57.2374 42L62.125 37.1124L62.3816 37.369ZM42 25.375C42.0003 25.143 42.0926 24.9206 42.2566 24.7566C42.4206 24.5925 42.643 24.5003 42.875 24.5H55.125C55.357 24.5003 55.5794 24.5925 55.7434 24.7566C55.9075 24.9206 55.9998 25.143 56 25.375V28.0011C55.9879 28.0009 55.976 28 55.9639 28H42.0362C42.0241 28 42.0121 28.0009 42 28.0011V25.375ZM24.8625 41.125L28.875 37.1125L30.2626 38.5L28.2563 40.5063L29.4937 41.7437L31.5 39.7374L32.8876 41.125L30.8813 43.1313L32.1187 44.3687L34.125 42.3624L35.5126 43.75L33.5063 45.7563L34.7437 46.9937L36.75 44.9874L38.1376 46.375L36.1313 48.3813L37.3687 49.6187L39.375 47.6124L40.7625 49L36.75 53.0125L24.8625 41.125ZM39.375 63.3624L40.5063 64.4937C40.5876 64.575 40.684 64.6394 40.7902 64.6834C40.8963 64.7274 41.0101 64.75 41.125 64.75H43.0668L43.885 68.0225L41.7437 65.8813L40.5063 67.1187L43.0781 69.6904L39.375 69.2275V67.375C39.375 67.2601 39.3524 67.1463 39.3084 67.0402C39.2644 66.934 39.2 66.8375 39.1187 66.7563L37.5499 65.1875L39.375 63.3624ZM49.875 73.5H36.75C36.518 73.4997 36.2956 73.4075 36.1316 73.2434C35.9676 73.0794 35.8753 72.857 35.875 72.625V66.8624L36.3125 66.4249L37.625 67.7375V70C37.625 70.2133 37.7029 70.4192 37.844 70.5791C37.9852 70.739 38.1799 70.8418 38.3915 70.8682L45.3915 71.7432C45.5326 71.7609 45.6758 71.7438 45.8088 71.6937C45.9418 71.6435 46.0606 71.5617 46.1549 71.4553C46.2492 71.3489 46.3161 71.2211 46.3499 71.083C46.3837 70.9449 46.3834 70.8007 46.3489 70.6628L44.5989 63.6628C44.5516 63.4735 44.4423 63.3054 44.2885 63.1853C44.1347 63.0652 43.9452 63 43.75 63H41.4875L40.6125 62.125L41.7437 60.9937L40.5063 59.7563L39.375 60.8876L35.875 57.3876V54.6124L36.1313 54.8687C36.2126 54.95 36.309 55.0144 36.4152 55.0584C36.5213 55.1024 36.6351 55.125 36.75 55.125C36.8649 55.125 36.9787 55.1024 37.0849 55.0584C37.191 55.0144 37.2875 54.95 37.3687 54.8687L42.6187 49.6187C42.7 49.5375 42.7644 49.441 42.8084 49.3348C42.8524 49.2287 42.875 49.1149 42.875 49C42.875 48.8851 42.8524 48.7713 42.8084 48.6652C42.7644 48.559 42.7 48.4625 42.6187 48.3813L35.875 41.6376V38.5H49.875V73.5ZM50.2988 36.75H36.6806L41.3193 30.1233C41.4 30.008 41.5073 29.914 41.6321 29.849C41.7569 29.784 41.8955 29.7501 42.0362 29.75H55.1944L50.3495 36.6713C50.3315 36.697 50.3157 36.7238 50.2988 36.75ZM62.125 72.625C62.1248 72.857 62.0325 73.0794 61.8684 73.2434C61.7044 73.4075 61.482 73.4997 61.25 73.5H51.625V38.1766C51.6247 37.9971 51.68 37.8218 51.7832 37.6749L56.875 30.4008L60.7813 35.9813L55.3813 41.3813C55.3001 41.4625 55.2356 41.559 55.1916 41.6652C55.1476 41.7713 55.125 41.8851 55.125 42C55.125 42.1149 55.1476 42.2287 55.1916 42.3348C55.2356 42.441 55.3001 42.5375 55.3813 42.6187L62.125 49.3624V59.1376L56.2563 65.0063C56.1898 65.0728 56.1345 65.1496 56.0924 65.2337L53.4674 70.4837C53.3853 70.6479 53.3569 70.8339 53.3863 71.0152C53.4157 71.1964 53.5014 71.3639 53.6313 71.4937C53.7612 71.6236 53.9286 71.7093 54.1099 71.7387C54.2911 71.7681 54.4771 71.7397 54.6413 71.6576L59.8913 69.0326C59.9754 68.9906 60.0522 68.9352 60.1187 68.8687L62.125 66.8624V72.625ZM58.9817 67.5309L56.2066 68.9184L57.5941 66.1433L69.125 54.6124L70.5126 56L58.9817 67.5309ZM73.3188 53.1938L71.75 54.7626L70.3624 53.375L71.9312 51.8062C72.1152 51.6222 72.3648 51.5188 72.625 51.5188C72.8852 51.5188 73.1348 51.6222 73.3188 51.8062C73.5028 51.9902 73.6062 52.2398 73.6062 52.5C73.6062 52.7602 73.5028 53.0098 73.3188 53.1938Z" fill="white"/>
<path d="M56 52.5C56.696 52.4992 57.3632 52.2224 57.8553 51.7303C58.3474 51.2382 58.6242 50.571 58.625 49.875V49.5298C58.6255 49.0115 58.4721 48.5048 58.1841 48.0738L56.728 45.8896C56.6481 45.7698 56.5399 45.6715 56.4129 45.6035C56.2859 45.5356 56.144 45.5 56 45.5C55.856 45.5 55.7141 45.5356 55.5871 45.6035C55.4601 45.6715 55.3519 45.7698 55.272 45.8896L53.8158 48.0738C53.5279 48.5048 53.3745 49.0116 53.375 49.5298V49.875C53.3758 50.571 53.6526 51.2382 54.1447 51.7303C54.6368 52.2224 55.304 52.4992 56 52.5ZM55.125 49.5298C55.1249 49.3571 55.176 49.1882 55.2719 49.0445L56 47.9524L56.728 49.0444C56.824 49.1881 56.8751 49.3571 56.875 49.5298V49.875C56.875 50.1071 56.7828 50.3296 56.6187 50.4937C56.4546 50.6578 56.2321 50.75 56 50.75C55.7679 50.75 55.5454 50.6578 55.3813 50.4937C55.2172 50.3296 55.125 50.1071 55.125 49.875V49.5298Z" fill="white"/>
</svg>
