<svg width="98" height="98" viewBox="0 0 98 98" fill="none" xmlns="http://www.w3.org/2000/svg">
<g clip-path="url(#clip0_9_811)">
<path d="M97.004 89.353V7.649C97.004 3.42457 93.5794 0 89.355 0H7.64998C3.42555 0 0.000976562 3.42457 0.000976562 7.649V89.353C0.000976562 93.5774 3.42555 97.002 7.64998 97.002H89.355C93.5794 97.002 97.004 93.5774 97.004 89.353Z" fill="black"/>
<path d="M68.3125 28.75H53.2313C52.7136 28.75 52.2938 29.1697 52.2938 29.6875C52.2938 30.2053 52.7136 30.625 53.2313 30.625H68.3125C69.8633 30.625 71.125 31.8867 71.125 33.4375V56.125H26.875V33.4375C26.875 31.8867 28.1367 30.625 29.6875 30.625H44.7938C45.3115 30.625 45.7313 30.2053 45.7313 29.6875C45.7313 29.1697 45.3115 28.75 44.7938 28.75H29.6875C27.1028 28.75 25 30.8528 25 33.4375V64.5625C25 67.1472 27.1028 69.25 29.6875 69.25H68.3125C70.8972 69.25 73 67.1472 73 64.5625V33.4375C73 30.8528 70.8972 28.75 68.3125 28.75ZM68.3125 67.375H29.6875C28.1367 67.375 26.875 66.1133 26.875 64.5625V58H71.125V64.5625C71.125 66.1133 69.8633 67.375 68.3125 67.375Z" fill="white"/>
<path d="M34.3682 59.875C32.8174 59.875 31.5557 61.1367 31.5557 62.6875C31.5557 64.2383 32.8174 65.5 34.3682 65.5C35.919 65.5 37.1807 64.2383 37.1807 62.6875C37.1807 61.1367 35.919 59.875 34.3682 59.875ZM34.3682 63.625C33.8512 63.625 33.4307 63.2044 33.4307 62.6875C33.4307 62.1706 33.8512 61.75 34.3682 61.75C34.8851 61.75 35.3057 62.1706 35.3057 62.6875C35.3057 63.2044 34.885 63.625 34.3682 63.625Z" fill="white"/>
<path d="M65.5071 61.75H42.1553C41.6375 61.75 41.2178 62.1697 41.2178 62.6875C41.2178 63.2053 41.6375 63.625 42.1553 63.625H65.5071C66.0248 63.625 66.4446 63.2053 66.4446 62.6875C66.4446 62.1697 66.0249 61.75 65.5071 61.75Z" fill="white"/>
<path d="M44.208 40.5322V46.2178C44.208 47.1845 44.7078 48.0501 45.5449 48.5333C45.9635 48.775 46.4227 48.8959 46.8819 48.8959C47.3409 48.8959 47.8001 48.775 48.2187 48.5333L53.1425 45.6906C53.9796 45.2073 54.4794 44.3416 54.4794 43.375C54.4794 42.4085 53.9796 41.5428 53.1425 41.0595L48.2187 38.2167C47.3817 37.7334 46.3823 37.7334 45.545 38.2167C44.7078 38.7 44.208 39.5657 44.208 40.5322ZM46.083 40.5322C46.083 40.116 46.3624 39.9098 46.4824 39.8405C46.5554 39.7984 46.7015 39.7306 46.8859 39.7306C47.0049 39.7306 47.1399 39.7589 47.2812 39.8405L52.205 42.6832C52.5654 42.8914 52.6044 43.2364 52.6044 43.375C52.6044 43.5137 52.5654 43.8587 52.205 44.0668L47.2812 46.9096C46.9207 47.1175 46.6026 46.9789 46.4825 46.9096C46.3625 46.8402 46.0831 46.6341 46.0831 46.2178V40.5322H46.083Z" fill="white"/>
<path d="M49.0122 30.625C49.2588 30.625 49.5006 30.5247 49.675 30.3503C49.8493 30.1759 49.9497 29.9341 49.9497 29.6875C49.9497 29.4409 49.8494 29.1991 49.675 29.0247C49.5006 28.8503 49.2588 28.75 49.0122 28.75C48.7656 28.75 48.5238 28.8503 48.3485 29.0247C48.1741 29.1991 48.0747 29.4409 48.0747 29.6875C48.0747 29.9341 48.1741 30.1759 48.3485 30.3503C48.5238 30.5247 48.7656 30.625 49.0122 30.625Z" fill="white"/>
</g>
<defs>
<clipPath id="clip0_9_811">
<rect width="98" height="98" fill="white"/>
</clipPath>
</defs>
</svg>
