<svg width="369" height="369" viewBox="0 0 369 369" fill="none" xmlns="http://www.w3.org/2000/svg">
<g clip-path="url(#clip0_566_40)">
<path d="M0 92.25C0 41.3017 41.3017 0 92.25 0H276.75C327.699 0 369 41.3017 369 92.25V276.75C369 327.699 327.699 369 276.75 369H92.25C41.3017 369 0 327.699 0 276.75V92.25Z" fill="#F1F3F4"/>
<mask id="mask0_566_40" style="mask-type:luminance" maskUnits="userSpaceOnUse" x="46" y="46" width="277" height="277">
<path d="M46.125 46.125H322.875V322.875H46.125V46.125Z" fill="#D9D9D9"/>
</mask>
<g mask="url(#mask0_566_40)">
<path d="M115.313 272.314C110.192 272.314 105.807 270.49 102.159 266.842C98.5113 263.194 96.6875 258.81 96.6875 253.688C96.6875 248.565 98.5113 244.181 102.159 240.534C105.807 236.885 110.192 235.062 115.313 235.062C120.435 235.062 124.819 236.885 128.468 240.534C132.115 244.181 133.94 248.565 133.94 253.688C133.94 258.81 132.115 263.194 128.468 266.842C124.819 270.49 120.435 272.314 115.313 272.314ZM184.501 272.314C179.378 272.314 174.994 270.49 171.347 266.842C167.698 263.194 165.875 258.81 165.875 253.688C165.875 248.565 167.698 244.181 171.347 240.534C174.994 236.885 179.378 235.062 184.501 235.062C189.623 235.062 194.007 236.885 197.655 240.534C201.303 244.181 203.127 248.565 203.127 253.688C203.127 258.81 201.303 263.194 197.655 266.842C194.007 270.49 189.623 272.314 184.501 272.314ZM253.688 272.314C248.566 272.314 244.182 270.49 240.534 266.842C236.886 263.194 235.063 258.81 235.063 253.688C235.063 248.565 236.886 244.181 240.534 240.534C244.182 236.885 248.566 235.062 253.688 235.062C258.81 235.062 263.194 236.885 266.843 240.534C270.49 244.181 272.315 248.565 272.315 253.688C272.315 258.81 270.49 263.194 266.843 266.842C263.194 270.49 258.81 272.314 253.688 272.314ZM115.313 203.127C110.192 203.127 105.807 201.302 102.159 197.655C98.5113 194.006 96.6875 189.622 96.6875 184.5C96.6875 179.378 98.5113 174.994 102.159 171.346C105.807 167.698 110.192 165.875 115.313 165.875C120.435 165.875 124.819 167.698 128.468 171.346C132.115 174.994 133.94 179.378 133.94 184.5C133.94 189.622 132.115 194.006 128.468 197.655C124.819 201.302 120.435 203.127 115.313 203.127ZM184.501 203.127C179.378 203.127 174.994 201.302 171.347 197.655C167.698 194.006 165.875 189.622 165.875 184.5C165.875 179.378 167.698 174.994 171.347 171.346C174.994 167.698 179.378 165.875 184.501 165.875C189.623 165.875 194.007 167.698 197.655 171.346C201.303 174.994 203.127 179.378 203.127 184.5C203.127 189.622 201.303 194.006 197.655 197.655C194.007 201.302 189.623 203.127 184.501 203.127ZM253.688 203.127C248.566 203.127 244.182 201.302 240.534 197.655C236.886 194.006 235.063 189.622 235.063 184.5C235.063 179.378 236.886 174.994 240.534 171.346C244.182 167.698 248.566 165.875 253.688 165.875C258.81 165.875 263.194 167.698 266.843 171.346C270.49 174.994 272.315 179.378 272.315 184.5C272.315 189.622 270.49 194.006 266.843 197.655C263.194 201.302 258.81 203.127 253.688 203.127ZM115.313 133.939C110.192 133.939 105.807 132.115 102.159 128.467C98.5113 124.819 96.6875 120.435 96.6875 115.313C96.6875 110.191 98.5113 105.806 102.159 102.159C105.807 98.5108 110.192 96.687 115.313 96.687C120.435 96.687 124.819 98.5108 128.468 102.159C132.115 105.806 133.94 110.191 133.94 115.313C133.94 120.435 132.115 124.819 128.468 128.467C124.819 132.115 120.435 133.939 115.313 133.939ZM184.501 133.939C179.378 133.939 174.994 132.115 171.347 128.467C167.698 124.819 165.875 120.435 165.875 115.313C165.875 110.191 167.698 105.806 171.347 102.159C174.994 98.5108 179.378 96.687 184.501 96.687C189.623 96.687 194.007 98.5108 197.655 102.159C201.303 105.806 203.127 110.191 203.127 115.313C203.127 120.435 201.303 124.819 197.655 128.467C194.007 132.115 189.623 133.939 184.501 133.939ZM253.688 133.939C248.566 133.939 244.182 132.115 240.534 128.467C236.886 124.819 235.063 120.435 235.063 115.313C235.063 110.191 236.886 105.806 240.534 102.159C244.182 98.5108 248.566 96.687 253.688 96.687C258.81 96.687 263.194 98.5108 266.843 102.159C270.49 105.806 272.315 110.191 272.315 115.313C272.315 120.435 270.49 124.819 266.843 128.467C263.194 132.115 258.81 133.939 253.688 133.939Z" fill="#5F6368"/>
</g>
</g>
<defs>
<clipPath id="clip0_566_40">
<rect width="369" height="369" fill="white"/>
</clipPath>
</defs>
</svg>
