<svg width="369" height="369" viewBox="0 0 369 369" fill="none" xmlns="http://www.w3.org/2000/svg">
<g clip-path="url(#clip0_566_57)">
<path d="M0 92.25C0 67.7838 9.71917 44.3196 27.0194 27.0194C44.3196 9.71917 67.7838 0 92.25 0L276.75 0C301.216 0 324.68 9.71917 341.981 27.0194C359.281 44.3196 369 67.7838 369 92.25V276.75C369 301.216 359.281 324.68 341.981 341.981C324.68 359.281 301.216 369 276.75 369H92.25C67.7838 369 44.3196 359.281 27.0194 341.981C9.71917 324.68 0 301.216 0 276.75V92.25Z" fill="#E74135"/>
</g>
<rect x="84" y="112" width="146" height="146" fill="white"/>
<path d="M192 184.5L290.25 127.775L290.25 241.225L192 184.5Z" fill="white"/>
<defs>
<clipPath id="clip0_566_57">
<rect width="369" height="369" fill="white"/>
</clipPath>
</defs>
</svg>
