<svg width="368" height="370" viewBox="0 0 368 370" fill="none" xmlns="http://www.w3.org/2000/svg">
<g clip-path="url(#clip0_566_39)">
<path d="M0 92.5C0 67.9675 9.69283 44.4397 26.9462 27.0926C44.1995 9.74551 67.6001 0 92 0L276 0C300.4 0 323.8 9.74551 341.054 27.0926C358.307 44.4397 368 67.9675 368 92.5V277.5C368 302.033 358.307 325.56 341.054 342.907C323.8 360.254 300.4 370 276 370H92C67.6001 370 44.1995 360.254 26.9462 342.907C9.69283 325.56 0 302.033 0 277.5V92.5Z" fill="#E6F4EA"/>
<mask id="mask0_566_39" style="mask-type:alpha" maskUnits="userSpaceOnUse" x="46" y="46" width="276" height="278">
<path d="M46 46.25H322V323.75H46V46.25Z" fill="#D9D9D9"/>
</mask>
<g mask="url(#mask0_566_39)">
<path d="M107.042 283.281C101.235 283.281 96.3126 281.258 92.2876 277.211C90.3267 275.284 88.7793 272.974 87.7409 270.422C86.7025 267.871 86.1951 265.132 86.2501 262.376V107.624C86.2501 101.785 88.2626 96.8359 92.2876 92.7891C96.3126 88.7422 101.235 86.7188 107.042 86.7188H260.958C266.766 86.7188 271.688 88.7422 275.713 92.7891C279.738 96.8359 281.75 101.785 281.75 107.624V262.376C281.75 268.215 279.738 273.164 275.713 277.211C271.688 281.258 266.766 283.281 260.958 283.281H107.042ZM107.042 265.938H260.958C261.418 265.929 261.872 265.826 262.291 265.635C262.71 265.444 263.086 265.17 263.396 264.827C263.736 264.516 264.01 264.138 264.2 263.716C264.389 263.295 264.492 262.839 264.5 262.376V107.624C264.492 107.161 264.389 106.705 264.2 106.284C264.01 105.862 263.736 105.484 263.396 105.172C263.086 104.83 262.71 104.556 262.291 104.365C261.872 104.174 261.418 104.071 260.958 104.062H107.042C106.582 104.071 106.128 104.174 105.709 104.365C105.29 104.556 104.914 104.83 104.604 105.172C104.264 105.484 103.99 105.862 103.801 106.284C103.611 106.705 103.509 107.161 103.5 107.624V262.376C103.5 263.267 103.868 264.087 104.604 264.827C104.914 265.17 105.29 265.444 105.709 265.635C106.128 265.826 106.582 265.929 107.042 265.938ZM123.625 239.922H245.261L207.437 189.232L175.157 231.47L152.157 201.904L123.625 239.922Z" fill="#137333"/>
</g>
</g>
<defs>
<clipPath id="clip0_566_39">
<rect width="368" height="370" fill="white"/>
</clipPath>
</defs>
</svg>
