<svg xmlns="http://www.w3.org/2000/svg" width="84.877" height="35.473" viewBox="0 0 84.877 35.473">
  <g id="Group_275" data-name="Group 275" transform="translate(-323.929 -800.527)">
    <path id="Path_1651" data-name="Path 1651" d="M105.577,230.924a1.653,1.653,0,0,1-1.65,1.65H23.35a1.653,1.653,0,0,1-1.65-1.65V199.75a1.653,1.653,0,0,1,1.65-1.65h80.577a1.653,1.653,0,0,1,1.65,1.65Z" transform="translate(302.729 602.927)" fill="none" stroke="#989696" stroke-width="1"/>
    <path id="Path_1652" data-name="Path 1652" d="M261.363,256.5h.951v7.437h-.881v-5.7L259.8,261.98h-.881l-1.636-3.747v5.7H256.4V256.5h.937l2.013,4.571Z" transform="translate(100.839 552.691)" fill="#989696"/>
    <path id="Path_1653" data-name="Path 1653" d="M312.764,274.862h-.8l-.056-.461a3.239,3.239,0,0,1-1.761.573c-1.188,0-1.65-.7-1.65-1.733,0-1.09.545-1.664,1.719-1.664a4.379,4.379,0,0,1,1.608.308v-.853c0-.713-.224-1.021-1.048-1.021a5.494,5.494,0,0,0-1.482.21l-.14-.769a6.076,6.076,0,0,1,1.719-.252c1.286,0,1.887.559,1.887,1.775Zm-.937-2.335a5.454,5.454,0,0,0-1.482-.238c-.755,0-.937.363-.937.979,0,.685.224,1.007.867,1.007a2.706,2.706,0,0,0,1.538-.475v-1.272Z" transform="translate(56.022 541.766)" fill="#989696"/>
    <path id="Path_1654" data-name="Path 1654" d="M352.87,270.367a6.644,6.644,0,0,0-1.733.587v4.18H350.2v-5.55h.769l.1.643a2.836,2.836,0,0,1,1.678-.727Z" transform="translate(20.152 541.508)" fill="#989696"/>
    <path id="Path_1655" data-name="Path 1655" d="M376.3,261.184V253.3h.937v4.907l1.929-2.558h1.1l-2.125,2.74,2.209,2.8h-1.1l-2.013-2.628v2.628Z" transform="translate(-2.3 555.443)" fill="#989696"/>
    <path id="Path_1656" data-name="Path 1656" d="M410.237,272.6c.056,1.174.349,1.733,1.482,1.733a4.8,4.8,0,0,0,1.636-.308l.14.713a5.1,5.1,0,0,1-1.789.336c-2,0-2.4-1.37-2.4-2.922,0-1.594.531-2.852,2.223-2.852,1.51,0,2.139,1.062,2.139,2.39v.909Zm0-.741h2.516v-.2c0-1.034-.322-1.65-1.244-1.65-1.034-.014-1.258.741-1.272,1.845" transform="translate(-30.687 541.68)" fill="#989696"/>
    <path id="Path_1657" data-name="Path 1657" d="M449.067,266.376a4.415,4.415,0,0,1-1.146.168,1.22,1.22,0,0,1-1.356-1.384v-3.509H445.6V260.9h.965V259.54l.937-.14v1.482h1.58l-.084.755h-1.5V265.1c0,.517.126.671.643.671a3.966,3.966,0,0,0,.839-.112Z" transform="translate(-61.912 550.196)" fill="#989696"/>
    <path id="Path_1658" data-name="Path 1658" d="M478.029,254a.61.61,0,0,1,.629.629.6.6,0,0,1-.629.629.61.61,0,0,1-.629-.629.618.618,0,0,1,.629-.629m-.461,2.251h.937v5.55h-.937Z" transform="translate(-89.267 554.841)" fill="#989696"/>
    <path id="Path_1659" data-name="Path 1659" d="M500.657,274.862v-4.04c0-.5-.21-.755-.755-.755a4.232,4.232,0,0,0-1.566.363v4.431H497.4v-5.55h.755l.084.489a3.488,3.488,0,0,1,1.9-.6,1.344,1.344,0,0,1,1.468,1.524v4.138Z" transform="translate(-106.471 541.766)" fill="#989696"/>
    <path id="Path_1660" data-name="Path 1660" d="M538.117,269.412h1.761v.643l-.741.14a1.97,1.97,0,0,1,.21.937c0,1.146-.8,1.831-2.069,1.831a2.54,2.54,0,0,1-.587-.056.661.661,0,0,0-.252.517c0,.266.14.391.5.391H538.2a1.444,1.444,0,0,1,1.58,1.482c0,1.188-1.049,1.775-2.544,1.775-1.454,0-2.237-.447-2.237-1.5a1.284,1.284,0,0,1,.881-1.188.86.86,0,0,1-.363-.741,1.051,1.051,0,0,1,.643-.923,1.679,1.679,0,0,1-.951-1.594c0-1.188.685-1.831,2.055-1.831a3.152,3.152,0,0,1,.853.112m-1.761,5.172a1.138,1.138,0,0,0-.475.923c0,.643.545.881,1.384.881.979,0,1.58-.252,1.58-.993a.733.733,0,0,0-.839-.769h-1.2a1.781,1.781,0,0,1-.447-.042m.923-4.613c-.8,0-1.174.322-1.174,1.16a1.022,1.022,0,0,0,1.174,1.16,1.049,1.049,0,0,0,1.188-1.16c0-.811-.419-1.16-1.188-1.16" transform="translate(-138.814 541.68)" fill="#989696"/>
    <path id="Path_1661" data-name="Path 1661" d="M257.365,341.083v2.768H256.4V336.4h2.223a2.335,2.335,0,1,1,0,4.669h-1.258Zm0-.783h1.23c1.118,0,1.426-.643,1.426-1.552s-.308-1.552-1.426-1.552h-1.23Z" transform="translate(100.839 483.96)" fill="#989696"/>
    <path id="Path_1662" data-name="Path 1662" d="M296.764,354.862h-.8l-.056-.461a3.239,3.239,0,0,1-1.761.573c-1.188,0-1.65-.7-1.65-1.733,0-1.09.545-1.664,1.719-1.664a4.445,4.445,0,0,1,1.608.308v-.853c0-.713-.224-1.021-1.048-1.021a5.5,5.5,0,0,0-1.482.21l-.14-.769a6.076,6.076,0,0,1,1.719-.252c1.286,0,1.887.559,1.887,1.775Zm-.937-2.335a5.452,5.452,0,0,0-1.482-.238c-.755,0-.937.363-.937.979,0,.685.224,1.007.867,1.007a2.706,2.706,0,0,0,1.538-.475v-1.272Z" transform="translate(69.785 472.95)" fill="#989696"/>
    <path id="Path_1663" data-name="Path 1663" d="M336.87,350.367a6.643,6.643,0,0,0-1.733.587v4.18H334.2v-5.55h.769l.1.643a2.836,2.836,0,0,1,1.678-.727Z" transform="translate(33.915 472.691)" fill="#989696"/>
    <path id="Path_1664" data-name="Path 1664" d="M359.453,346.376a4.416,4.416,0,0,1-1.146.168,1.22,1.22,0,0,1-1.356-1.384v-3.509H356V340.9h.965V339.54l.937-.14v1.482h1.58l-.084.755h-1.5V345.1c0,.517.126.671.643.671a3.968,3.968,0,0,0,.839-.112Z" transform="translate(15.162 481.38)" fill="#989696"/>
    <path id="Path_1665" data-name="Path 1665" d="M392.257,354.862v-4.04c0-.5-.21-.755-.755-.755a4.232,4.232,0,0,0-1.566.363v4.431H389v-5.55h.755l.084.489a3.488,3.488,0,0,1,1.9-.6,1.344,1.344,0,0,1,1.468,1.524v4.138Z" transform="translate(-13.224 472.95)" fill="#989696"/>
    <path id="Path_1666" data-name="Path 1666" d="M428.937,352.6c.056,1.174.349,1.733,1.482,1.733a4.8,4.8,0,0,0,1.636-.308l.14.713a5.1,5.1,0,0,1-1.789.336c-2,0-2.4-1.37-2.4-2.922,0-1.594.531-2.852,2.223-2.852,1.51,0,2.139,1.062,2.139,2.391v.909Zm0-.741h2.516v-.2c0-1.034-.322-1.65-1.244-1.65-1.048-.014-1.272.741-1.272,1.845" transform="translate(-46.772 472.864)" fill="#989696"/>
    <path id="Path_1667" data-name="Path 1667" d="M471.27,350.367a6.643,6.643,0,0,0-1.733.587v4.18H468.6v-5.55h.769l.1.643a2.836,2.836,0,0,1,1.678-.727Z" transform="translate(-81.697 472.691)" fill="#989696"/>
    <path id="Path_1668" data-name="Path 1668" d="M91.075,248.1H72.832a1.128,1.128,0,0,0-1.132,1.132v18.243a1.128,1.128,0,0,0,1.132,1.132h9.814v-7.94h-2.67v-3.089h2.67V255.3a3.739,3.739,0,0,1,3.984-4.1,20.488,20.488,0,0,1,2.39.126V254.1H87.385c-1.286,0-1.538.615-1.538,1.51v1.971h3.062l-.405,3.089h-2.67v7.94h5.228a1.128,1.128,0,0,0,1.132-1.132V249.232a1.125,1.125,0,0,0-1.118-1.132" transform="translate(259.719 559.917)" fill="#989696"/>
  </g>
</svg>
