<svg xmlns="http://www.w3.org/2000/svg" xmlns:xlink="http://www.w3.org/1999/xlink" width="78.554" height="34.946" viewBox="0 0 78.554 34.946">
  <defs>
    <clipPath id="clip-path">
      <rect id="Rectangle_965" data-name="Rectangle 965" width="78.554" height="34.946" fill="none"/>
    </clipPath>
  </defs>
  <g id="Group_240" data-name="Group 240" transform="translate(0 0)">
    <g id="Group_237" data-name="Group 237" transform="translate(0 0)" clip-path="url(#clip-path)">
      <path id="Path_1640" data-name="Path 1640" d="M19.865,26.014V31.7h-1.8V17.667h4.781a4.322,4.322,0,0,1,3.1,1.215,4.054,4.054,0,0,1,0,5.937,4.315,4.315,0,0,1-3.1,1.2Zm0-6.623v4.9h3.018a2.383,2.383,0,0,0,1.783-.725,2.459,2.459,0,0,0-1.783-4.174Z" transform="translate(-1.391 -1.361)" fill="#636364"/>
      <path id="Path_1641" data-name="Path 1641" d="M32.871,22.126a4.472,4.472,0,0,1,3.156,1.068,3.79,3.79,0,0,1,1.156,2.929v5.918H35.458V30.709H35.38A3.438,3.438,0,0,1,32.4,32.354a3.868,3.868,0,0,1-2.655-.941,3,3,0,0,1-1.068-2.351A2.853,2.853,0,0,1,29.8,26.692a4.748,4.748,0,0,1,3.008-.882,5.329,5.329,0,0,1,2.645.588v-.412a2.051,2.051,0,0,0-.745-1.6,2.555,2.555,0,0,0-1.743-.656,2.764,2.764,0,0,0-2.391,1.274l-1.587-1a4.424,4.424,0,0,1,3.879-1.881M30.54,29.1a1.439,1.439,0,0,0,.6,1.176,2.2,2.2,0,0,0,1.4.471,2.876,2.876,0,0,0,2.028-.843,2.641,2.641,0,0,0,.892-1.98,3.706,3.706,0,0,0-2.352-.666,3.055,3.055,0,0,0-1.832.529A1.573,1.573,0,0,0,30.54,29.1" transform="translate(-2.209 -1.704)" fill="#636364"/>
      <path id="Path_1642" data-name="Path 1642" d="M40.1,22.22h1.725v1.567H41.9a3.237,3.237,0,0,1,3.313-1.842l.372.04v1.881l-.8-.078a2.879,2.879,0,0,0-2.067.774,2.6,2.6,0,0,0-.813,1.97v5.29H40.1Zm11.248,9.758a2.74,2.74,0,0,1-1.949-.725,2.687,2.687,0,0,1-.794-2.019v-5.37H46.92V22.22h1.685V19.28h1.8v2.94h2.352v1.646H50.408v4.782a1.755,1.755,0,0,0,.372,1.3,1.215,1.215,0,0,0,.843.342,1.837,1.837,0,0,0,.422-.049,2.158,2.158,0,0,0,.382-.127l.569,1.607a4.848,4.848,0,0,1-1.647.255" transform="translate(-3.089 -1.485)" fill="#636364"/>
      <path id="Path_1643" data-name="Path 1643" d="M55.79,22.439h1.724v1.333h.078A3.21,3.21,0,0,1,58.857,22.6a3.62,3.62,0,0,1,1.773-.471,3.55,3.55,0,0,1,2.714,1.01,4.03,4.03,0,0,1,.951,2.87V32.04h-1.8V26.122a2.119,2.119,0,0,0-2.371-2.351,2.252,2.252,0,0,0-1.8.872,3.157,3.157,0,0,0-.725,2.087v5.31h-1.8Z" transform="translate(-4.298 -1.704)" fill="#636364"/>
      <path id="Path_1644" data-name="Path 1644" d="M71.562,32.354a4.589,4.589,0,0,1-3.488-1.45A5.123,5.123,0,0,1,66.7,27.24a5.223,5.223,0,0,1,1.332-3.655,4.791,4.791,0,0,1,6.81-.078,5.521,5.521,0,0,1,1.265,3.87l-.02.2H68.545a3.125,3.125,0,0,0,.941,2.272,3.037,3.037,0,0,0,4.859-.862l1.608.785a4.8,4.8,0,0,1-1.793,1.9,4.966,4.966,0,0,1-2.6.686m-2.88-6.271h5.505a2.386,2.386,0,0,0-.812-1.656,2.851,2.851,0,0,0-1.97-.656,2.615,2.615,0,0,0-1.755.627,3,3,0,0,0-.969,1.685" transform="translate(-5.139 -1.704)" fill="#636364"/>
      <path id="Path_1645" data-name="Path 1645" d="M80.481,32.045h-1.8v-9.6H80.4V24.01h.078a2.6,2.6,0,0,1,1.127-1.3,3.13,3.13,0,0,1,1.675-.539,3.376,3.376,0,0,1,1.333.235l-.549,1.744a2.984,2.984,0,0,0-1.058-.138,2.33,2.33,0,0,0-1.773.823,2.748,2.748,0,0,0-.755,1.92Z" transform="translate(-6.061 -1.708)" fill="#636364"/>
      <path id="Path_1646" data-name="Path 1646" d="M22.109,8.443V9.667h2.929a2.588,2.588,0,0,1-.962,1.8,3.283,3.283,0,0,1-4.251-.317A3.151,3.151,0,0,1,18.9,8.847a3.153,3.153,0,0,1,.928-2.306,3.069,3.069,0,0,1,2.284-.952,3.135,3.135,0,0,1,2.208.875l.863-.864a4.31,4.31,0,0,0-3.071-1.235,4.514,4.514,0,0,0-2.273.612,4.428,4.428,0,0,0-1.671,1.65,4.421,4.421,0,0,0,1.671,6.088,4.514,4.514,0,0,0,2.273.612,4.179,4.179,0,0,0,3.005-1.137,3.929,3.929,0,0,0,1.18-2.983,3.967,3.967,0,0,0-.066-.765Z" transform="translate(-1.353 -0.336)" fill="#276ab3"/>
      <path id="Path_1647" data-name="Path 1647" d="M30.393,7.824a2.8,2.8,0,0,0-2.066.831,2.767,2.767,0,0,0-.831,2.055,2.9,2.9,0,1,0,5.792,0,2.748,2.748,0,0,0-.841-2.055,2.791,2.791,0,0,0-2.055-.831m1.147,4.131a1.573,1.573,0,0,1-2.306,0,1.756,1.756,0,0,1-.47-1.246,1.711,1.711,0,0,1,.47-1.246,1.588,1.588,0,0,1,2.318,0,1.711,1.711,0,0,1,.47,1.246,1.758,1.758,0,0,1-.481,1.246" transform="translate(-2.118 -0.602)" fill="#e71c1f"/>
      <rect id="Rectangle_963" data-name="Rectangle 963" width="1.268" height="8.48" transform="translate(44.416 4.337)" fill="#009e3a"/>
      <path id="Path_1648" data-name="Path 1648" d="M37.237,7.824a2.8,2.8,0,0,0-2.066.831,2.767,2.767,0,0,0-.831,2.055,2.9,2.9,0,1,0,5.793,0,2.749,2.749,0,0,0-.842-2.055,2.791,2.791,0,0,0-2.055-.831m1.147,4.131a1.572,1.572,0,0,1-2.306,0,1.752,1.752,0,0,1-.47-1.246,1.707,1.707,0,0,1,.47-1.246,1.587,1.587,0,0,1,2.317,0,1.711,1.711,0,0,1,.47,1.246,1.758,1.758,0,0,1-.481,1.246" transform="translate(-2.646 -0.602)" fill="orange"/>
      <path id="Path_1649" data-name="Path 1649" d="M53.023,12.458a1.476,1.476,0,0,1-1.4-.875l3.858-1.595-.131-.329a3.227,3.227,0,0,0-.4-.743,2.871,2.871,0,0,0-.563-.584,2.4,2.4,0,0,0-.7-.377,2.491,2.491,0,0,0-.809-.131,2.59,2.59,0,0,0-1.946.82,2.911,2.911,0,0,0-.775,2.066,2.81,2.81,0,0,0,.82,2.055,2.913,2.913,0,0,0,4.448-.448l-.984-.656a1.638,1.638,0,0,1-1.42.8M51.854,9.42a1.484,1.484,0,0,1,1.071-.481,1.31,1.31,0,0,1,.667.17.892.892,0,0,1,.4.442l-2.58,1.071a1.581,1.581,0,0,1,.437-1.2" transform="translate(-3.864 -0.602)" fill="#e71c1f"/>
      <path id="Path_1650" data-name="Path 1650" d="M45.513,8.469h-.044a1.881,1.881,0,0,0-1.518-.645A2.631,2.631,0,0,0,42,8.677a2.945,2.945,0,0,0,0,4.077,2.673,2.673,0,0,0,1.946.841,1.866,1.866,0,0,0,1.518-.655h.044v.3q0,1.814-1.541,1.814a1.429,1.429,0,0,1-.874-.284,1.777,1.777,0,0,1-.58-.743l-1.1.459a2.97,2.97,0,0,0,.415.694,2.651,2.651,0,0,0,.585.536,2.853,2.853,0,0,0,.726.349,2.715,2.715,0,0,0,.831.126,2.62,2.62,0,0,0,2.017-.782,3.145,3.145,0,0,0,.726-2.224V8h-1.2Zm-.361,3.5a1.424,1.424,0,0,1-1.093.492,1.51,1.51,0,0,1-1.147-.5,1.887,1.887,0,0,1,.011-2.481,1.5,1.5,0,0,1,1.136-.513,1.391,1.391,0,0,1,1.093.5A1.847,1.847,0,0,1,45.6,10.72a1.828,1.828,0,0,1-.448,1.246" transform="translate(-3.173 -0.602)" fill="#276ab3"/>
      <rect id="Rectangle_964" data-name="Rectangle 964" width="9.196" height="34.946" fill="#276ab3"/>
    </g>
  </g>
</svg>
