<svg xmlns="http://www.w3.org/2000/svg" width="228.727" height="49.207" viewBox="0 0 228.727 49.207">
  <g id="Group_7" data-name="Group 7" transform="translate(-84.501 -813.656)">
    <path id="Subtraction_34" data-name="Subtraction 34" d="M-2823.774-3721.794h-33.149l1.549-3.6a1.624,1.624,0,0,0,.133-.653,1.632,1.632,0,0,0-.116-.593,1.619,1.619,0,0,0-.868-.892,1.619,1.619,0,0,0-.643-.133,1.626,1.626,0,0,0-1.5.985l-2.1,4.886h-6.448a5.091,5.091,0,0,1-5.085-5.084v-8.4l4.713-2a1.619,1.619,0,0,0,.872-.888,1.639,1.639,0,0,0,.118-.613,1.616,1.616,0,0,0-.131-.634,1.623,1.623,0,0,0-1.5-.99,1.62,1.62,0,0,0-.637.13l-3.438,1.46v-6.454l2.946-.061a1.622,1.622,0,0,0,1.141-.5,1.619,1.619,0,0,0,.452-1.119v-.042a1.636,1.636,0,0,0-1.627-1.595h-.033l-2.879.06v-6.367l4.025,1.518a1.617,1.617,0,0,0,.575.105,1.66,1.66,0,0,0,.671-.144,1.623,1.623,0,0,0,.852-.909,1.613,1.613,0,0,0,.1-.578,1.636,1.636,0,0,0-1.053-1.519l-5.174-1.952V-3770h11.734l2.128,4.435a1.615,1.615,0,0,0,.928.832,1.632,1.632,0,0,0,.542.093,1.605,1.605,0,0,0,.7-.161,1.636,1.636,0,0,0,.924-1.466,1.615,1.615,0,0,0-.161-.706l-1.451-3.026h5.944l.117,1.761a1.612,1.612,0,0,0,.552,1.116,1.62,1.62,0,0,0,1.07.4l.1,0h.013a1.627,1.627,0,0,0,1.521-1.625c0-.04,0-.073,0-.1l-.1-1.546h18.587a5.091,5.091,0,0,1,5.085,5.085v43.12Zm-40.1-11.417a1.621,1.621,0,0,0-1.246.582l-4.438,5.29a1.626,1.626,0,0,0-.381,1.052,1.622,1.622,0,0,0,.582,1.241,1.629,1.629,0,0,0,1.044.38,1.629,1.629,0,0,0,1.248-.581l4.438-5.291a1.621,1.621,0,0,0,.38-1.052c0-.046,0-.092-.006-.136a1.614,1.614,0,0,0-.576-1.1,1.627,1.627,0,0,0-1.044-.381Zm18.222-32.48c-11.271,0-20.44,8.876-20.44,19.787,0,10.881,9.169,19.733,20.44,19.733a21.068,21.068,0,0,0,7.371-1.314,20.348,20.348,0,0,0,8.546-6.045l-8.558-6.977a8.592,8.592,0,0,1-7.359,4.361,8.667,8.667,0,0,1-6.289-2.59,10.023,10.023,0,0,1-2.651-7.168,10.036,10.036,0,0,1,2.651-7.23,8.712,8.712,0,0,1,6.289-2.528,8.591,8.591,0,0,1,7.359,4.362l8.558-6.978A20.613,20.613,0,0,0-2845.65-3765.691Zm-22.577-2.2a1.63,1.63,0,0,0-1.2.528,1.625,1.625,0,0,0-.429,1.093,1.633,1.633,0,0,0,.528,1.207l5.089,4.667a1.624,1.624,0,0,0,1.1.428h.071a1.622,1.622,0,0,0,1.13-.527,1.622,1.622,0,0,0,.428-1.092,1.628,1.628,0,0,0-.529-1.207l-5.088-4.667A1.625,1.625,0,0,0-2868.227-3767.895Z" transform="translate(2957.001 4584.157)" stroke="rgba(0,0,0,0)" stroke-miterlimit="10" stroke-width="1"/>
    <path id="Path_3" data-name="Path 3" d="M424.358,564.79l5.247,4.276a12.613,12.613,0,0,1-9.756,4.51,12.118,12.118,0,1,1,0-24.221A12.644,12.644,0,0,1,429.6,553.9l-5.247,4.277a5.294,5.294,0,0,0-4.51-2.674c-2.974,0-5.479,2.139-5.479,5.981,0,3.742,2.506,5.98,5.479,5.98A5.3,5.3,0,0,0,424.358,564.79Z" transform="translate(-265.161 264.494)" fill-rule="evenodd"/>
    <path id="Path_4" data-name="Path 4" d="M539.142,569.008v5.412H521.167V550.866h6.848v18.142Z" transform="translate(-353.916 263.316)" fill-rule="evenodd"/>
    <rect id="Rectangle_2" data-name="Rectangle 2" width="6.85" height="23.554" transform="translate(188.034 814.183)"/>
    <path id="Path_5" data-name="Path 5" d="M678.881,564.79l5.246,4.276a12.612,12.612,0,0,1-9.756,4.51,12.118,12.118,0,1,1,0-24.221,12.643,12.643,0,0,1,9.756,4.543l-5.246,4.277a5.3,5.3,0,0,0-4.51-2.674c-2.973,0-5.479,2.139-5.479,5.981,0,3.742,2.505,5.98,5.479,5.98A5.3,5.3,0,0,0,678.881,564.79Z" transform="translate(-463.585 264.494)" fill-rule="evenodd"/>
    <path id="Path_6" data-name="Path 6" d="M798.508,574.422h-8.954l-5.914-6.748-1.3,1.6v5.145H775.69V550.868h6.648v9.055l7.618-9.055h8.185l-10.122,11.794Z" transform="translate(-552.338 263.314)" fill-rule="evenodd"/>
    <path id="Path_7" data-name="Path 7" d="M900.171,556.447h-6.882v17.974H886.44V556.447h-6.916v-5.58h20.648Z" transform="translate(-633.286 263.316)" fill-rule="evenodd"/>
    <path id="Path_8" data-name="Path 8" d="M980.927,570.647h-8.786l-1.637,3.775h-7.15l11.593-23.554h3.207l11.627,23.554H982.6l-1.671-3.775Zm-6.381-5.413h4.009l-2-4.644Z" transform="translate(-698.639 263.314)" fill-rule="evenodd"/>
    <path id="Path_9" data-name="Path 9" d="M1103.087,550.867c7.317,0,9.822,4.311,9.822,8.987,0,6.816-4.443,9.523-10.824,9.523h-2.273v5.045h-6.849V550.867ZM1101.35,564h0c3.375,0,4.376-1.838,4.376-3.641,0-1.972-.935-3.909-3.808-3.909h-2.105V564Z" transform="translate(-799.682 263.315)" fill-rule="evenodd"/>
    <path id="Path_10" data-name="Path 10" d="M414.7,720.418h-6V706.4h5.544a7.038,7.038,0,0,1,7.058,7.018,6.879,6.879,0,0,1-6.6,7Zm-.237-2.6h0a4.279,4.279,0,0,0,4.032-4.393,4.346,4.346,0,0,0-4.254-4.414h-2.781v8.807Z" transform="translate(-266.232 142.061)" fill-rule="evenodd"/>
    <rect id="Rectangle_3" data-name="Rectangle 3" width="2.862" height="14.015" transform="translate(172.801 848.464)"/>
    <path id="Path_11" data-name="Path 11" d="M651.406,712.911v5.13a9.722,9.722,0,0,1-6.1,2.046,7.161,7.161,0,1,1,0-14.312,8.161,8.161,0,0,1,5.607,2.007l-1.792,1.989a5.691,5.691,0,0,0-3.816-1.332,4.562,4.562,0,0,0,0,9.124,5.841,5.841,0,0,0,3.26-.955V715.3h-3.559v-2.385Z" transform="translate(-444.895 142.551)" fill-rule="evenodd"/>
    <rect id="Rectangle_4" data-name="Rectangle 4" width="2.863" height="14.015" transform="translate(224.408 848.464)"/>
    <path id="Path_12" data-name="Path 12" d="M884.7,708.869h-4.471v11.549h-2.865V708.869h-4.452V706.4H884.7Z" transform="translate(-628.135 142.061)" fill-rule="evenodd"/>
    <path id="Path_13" data-name="Path 13" d="M1002.315,717.576h-6.262l-1.25,2.842h-3L998.48,706.4h1.412l6.7,14.015h-3l-1.272-2.842Zm-5.247-2.366h4.233l-2.126-4.631Z" transform="translate(-720.816 142.061)" fill-rule="evenodd"/>
    <path id="Path_14" data-name="Path 14" d="M1146.187,718.033v2.386H1136.13V706.4h2.841v11.629Z" transform="translate(-833.333 142.061)" fill-rule="evenodd"/>
    <path id="Path_17" data-name="Path 17" d="M424.358,564.79l5.247,4.276a12.613,12.613,0,0,1-9.756,4.51,12.118,12.118,0,1,1,0-24.221A12.644,12.644,0,0,1,429.6,553.9l-5.247,4.277a5.294,5.294,0,0,0-4.51-2.674c-2.974,0-5.479,2.139-5.479,5.981,0,3.742,2.506,5.98,5.479,5.98A5.3,5.3,0,0,0,424.358,564.79Z" transform="translate(-265.161 264.494)" fill-rule="evenodd"/>
    <path id="Path_18" data-name="Path 18" d="M539.142,569.008v5.412H521.167V550.866h6.848v18.142Z" transform="translate(-353.916 263.316)" fill-rule="evenodd"/>
    <rect id="Rectangle_5" data-name="Rectangle 5" width="6.85" height="23.554" transform="translate(188.034 814.183)"/>
    <path id="Path_19" data-name="Path 19" d="M678.881,564.79l5.246,4.276a12.612,12.612,0,0,1-9.756,4.51,12.118,12.118,0,1,1,0-24.221,12.643,12.643,0,0,1,9.756,4.543l-5.246,4.277a5.3,5.3,0,0,0-4.51-2.674c-2.973,0-5.479,2.139-5.479,5.981,0,3.742,2.505,5.98,5.479,5.98A5.3,5.3,0,0,0,678.881,564.79Z" transform="translate(-463.585 264.494)" fill-rule="evenodd"/>
    <path id="Path_20" data-name="Path 20" d="M798.508,574.422h-8.954l-5.914-6.748-1.3,1.6v5.145H775.69V550.868h6.648v9.055l7.618-9.055h8.185l-10.122,11.794Z" transform="translate(-552.338 263.314)" fill-rule="evenodd"/>
    <path id="Path_21" data-name="Path 21" d="M900.171,556.447h-6.882v17.974H886.44V556.447h-6.916v-5.58h20.648Z" transform="translate(-633.286 263.316)" fill-rule="evenodd"/>
    <path id="Path_22" data-name="Path 22" d="M980.927,570.647h-8.786l-1.637,3.775h-7.15l11.593-23.554h3.207l11.627,23.554H982.6l-1.671-3.775Zm-6.381-5.413h4.009l-2-4.644Z" transform="translate(-698.639 263.314)" fill-rule="evenodd"/>
    <path id="Path_23" data-name="Path 23" d="M1103.087,550.867c7.317,0,9.822,4.311,9.822,8.987,0,6.816-4.443,9.523-10.824,9.523h-2.273v5.045h-6.849V550.867ZM1101.35,564h0c3.375,0,4.376-1.838,4.376-3.641,0-1.972-.935-3.909-3.808-3.909h-2.105V564Z" transform="translate(-799.682 263.315)" fill-rule="evenodd"/>
    <path id="Path_24" data-name="Path 24" d="M414.7,720.418h-6V706.4h5.544a7.038,7.038,0,0,1,7.058,7.018,6.879,6.879,0,0,1-6.6,7Zm-.237-2.6h0a4.279,4.279,0,0,0,4.032-4.393,4.346,4.346,0,0,0-4.254-4.414h-2.781v8.807Z" transform="translate(-266.232 142.061)" fill-rule="evenodd"/>
    <rect id="Rectangle_6" data-name="Rectangle 6" width="2.862" height="14.015" transform="translate(172.801 848.464)"/>
    <path id="Path_25" data-name="Path 25" d="M651.406,712.911v5.13a9.722,9.722,0,0,1-6.1,2.046,7.161,7.161,0,1,1,0-14.312,8.161,8.161,0,0,1,5.607,2.007l-1.792,1.989a5.691,5.691,0,0,0-3.816-1.332,4.562,4.562,0,0,0,0,9.124,5.841,5.841,0,0,0,3.26-.955V715.3h-3.559v-2.385Z" transform="translate(-444.895 142.551)" fill-rule="evenodd"/>
    <rect id="Rectangle_7" data-name="Rectangle 7" width="2.863" height="14.015" transform="translate(224.408 848.464)"/>
    <path id="Path_26" data-name="Path 26" d="M884.7,708.869h-4.471v11.549h-2.865V708.869h-4.452V706.4H884.7Z" transform="translate(-628.135 142.061)" fill-rule="evenodd"/>
    <path id="Path_27" data-name="Path 27" d="M1002.315,717.576h-6.262l-1.25,2.842h-3L998.48,706.4h1.412l6.7,14.015h-3l-1.272-2.842Zm-5.247-2.366h4.233l-2.126-4.631Z" transform="translate(-720.816 142.061)" fill-rule="evenodd"/>
    <path id="Path_28" data-name="Path 28" d="M1146.187,718.033v2.386H1136.13V706.4h2.841v11.629Z" transform="translate(-833.333 142.061)" fill-rule="evenodd"/>
  </g>
</svg>
