<svg width="47" height="45" viewBox="0 0 47 45" fill="none" xmlns="http://www.w3.org/2000/svg">
<path d="M25.8855 44.5823C26.2585 44.8658 26.721 45 27.1835 45C27.5267 45 27.8848 44.9254 28.1981 44.7613C28.9441 44.3734 29.4215 43.5977 29.4215 42.7621V2.24041C29.4215 1.40491 28.9441 0.629057 28.1981 0.241132C27.467 -0.131859 26.5569 -0.0721208 25.8855 0.420257L10.1304 11.6547H2.23794C0.999585 11.6547 0 12.6692 0 13.8926V31.1098C0 32.3333 0.999585 33.3478 2.23794 33.3478H10.1304L25.8855 44.5823Z" fill="white"/>
<path d="M45.5947 16.6185C44.7205 15.7443 43.3043 15.7443 42.4301 16.6185L39.7121 19.3363L36.9941 16.6185C36.1199 15.7443 34.7037 15.7443 33.8295 16.6185C32.9553 17.4927 32.9553 18.9097 33.8295 19.7831L36.5474 22.5008L33.8295 25.2184C32.9553 26.0926 32.9553 27.5088 33.8295 28.383C34.2666 28.8201 34.8392 29.0387 35.4118 29.0387C35.9844 29.0387 36.557 28.8201 36.9941 28.383L39.7121 25.6653L42.4301 28.383C42.8672 28.8201 43.4398 29.0387 44.0124 29.0387C44.585 29.0387 45.1576 28.8201 45.5947 28.383C46.4689 27.5088 46.4689 26.0926 45.5947 25.2184L42.8768 22.5008L45.5947 19.7831C46.4689 18.9097 46.4689 17.4927 45.5947 16.6185Z" fill="white"/>
</svg>
