<svg width="369" height="369" viewBox="0 0 369 369" fill="none" xmlns="http://www.w3.org/2000/svg">
<g clip-path="url(#clip0_566_38)">
<path d="M0 92.25C0 67.7838 9.71917 44.3196 27.0194 27.0194C44.3196 9.71917 67.7838 0 92.25 0L276.75 0C301.216 0 324.68 9.71917 341.981 27.0194C359.281 44.3196 369 67.7838 369 92.25V276.75C369 301.216 359.281 324.68 341.981 341.981C324.68 359.281 301.216 369 276.75 369H92.25C67.7838 369 44.3196 359.281 27.0194 341.981C9.71917 324.68 0 301.216 0 276.75V92.25Z" fill="#FEF7E0"/>
<mask id="mask0_566_38" style="mask-type:alpha" maskUnits="userSpaceOnUse" x="46" y="46" width="277" height="277">
<path d="M46.125 46.125H322.875V322.875H46.125V46.125Z" fill="#D9D9D9"/>
</mask>
<g mask="url(#mask0_566_38)">
<path d="M271.468 283.403L199.052 210.976C193.286 215.738 186.656 219.463 179.161 222.161C171.665 224.848 163.905 226.197 155.891 226.197C136.184 226.197 119.509 219.359 105.845 205.717C92.2035 192.076 85.377 175.39 85.377 155.695C85.377 135.976 92.2035 119.302 105.845 105.649C119.498 91.9847 136.172 85.1582 155.879 85.1582C175.574 85.1582 192.26 91.9847 205.925 105.638C219.578 119.279 226.416 135.965 226.416 155.672C226.446 163.72 225.04 171.71 222.264 179.265C219.497 186.76 215.807 193.287 211.194 198.822L283.622 271.25L271.468 283.403ZM155.902 208.889C170.766 208.889 183.346 203.734 193.655 193.425C203.976 183.116 209.13 170.524 209.13 155.672C209.13 140.808 203.976 128.227 193.655 117.918C183.346 107.61 170.766 102.455 155.902 102.455C141.05 102.455 128.458 107.61 118.149 117.918C107.84 128.227 102.685 140.808 102.685 155.672C102.685 170.536 107.84 183.116 118.149 193.425C128.469 203.734 141.05 208.889 155.902 208.889Z" fill="#E37400"/>
</g>
</g>
<defs>
<clipPath id="clip0_566_38">
<rect width="369" height="369" fill="white"/>
</clipPath>
</defs>
</svg>
