<svg width="189" height="35" viewBox="0 0 189 35" fill="none" xmlns="http://www.w3.org/2000/svg">
<g clip-path="url(#clip0_555_155)">
<mask id="mask0_555_155" style="mask-type:luminance" maskUnits="userSpaceOnUse" x="0" y="0" width="189" height="35">
<path d="M189 0H0V35H189V0Z" fill="white"/>
</mask>
<g mask="url(#mask0_555_155)">
<path d="M58.0073 17.0273L52.6318 28.4658H55.6668L56.6909 26.1055H61.7829L62.8027 28.4658H65.7893L60.3984 17.0273H58.0073ZM57.6711 23.8392L59.2402 20.2189L60.8028 23.8392H57.6711Z" fill="#989696"/>
<path d="M72.1515 21.3345C71.9538 21.0239 71.6768 20.757 71.312 20.5382C70.8066 20.2342 70.2353 20.0811 69.6023 20.0811C68.9035 20.0811 68.2749 20.2517 67.7211 20.5951C67.1673 20.9386 66.7343 21.4154 66.4222 22.0257C66.1101 22.6361 65.9541 23.3492 65.9541 24.1629C65.9541 24.9876 66.1101 25.7073 66.4222 26.3242C66.7343 26.9411 67.1673 27.4136 67.7211 27.7461C68.2749 28.0786 68.9013 28.2448 69.6023 28.2448C70.0221 28.2448 70.4176 28.1639 70.789 28.0042C71.1604 27.8445 71.4813 27.6411 71.7494 27.3939C71.9098 27.2473 72.0417 27.1007 72.1537 26.9542V28.1814C72.1537 28.7807 71.9956 29.2226 71.6769 29.507C71.3605 29.7914 70.8681 29.9336 70.2 29.9336C69.7473 29.9336 69.266 29.8745 68.7561 29.7564C68.2463 29.6382 67.7474 29.4676 67.2639 29.2423L66.8289 31.3642C67.8288 31.8345 68.9869 32.0707 70.2989 32.0707C71.8593 32.0707 73.0417 31.7229 73.8482 31.0251C74.6548 30.3295 75.0591 29.3057 75.0591 27.9561V20.3086H72.1537V21.3345H72.1515ZM71.7165 25.5651C71.4264 25.902 71.0219 26.0704 70.5055 26.0704C70 26.0704 69.5957 25.8998 69.2946 25.5564C68.9935 25.2129 68.8418 24.747 68.8418 24.1586C68.8418 23.5701 68.9892 23.1086 69.2859 22.7761C69.5825 22.4436 69.9868 22.2773 70.5033 22.2773C71.0307 22.2773 71.4373 22.4457 71.7208 22.7826C72.0065 23.1195 72.1493 23.5789 72.1493 24.1564C72.1515 24.7601 72.0066 25.2282 71.7165 25.5651Z" fill="#989696"/>
<path d="M82.5749 20.5932C81.9991 20.2497 81.3178 20.0791 80.5332 20.0791C79.7267 20.0791 79.0168 20.2607 78.4037 20.626C77.7905 20.9891 77.3092 21.4944 76.9598 22.1354C76.6104 22.7785 76.4346 23.5157 76.4346 24.3513C76.4346 25.2175 76.617 25.97 76.984 26.6088C77.3488 27.2454 77.874 27.7354 78.5575 28.0788C79.241 28.4222 80.0563 28.5929 81.0035 28.5929C81.5837 28.5929 82.1661 28.5097 82.7463 28.3435C83.3265 28.1772 83.821 27.9388 84.2319 27.6282L83.4891 25.701C83.166 25.9372 82.7968 26.121 82.3837 26.2544C81.9683 26.3879 81.5573 26.4557 81.1486 26.4557C80.4717 26.4557 79.975 26.2763 79.6629 25.9175C79.4256 25.6441 79.2784 25.2285 79.2212 24.6729H84.3748V24.2879C84.3748 23.4304 84.2187 22.6866 83.9067 22.0544C83.5946 21.4244 83.1507 20.9366 82.5749 20.5932ZM80.6145 22.0719C81.0343 22.0719 81.3552 22.2141 81.5749 22.4985C81.731 22.6997 81.8321 22.9775 81.876 23.3254H79.263C79.3223 23.0213 79.419 22.7697 79.5575 22.5772C79.7992 22.2404 80.1508 22.0719 80.6145 22.0719Z" fill="#989696"/>
<path d="M91.4751 20.0791C90.8404 20.0791 90.2778 20.2257 89.7899 20.521C89.3767 20.7704 89.0356 21.1072 88.757 21.5272L88.6031 20.3044H85.8604C85.9131 20.6894 85.9483 21.081 85.9658 21.4769C85.9812 21.8729 85.99 22.2644 85.99 22.6494V28.4638H88.9108V23.9182C88.9108 23.4347 89.0444 23.0475 89.3152 22.7522C89.5833 22.4569 89.9393 22.3104 90.3806 22.3104C90.7454 22.3104 91.0162 22.4197 91.1876 22.6407C91.359 22.8594 91.4469 23.2225 91.4469 23.7257V28.4638H94.3672V23.5966C94.3628 21.2516 93.4002 20.0791 91.4751 20.0791Z" fill="#989696"/>
<path d="M100.584 22.2972C100.94 22.2972 101.312 22.3672 101.699 22.505C102.086 22.645 102.426 22.831 102.716 23.0672L103.459 21.0591C103.114 20.7594 102.653 20.521 102.073 20.3438C101.492 20.1666 100.899 20.0791 100.297 20.0791C99.3827 20.0791 98.5828 20.2585 97.8988 20.6172C97.2158 20.976 96.684 21.4791 96.3016 22.1266C95.9192 22.7741 95.7275 23.531 95.7275 24.3994C95.7275 25.2569 95.9034 26.0007 96.2532 26.6329C96.6022 27.265 97.1103 27.7485 97.7784 28.0854C98.4439 28.4222 99.2421 28.5907 100.167 28.5907C100.824 28.5907 101.444 28.5054 102.03 28.3347C102.618 28.1641 103.092 27.9213 103.459 27.6129L102.716 25.6375C102.426 25.8847 102.088 26.0729 101.699 26.2085C101.312 26.3419 100.945 26.4097 100.602 26.4097C99.9998 26.4097 99.5339 26.2413 99.2069 25.9044C98.879 25.5675 98.7146 25.0447 98.7146 24.3382C98.7146 23.6425 98.8816 23.1285 99.2157 22.796C99.5453 22.4635 100.002 22.2972 100.584 22.2972Z" fill="#989696"/>
<path d="M110.927 20.3037L109.019 25.0156L107.182 20.3037H104.147L107.485 27.9009L107.279 28.3515C107.149 28.6184 106.982 28.8525 106.778 29.0515C106.574 29.2484 106.307 29.4168 105.978 29.5568C105.648 29.6968 105.233 29.815 104.728 29.9112L105.405 32.1271C106.081 32.0528 106.706 31.8975 107.277 31.6612C107.846 31.425 108.363 31.0771 108.826 30.6178C109.287 30.1562 109.692 29.5371 110.037 28.754L113.797 20.3037H110.927Z" fill="#989696"/>
<path d="M128.243 17.9745C127.533 17.3423 126.511 17.0273 125.177 17.0273H119.705V28.4658H122.74V24.0011H125.177C126.489 24.0011 127.507 23.6861 128.228 23.0539C128.948 22.4217 129.309 21.5752 129.309 20.5164C129.309 19.4533 128.955 18.6067 128.243 17.9745ZM126.074 21.4373C125.799 21.6452 125.366 21.7502 124.775 21.7502H122.742V19.3089H124.775C125.377 19.3089 125.812 19.4139 126.083 19.6217C126.351 19.8317 126.487 20.138 126.487 20.5448C126.484 20.9298 126.348 21.2273 126.074 21.4373Z" fill="#989696"/>
<path d="M135.624 21.3413C135.428 21.0241 135.151 20.7572 134.793 20.5363C134.292 20.2322 133.729 20.0791 133.107 20.0791C132.408 20.0791 131.787 20.2607 131.243 20.626C130.701 20.9891 130.272 21.4966 129.96 22.1441C129.648 22.7916 129.492 23.5441 129.492 24.4016C129.492 25.2482 129.646 25.9875 129.951 26.6175C130.257 27.2497 130.685 27.7375 131.234 28.0788C131.784 28.4222 132.406 28.5929 133.107 28.5929C133.731 28.5929 134.294 28.4485 134.793 28.1597C135.153 27.9519 135.428 27.6872 135.624 27.37V28.466H138.496V20.3044H135.624V21.3413ZM135.195 25.8957C134.909 26.25 134.513 26.4272 134.008 26.4272C133.481 26.4272 133.079 26.2522 132.797 25.9044C132.518 25.5566 132.377 25.0557 132.377 24.4016C132.377 23.7279 132.522 23.205 132.812 22.8354C133.103 22.4657 133.501 22.2819 134.006 22.2819C134.522 22.2819 134.92 22.4591 135.199 22.8113C135.479 23.1635 135.619 23.6841 135.619 24.3688C135.624 25.0338 135.48 25.5413 135.195 25.8957Z" fill="#989696"/>
<path d="M145.458 20.1113C144.834 20.1113 144.277 20.2995 143.788 20.6735C143.46 20.9251 143.218 21.2598 143.063 21.6732L142.891 20.3038H140.148C140.201 20.6888 140.238 21.0804 140.254 21.4763C140.269 21.8723 140.278 22.2638 140.278 22.6488V28.4632H143.199V24.3682C143.199 23.9613 143.274 23.6288 143.425 23.3729C143.577 23.1148 143.785 22.9266 144.053 22.802C144.321 22.6795 144.651 22.6182 145.038 22.6182C145.469 22.6182 145.915 22.7254 146.377 22.9398V20.2885C146.269 20.2338 146.139 20.1923 145.99 20.1595C145.84 20.1266 145.662 20.1113 145.458 20.1113Z" fill="#989696"/>
<path d="M152.966 26.2472C152.751 26.2472 152.551 26.2078 152.369 26.1269C152.187 26.0459 152.039 25.9191 151.925 25.7419C151.813 25.5647 151.756 25.3437 151.756 25.0747V22.4387H153.725V20.3016H151.756V17.5234L148.835 18.4553V20.3037H147.301V22.4409H148.835V25.0769C148.835 26.1597 149.119 27.015 149.683 27.6472C150.248 28.2794 151.094 28.5944 152.226 28.5944C152.494 28.5944 152.754 28.5791 153 28.5462C153.246 28.5134 153.494 28.45 153.743 28.3537V26.1531C153.582 26.1859 153.439 26.21 153.314 26.2253C153.191 26.2406 153.075 26.2472 152.966 26.2472Z" fill="#989696"/>
<path d="M160.807 20.0791C160.172 20.0791 159.609 20.2257 159.119 20.521C158.706 20.7704 158.366 21.1072 158.086 21.5272L157.932 20.3044H155.189C155.245 20.6894 155.277 21.081 155.295 21.4769C155.311 21.8729 155.32 22.2644 155.32 22.6494V28.4638H158.24V23.9182C158.24 23.4347 158.374 23.0475 158.644 22.7522C158.912 22.4569 159.268 22.3104 159.711 22.3104C160.075 22.3104 160.345 22.4197 160.517 22.6407C160.688 22.8594 160.776 23.2225 160.776 23.7257V28.4638H163.697V23.5966C163.694 21.2516 162.732 20.0791 160.807 20.0791Z" fill="#989696"/>
<path d="M170.977 20.5932C170.401 20.2497 169.72 20.0791 168.935 20.0791C168.129 20.0791 167.419 20.2607 166.806 20.626C166.192 20.9891 165.712 21.4944 165.362 22.1354C165.013 22.7785 164.837 23.5157 164.837 24.3513C164.837 25.2175 165.019 25.97 165.386 26.6088C165.751 27.2454 166.276 27.7354 166.96 28.0788C167.643 28.4222 168.459 28.5929 169.405 28.5929C169.986 28.5929 170.568 28.5097 171.149 28.3435C171.729 28.1772 172.225 27.9388 172.634 27.6282L171.891 25.701C171.568 25.9372 171.199 26.121 170.786 26.2544C170.371 26.3879 169.959 26.4557 169.55 26.4557C168.874 26.4557 168.377 26.2763 168.065 25.9175C167.828 25.6441 167.681 25.2285 167.624 24.6729H172.777V24.2879C172.777 23.4304 172.621 22.6866 172.309 22.0544C171.997 21.4244 171.553 20.9366 170.977 20.5932ZM169.017 22.0719C169.436 22.0719 169.757 22.2141 169.977 22.4985C170.133 22.6997 170.234 22.9775 170.278 23.3254H167.665C167.725 23.0213 167.821 22.7697 167.959 22.5772C168.201 22.2404 168.553 22.0719 169.017 22.0719Z" fill="#989696"/>
<path d="M179.35 20.1113C178.725 20.1113 178.17 20.2995 177.679 20.6735C177.352 20.9251 177.111 21.2598 176.954 21.6732L176.783 20.3038H174.04C174.093 20.6888 174.131 21.0804 174.146 21.4763C174.161 21.8723 174.17 22.2638 174.17 22.6488V28.4632H177.09V24.3682C177.09 23.9613 177.165 23.6288 177.317 23.3729C177.468 23.1148 177.678 22.9266 177.946 22.802C178.214 22.6795 178.544 22.6182 178.93 22.6182C179.361 22.6182 179.807 22.7254 180.268 22.9398V20.2885C180.161 20.2338 180.031 20.1923 179.881 20.1595C179.732 20.1266 179.554 20.1113 179.35 20.1113Z" fill="#989696"/>
<path d="M43.3799 6.55742C43.3689 6.45024 43.3491 6.34523 43.3338 6.23804C43.3162 6.10898 43.3008 5.98211 43.2744 5.85305C43.2502 5.73055 43.2173 5.61243 43.1865 5.4943C43.1579 5.38493 43.1338 5.27335 43.1008 5.16398C43.0656 5.04804 43.0217 4.9343 42.9799 4.82055C42.9404 4.71118 42.9052 4.6018 42.8591 4.49243C42.8151 4.38524 42.7624 4.28243 42.7118 4.17743C42.6591 4.06586 42.6107 3.9543 42.5514 3.84711C42.4964 3.74649 42.4371 3.65243 42.3778 3.55399C42.314 3.4468 42.2547 3.3396 42.1844 3.23679C42.1119 3.1296 42.0305 3.0268 41.9536 2.92399C41.8877 2.83868 41.8284 2.74899 41.7602 2.66586C41.4547 2.29618 41.1141 1.95492 40.7405 1.65085C40.657 1.58304 40.5669 1.5218 40.4812 1.45836C40.3779 1.37961 40.2746 1.30086 40.1669 1.22868C40.0636 1.15868 39.9559 1.0996 39.8482 1.03617C39.7494 0.977104 39.6549 0.915863 39.5538 0.863363C39.4461 0.806488 39.334 0.756174 39.2241 0.705862C39.1186 0.655549 39.0153 0.603047 38.9076 0.559297C38.8 0.515547 38.6901 0.478357 38.5802 0.44117C38.4637 0.399607 38.3516 0.35586 38.233 0.32086C38.1231 0.288047 38.011 0.263981 37.9011 0.235544C37.7802 0.204919 37.6616 0.172108 37.5407 0.148046C37.4132 0.121796 37.2836 0.108673 37.1539 0.0889859C37.0462 0.0736729 36.9429 0.0539873 36.833 0.0430498C36.5935 0.0189873 36.3539 0.00585938 36.1122 0.00585938H7.32704C3.29431 0.00585938 0.0263672 3.26086 0.0263672 7.27274C0.0263672 11.2868 3.2965 14.5396 7.32704 14.5396H18.4869L10.595 22.3949C7.7446 25.2321 7.7446 29.8346 10.595 32.6739C13.4476 35.5133 18.0693 35.5133 20.9219 32.6739L41.2789 12.4111C41.4482 12.2427 41.6108 12.0633 41.7624 11.8774C41.8306 11.7943 41.8921 11.7046 41.9558 11.6193C42.0327 11.5164 42.1141 11.4136 42.1866 11.3064C42.2569 11.2036 42.3162 11.0964 42.38 10.9893C42.4393 10.893 42.4986 10.7968 42.5536 10.6961C42.6129 10.5868 42.6613 10.4753 42.714 10.3659C42.7646 10.2609 42.8151 10.1581 42.8613 10.0508C42.9052 9.94363 42.9426 9.83207 42.9821 9.72269C43.0239 9.60894 43.0678 9.49519 43.103 9.37926C43.136 9.26988 43.1601 9.15832 43.1887 9.04894C43.2195 8.92863 43.2524 8.81269 43.2766 8.69024C43.303 8.56336 43.3162 8.4343 43.336 8.30524C43.3513 8.19805 43.3711 8.09524 43.3821 7.98586C43.4063 7.74743 43.4195 7.50899 43.4195 7.26836C43.4173 7.0343 43.4041 6.79586 43.3799 6.55742ZM38.6176 10.1558C37.0308 11.7352 34.4596 11.7352 32.8728 10.1558C31.2861 8.57648 31.2861 6.01711 32.8728 4.43774C34.4596 2.85836 37.0308 2.85836 38.6176 4.43774C40.2043 6.01711 40.2043 8.57648 38.6176 10.1558Z" fill="url(#paint0_linear_555_155)"/>
<path d="M59.7964 6.20082C59.4119 5.99301 58.9745 5.81582 58.4822 5.67363C57.99 5.53145 57.4779 5.39801 56.9461 5.27551C56.445 5.15301 55.9989 5.01738 55.6099 4.87082C55.2209 4.72207 54.9176 4.52738 54.7044 4.28238C54.4891 4.03738 54.3814 3.71582 54.3814 3.31988C54.3814 2.67676 54.6209 2.17801 55.1044 1.82145C55.5857 1.46488 56.2516 1.28551 57.1021 1.28551C57.7262 1.28551 58.3064 1.38832 58.8383 1.59176C59.3701 1.7952 59.8887 2.11676 60.3898 2.55426L60.8821 1.59176C60.5744 1.29645 60.2228 1.04707 59.8294 0.841449C59.436 0.638011 59.0075 0.482697 58.546 0.37551C58.0845 0.268322 57.6032 0.21582 57.1021 0.21582C56.2934 0.21582 55.5901 0.349259 54.9967 0.613946C54.4034 0.878634 53.9418 1.24832 53.6144 1.72301C53.2869 2.1977 53.1221 2.74457 53.1221 3.36801C53.1221 3.88863 53.2254 4.32176 53.4298 4.66738C53.6342 5.0152 53.9199 5.29957 54.2825 5.52488C54.6451 5.7502 55.0627 5.93613 55.5352 6.0827C56.0055 6.23145 56.5021 6.36051 57.0252 6.47207C57.5482 6.59457 58.0163 6.72363 58.4317 6.86145C58.8471 6.99926 59.1745 7.18301 59.4141 7.4127C59.6536 7.64238 59.7745 7.94645 59.7745 8.3227C59.7745 8.94398 59.5327 9.42742 59.0514 9.76867C58.5701 10.1099 57.8933 10.2805 57.023 10.2805C56.2758 10.2805 55.6231 10.1843 55.0649 9.98961C54.5066 9.79492 53.9506 9.46898 53.3968 9.01179L52.9199 9.97429C53.2584 10.2805 53.6364 10.5387 54.0561 10.7465C54.4759 10.9565 54.9308 11.1074 55.4231 11.2059C55.9154 11.3043 56.4428 11.3502 57.0054 11.3502C57.8339 11.3502 58.5526 11.2234 59.1569 10.9674C59.7613 10.7137 60.2272 10.3549 60.5546 9.89773C60.8821 9.43836 61.0469 8.89804 61.0469 8.27676C61.0469 7.76707 60.9348 7.34707 60.7085 7.01457C60.4865 6.67988 60.181 6.41082 59.7964 6.20082Z" fill="#989696"/>
<path d="M67.8997 3.80121C67.4074 3.50152 66.8184 3.35059 66.1328 3.35059C65.4163 3.35059 64.7834 3.51902 64.2362 3.8559C63.6889 4.19277 63.2604 4.6609 62.9527 5.26246C62.645 5.86402 62.4912 6.56184 62.4912 7.35809C62.4912 8.18496 62.6472 8.89592 62.9593 9.49092C63.2714 10.0881 63.7175 10.5431 64.2955 10.8603C64.8735 11.1775 65.5636 11.335 66.3613 11.335C66.9151 11.335 67.4536 11.2431 67.9832 11.0594C68.5106 10.8756 68.9436 10.6262 69.282 10.309L68.8667 9.40779C68.4887 9.71404 68.0909 9.94154 67.6755 10.0881C67.2602 10.2369 66.8272 10.309 66.3767 10.309C65.5174 10.309 64.8625 10.0553 64.4186 9.54342C63.9834 9.04467 63.7615 8.30965 63.7527 7.34059H69.4205V7.1109C69.4205 6.32559 69.2908 5.65402 69.0293 5.09184C68.7678 4.53184 68.392 4.1009 67.8997 3.80121ZM64.3878 5.10059C64.812 4.57559 65.3987 4.31309 66.1481 4.31309C66.8646 4.31309 67.4096 4.55371 67.7832 5.03277C68.0733 5.40465 68.2447 5.90558 68.2953 6.5312H63.8032C63.8933 5.95151 64.0867 5.47465 64.3878 5.10059Z" fill="#989696"/>
<path d="M79.6627 3.34863C78.9661 3.34863 78.3705 3.53238 77.8738 3.89988C77.5244 4.15801 77.2607 4.47958 77.0761 4.86239C76.9332 4.45989 76.7289 4.13832 76.4607 3.89988C76.0454 3.53238 75.4652 3.34863 74.718 3.34863C74.0938 3.34863 73.5532 3.5127 73.0961 3.83863C72.7335 4.09895 72.4588 4.44457 72.2676 4.8777L72.1511 3.53238H70.9688C71.0193 3.88895 71.0523 4.24988 71.0676 4.61082C71.083 4.97176 71.0896 5.3327 71.0896 5.68927V11.2258H72.3335V6.83552C72.3335 6.08083 72.5203 5.48583 72.8939 5.04614C73.2675 4.60864 73.7818 4.3877 74.4389 4.3877C74.9927 4.3877 75.3993 4.55395 75.6608 4.88426C75.9223 5.21676 76.052 5.73739 76.052 6.4527V11.2236H77.2959V6.83332C77.2959 6.07863 77.4827 5.48363 77.8563 5.04395C78.2299 4.60645 78.7397 4.38551 79.3858 4.38551C79.9397 4.38551 80.344 4.55177 80.599 4.88208C80.8539 5.21458 80.9836 5.7352 80.9836 6.45051V11.2214H82.2274V6.38926C82.2274 5.36988 82.0121 4.60864 81.5813 4.10333C81.1528 3.60239 80.5132 3.34863 79.6627 3.34863Z" fill="#989696"/>
<path d="M87.9706 3.34863C87.377 3.34863 86.8408 3.51926 86.3639 3.86051C85.9969 4.12301 85.7288 4.48613 85.5596 4.94551L85.4343 3.5302H84.252C84.3025 3.88677 84.3355 4.2477 84.3509 4.60864C84.3662 4.96958 84.3728 5.33052 84.3728 5.68708V11.2236H85.6167V6.83332C85.6167 6.4352 85.6914 6.05676 85.8387 5.69363C85.9859 5.3327 86.2233 5.03302 86.5463 4.79895C86.8694 4.56489 87.2957 4.44676 87.8298 4.44676C88.1376 4.44676 88.4075 4.48833 88.6448 4.56927L88.6756 3.43833C88.5728 3.4077 88.4629 3.38583 88.346 3.37052C88.2299 3.35739 88.1042 3.34863 87.9706 3.34863Z" fill="#989696"/>
<path d="M95.1616 7.87637C95.1616 8.61137 94.9506 9.19758 94.5305 9.63508C94.1111 10.0726 93.5573 10.2935 92.8716 10.2935C92.2871 10.2935 91.8519 10.1295 91.5662 9.80352C91.2779 9.47758 91.1355 8.96789 91.1355 8.27448V3.53418H89.8916V8.30512C89.8916 9.30477 90.1246 10.0595 90.5905 10.5691C91.0564 11.0788 91.7508 11.3348 92.6712 11.3348C93.2954 11.3348 93.8518 11.1773 94.3397 10.8601C94.7019 10.6238 94.9858 10.3066 95.1924 9.90633V11.2276H96.4055V3.53418H95.1616V7.87637Z" fill="#989696"/>
<path d="M102.322 7.05035L101.016 6.72879C100.596 6.62598 100.291 6.48379 100.102 6.30004C99.9131 6.11629 99.8181 5.86691 99.8181 5.54973C99.8181 5.18223 99.9702 4.89129 100.271 4.67691C100.572 4.46254 101 4.35535 101.554 4.35535C101.975 4.35535 102.376 4.42973 102.761 4.57629C103.145 4.72504 103.522 4.95035 103.891 5.2566L104.306 4.35535C103.979 4.02941 103.574 3.78004 103.093 3.60504C102.612 3.43223 102.099 3.34473 101.557 3.34473C100.952 3.34473 100.429 3.44098 99.9896 3.63566C99.55 3.83035 99.2054 4.09723 98.961 4.43848C98.7149 4.77973 98.5918 5.17566 98.5918 5.6241C98.5918 6.13379 98.7677 6.57129 99.1219 6.93879C99.4753 7.30629 99.9746 7.56004 100.621 7.70441L101.926 8.01066C102.396 8.12223 102.735 8.26879 102.939 8.44598C103.144 8.62535 103.247 8.86597 103.247 9.17222C103.247 9.55066 103.095 9.83722 102.794 10.0363C102.491 10.2353 102.049 10.3338 101.465 10.3338C100.933 10.3338 100.447 10.2594 100.012 10.1128C99.5764 9.96409 99.1545 9.73222 98.7439 9.41722L98.3281 10.3338C99.0868 10.9966 100.115 11.3269 101.416 11.3269C102.348 11.3269 103.087 11.1278 103.629 10.7297C104.172 10.3316 104.445 9.80222 104.445 9.13941C104.445 8.5991 104.273 8.15285 103.93 7.80066C103.585 7.45723 103.049 7.20348 102.322 7.05035Z" fill="#989696"/>
<path d="M110.282 3.34867C109.627 3.34867 109.047 3.50836 108.546 3.82993C108.177 4.06618 107.884 4.38554 107.669 4.78586V-0.0332031H106.425V11.2237H107.669V6.81805C107.669 6.0743 107.884 5.48148 108.315 5.04398C108.746 4.60648 109.32 4.38554 110.036 4.38554C110.651 4.38554 111.101 4.55179 111.387 4.88211C111.673 5.21461 111.818 5.73523 111.818 6.45054V11.2215H113.062V6.38929C113.062 4.36367 112.134 3.34867 110.282 3.34867Z" fill="#989696"/>
</g>
</g>
<defs>
<linearGradient id="paint0_linear_555_155" x1="-0.249528" y1="23.1151" x2="41.2259" y2="2.844" gradientUnits="userSpaceOnUse">
<stop stop-color="#FFFBF9" stop-opacity="0"/>
<stop offset="0.5439" stop-color="#BEBCBB" stop-opacity="0.6561"/>
<stop offset="0.8291" stop-color="#989696"/>
</linearGradient>
<clipPath id="clip0_555_155">
<rect width="189" height="35" fill="white"/>
</clipPath>
</defs>
</svg>
