<svg width="98" height="98" viewBox="0 0 98 98" fill="none" xmlns="http://www.w3.org/2000/svg">
<g clip-path="url(#clip0_1092_2638)">
<mask id="mask0_1092_2638" style="mask-type:luminance" maskUnits="userSpaceOnUse" x="0" y="0" width="98" height="98">
<path d="M98 0H0V98H98V0Z" fill="white"/>
</mask>
<g mask="url(#mask0_1092_2638)">
<path d="M97.004 89.353V7.649C97.004 3.42457 93.5794 0 89.355 0H7.64998C3.42555 0 0.000976562 3.42457 0.000976562 7.649V89.353C0.000976562 93.5774 3.42555 97.002 7.64998 97.002H89.355C93.5794 97.002 97.004 93.5774 97.004 89.353Z" fill="black"/>
</g>
<path d="M56.8899 62.4921H24.5591C22.9984 62.4921 21.7285 61.2222 21.7285 59.6613V32.8136H25.483C25.9603 32.8136 26.3472 32.4266 26.3472 31.9493C26.3472 31.472 25.9603 31.0851 25.483 31.0851H21.7285V28.2544C21.7285 26.6936 22.9984 25.4238 24.5591 25.4238H63.3559C64.9167 25.4238 66.1866 26.6937 66.1866 28.2544V31.0851H29.1778C28.7005 31.0851 28.3136 31.472 28.3136 31.9493C28.3136 32.4266 28.7005 32.8136 29.1778 32.8136H66.1867V48.5766C66.1867 49.0539 66.5737 49.4409 67.051 49.4409C67.5283 49.4409 67.9153 49.0539 67.9153 48.5766V28.2544C67.9153 25.7405 65.87 23.6953 63.356 23.6953H24.5591C22.0453 23.6952 20 25.7405 20 28.2544V59.6613C20 62.1753 22.0453 64.2205 24.5591 64.2205H56.8897C57.367 64.2205 57.754 63.8335 57.754 63.3562C57.754 62.8789 57.3672 62.4921 56.8899 62.4921Z" fill="white"/>
<path d="M24.5596 27.3906C24.0823 27.3906 23.6953 27.7776 23.6953 28.2549C23.6953 28.7322 24.0823 29.1191 24.5596 29.1191H25.4833C25.9606 29.1191 26.3475 28.7322 26.3475 28.2549C26.3475 27.7776 25.9606 27.3906 25.4833 27.3906H24.5596Z" fill="white"/>
<path d="M29.1777 29.1191H30.1015C30.5788 29.1191 30.9657 28.7322 30.9657 28.2549C30.9657 27.7776 30.5788 27.3906 30.1015 27.3906H29.1777C28.7004 27.3906 28.3135 27.7776 28.3135 28.2549C28.3135 28.7322 28.7004 29.1191 29.1777 29.1191Z" fill="white"/>
<path d="M63.3563 29.1191C63.8336 29.1191 64.2206 28.7322 64.2206 28.2549C64.2206 27.7776 63.8336 27.3906 63.3563 27.3906H33.7969C33.3196 27.3906 32.9326 27.7776 32.9326 28.2549C32.9326 28.7322 33.3196 29.1191 33.7969 29.1191H63.3563Z" fill="white"/>
<path d="M55.0425 42.1695H54.0594V38.7729C54.0594 38.1998 53.7818 37.6576 53.3169 37.3225C52.8519 36.9873 52.2496 36.8954 51.706 37.0767L39.1988 41.2458H33.7967C32.3014 41.2458 31.085 42.4623 31.085 43.9575V46.7286C31.085 48.2239 32.3015 49.4403 33.7967 49.4403H34.78V55.9659C34.78 56.9519 35.582 57.7539 36.5679 57.7539H38.4154C39.4013 57.7539 40.2033 56.9519 40.2033 55.9659V49.7753L51.7059 53.6094C51.8897 53.6707 52.0803 53.7008 52.2699 53.7008C52.6412 53.7008 53.009 53.5855 53.3168 53.3637C53.7818 53.0286 54.0594 52.4863 54.0594 51.9132V48.5167H55.0425C56.5378 48.5167 57.7542 47.3002 57.7542 45.805V44.8813C57.7542 43.386 56.5377 42.1695 55.0425 42.1695ZM32.8134 46.7287V43.9576C32.8134 43.4154 33.2545 42.9744 33.7965 42.9744H38.4747V47.712H33.7965C33.2545 47.7119 32.8134 47.2708 32.8134 46.7287ZM38.4154 56.0255H36.5679C36.5351 56.0255 36.5085 55.9989 36.5085 55.966V49.4404H38.4748V55.966C38.4748 55.9988 38.4481 56.0255 38.4154 56.0255ZM52.3307 51.9132C52.3307 51.9231 52.3307 51.9437 52.3061 51.9614C52.2814 51.9793 52.2619 51.9728 52.2525 51.9696L40.2033 47.9532V42.733L52.2525 38.7166C52.2619 38.7135 52.2814 38.707 52.3061 38.7248C52.3307 38.7426 52.3307 38.7632 52.3307 38.7731V51.9132ZM56.0257 45.805C56.0257 46.3472 55.5846 46.7882 55.0425 46.7882H54.0594V43.898H55.0425C55.5847 43.898 56.0257 44.3391 56.0257 44.8812V45.805Z" fill="white"/>
<path d="M78.2059 57.5855L72.822 52.2015C72.3098 51.6893 71.6289 51.4072 70.9045 51.4072H61.5087C60.5227 51.4072 59.7207 52.2093 59.7207 53.1952V73.5174C59.7207 74.5033 60.5227 75.3053 61.5087 75.3053H77.2121C78.1981 75.3053 79.0001 74.5033 79.0001 73.5174V59.5029C79.0002 58.7785 78.7181 58.0975 78.2059 57.5855ZM76.0494 57.8734H72.5935C72.5607 57.8734 72.5341 57.8468 72.5341 57.8139V54.358L76.0494 57.8734ZM77.2122 73.5769H61.5087C61.4758 73.5769 61.4492 73.5503 61.4492 73.5175V53.1952C61.4492 53.1624 61.4758 53.1357 61.5087 53.1357H70.8056V57.8139C70.8056 58.7999 71.6076 59.6019 72.5935 59.6019H77.2717V73.5174C77.2717 73.5502 77.2451 73.5769 77.2122 73.5769Z" fill="white"/>
<path d="M65.2031 59.6016H67.9743C68.4516 59.6016 68.8385 59.2146 68.8385 58.7373C68.8385 58.26 68.4516 57.873 67.9743 57.873H65.2031C64.7258 57.873 64.3389 58.26 64.3389 58.7373C64.3389 59.2146 64.7258 59.6016 65.2031 59.6016Z" fill="white"/>
<path d="M73.5167 61.5684H65.2031C64.7258 61.5684 64.3389 61.9553 64.3389 62.4326C64.3389 62.9099 64.7258 63.2969 65.2031 63.2969H73.5167C73.994 63.2969 74.381 62.9099 74.381 62.4326C74.381 61.9553 73.9941 61.5684 73.5167 61.5684Z" fill="white"/>
<path d="M73.5167 65.2637H65.2031C64.7258 65.2637 64.3389 65.6506 64.3389 66.1279C64.3389 66.6052 64.7258 66.9922 65.2031 66.9922H73.5167C73.994 66.9922 74.381 66.6052 74.381 66.1279C74.381 65.6506 73.9941 65.2637 73.5167 65.2637Z" fill="white"/>
<path d="M73.5167 68.958H65.2031C64.7258 68.958 64.3389 69.345 64.3389 69.8223C64.3389 70.2996 64.7258 70.6865 65.2031 70.6865H73.5167C73.994 70.6865 74.381 70.2996 74.381 69.8223C74.381 69.345 73.9941 68.958 73.5167 68.958Z" fill="white"/>
</g>
<defs>
<clipPath id="clip0_1092_2638">
<rect width="98" height="98" fill="white"/>
</clipPath>
</defs>
</svg>
