<svg width="909" height="909" viewBox="0 0 909 909" fill="none" xmlns="http://www.w3.org/2000/svg">
<circle cx="454.5" cy="454.5" r="447" stroke="#6C7174" stroke-width="15"/>
<path d="M608.751 552.944C610.995 541.029 610.938 528.796 608.581 516.903L640.947 438.793C640.951 438.741 640.951 438.689 640.947 438.638C646.192 424.278 653.879 410.933 663.667 399.19C666.103 396.618 667.083 392.994 666.275 389.544L653.003 332.232C652.845 331.633 652.608 331.058 652.297 330.522C652.24 330.416 652.219 330.289 652.162 330.19C652.106 330.091 651.859 329.851 651.717 329.667C651.428 329.243 651.094 328.852 650.721 328.501C650.475 328.328 650.218 328.172 649.95 328.034C649.606 327.781 649.239 327.558 648.855 327.37C648.322 327.169 647.767 327.034 647.201 326.967C647.039 326.967 646.898 326.861 646.735 326.847C645.381 326.757 644.029 327.059 642.841 327.716C642.735 327.773 642.608 327.794 642.502 327.858H642.431L592.532 359.001C589.511 360.873 587.635 364.14 587.543 367.693C586.157 382.952 582.138 397.855 575.664 411.741V411.819L559.488 450.92C551.548 446.699 543.049 443.63 534.245 441.804C537.578 418.8 538.803 395.541 537.906 372.315C551.061 356.532 557.374 336.152 555.446 315.696C551.029 274.51 513.808 244.766 512.218 243.515C509.828 241.633 506.502 241.491 503.961 243.164C501.42 244.836 500.234 247.946 501.017 250.886C504.656 264.553 501.504 278.976 474.622 308.636C462.544 320.298 458.716 338.105 464.933 353.701C467.311 359.666 470.717 365.168 474.997 369.955C473.286 380.873 471.944 391.212 471.018 401.282C469.424 417.938 469.013 434.686 469.788 451.4C463.484 454.818 457.582 458.931 452.192 463.661L417.918 317.095C417.918 316.946 417.776 316.84 417.734 316.706C417.619 316.235 417.453 315.778 417.239 315.342L382.23 250.688C378.726 244.216 371.325 240.891 364.16 242.569C356.995 244.247 351.84 250.514 351.574 257.868L348.917 331.328C348.919 331.858 348.978 332.386 349.094 332.903C349.094 333.016 349.094 333.115 349.094 333.221L384.06 482.452C378.544 482.696 373.069 483.513 367.722 484.89L329.257 391.996C326.173 384.895 317.992 381.545 310.812 384.442L252.023 408.78C244.828 411.783 241.409 420.033 244.37 427.246L296.537 553.092C265.963 554.697 242.23 580.364 243.019 610.97C243.808 641.577 268.832 665.986 299.449 666.013H610.39C630.588 665.721 649.096 654.674 658.941 637.036C668.786 619.398 668.474 597.847 658.121 580.501C647.769 563.156 628.949 552.651 608.751 552.944ZM601.55 370.026L631.174 351.539L620.687 376.866C619.192 380.473 620.904 384.608 624.51 386.103C628.116 387.597 632.251 385.886 633.746 382.279L644.233 356.952L652.085 390.965C643.685 401.213 636.784 412.603 631.591 424.794C624.223 428.209 615.762 428.386 608.258 425.282C600.754 422.179 594.89 416.077 592.087 408.455C597.05 396.16 600.237 383.22 601.55 370.026ZM585.296 425.507C589.971 431.223 596.038 435.64 602.914 438.334C608.379 440.684 614.257 441.924 620.206 441.98C621.637 441.975 623.067 441.888 624.489 441.719L601.938 496.133C595.186 481.246 584.74 468.331 571.593 458.616L585.296 425.507ZM488.48 375.036L523.984 377.205C524.203 383.806 524.125 390.632 523.906 397.565C512.079 398.41 500.192 397.836 488.501 395.855C487.611 395.728 486.742 395.629 485.858 395.509C486.565 388.852 487.427 382.11 488.466 375.036H488.48ZM485.109 318.127C503.872 297.428 513.596 281.506 515.857 266.539C529.344 280.415 538.246 298.096 541.361 317.194C542.845 333.819 537.705 350.358 527.058 363.213C513.099 362.365 499.292 361.517 485.639 360.669C479.773 355.185 476.398 347.544 476.295 339.514C476.192 331.484 479.371 323.759 485.095 318.127H485.109ZM484.572 409.593L486.622 409.861C495.728 411.27 504.92 412.051 514.133 412.2C517.058 412.2 520.14 411.967 523.228 411.727C522.585 420.822 521.532 430.32 520.196 440.136C518.451 440.044 516.74 439.874 514.988 439.874C504.318 439.893 493.729 441.716 483.668 445.266C483.342 433.368 483.639 421.46 484.558 409.593H484.572ZM429.91 492.233L409.692 406.109C408.747 402.372 404.982 400.082 401.229 400.961C397.477 401.84 395.12 405.564 395.933 409.331L414.102 486.848C409.106 485.061 403.946 483.776 398.696 483.01L367.679 350.648C372.024 352.627 376.742 353.653 381.516 353.659C381.962 353.659 382.435 353.595 382.887 353.574L387.884 374.909C388.422 377.406 390.266 379.418 392.707 380.172C395.148 380.925 397.805 380.303 399.658 378.544C401.51 376.785 402.269 374.163 401.643 371.686L396.639 350.337C401.434 348.215 405.663 344.995 408.985 340.938L440.517 475.767C436.423 480.874 432.868 486.392 429.91 492.233ZM386.732 338.882C377.694 340.635 368.466 336.94 363.135 329.434L364.033 304.544C366.492 305.003 368.987 305.24 371.488 305.251C373.904 305.261 376.314 304.993 378.668 304.452C383.436 303.2 387.895 300.983 391.77 297.937L403.671 319.9C402.253 329.013 395.623 336.448 386.732 338.896V338.882ZM367.376 256.327C368.338 256.104 369.332 256.549 369.807 257.415L384.958 285.435C382.225 287.908 378.961 289.721 375.418 290.736C371.796 291.4 368.07 291.224 364.528 290.22L365.68 258.376C365.718 257.389 366.413 256.549 367.376 256.327ZM316.233 397.473L321.632 410.519L295.485 421.345C292.385 422.647 290.631 425.952 291.291 429.249C291.952 432.545 294.843 434.92 298.205 434.927C299.134 434.925 300.053 434.743 300.912 434.39L327.059 423.557L332.465 436.616L319.385 442.037C316.267 443.327 314.496 446.641 315.157 449.95C315.817 453.258 318.724 455.639 322.098 455.633C323.024 455.63 323.941 455.448 324.798 455.096L337.879 449.676L343.285 462.736L317.116 473.583C313.999 474.873 312.228 478.187 312.888 481.496C313.549 484.805 316.456 487.185 319.83 487.18C320.756 487.177 321.673 486.995 322.529 486.643L348.677 475.816L354.394 489.618C331.366 500.129 314.479 520.682 308.636 545.312L257.415 421.811L316.233 397.473ZM610.39 651.88H299.449C276.032 651.88 257.048 632.896 257.048 609.479C257.048 586.061 276.032 567.078 299.449 567.078C303.544 567.064 307.618 567.654 311.54 568.83C313.659 569.47 315.956 569.08 317.745 567.777C319.534 566.474 320.609 564.407 320.65 562.194C321.152 537.009 335.712 514.224 358.356 503.186C381 492.149 407.917 494.717 428.066 509.836C429.846 511.161 432.146 511.573 434.275 510.948C436.405 510.323 438.117 508.733 438.899 506.656C452.706 469.86 490.864 448.216 529.531 455.249C568.197 462.282 596.291 495.976 596.257 535.277C596.27 543.359 595.067 551.397 592.688 559.12C591.945 561.523 592.536 564.14 594.238 565.991C595.941 567.842 598.499 568.649 600.956 568.109C604.055 567.427 607.218 567.081 610.39 567.078C633.808 567.078 652.791 586.061 652.791 609.479C652.791 632.896 633.808 651.88 610.39 651.88Z" fill="#6C7174"/>
<path d="M516.296 352.952C518.514 352.961 520.607 351.927 521.949 350.161C530.772 338.22 534.182 323.125 531.348 308.551C530.746 306.059 528.841 304.089 526.37 303.403C523.9 302.717 521.252 303.423 519.45 305.248C517.649 307.072 516.978 309.729 517.695 312.191C519.387 322.547 516.862 333.149 510.685 341.631C509.079 343.772 508.821 346.637 510.018 349.032C511.215 351.426 513.662 352.938 516.338 352.938L516.296 352.952Z" fill="#6C7174"/>
<path d="M507.003 567.078C501.748 567.094 496.565 568.302 491.844 570.611C479.132 553.216 455.394 548.12 436.662 558.765C417.93 569.409 410.159 592.41 418.597 612.235C419.707 614.841 422.266 616.532 425.098 616.532C426.05 616.534 426.993 616.341 427.868 615.966C429.593 615.232 430.954 613.842 431.654 612.103C432.354 610.364 432.334 608.419 431.6 606.695C430.061 603.109 429.268 599.247 429.267 595.345C429.267 579.734 441.923 567.078 457.535 567.078C468.499 567.023 478.485 573.377 483.081 583.332C483.234 583.562 483.399 583.783 483.576 583.996C483.688 584.238 483.813 584.474 483.951 584.703C484.078 584.858 484.262 584.929 484.403 585.077C484.735 585.421 485.102 585.729 485.498 585.996C485.851 586.268 486.23 586.504 486.629 586.702C487.039 586.875 487.465 587.007 487.901 587.098C488.336 587.212 488.781 587.281 489.23 587.303C490.148 587.296 491.059 587.143 491.929 586.851C492.118 586.816 492.304 586.771 492.487 586.717C492.717 586.568 492.936 586.405 493.145 586.229C493.399 586.116 493.647 585.988 493.887 585.847C497.599 582.845 502.229 581.209 507.003 581.211C515.266 581.225 522.768 586.038 526.225 593.543C527.844 597.095 532.037 598.661 535.588 597.041C539.14 595.422 540.706 591.229 539.086 587.678C533.332 575.135 520.802 567.09 507.003 567.078Z" fill="#6C7174"/>
<path d="M367.884 517.97C366.817 518.316 341.85 526.952 341.85 552.944C341.85 556.847 345.014 560.011 348.916 560.011C352.819 560.011 355.983 556.847 355.983 552.944C356.56 543.086 363.046 534.557 372.393 531.369C376.1 530.124 378.097 526.109 376.852 522.401C375.607 518.693 371.592 516.697 367.884 517.942V517.97Z" fill="#6C7174"/>
<path d="M467.335 510.331C467.897 510.473 468.474 510.545 469.053 510.543C472.291 510.54 475.113 508.335 475.9 505.193C479.153 491.997 490.835 482.61 504.422 482.276C508.325 482.266 511.481 479.094 511.471 475.191C511.462 471.288 508.29 468.132 504.387 468.142C484.301 468.409 466.943 482.24 462.198 501.759C461.25 505.545 463.55 509.382 467.335 510.331Z" fill="#6C7174"/>
</svg>
