<svg id="mail_1_" data-name="mail (1)" xmlns="http://www.w3.org/2000/svg" width="21.553" height="16.165" viewBox="0 0 21.553 16.165">
  <g id="Group_40" data-name="Group 40" transform="translate(0 0)">
    <g id="Group_39" data-name="Group 39">
      <path id="Path_1148" data-name="Path 1148" d="M7.073,65.312c2.958,2.505,8.149,6.913,9.674,8.287a.9.9,0,0,0,1.3,0c1.527-1.376,6.717-5.783,9.676-8.289a.449.449,0,0,0,.063-.62A1.783,1.783,0,0,0,26.38,64H8.419a1.783,1.783,0,0,0-1.409.692A.449.449,0,0,0,7.073,65.312Z" transform="translate(-6.623 -64)"/>
      <path id="Path_1149" data-name="Path 1149" d="M345.393,126.453a.447.447,0,0,0-.479.065c-1.937,1.642-4.49,3.812-6.415,5.468a.449.449,0,0,0,.012.691c1.789,1.433,4.484,3.4,6.431,4.8a.449.449,0,0,0,.711-.364V126.861A.449.449,0,0,0,345.393,126.453Z" transform="translate(-324.101 -123.784)"/>
      <path id="Path_1150" data-name="Path 1150" d="M.711,137.489c1.947-1.4,4.643-3.371,6.431-4.8a.449.449,0,0,0,.012-.691c-1.925-1.656-4.478-3.825-6.415-5.468A.449.449,0,0,0,0,126.87v10.255a.449.449,0,0,0,.711.364Z" transform="translate(0 -123.793)"/>
      <path id="Path_1151" data-name="Path 1151" d="M29.263,290.246c-1.88-1.345-5.343-3.852-7.41-5.53a.45.45,0,0,0-.578.01c-.406.354-.745.652-.986.869a1.818,1.818,0,0,1-2.506,0c-.24-.216-.579-.515-.985-.868a.447.447,0,0,0-.578-.01c-2.06,1.672-5.527,4.182-7.41,5.53a.449.449,0,0,0-.068.671,1.8,1.8,0,0,0,1.313.576H28.018a1.8,1.8,0,0,0,1.313-.576.449.449,0,0,0-.068-.671Z" transform="translate(-8.261 -275.329)"/>
    </g>
  </g>
</svg>
