<svg xmlns="http://www.w3.org/2000/svg" width="21.553" height="21.553" viewBox="0 0 21.553 21.553">
  <g id="phone" transform="translate(0 0)">
    <g id="Group_38" data-name="Group 38" transform="translate(0 0)">
      <path id="Path_1147" data-name="Path 1147" d="M19.824,14.147a12.237,12.237,0,0,1-3.843-.612,1.757,1.757,0,0,0-1.708.36l-2.423,1.829A13.393,13.393,0,0,1,5.827,9.7L7.6,7.344a1.742,1.742,0,0,0,.429-1.765A12.256,12.256,0,0,1,7.417,1.73,1.731,1.731,0,0,0,5.688,0H1.729A1.731,1.731,0,0,0,0,1.729,19.846,19.846,0,0,0,19.824,21.553a1.731,1.731,0,0,0,1.729-1.729V15.877A1.732,1.732,0,0,0,19.824,14.147Z"/>
    </g>
  </g>
</svg>
