<svg width="436" height="436" viewBox="0 0 436 436" fill="none" xmlns="http://www.w3.org/2000/svg">
<path d="M335.289 186.016C314.272 181.77 292.981 184.152 272.009 193.101C270.24 193.855 269.356 195.85 269.985 197.667L272.283 204.303C262.845 204.306 255.004 201.833 246.777 199.229C244.274 198.437 241.687 197.618 239.027 196.86C226.653 193.337 214.182 196.372 204.81 205.184L203.655 206.27C187.648 209.882 176.597 209.652 163.384 205.263L166.014 197.667C166.644 195.85 165.76 193.855 163.991 193.101C143.019 184.152 121.728 181.769 100.711 186.016C99.0024 186.361 97.7739 187.863 97.7739 189.606V280.464C97.7739 282.487 99.4131 284.126 101.436 284.126H133.465C135.026 284.126 136.415 283.138 136.926 281.663L138.366 277.504C150.582 282.1 159.999 291.898 165.253 297.369C165.781 297.918 166.271 298.428 166.72 298.888L204.443 337.542C206.782 339.938 209.937 341.27 213.324 341.291C213.352 341.291 213.378 341.291 213.405 341.291C216.812 341.291 220.005 339.973 222.405 337.574C223.912 336.066 224.959 334.271 225.547 332.363C231.151 335.494 238.381 334.682 243.139 329.925C245.612 327.451 247.019 324.309 247.36 321.075C248.658 321.441 250.016 321.631 251.405 321.631C255.344 321.631 259.04 320.105 261.811 317.334C264.468 314.677 265.894 311.247 266.09 307.761C270.785 308.733 275.868 307.403 279.505 303.767C284.874 298.398 285.211 290.01 280.505 284.097C281.772 283.847 283.035 283.47 284.277 282.963C288.042 281.427 291.516 279.681 294.876 277.993C295.724 277.567 296.55 277.153 297.372 276.746L299.074 281.663C299.585 283.138 300.974 284.126 302.535 284.126H334.564C336.587 284.126 338.226 282.487 338.226 280.464V189.606C338.226 187.863 336.997 186.361 335.289 186.016ZM130.858 276.802H105.099V192.649C122.633 189.665 140.386 191.645 157.959 198.544L130.858 276.802ZM274.326 298.587C271.443 301.468 266.754 301.468 263.874 298.587L240.83 275.025C239.417 273.577 237.099 273.549 235.651 274.962C234.204 276.375 234.176 278.693 235.588 280.14L256.601 301.671C256.605 301.676 256.609 301.679 256.614 301.684C256.62 301.69 256.625 301.697 256.632 301.704C259.513 304.584 259.513 309.273 256.632 312.155C253.75 315.037 249.06 315.036 246.18 312.156L222.158 287.615C220.745 286.167 218.426 286.139 216.979 287.552C215.532 288.965 215.504 291.283 216.916 292.73L237.929 314.262C237.934 314.267 237.939 314.271 237.945 314.276C237.95 314.281 237.955 314.288 237.96 314.293V314.293C239.348 315.681 240.112 317.537 240.112 319.52C240.112 321.502 239.348 323.358 237.961 324.745C235.079 327.626 230.39 327.625 227.509 324.746L201.425 298.144C200.012 296.696 197.693 296.668 196.247 298.081C194.799 299.494 194.771 301.812 196.184 303.259L217.196 324.79C217.201 324.795 217.207 324.799 217.212 324.805C217.217 324.81 217.222 324.816 217.228 324.822C219.314 326.91 219.315 330.307 217.228 332.395C216.205 333.417 214.842 333.969 213.372 333.967C211.957 333.958 210.647 333.411 209.687 332.427L171.964 293.773C171.527 293.325 171.051 292.83 170.538 292.295C164.836 286.359 154.611 275.721 140.766 270.581L160.988 212.185C168.88 214.812 176.17 216.1 183.963 216.1C187.163 216.1 190.454 215.874 193.899 215.443L185.425 223.412C181.371 227.224 179.229 232.18 179.229 237.745V274.541C179.229 276.564 180.868 278.204 182.891 278.204C198.673 278.204 214.999 268.221 214.999 251.515C214.999 245.749 219.544 241.627 223.028 238.778L262.937 278.662C264.862 280.586 267.07 282.047 269.437 283.022L274.27 288.075C277.166 291.105 277.191 295.722 274.326 298.587ZM291.588 271.448C288.354 273.073 285.009 274.753 281.509 276.181C276.753 278.123 271.746 277.113 268.112 273.482L225.853 231.25C224.48 229.877 222.276 229.815 220.828 231.106C220.439 231.452 219.907 231.882 219.291 232.379C215.23 235.657 207.672 241.757 207.672 251.516C207.672 258.401 203.625 262.868 200.229 265.402C196.464 268.212 191.621 270.054 186.551 270.661V237.745C186.551 234.152 187.823 231.208 190.44 228.748L209.827 210.52C217.275 203.516 227.187 201.104 237.021 203.904C239.578 204.631 242.114 205.435 244.566 206.211C253.668 209.092 263.062 212.058 274.801 211.574L294.955 269.77C293.818 270.328 292.692 270.893 291.588 271.448ZM330.901 276.802H305.142L278.041 198.544C295.613 191.645 313.365 189.665 330.901 192.649V276.802ZM132.808 179.717H182.385V190.081C182.385 192.104 184.024 193.743 186.047 193.743H249.952C251.975 193.743 253.614 192.104 253.614 190.081V179.717H303.191C305.214 179.717 306.853 178.078 306.853 176.055V160.743C306.853 148.217 299.383 137.26 288.319 132.46C291.938 128.45 294.144 123.165 294.144 117.378C294.144 104.878 283.869 94.7095 271.239 94.7095C258.609 94.7095 248.334 104.878 248.334 117.378C248.334 123.17 250.543 128.459 254.168 132.471C247.169 135.531 241.496 141.117 238.337 148.129C237.292 147.519 236.204 146.973 235.08 146.486C238.699 142.476 240.904 137.191 240.904 131.404C240.904 118.904 230.629 108.735 218 108.735C205.37 108.735 195.095 118.904 195.095 131.404C195.095 137.191 197.301 142.476 200.919 146.486C199.796 146.974 198.708 147.52 197.663 148.129C194.505 141.117 188.831 135.531 181.833 132.471C185.457 128.46 187.666 123.171 187.666 117.379C187.666 104.879 177.391 94.7104 164.762 94.7104C152.132 94.7104 141.857 104.879 141.857 117.379C141.857 123.166 144.062 128.451 147.681 132.461C136.618 137.261 129.147 148.218 129.147 160.744V176.056C129.146 178.077 130.786 179.717 132.808 179.717ZM246.29 186.418H189.71V174.769C189.71 163.7 197.359 154.232 208.06 151.824C211.068 153.264 214.44 154.072 218 154.072C221.56 154.072 224.933 153.264 227.94 151.824C238.642 154.232 246.291 163.7 246.291 174.769V186.418H246.29ZM271.239 102.033C279.83 102.033 286.819 108.917 286.819 117.377C286.819 125.838 279.83 132.722 271.239 132.722C262.648 132.722 255.659 125.838 255.659 117.377C255.659 108.917 262.648 102.033 271.239 102.033ZM261.302 137.799C264.309 139.239 267.681 140.046 271.239 140.046C274.799 140.046 278.171 139.238 281.18 137.798C291.881 140.208 299.53 149.675 299.53 160.743V172.393H253.518C252.937 164.758 249.58 157.84 244.366 152.731C247.098 145.233 253.49 139.567 261.302 137.799ZM218 116.059C226.591 116.059 233.58 122.943 233.58 131.404C233.58 139.865 226.591 146.748 218 146.748C209.409 146.748 202.419 139.864 202.419 131.403C202.419 122.942 209.409 116.059 218 116.059ZM164.761 102.033C173.352 102.033 180.341 108.917 180.341 117.377C180.341 125.838 173.352 132.722 164.761 132.722C156.17 132.722 149.181 125.838 149.181 117.377C149.181 108.917 156.17 102.033 164.761 102.033ZM136.47 160.742C136.47 149.674 144.119 140.207 154.82 137.797C157.829 139.237 161.201 140.046 164.761 140.046C168.32 140.046 171.691 139.238 174.699 137.799C182.51 139.567 188.902 145.232 191.635 152.731C186.421 157.839 183.064 164.757 182.482 172.392H136.47V160.742Z" fill="#6C7174"/>
<circle cx="218" cy="218" r="215" stroke="#6C7174" stroke-width="6"/>
</svg>
