<svg width="98" height="98" viewBox="0 0 98 98" fill="none" xmlns="http://www.w3.org/2000/svg">
<g clip-path="url(#clip0_35_419)">
<mask id="mask0_35_419" style="mask-type:luminance" maskUnits="userSpaceOnUse" x="0" y="0" width="98" height="98">
<path d="M98 0H0V98H98V0Z" fill="white"/>
</mask>
<g mask="url(#mask0_35_419)">
<mask id="mask1_35_419" style="mask-type:luminance" maskUnits="userSpaceOnUse" x="0" y="0" width="98" height="98">
<path d="M98 0H0V98H98V0Z" fill="white"/>
</mask>
<g mask="url(#mask1_35_419)">
<path d="M97.003 89.353V7.649C97.003 3.42457 93.5784 0 89.354 0H7.649C3.42457 0 0 3.42457 0 7.649V89.353C0 93.5774 3.42457 97.002 7.649 97.002H89.354C93.5784 97.002 97.003 93.5774 97.003 89.353Z" fill="black"/>
</g>
</g>
<g clip-path="url(#clip1_35_419)">
<path d="M30.1719 30.1719H31.7656V33.3594H30.1719V30.1719Z" fill="white"/>
<path d="M30.1719 36.5469H31.7656V39.7344H30.1719V36.5469Z" fill="white"/>
<path d="M26.1875 34.1562H29.375V35.75H26.1875V34.1562Z" fill="white"/>
<path d="M32.5625 34.1562H35.75V35.75H32.5625V34.1562Z" fill="white"/>
<path d="M67.625 40.5312H69.2188V42.125H67.625V40.5312Z" fill="white"/>
<path d="M67.625 37.3438H69.2188V38.9375H67.625V37.3438Z" fill="white"/>
<path d="M66.0312 38.9375H67.625V40.5312H66.0312V38.9375Z" fill="white"/>
<path d="M69.2188 38.9375H70.8125V40.5312H69.2188V38.9375Z" fill="white"/>
<path d="M65.6738 46.9907L67.2676 46.1938L67.9804 47.6195L66.3867 48.416L65.6738 46.9907Z" fill="white"/>
<path d="M28.2227 48.4155L28.9351 46.9902L30.5288 47.7871L29.816 49.2124L28.2227 48.4155Z" fill="white"/>
<path d="M57.2817 49.8611L56.1541 48.7327C56.3556 48.5323 56.4689 48.2599 56.4689 47.9755C56.4689 47.6914 56.3556 47.4191 56.1541 47.2187C55.7311 46.8121 55.0631 46.8121 54.6401 47.2187L53.5117 46.0911C54.5662 45.0849 56.2257 45.0849 57.2801 46.0911C58.3202 47.1319 58.3202 48.8187 57.2801 49.8595L57.2817 49.8611Z" fill="white"/>
<path d="M71.6094 26.1875H69.2188V27.7812H71.6094C72.0494 27.7812 72.4062 28.1381 72.4062 28.5781V51.6875H63.8939C65.1145 49.1362 64.2223 46.0755 61.822 44.5794C62.3294 42.6884 61.9391 40.669 60.7644 39.1029C59.5893 37.5367 57.7602 36.5971 55.8026 36.5547C54.5392 33.6469 51.6708 31.766 48.5004 31.766C45.33 31.766 42.4616 33.6469 41.1982 36.5547C39.2406 36.5971 37.4111 37.5364 36.236 39.1025C35.0609 40.6686 34.6706 42.688 35.178 44.5794C32.7777 46.0755 31.8855 49.1362 33.1061 51.6875H24.5938V28.5781C24.5938 28.1381 24.9506 27.7812 25.3906 27.7812H27.7812V26.1875H25.3906C24.0704 26.1875 23 27.2579 23 28.5781V60.4531C23 61.7733 24.0704 62.8438 25.3906 62.8438H42.125V66.8281C42.125 68.1483 41.0546 69.2188 39.7344 69.2188H35.75V74H61.25V69.2188H57.2656C55.9454 69.2188 54.875 68.1483 54.875 66.8281V62.8438H71.6094C72.9296 62.8438 74 61.7733 74 60.4531V28.5781C74 27.2579 72.9296 26.1875 71.6094 26.1875ZM38.1406 45.3125V43.7188C37.6371 43.7199 37.1364 43.79 36.6519 43.9269C36.3796 42.6258 36.6585 41.2701 37.4227 40.1826C38.1869 39.0955 39.3678 38.3733 40.6842 38.1893C40.583 38.6982 40.5316 39.2157 40.5312 39.7344H42.125C42.125 36.2134 44.979 33.3594 48.5 33.3594C52.021 33.3594 54.875 36.2134 54.875 39.7344H56.4688C56.4684 39.2149 56.417 38.697 56.3158 38.1877C57.6318 38.3725 58.8123 39.0943 59.5765 40.1814C60.3407 41.269 60.62 42.6242 60.3481 43.925C59.8636 43.7888 59.3625 43.7195 58.8594 43.7188V45.3125C61.059 45.3152 62.841 47.0973 62.8438 49.2969C62.8399 50.163 62.55 51.0035 62.0189 51.6875H34.9811C34.45 51.0035 34.1601 50.163 34.1562 49.2969C34.159 47.0973 35.941 45.3152 38.1406 45.3125ZM59.6562 70.8125V72.4062H37.3438V70.8125H59.6562ZM48.5 67.6585C49.8202 67.6585 50.8906 66.5881 50.8906 65.2678V62.8438H53.2812V66.8281C53.2844 67.6931 53.5715 68.5332 54.0987 69.2188H42.9013C43.4285 68.5332 43.7156 67.6931 43.7188 66.8281V62.8438H46.1094V65.2678C46.1094 66.5881 47.1798 67.6585 48.5 67.6585ZM47.7031 65.2678V62.8438H49.2969V65.2678C49.2969 65.7079 48.9401 66.0647 48.5 66.0647C48.0599 66.0647 47.7031 65.7079 47.7031 65.2678ZM72.4062 60.4531C72.4062 60.8932 72.0494 61.25 71.6094 61.25H25.3906C24.9506 61.25 24.5938 60.8932 24.5938 60.4531V53.2812H72.4062V60.4531Z" fill="white"/>
<path d="M50.8906 54.875H46.1094V59.6562H50.8906V54.875ZM49.2969 58.0625H47.7031V56.4688H49.2969V58.0625Z" fill="white"/>
<path d="M42.7118 48.7333C41.9293 47.9504 41.9293 46.6816 42.7118 45.8987C43.4946 45.1162 44.7635 45.1162 45.5464 45.8987L46.6732 44.7719C46.3043 44.4061 45.8596 44.1252 45.3701 43.9497C45.679 42.3423 47.1549 41.2299 48.7848 41.3758C50.4152 41.5217 51.6696 42.8789 51.6879 44.5154H53.2816C53.2641 42.0365 51.3544 39.982 48.8833 39.7836C46.4121 39.5852 44.1993 41.3085 43.7861 43.7528C42.9557 43.8248 42.1771 44.1855 41.5849 44.7719C40.1826 46.1781 40.1826 48.4539 41.5849 49.8601L42.7118 48.7333Z" fill="white"/>
<path d="M62.0469 23.7969H63.6406V26.9844H62.0469V23.7969Z" fill="white"/>
<path d="M62.0469 30.1719H63.6406V33.3594H62.0469V30.1719Z" fill="white"/>
<path d="M58.0625 27.7812H61.25V29.375H58.0625V27.7812Z" fill="white"/>
<path d="M64.4375 27.7812H67.625V29.375H64.4375V27.7812Z" fill="white"/>
<path d="M32.5625 26.1875H34.1562V27.7812H32.5625V26.1875Z" fill="white"/>
<path d="M32.5625 23H34.1562V24.5938H32.5625V23Z" fill="white"/>
<path d="M30.9688 24.5938H32.5625V26.1875H30.9688V24.5938Z" fill="white"/>
<path d="M34.1562 24.5938H35.75V26.1875H34.1562V24.5938Z" fill="white"/>
<path d="M56.7031 34.3892L59.8906 31.2017L61.0175 32.3285L57.83 35.5164L56.7031 34.3892Z" fill="white"/>
<path d="M46.9062 26.1875H48.5V30.1719H46.9062V26.1875Z" fill="white"/>
<path d="M46.9062 23H48.5V24.5938H46.9062V23Z" fill="white"/>
<path d="M63.875 43.1553L65.4684 41.5615L66.5956 42.6884L65.0018 44.2821L63.875 43.1553Z" fill="white"/>
<path d="M35.1875 28.3445L36.3143 27.2173L41.8921 32.7954L40.7652 33.9222L35.1875 28.3445Z" fill="white"/>
<path d="M28.0996 42.7625L29.056 41.4878L32.2435 43.8784L31.2871 45.1531L28.0996 42.7625Z" fill="white"/>
<path d="M51.7285 29.9195L52.5254 27.5293L54.0374 28.0336L53.2402 30.4238L51.7285 29.9195Z" fill="white"/>
</g>
</g>
<defs>
<clipPath id="clip0_35_419">
<rect width="98" height="98" fill="white"/>
</clipPath>
<clipPath id="clip1_35_419">
<rect width="51" height="51" fill="white" transform="translate(23 23)"/>
</clipPath>
</defs>
</svg>
