<svg width="98" height="98" viewBox="0 0 98 98" fill="none" xmlns="http://www.w3.org/2000/svg">
<g clip-path="url(#clip0_35_418)">
<mask id="mask0_35_418" style="mask-type:luminance" maskUnits="userSpaceOnUse" x="0" y="0" width="98" height="98">
<path d="M98 0H0V98H98V0Z" fill="white"/>
</mask>
<g mask="url(#mask0_35_418)">
<mask id="mask1_35_418" style="mask-type:luminance" maskUnits="userSpaceOnUse" x="0" y="0" width="98" height="98">
<path d="M98 0H0V98H98V0Z" fill="white"/>
</mask>
<g mask="url(#mask1_35_418)">
<path d="M97.003 89.353V7.649C97.003 3.42457 93.5784 0 89.354 0H7.649C3.42457 0 0 3.42457 0 7.649V89.353C0 93.5774 3.42457 97.002 7.649 97.002H89.354C93.5784 97.002 97.003 93.5774 97.003 89.353Z" fill="black"/>
</g>
</g>
<path d="M56.8383 60.5049L55.0723 68.1216" stroke="white" stroke-width="1.5" stroke-miterlimit="10" stroke-linecap="round" stroke-linejoin="round"/>
<path d="M55.397 57.6611L46.5898 53.8859" stroke="white" stroke-width="1.5" stroke-miterlimit="10" stroke-linecap="round" stroke-linejoin="round"/>
<mask id="mask2_35_418" style="mask-type:luminance" maskUnits="userSpaceOnUse" x="22" y="20" width="53" height="53">
<path d="M74.25 72.25V20.75H22.75V72.25H74.25Z" fill="white" stroke="white" stroke-width="1.5"/>
</mask>
<g mask="url(#mask2_35_418)">
<path d="M59.3329 72.2236L56.5059 70.9814" stroke="white" stroke-width="1.5" stroke-miterlimit="10" stroke-linecap="round" stroke-linejoin="round"/>
</g>
<path d="M43.8618 54.9792L40.6094 62.6094" stroke="white" stroke-width="1.5" stroke-miterlimit="10" stroke-linecap="round" stroke-linejoin="round"/>
<path d="M26.6985 64.6998L25.6738 66.6655" stroke="white" stroke-width="1.5" stroke-miterlimit="10" stroke-linecap="round" stroke-linejoin="round"/>
<path d="M37.736 64.2383L29.7188 63.1389" stroke="white" stroke-width="1.5" stroke-miterlimit="10" stroke-linecap="round" stroke-linejoin="round"/>
<mask id="mask3_35_418" style="mask-type:luminance" maskUnits="userSpaceOnUse" x="22" y="20" width="53" height="53">
<path d="M74.25 72.25V20.75H22.75V72.25H74.25Z" fill="white" stroke="white" stroke-width="1.5"/>
</mask>
<g mask="url(#mask3_35_418)">
<path d="M38.3105 23.5097C39.9099 21.8255 42.1706 20.7759 44.6768 20.7759C49.5275 20.7759 53.4601 24.7085 53.4601 29.5582C53.4601 33.6978 50.5958 37.1686 46.7408 38.0972" stroke="white" stroke-width="1.5" stroke-miterlimit="10" stroke-linecap="round" stroke-linejoin="round"/>
<path d="M36.6067 26.0914C36.1481 27.1555 35.8945 28.3273 35.8945 29.5591C35.8945 33.6987 38.7578 37.1696 42.6127 38.0981" stroke="white" stroke-width="1.5" stroke-miterlimit="10" stroke-linecap="round" stroke-linejoin="round"/>
<path d="M44.6777 40.4198V42.8948V50.9897" stroke="white" stroke-width="1.5" stroke-miterlimit="10" stroke-linecap="round" stroke-linejoin="round"/>
<path d="M46.756 38.3413C46.756 37.1935 45.8256 36.263 44.6778 36.263C43.53 36.263 42.5996 37.1935 42.5996 38.3413C42.5996 39.489 43.53 40.4194 44.6778 40.4194C45.8256 40.4194 46.756 39.489 46.756 38.3413Z" stroke="white" stroke-width="1.5" stroke-miterlimit="10" stroke-linecap="round" stroke-linejoin="round"/>
<path d="M46.756 53.0678C46.756 51.92 45.8256 50.9895 44.6778 50.9895C43.53 50.9895 42.5996 51.92 42.5996 53.0678C42.5996 54.2156 43.53 55.146 44.6778 55.146C45.8256 55.146 46.756 54.2156 46.756 53.0678Z" stroke="white" stroke-width="1.5" stroke-miterlimit="10" stroke-linecap="round" stroke-linejoin="round"/>
<path d="M61.6646 33.612L61.7244 33.6718C62.5014 34.4488 62.5156 35.704 61.7563 36.4984L56.1523 42.3613" stroke="white" stroke-width="1.5" stroke-miterlimit="10" stroke-linecap="round" stroke-linejoin="round"/>
<path d="M28.4707 55.415H28.9015C29.7817 55.415 30.5465 54.8102 30.7493 53.9536L32.2231 47.7269" stroke="white" stroke-width="1.5" stroke-miterlimit="10" stroke-linecap="round" stroke-linejoin="round"/>
<path d="M34.7775 45.7045C34.7775 44.5568 33.8471 43.6263 32.6993 43.6263C31.5515 43.6263 30.6211 44.5568 30.6211 45.7045C30.6211 46.8523 31.5515 47.7827 32.6993 47.7827C33.8471 47.7827 34.7775 46.8523 34.7775 45.7045Z" stroke="white" stroke-width="1.5" stroke-miterlimit="10" stroke-linecap="round" stroke-linejoin="round"/>
<path d="M56.6798 43.6717C56.6798 42.5239 55.7494 41.5935 54.6016 41.5935C53.4538 41.5935 52.5234 42.5239 52.5234 43.6717C52.5234 44.8195 53.4538 45.75 54.6016 45.75C55.7494 45.75 56.6798 44.8195 56.6798 43.6717Z" stroke="white" stroke-width="1.5" stroke-miterlimit="10" stroke-linecap="round" stroke-linejoin="round"/>
<path d="M59.383 58.4798C59.383 57.332 58.4525 56.4015 57.3047 56.4015C56.157 56.4015 55.2266 57.332 55.2266 58.4798C55.2266 59.6276 56.157 60.5581 57.3047 60.5581C58.4525 60.5581 59.383 59.6276 59.383 58.4798Z" stroke="white" stroke-width="1.5" stroke-miterlimit="10" stroke-linecap="round" stroke-linejoin="round"/>
<path d="M62.4981 58.4795C62.4981 55.6113 60.1729 53.2861 57.3047 53.2861C54.4365 53.2861 52.1113 55.6113 52.1113 58.4795C52.1113 61.3477 54.4365 63.6729 57.3047 63.6729C60.1729 63.6729 62.4981 61.3477 62.4981 58.4795Z" stroke="white" stroke-width="1.5" stroke-miterlimit="10" stroke-linecap="round" stroke-linejoin="round"/>
<path d="M41.8732 64.5203C41.8732 63.3726 40.9428 62.4421 39.795 62.4421C38.6472 62.4421 37.7168 63.3726 37.7168 64.5203C37.7168 65.6681 38.6472 66.5986 39.795 66.5986C40.9428 66.5986 41.8732 65.6681 41.8732 64.5203Z" stroke="white" stroke-width="1.5" stroke-miterlimit="10" stroke-linecap="round" stroke-linejoin="round"/>
<path d="M29.7364 62.8564C29.7364 61.7086 28.806 60.7781 27.6583 60.7781C26.5105 60.7781 25.5801 61.7086 25.5801 62.8564C25.5801 64.0042 26.5105 64.9346 27.6583 64.9346C28.806 64.9346 29.7364 64.0042 29.7364 62.8564Z" stroke="white" stroke-width="1.5" stroke-miterlimit="10" stroke-linecap="round" stroke-linejoin="round"/>
<path d="M56.6798 70.1453C56.6798 68.9976 55.7494 68.0672 54.6016 68.0672C53.4538 68.0672 52.5234 68.9976 52.5234 70.1453C52.5234 71.2931 53.4538 72.2236 54.6016 72.2236C55.7494 72.2236 56.6798 71.2931 56.6798 70.1453Z" stroke="white" stroke-width="1.5" stroke-miterlimit="10" stroke-linecap="round" stroke-linejoin="round"/>
<path d="M44.3066 31.3506C45.6334 32.6774 47.7846 32.6774 49.1113 31.3506" stroke="white" stroke-width="1.5" stroke-miterlimit="10" stroke-linecap="round" stroke-linejoin="round"/>
<path d="M45.0254 26.7732V28.0771" stroke="white" stroke-width="1.5" stroke-miterlimit="10" stroke-linecap="round" stroke-linejoin="round"/>
<path d="M48.3945 26.7732V28.0771" stroke="white" stroke-width="1.5" stroke-miterlimit="10" stroke-linecap="round" stroke-linejoin="round"/>
<path d="M34.7246 45.23L44.6776 42.3771L52.5235 43.6717" stroke="white" stroke-width="1.5" stroke-miterlimit="10" stroke-linecap="round" stroke-linejoin="round"/>
<path d="M68.7479 61.9184L70.8813 62.8542C71.7312 63.2268 71.5211 64.4866 70.5966 64.5642L67.7749 64.7992C67.34 64.8355 66.9944 65.1812 66.9582 65.616L66.7231 68.4378C66.6465 69.3622 65.3857 69.5723 65.0131 68.7225L62.0815 62.0364C61.4946 60.6979 62.8579 59.3357 64.1963 59.9226L65.9084 60.6731" stroke="white" stroke-width="1.5" stroke-miterlimit="10" stroke-linecap="round" stroke-linejoin="round"/>
</g>
</g>
<defs>
<clipPath id="clip0_35_418">
<rect width="98" height="98" fill="white"/>
</clipPath>
</defs>
</svg>
