<svg width="98" height="98" viewBox="0 0 98 98" fill="none" xmlns="http://www.w3.org/2000/svg">
<g clip-path="url(#clip0_1151_1130)">
<path d="M96.503 7.649V89.353C96.503 93.3013 93.3022 96.502 89.354 96.502H7.649C3.70072 96.502 0.5 93.3013 0.5 89.353V7.649C0.5 3.70071 3.70071 0.5 7.649 0.5H89.354C93.3022 0.5 96.503 3.70071 96.503 7.649Z" stroke="black"/>
<g clip-path="url(#clip1_1151_1130)">
<path d="M31.5059 60.3176H67.4941C67.8108 60.3176 68.05 60.0784 68.05 59.7617V33.6738C68.05 33.3572 67.8108 33.118 67.4941 33.118H31.5059C31.1892 33.118 30.95 33.3572 30.95 33.6738V59.7617C30.95 60.0784 31.1892 60.3176 31.5059 60.3176ZM66.9383 34.2297V59.2059H32.0617V34.2297H66.9383Z" fill="black" stroke="black" stroke-width="0.1"/>
<path d="M47.1152 62.9914H51.8848C52.2014 62.9914 52.4406 62.7522 52.4406 62.4355V59.7617C52.4406 59.445 52.2014 59.2059 51.8848 59.2059H47.1152C46.7986 59.2059 46.5594 59.445 46.5594 59.7617V62.4355C46.5594 62.7522 46.7986 62.9914 47.1152 62.9914ZM51.3289 60.3176V61.8797H47.6711V60.3176H51.3289Z" fill="black" stroke="black" stroke-width="0.1"/>
<path d="M42.1289 65.882H56.8711C57.1878 65.882 57.427 65.6428 57.427 65.3262V62.4355C57.427 62.1189 57.1878 61.8797 56.8711 61.8797H42.1289C41.8122 61.8797 41.573 62.1189 41.573 62.4355V65.3262C41.573 65.6428 41.8122 65.882 42.1289 65.882ZM56.3152 62.9914V64.7703H42.6848V62.9914H56.3152Z" fill="black" stroke="black" stroke-width="0.1"/>
<path d="M33.7461 58.7277H65.1816C65.4983 58.7277 65.7375 58.4886 65.7375 58.1719V35.3359C65.7375 35.0193 65.4983 34.7801 65.1816 34.7801H33.7461C33.4294 34.7801 33.1902 35.0193 33.1902 35.3359V58.1719C33.1902 58.4886 33.4294 58.7277 33.7461 58.7277ZM64.6258 35.8918V57.616H34.302V35.8918H64.6258Z" fill="black" stroke="black" stroke-width="0.1"/>
<path d="M39.5273 39.1437H62.5078C62.8245 39.1437 63.0637 38.9046 63.0637 38.5879C63.0637 38.2712 62.8245 38.032 62.5078 38.032H39.5273C39.2107 38.032 38.9715 38.2712 38.9715 38.5879C38.9715 38.9046 39.2107 39.1437 39.5273 39.1437Z" fill="black" stroke="black" stroke-width="0.1"/>
<path d="M39.5273 41.4562H62.5078C62.8245 41.4562 63.0637 41.2171 63.0637 40.9004C63.0637 40.5837 62.8245 40.3445 62.5078 40.3445H39.5273C39.2107 40.3445 38.9715 40.5837 38.9715 40.9004C38.9715 41.2171 39.2107 41.4562 39.5273 41.4562Z" fill="black" stroke="black" stroke-width="0.1"/>
<path d="M41.7676 43.7687H62.5078C62.8245 43.7687 63.0637 43.5296 63.0637 43.2129C63.0637 42.8962 62.8245 42.657 62.5078 42.657H41.7676C41.4509 42.657 41.2117 42.8962 41.2117 43.2129C41.2117 43.5296 41.4509 43.7687 41.7676 43.7687Z" fill="black" stroke="black" stroke-width="0.1"/>
<path d="M43.5742 46.0812H62.5078C62.8245 46.0812 63.0637 45.8421 63.0637 45.5254C63.0637 45.2087 62.8245 44.9695 62.5078 44.9695H43.5742C43.2575 44.9695 43.0184 45.2087 43.0184 45.5254C43.0184 45.8421 43.2575 46.0812 43.5742 46.0812Z" fill="black" stroke="black" stroke-width="0.1"/>
<path d="M42.5472 56.629L42.5549 56.6316H42.563H42.5634H42.5638H42.5643H42.5647H42.5651H42.5655H42.5659H42.5663H42.5667H42.5672H42.5676H42.568H42.5684H42.5688H42.5692H42.5696H42.57H42.5704H42.5708H42.5711H42.5715H42.5719H42.5723H42.5727H42.5731H42.5735H42.5739H42.5742H42.5746H42.575H42.5754H42.5757H42.5761H42.5765H42.5769H42.5772H42.5776H42.578H42.5783H42.5787H42.579H42.5794H42.5798H42.5801H42.5805H42.5808H42.5812H42.5815H42.5819H42.5822H42.5826H42.5829H42.5833H42.5836H42.584H42.5843H42.5847H42.585H42.5853H42.5857H42.586H42.5863H42.5867H42.587H42.5873H42.5877H42.588H42.5883H42.5886H42.589H42.5893H42.5896H42.5899H42.5902H42.5906H42.5909H42.5912H42.5915H42.5918H42.5921H42.5924H42.5928H42.5931H42.5934H42.5937H42.594H42.5943H42.5946H42.5949H42.5952H42.5955H42.5958H42.5961H42.5964H42.5967H42.597H42.5973H42.5976H42.5979H42.5982H42.5984H42.5987H42.599H42.5993H42.5996H42.5999H42.6002H42.6004H42.6007H42.601H42.6013H42.6016H42.6018H42.6021H42.6024H42.6027H42.6029H42.6032H42.6035H42.6038H42.604H42.6043H42.6046H42.6048H42.6051H42.6054H42.6056H42.6059H42.6062H42.6064H42.6067H42.607H42.6072H42.6075H42.6077H42.608H42.6083H42.6085H42.6088H42.609H42.6093H42.6095H42.6098H42.61H42.6103H42.6105H42.6108H42.611H42.6113H42.6115H42.6118H42.612H42.6123H42.6125H42.6128H42.613H42.6133H42.6135H42.6137H42.614H42.6142H42.6145H42.6147H42.615H42.6152H42.6154H42.6157H42.6159H42.6161H42.6164H42.6166H42.6168H42.6171H42.6173H42.6175H42.6178H42.618H42.6182H42.6185H42.6187H42.6189H42.6192H42.6194H42.6196H42.6199H42.6201H42.6203H42.6205H42.6208H42.621H42.6212H42.6214H42.6217H42.6219H42.6221H42.6223H42.6226H42.6228H42.623H42.6232H42.6234H42.6237H42.6239H42.6241H42.6243H42.6245H42.6248H42.625H42.6252H42.6254H42.6256H42.6259H42.6261H42.6263H42.6265H42.6267H42.6269H42.6272H42.6274H42.6276H42.6278H42.628H42.6282H42.6285H42.6287H42.6289H42.6291H42.6293H42.6295H42.6297H42.63H42.6302H42.6304H42.6306H42.6308H42.631H42.6312H42.6315H42.6317H42.6319H42.6321H42.6323H42.6325H42.6327H42.6329H42.6332H42.6334H42.6336H42.6338H42.634H42.6342H42.6344H42.6346H42.6348H42.6351H42.6353H42.6355H42.6357H42.6359H42.6361H42.6363H42.6365H42.6368H42.637H42.6372H42.6374H42.6376H42.6378H42.638H42.6382H42.6384H42.6387H42.6389H42.6391H42.6393H42.6395H42.6397H42.6399H42.6402H42.6404H42.6406H42.6408H42.641H42.6412H42.6414H42.6416H42.6419H42.6421H42.6423H42.6425H42.6427H42.6429H42.6432H42.6434H42.6436H42.6438H42.644H42.6442H42.6445H42.6447H42.6449H42.6451H42.6453H42.6456H42.6458H42.646H42.6462H42.6464H42.6467H42.6469H42.6471H42.6473H42.6475H42.6478H42.648H42.6482H42.6484H42.6487H42.6489H42.6491H42.6493H42.6496H42.6498H42.65H42.6502H42.6505H42.6507H42.6509H42.6511H42.6514H42.6516H42.6518H42.6521H42.6523H42.6525H42.6528H42.653H42.6532H42.6535H42.6537H42.6539H42.6542H42.6544H42.6546H42.6549H42.6551H42.6553H42.6556H42.6558H42.6561H42.6563H42.6565H42.6568H42.657H42.6573H42.6575H42.6578H42.658H42.6583H42.6585H42.6587H42.659H42.6592H42.6595H42.6597H42.66H42.6602H42.6605H42.6607H42.661H42.6613H42.6615H42.6618H42.662H42.6623H42.6625H42.6628H42.6631H42.6633H42.6636H42.6638H42.6641H42.6644H42.6646H42.6649H42.6652H42.6654H42.6657H42.666H42.6662H42.6665H42.6668H42.667H42.6673H42.6676H42.6679H42.6681H42.6684H42.6687H42.669H42.6693H42.6695H42.6698H42.6701H42.6704H42.6707H42.6709H42.6712H42.6715H42.6718H42.6721H42.6724H42.6727H42.673H42.6733H42.6736H42.6738H42.6741H42.6744H42.6747H42.675H42.6753H42.6756H42.6759H42.6762H42.6766H42.6769H42.6772H42.6775H42.6778H42.6781H42.6784H42.6787H42.679H42.6793H42.6797H42.68H42.6803H42.6806H42.6809H42.6813H42.6816H42.6819H42.6822H42.6826H42.6829H42.6832H42.6835H42.6839H42.6842H42.6845H42.6849H42.6852H42.6855H42.6859H42.6862H42.6866H42.6869H42.6873H42.6876H42.6879H42.6883H42.6886H42.689H42.6893H42.6897H42.6901H42.6904H42.6908H42.6911H42.6915H42.6919H42.6922H42.6926H42.6929H42.6933H42.6937H42.6941H42.6944H42.6948H42.6952H42.6955H42.6959H42.6963H42.6967H42.6971H42.6974H42.6978H42.6982H42.6986H42.699H42.6994H42.6998H42.7002H42.7006H42.701H42.7014H42.7018H42.7022H42.7026H42.703H42.7034H42.7038H42.7042H42.7046H42.705H42.7054H42.7059H42.7063H42.7067H42.7071H42.7075C42.9447 56.6316 43.1814 56.4743 43.2608 56.236L43.2609 56.2361L43.2618 56.2329L45.1407 49.0786L45.1407 49.0786L45.1408 49.0781C45.1809 48.9177 45.1403 48.7595 45.0626 48.6332C44.9853 48.5076 44.8682 48.4086 44.7468 48.3681L44.7468 48.368L44.7431 48.367C44.5828 48.327 44.4245 48.3675 44.2983 48.4452C44.1726 48.5225 44.0736 48.6397 44.0331 48.7611L44.033 48.761L44.0322 48.7642L42.1533 55.9185L42.1533 55.9185L42.1532 55.919C42.1131 56.0794 42.1537 56.2376 42.2314 56.3639C42.3087 56.4895 42.4258 56.5885 42.5472 56.629Z" fill="black" stroke="black" stroke-width="0.1"/>
<path d="M37.18 52.5721L37.18 52.5721L37.1795 52.5726C37.0985 52.6536 37.0203 52.8106 37.0203 52.9692C37.0203 53.1279 37.0985 53.2849 37.1795 53.3659L39.9256 56.112C40.0066 56.193 40.1636 56.2712 40.3223 56.2712C40.4809 56.2712 40.6379 56.193 40.7189 56.112C40.8354 55.9956 40.8962 55.8568 40.8962 55.7153C40.8962 55.5738 40.8354 55.4351 40.7189 55.3186L38.3701 52.9698L40.7184 50.6926L40.7184 50.6926L40.7189 50.6921C40.8354 50.5757 40.8962 50.4369 40.8962 50.2954C40.8962 50.1539 40.8354 50.0152 40.7189 49.8987C40.6025 49.7823 40.4638 49.7215 40.3223 49.7215C40.1809 49.7215 40.0422 49.7822 39.9258 49.8985L37.18 52.5721Z" fill="black" stroke="black" stroke-width="0.1"/>
<path d="M46.6468 56.112L46.6525 56.1178L46.6598 56.1214C46.6945 56.1387 46.725 56.1561 46.7542 56.173C46.7564 56.1743 46.7586 56.1756 46.7608 56.1768C46.7874 56.1922 46.8139 56.2075 46.8404 56.2207C46.8995 56.2503 46.9614 56.2712 47.0435 56.2712C47.2021 56.2712 47.3591 56.193 47.4401 56.112L47.4401 56.112L47.4406 56.1115L50.114 53.3659C50.114 53.3658 50.1141 53.3658 50.1142 53.3657C50.2305 53.2493 50.2912 53.1107 50.2912 52.9692C50.2912 52.8277 50.2304 52.689 50.114 52.5726L47.4401 49.8987C47.3237 49.7823 47.185 49.7215 47.0435 49.7215C46.9019 49.7215 46.7632 49.7823 46.6468 49.8987C46.5303 50.0152 46.4695 50.1539 46.4695 50.2954C46.4695 50.4369 46.5303 50.5757 46.6468 50.6921L48.9245 52.9698L46.6468 55.3186C46.6467 55.3187 46.6466 55.3188 46.6465 55.3189C46.5302 55.4353 46.4695 55.5739 46.4695 55.7153C46.4695 55.8568 46.5303 55.9956 46.6468 56.112Z" fill="black" stroke="black" stroke-width="0.1"/>
</g>
</g>
<defs>
<clipPath id="clip0_1151_1130">
<rect width="98" height="98" fill="white"/>
</clipPath>
<clipPath id="clip1_1151_1130">
<rect width="37" height="37" fill="white" transform="translate(31 31)"/>
</clipPath>
</defs>
</svg>
