<svg width="98" height="98" viewBox="0 0 98 98" fill="none" xmlns="http://www.w3.org/2000/svg">
<g clip-path="url(#clip0_1151_1111)">
<path d="M96.503 7.649V89.353C96.503 93.3013 93.3022 96.502 89.354 96.502H7.649C3.70072 96.502 0.5 93.3013 0.5 89.353V7.649C0.5 3.70071 3.70071 0.5 7.649 0.5H89.354C93.3022 0.5 96.503 3.70071 96.503 7.649Z" stroke="black"/>
<path d="M31.8213 58.4144H67.1768C67.4623 58.4144 67.6879 58.1887 67.6879 57.9033C67.6879 57.6178 67.4623 57.3922 67.1768 57.3922H31.8213C31.5358 57.3922 31.3102 57.6178 31.3102 57.9033C31.3102 58.1887 31.5358 58.4144 31.8213 58.4144Z" fill="black" stroke="black" stroke-width="0.2"/>
<path d="M34.3619 61.8427H64.6362C66.3194 61.8427 67.6879 60.4742 67.6879 58.791V40.5787C67.6879 38.8955 66.3194 37.527 64.6362 37.527H61.3144C61.0289 37.527 60.8033 37.7526 60.8033 38.0381C60.8033 38.3235 61.0289 38.5492 61.3144 38.5492H64.6362C65.7567 38.5492 66.6657 39.4582 66.6657 40.5787V58.791C66.6657 59.9115 65.7567 60.8205 64.6362 60.8205H34.3619C33.2414 60.8205 32.3324 59.9115 32.3324 58.791V40.5787C32.3324 39.4582 33.2414 38.5492 34.3619 38.5492H37.6837C37.9692 38.5492 38.1948 38.3235 38.1948 38.0381C38.1948 37.7526 37.9692 37.527 37.6837 37.527H34.3619C32.6787 37.527 31.3102 38.8955 31.3102 40.5787V58.791C31.3102 60.4742 32.6787 61.8427 34.3619 61.8427Z" fill="black" stroke="black" stroke-width="0.2"/>
<path d="M53.0837 66.0517L53.1722 66.0051C52.7797 65.2606 52.5855 64.5385 52.5855 63.8101C52.5855 63.0816 52.7797 62.3407 53.1728 61.5585C53.3047 61.304 53.2033 60.9964 52.9475 60.8727C52.693 60.7413 52.3856 60.843 52.2622 61.0989C51.336 62.9433 51.3352 64.712 52.2634 66.4765L52.2635 66.4767C52.3546 66.6488 52.5281 66.7519 52.7137 66.7519C52.7959 66.7519 52.8741 66.7314 52.9461 66.7044L52.9465 66.7053L52.9587 66.6987C53.2021 66.5669 53.3061 66.2523 53.1716 66.0041L53.0837 66.0517ZM53.0837 66.0517C53.1906 66.249 53.1084 66.5039 52.911 66.6108M53.0837 66.0517C52.2861 64.5388 52.2861 63.0999 53.0837 61.513C53.1906 61.3075 53.1084 61.0608 52.9028 60.9621L52.911 66.6108M52.911 66.6108C52.8452 66.6355 52.7795 66.6519 52.7137 66.6519C52.5657 66.6519 52.4259 66.5697 52.3519 66.4299C51.4392 64.695 51.4392 62.9601 52.3519 61.143L52.911 66.6108ZM46.7433 61.09C46.6193 60.842 46.3126 60.7424 46.0598 60.8638L46.0597 60.8638L46.0583 60.8645C45.8103 60.9885 45.7106 61.2952 45.832 61.5481L45.832 61.5481L45.8326 61.5493C46.6084 63.109 46.6073 64.5222 45.8336 65.997L45.8334 65.9973C45.7008 66.2524 45.8031 66.5576 46.0462 66.69C46.1194 66.7316 46.2021 66.7519 46.2839 66.7519C46.471 66.7519 46.6428 66.6475 46.7413 66.4703L46.7414 66.4703L46.7424 66.4683C47.6707 64.7036 47.6698 62.9346 46.7433 61.09ZM46.7433 61.09C46.7433 61.09 46.7433 61.0901 46.7434 61.0901L46.6539 61.1348L46.7433 61.0899C46.7433 61.09 46.7433 61.09 46.7433 61.09Z" fill="black" stroke="black" stroke-width="0.2"/>
<path d="M44.3349 66.7513H54.662C54.9449 66.7513 55.1814 66.5282 55.1814 66.2402C55.1814 65.9548 54.9557 65.7291 54.6703 65.7291H44.3349C44.0495 65.7291 43.8238 65.9548 43.8238 66.2402C43.8238 66.5257 44.0495 66.7513 44.3349 66.7513Z" fill="black" stroke="black" stroke-width="0.2"/>
<path d="M61.8345 53.9822V53.9813V34.026C61.8345 33.0413 61.033 32.2486 60.0572 32.2486H38.9508C37.9661 32.2486 37.1734 33.0502 37.1734 34.026V53.9813C37.1734 54.966 37.975 55.7586 38.9508 55.7586H60.0572C61.0341 55.7586 61.8258 54.9568 61.8345 53.9822ZM38.1957 34.026C38.1957 33.6125 38.5373 33.2709 38.9508 33.2709H60.0572C60.4707 33.2709 60.8123 33.6125 60.8123 34.026V53.9813C60.8123 54.3947 60.4707 54.7364 60.0572 54.7364H38.9508C38.5373 54.7364 38.1957 54.3947 38.1957 53.9813V34.026Z" fill="black" stroke="black" stroke-width="0.2"/>
<path d="M37.6845 38.0394H61.3152C61.5981 38.0394 61.8345 37.8163 61.8345 37.5283C61.8345 37.2428 61.6089 37.0172 61.3234 37.0172H37.6845C37.3991 37.0172 37.1734 37.2428 37.1734 37.5283C37.1734 37.8137 37.3991 38.0394 37.6845 38.0394Z" fill="black" stroke="black" stroke-width="0.2"/>
<path d="M39.359 35.1442C39.359 35.8983 39.9711 36.5104 40.7252 36.5104C41.4793 36.5104 42.0914 35.8983 42.0914 35.1442C42.0914 34.39 41.4793 33.7779 40.7252 33.7779C39.9711 33.7779 39.359 34.39 39.359 35.1442ZM40.3812 35.1442C40.3812 34.9527 40.5338 34.8002 40.7252 34.8002C40.9166 34.8002 41.0692 34.9527 41.0692 35.1442C41.0692 35.3356 40.9166 35.4882 40.7252 35.4882C40.5338 35.4882 40.3812 35.3356 40.3812 35.1442Z" fill="black" stroke="black" stroke-width="0.2"/>
<path d="M42.7633 35.1442C42.7633 35.8983 43.3754 36.5104 44.1295 36.5104C44.8836 36.5104 45.4957 35.8983 45.4957 35.1442C45.4957 34.39 44.8836 33.7779 44.1295 33.7779C43.3754 33.7779 42.7633 34.39 42.7633 35.1442ZM43.7855 35.1442C43.7855 34.9527 43.9381 34.8002 44.1295 34.8002C44.3209 34.8002 44.4735 34.9527 44.4735 35.1442C44.4735 35.3356 44.3209 35.4882 44.1295 35.4882C43.9381 35.4882 43.7855 35.3356 43.7855 35.1442Z" fill="black" stroke="black" stroke-width="0.2"/>
<path d="M46.1676 35.1442C46.1676 35.8983 46.7797 36.5104 47.5338 36.5104C48.2879 36.5104 48.9 35.8983 48.9 35.1442C48.9 34.39 48.2879 33.7779 47.5338 33.7779C46.7797 33.7779 46.1676 34.39 46.1676 35.1442ZM47.1898 35.1442C47.1898 34.9527 47.3424 34.8002 47.5338 34.8002C47.7252 34.8002 47.8778 34.9527 47.8778 35.1442C47.8778 35.3356 47.7252 35.4882 47.5338 35.4882C47.3424 35.4882 47.1898 35.3356 47.1898 35.1442Z" fill="black" stroke="black" stroke-width="0.2"/>
<path d="M50.5185 35.6556H55.6656C55.9416 35.6556 56.1768 35.4313 56.1768 35.1445C56.1768 34.8591 55.9511 34.6334 55.6656 34.6334H50.5185C50.2331 34.6334 50.0074 34.8591 50.0074 35.1445C50.0074 35.43 50.2331 35.6556 50.5185 35.6556Z" fill="black" stroke="black" stroke-width="0.2"/>
<path d="M57.7451 35.6556H59.1675C59.453 35.6556 59.6787 35.43 59.6787 35.1445C59.6787 34.8591 59.453 34.6334 59.1675 34.6334H57.7451C57.4596 34.6334 57.234 34.8591 57.234 35.1445C57.234 35.43 57.4596 35.6556 57.7451 35.6556Z" fill="black" stroke="black" stroke-width="0.2"/>
<path d="M57.9508 35.8599C57.9508 36.1454 58.1764 36.371 58.4619 36.371C58.7391 36.371 58.973 36.1372 58.973 35.8599V34.4375C58.973 34.152 58.7473 33.9264 58.4619 33.9264C58.1764 33.9264 57.9508 34.152 57.9508 34.4375V35.8599Z" fill="black" stroke="black" stroke-width="0.2"/>
<path d="M47.6566 43.0472H61.3137C61.5965 43.0472 61.833 42.8241 61.833 42.5361C61.833 42.2507 61.6073 42.025 61.3219 42.025H47.6566C47.3711 42.025 47.1455 42.2507 47.1455 42.5361C47.1455 42.8216 47.3711 43.0472 47.6566 43.0472ZM37.6748 43.0472H40.5526C40.838 43.0472 41.0637 42.8216 41.0637 42.5361C41.0637 42.2507 40.838 42.025 40.5526 42.025H37.6748C37.3893 42.025 37.1637 42.2507 37.1637 42.5361C37.1637 42.8216 37.3893 43.0472 37.6748 43.0472Z" fill="black" stroke="black" stroke-width="0.2"/>
<path d="M40.0426 42.5364C40.0426 44.7787 41.8633 46.5995 44.1057 46.5995C46.348 46.5995 48.1688 44.7787 48.1688 42.5364C48.1688 40.294 46.348 38.4732 44.1057 38.4732C41.8633 38.4732 40.0426 40.294 40.0426 42.5364ZM41.0648 42.5446C41.0648 40.8651 42.4341 39.5037 44.1057 39.5037C45.7773 39.5037 47.1466 40.8651 47.1466 42.5446C47.1466 44.2242 45.7853 45.5855 44.1057 45.5855C42.426 45.5855 41.0648 44.2242 41.0648 42.5446Z" fill="black" stroke="black" stroke-width="0.2"/>
<path d="M44.0484 43.2008V43.2008L44.0469 43.2008C42.8671 43.2178 41.8063 43.8798 41.2631 44.923C41.1303 45.1692 41.2231 45.4758 41.4763 45.6086C41.5493 45.6499 41.6317 45.6701 41.7132 45.6701C41.8974 45.6701 42.0778 45.5685 42.1777 45.3988L42.1778 45.3989L42.1805 45.3936C42.5414 44.6876 43.2716 44.2391 44.074 44.223H44.074H44.0741H44.0741H44.0742H44.0742H44.0743H44.0743H44.0744H44.0744H44.0745H44.0745H44.0746H44.0746H44.0747H44.0747H44.0748H44.0748H44.0748H44.0749H44.0749H44.075H44.075H44.0751H44.0751H44.0752H44.0752H44.0753H44.0753H44.0754H44.0754H44.0755H44.0755H44.0756H44.0756H44.0757H44.0757H44.0758H44.0758H44.0759H44.0759H44.076H44.076H44.0761H44.0761H44.0761H44.0762H44.0762H44.0763H44.0763H44.0764H44.0764H44.0765H44.0765H44.0766H44.0766H44.0767H44.0767H44.0768H44.0768H44.0769H44.0769H44.077H44.077H44.0771H44.0771H44.0772H44.0772H44.0773H44.0773H44.0774H44.0774H44.0774H44.0775H44.0775H44.0776H44.0776H44.0777H44.0777H44.0778H44.0778H44.0779H44.0779H44.078H44.078H44.0781H44.0781H44.0782H44.0782H44.0783H44.0783H44.0784H44.0784H44.0785H44.0785H44.0786H44.0786H44.0787H44.0787H44.0788H44.0788H44.0788H44.0789H44.0789H44.079H44.079H44.0791H44.0791H44.0792H44.0792H44.0793H44.0793H44.0794H44.0794H44.0795H44.0795H44.0796H44.0796H44.0797H44.0797H44.0798H44.0798H44.0799H44.0799H44.08H44.08H44.0801H44.0801H44.0801H44.0802H44.0802H44.0803H44.0803H44.0804H44.0804H44.0805H44.0805H44.0806H44.0806H44.0807H44.0807H44.0808H44.0808H44.0809H44.0809H44.081H44.081H44.0811H44.0811H44.0812H44.0812H44.0813H44.0813H44.0814H44.0814H44.0814H44.0815H44.0815H44.0816H44.0816H44.0817H44.0817H44.0818H44.0818H44.0819H44.0819H44.082H44.082H44.0821H44.0821H44.0822H44.0822H44.0823H44.0823H44.0824H44.0824H44.0825H44.0825H44.0826H44.0826H44.0827H44.0827H44.0827H44.0828H44.0828H44.0829H44.0829H44.083H44.083H44.0831H44.0831H44.0832H44.0832H44.0833H44.0833H44.0834H44.0834H44.0835H44.0835H44.0836H44.0836H44.0837H44.0837H44.0838H44.0838H44.0839H44.0839H44.084H44.084H44.084H44.0841H44.0841H44.0842H44.0842H44.0843H44.0843H44.0844H44.0844H44.0845H44.0845H44.0846H44.0846H44.0847H44.0847H44.0848H44.0848H44.0849H44.0849H44.085H44.085H44.0851H44.0851H44.0852H44.0852H44.0853H44.0853H44.0854H44.0854H44.0854H44.0855H44.0855H44.0856H44.0856H44.0857H44.0857H44.0858H44.0858H44.0859H44.0859H44.086H44.086H44.0861H44.0861H44.0862H44.0862H44.0863H44.0863H44.0864H44.0864H44.0865H44.0865H44.0866H44.0866H44.0867H44.0867H44.0867H44.0868H44.0868H44.0869H44.0869H44.087H44.087H44.0871H44.0871H44.0872H44.0872H44.0873H44.0873H44.0874H44.0874H44.0875H44.0875H44.0876H44.0876H44.0877H44.0877H44.0878H44.0878H44.0879H44.0879H44.088H44.088H44.088H44.0881H44.0881H44.0882H44.0882H44.0883H44.0883H44.0884H44.0884H44.0885H44.0885H44.0886H44.0886H44.0887H44.0887H44.0888H44.0888H44.0889H44.0889H44.089H44.089H44.0891H44.0891H44.0892H44.0892H44.0893H44.0893H44.0893H44.0894H44.0894H44.0895H44.0895H44.0896H44.0896H44.0897H44.0897H44.0898H44.0898H44.0899H44.0899H44.09H44.09H44.0901H44.0901H44.0902H44.0902H44.0903H44.0903H44.0904H44.0904H44.0905H44.0905H44.0906H44.0906H44.0907H44.0907H44.0907H44.0908H44.0908H44.0909H44.0909H44.091H44.091H44.0911H44.0911H44.0912H44.0912H44.0913H44.0913H44.0914H44.0914H44.0915H44.0915H44.0916H44.0916H44.0917H44.0917H44.0918H44.0918H44.0919H44.0919H44.092H44.092H44.092H44.0921H44.0921H44.0922H44.0922H44.0923H44.0923H44.0924H44.0924H44.0925H44.0925H44.0926H44.0926H44.0927H44.0927H44.0928H44.0928H44.0929H44.0929H44.093H44.093H44.0931H44.0931H44.0932H44.0932H44.0933H44.0933H44.0933H44.0934H44.0934H44.0935H44.0935H44.0936H44.0936H44.0937H44.0937H44.0938H44.0938H44.0939H44.0939H44.094H44.094H44.0941H44.0941H44.0942H44.0942H44.0943H44.0943H44.0944H44.0944H44.0945H44.0945H44.0946H44.0946H44.0946H44.0947H44.0947H44.0948H44.0948H44.0949H44.0949H44.095H44.095H44.0951H44.0951H44.0952H44.0952H44.0953H44.0953H44.0954H44.0954H44.0955H44.0955H44.0956H44.0956H44.0957H44.0957H44.0958H44.0958H44.0959H44.0959H44.0959H44.096H44.096H44.0961H44.0961H44.0962H44.0962H44.0963H44.0963H44.0964H44.0964H44.0965H44.0965H44.0966H44.0966H44.0967H44.0967H44.0968H44.0968H44.0969H44.0969H44.097H44.097H44.0971H44.0971H44.0972H44.0972H44.0973H44.0973H44.0973H44.0974H44.0974H44.0975H44.0975H44.0976H44.0976H44.0977H44.1141H44.1142H44.1142H44.1143H44.1143H44.1144H44.1144H44.1145H44.1145H44.1146H44.1146H44.1147H44.1147H44.1148H44.1148H44.1149H44.1149H44.115H44.115H44.1151H44.1151H44.1152H44.1152H44.1153H44.1153H44.1154H44.1154H44.1155H44.1155H44.1156H44.1157H44.1157H44.1158H44.1158H44.1159H44.1159H44.116H44.116H44.1161H44.1161H44.1162H44.1163H44.1163H44.1164H44.1164H44.1165H44.1165H44.1166H44.1166H44.1167H44.1168H44.1168H44.1169H44.1169H44.117H44.117H44.1171H44.1172H44.1172H44.1173H44.1173H44.1174H44.1174H44.1175H44.1176H44.1176H44.1177H44.1177H44.1178H44.1179H44.1179H44.118H44.118H44.1181H44.1182H44.1182H44.1183H44.1183H44.1184H44.1185H44.1185H44.1186H44.1186H44.1187H44.1188H44.1188H44.1189H44.119H44.119H44.1191H44.1191H44.1192H44.1193H44.1193H44.1194H44.1194H44.1195H44.1196H44.1196H44.1197H44.1198H44.1198H44.1199H44.12H44.12H44.1201H44.1201H44.1202H44.1203H44.1203H44.1204H44.1205H44.1205H44.1206H44.1207H44.1207H44.1208H44.1209H44.1209H44.121H44.1211H44.1211H44.1212H44.1212H44.1213H44.1214H44.1214H44.1215H44.1216H44.1216H44.1217H44.1218H44.1218H44.1219H44.122H44.122H44.1221H44.1222H44.1222H44.1223H44.1224H44.1224H44.1225H44.1226H44.1227H44.1227H44.1228H44.1229H44.1229H44.123H44.1231H44.1231H44.1232H44.1233H44.1233H44.1234H44.1235H44.1235H44.1236H44.1237H44.1237H44.1238H44.1239H44.124H44.124H44.1241H44.1242H44.1242H44.1243H44.1244H44.1244H44.1245H44.1246H44.1246H44.1247H44.1248H44.1249H44.1249H44.125H44.1251H44.1251H44.1252H44.1253H44.1253H44.1254H44.1255H44.1256H44.1256H44.1257H44.1258H44.1258H44.1259H44.126H44.1261H44.1261H44.1262H44.1263H44.1263H44.1264H44.1265H44.1265H44.1266H44.1267H44.1268H44.1268H44.1269H44.127H44.127H44.1271H44.1272H44.1273H44.1273H44.1274H44.1275H44.1275H44.1276H44.1277H44.1278H44.1278H44.1279H44.128H44.128H44.1281H44.1282H44.1283H44.1283H44.1284H44.1285H44.1286H44.1286H44.1287H44.1288H44.1288H44.1289H44.129H44.1291H44.1291H44.1292H44.1293H44.1293H44.1294H44.1295H44.1296H44.1296H44.1297H44.1298H44.1298H44.1299H44.13H44.1301H44.1301H44.1302H44.1303H44.1304H44.1304H44.1305H44.1306H44.1306H44.1307H44.1308H44.1309H44.1309H44.131H44.1311H44.1312H44.1312H44.1313H44.1314H44.1314H44.1315H44.1316H44.1317H44.1317H44.1318H44.1319H44.1319H44.132H44.1321H44.1322H44.1322H44.1323H44.1324H44.1324H44.1325H44.1326H44.1327H44.1327H44.1328H44.1329H44.133H44.133H44.1331H44.1332H44.1332H44.1333H44.1334H44.1335H44.1335H44.1336H44.1337H44.1337H44.1338H44.1339H44.134H44.134H44.1341H44.1342H44.1342H44.1343H44.1344H44.1345H44.1345H44.1346H44.1347H44.1347H44.1348H44.1349H44.135H44.135H44.1351H44.1352H44.1352H44.1353H44.1354H44.1354H44.1355H44.1356H44.1357H44.1357H44.1358H44.1359H44.1359H44.136H44.1361H44.1362H44.1362H44.1363H44.1364H44.1364H44.1365H44.1366H44.1366H44.1367H44.1368H44.1368H44.1369H44.137H44.1371H44.1371H44.1372H44.1373H44.1373H44.1374H44.1375H44.1375H44.1376H44.1377H44.1377H44.1378H44.1379H44.1379H44.138H44.1381H44.1382H44.1382H44.1383H44.1384H44.1384H44.1385H44.1386H44.1386H44.1387H44.1388H44.1388H44.1389H44.139H44.139H44.1391H44.1392H44.1392H44.1393H44.1394H44.1394H44.1395H44.1396H44.1396H44.1397H44.1398H44.1398H44.1399H44.14H44.14H44.1401H44.1402H44.1402H44.1403H44.1404H44.1404H44.1405H44.1405H44.1406H44.1407H44.1407H44.1408H44.1409H44.1409H44.141H44.1411H44.1411H44.1412H44.1413H44.1413H44.1414H44.1414H44.1415H44.1416H44.1416H44.1417H44.1418H44.1418H44.1419H44.1419H44.142H44.1421H44.1421H44.1422H44.1423H44.1423H44.1424H44.1424H44.1425H44.1426H44.1426H44.1427H44.1427H44.1428H44.1429H44.1429H44.143H44.143H44.1431H44.1432H44.1432H44.1433H44.1433H44.1434H44.1435H44.1435H44.1436H44.1436H44.1437H44.1438H44.1438H44.1439H44.1439H44.144H44.144H44.1441H44.1442H44.1442H44.1443H44.1443H44.1444H44.1444H44.1445H44.1446H44.1446H44.1447H44.1447H44.1448H44.1448H44.1449H44.1449H44.145H44.1451H44.1451H44.1452H44.1452H44.1453H44.1453H44.1454H44.1454H44.1455H44.1455H44.1456H44.1456H44.1457H44.1458H44.1458H44.1459H44.1459H44.146H44.146H44.146C44.948 44.2391 45.6785 44.6872 46.0478 45.3937C46.1717 45.6403 46.4872 45.7421 46.7339 45.6095C46.9803 45.4852 47.0817 45.1696 46.9487 44.9231C46.4054 43.8796 45.3362 43.2178 44.1567 43.2008L44.1567 43.2008H44.1552H44.0484Z" fill="black" stroke="black" stroke-width="0.2"/>
<path d="M42.1793 42.298C42.1793 43.356 43.0378 44.2233 44.1046 44.2233C45.163 44.2233 46.03 43.3563 46.03 42.298C46.03 41.2396 45.163 40.3727 44.1046 40.3727C43.0463 40.3727 42.1793 41.2396 42.1793 42.298ZM43.2015 42.2898C43.2015 41.7941 43.609 41.3867 44.1046 41.3867C44.6003 41.3867 45.0077 41.7941 45.0077 42.2898C45.0077 42.7854 44.6003 43.1929 44.1046 43.1929C43.609 43.1929 43.2015 42.7854 43.2015 42.2898Z" fill="black" stroke="black" stroke-width="0.2"/>
<path d="M50.6412 53.6621H57.8932C58.9269 53.6621 59.7692 52.8197 59.7692 51.7861V49.4674C59.7692 48.4337 58.9269 47.5914 57.8932 47.5914H50.6412C49.6076 47.5914 48.7652 48.4337 48.7652 49.4674V51.7861C48.7652 52.8197 49.6076 53.6621 50.6412 53.6621ZM49.7875 49.4756C49.7875 49.0046 50.1702 48.6219 50.6412 48.6219H57.8932C58.3642 48.6219 58.747 49.0046 58.747 49.4756V51.7943C58.747 52.2653 58.3642 52.6481 57.8932 52.6481H50.6412C50.1702 52.6481 49.7875 52.2653 49.7875 51.7943V49.4756Z" fill="black" stroke="black" stroke-width="0.2"/>
<path d="M50.2881 46.0238H58.2472C58.5326 46.0238 58.7583 45.7981 58.7583 45.5127C58.7583 45.2272 58.5326 45.0016 58.2472 45.0016H50.2881C50.0026 45.0016 49.777 45.2272 49.777 45.5127C49.777 45.7981 50.0026 46.0238 50.2881 46.0238Z" fill="black" stroke="black" stroke-width="0.2"/>
<path d="M39.7392 51.138H46.8679C47.1534 51.138 47.379 50.9124 47.379 50.6269C47.379 50.3415 47.1534 50.1158 46.8679 50.1158H39.7392C39.4538 50.1158 39.2281 50.3415 39.2281 50.6269C39.2281 50.9124 39.4538 51.138 39.7392 51.138Z" fill="black" stroke="black" stroke-width="0.2"/>
<path d="M39.7392 48.9183H46.8679C47.1534 48.9183 47.379 48.6927 47.379 48.4072C47.379 48.1218 47.1534 47.8961 46.8679 47.8961H39.7392C39.4538 47.8961 39.2281 48.1218 39.2281 48.4072C39.2281 48.6927 39.4538 48.9183 39.7392 48.9183Z" fill="black" stroke="black" stroke-width="0.2"/>
<path d="M39.7392 53.3587H46.8679C47.1534 53.3587 47.379 53.1331 47.379 52.8476C47.379 52.5622 47.1534 52.3365 46.8679 52.3365H39.7392C39.4538 52.3365 39.2281 52.5622 39.2281 52.8476C39.2281 53.1331 39.4538 53.3587 39.7392 53.3587Z" fill="black" stroke="black" stroke-width="0.2"/>
</g>
<defs>
<clipPath id="clip0_1151_1111">
<rect width="98" height="98" fill="white"/>
</clipPath>
</defs>
</svg>
