<svg width="98" height="98" viewBox="0 0 98 98" fill="none" xmlns="http://www.w3.org/2000/svg">
<g clip-path="url(#clip0_1054_573)">
<path d="M96.504 7.649V89.353C96.504 93.3013 93.3032 96.502 89.355 96.502H7.64998C3.70169 96.502 0.500977 93.3013 0.500977 89.353V7.649C0.500977 3.70071 3.70169 0.5 7.64998 0.5H89.355C93.3032 0.5 96.504 3.70071 96.504 7.649Z" stroke="black"/>
<g clip-path="url(#clip1_1054_573)">
<path d="M48.6558 68.0001C48.4578 68.0001 48.2611 67.9478 48.0875 67.8472L46.2786 66.7688C46.0084 66.6167 46.1402 66.5629 46.2294 66.5319C46.5896 66.4049 46.6627 66.3762 47.0472 66.1563C47.0876 66.1331 47.1405 66.1413 47.1819 66.1659L48.5716 66.9962C48.6218 67.0235 48.693 67.0235 48.7395 66.9962L54.158 63.847C54.2082 63.8183 54.2408 63.7596 54.2408 63.6995V57.4037C54.2408 57.3409 54.2082 57.2849 54.157 57.2535L48.7406 54.107C48.6904 54.077 48.624 54.077 48.5738 54.107L43.1585 57.2535C43.106 57.2836 43.0726 57.3423 43.0726 57.4024V63.6981C43.0726 63.7582 43.1052 63.8156 43.1567 63.8442L44.6406 64.7073C45.4462 65.1129 45.9386 64.635 45.9386 64.1542V57.9404C45.9386 57.8517 46.0077 57.7834 46.0959 57.7834H46.7822C46.8676 57.7834 46.9382 57.8517 46.9382 57.9404V64.157C46.9382 65.2386 46.3522 65.86 45.3336 65.86C45.0203 65.86 44.7735 65.86 44.0845 65.5185L42.663 64.6937C42.3117 64.4888 42.0947 64.1064 42.0947 63.6981V57.4024C42.0947 56.9927 42.3117 56.6103 42.663 56.4082L48.087 53.2576C48.4301 53.0623 48.8859 53.0623 49.2263 53.2576L54.6435 56.4095C54.9934 56.613 55.2118 56.994 55.2118 57.4037V63.6995C55.2118 64.1078 54.9934 64.4888 54.6435 64.6937L49.2263 67.8443C49.0527 67.9453 48.856 67.9972 48.6553 67.9972" fill="black"/>
<path d="M50.3294 63.662C47.9585 63.662 47.4614 62.5662 47.4614 61.6471C47.4614 61.5597 47.5314 61.49 47.6184 61.49H48.3182C48.3955 61.49 48.4606 61.5467 48.4728 61.6236C48.5786 62.3416 48.8933 62.7038 50.3269 62.7038C51.469 62.7038 51.9545 62.4441 51.9545 61.8343C51.9545 61.4833 51.8162 61.2225 50.0421 61.0477C48.5583 60.9002 47.6414 60.571 47.6414 59.3761C47.6414 58.2753 48.5637 57.6198 50.1086 57.6198C51.8433 57.6198 52.7032 58.2262 52.8117 59.529C52.8158 59.5741 52.7995 59.6178 52.7697 59.6506C52.7398 59.682 52.6978 59.7011 52.6544 59.7011H51.9505C51.8772 59.7011 51.8135 59.6492 51.7986 59.5782C51.629 58.823 51.2194 58.5813 50.1059 58.5813C48.8594 58.5813 48.7143 59.0183 48.7143 59.346C48.7143 59.7434 48.8852 59.8595 50.567 60.0835C52.2326 60.3061 53.0233 60.6202 53.0233 61.7988C53.0233 62.9869 52.0386 63.6684 50.3215 63.6684M56.9214 56.9916H57.1031C57.2523 56.9916 57.2808 56.8865 57.2808 56.825C57.2808 56.6639 57.171 56.6639 57.1099 56.6639H56.9228L56.9214 56.9916ZM56.7003 56.4754H57.1031C57.2415 56.4754 57.5128 56.4754 57.5128 56.7868C57.5128 57.0039 57.3744 57.049 57.2917 57.0763C57.4531 57.0872 57.4639 57.1937 57.4856 57.344C57.4965 57.4382 57.5141 57.6007 57.5467 57.6553H57.2985C57.2917 57.6007 57.2537 57.3003 57.2537 57.2839C57.2374 57.217 57.2144 57.1842 57.1316 57.1842H56.9268V57.6567H56.7003V56.4754ZM56.2161 57.0626C56.2161 57.5515 56.6081 57.9476 57.0896 57.9476C57.5752 57.9476 57.9671 57.5433 57.9671 57.0626C57.9671 56.5724 57.5697 56.1831 57.0882 56.1831C56.6135 56.1831 56.2148 56.5669 56.2148 57.0613M58.1353 57.0654C58.1353 57.6444 57.6647 58.1169 57.0909 58.1169C56.5213 58.1169 56.0466 57.6499 56.0466 57.0654C56.0466 56.4699 56.5321 56.0138 57.0909 56.0138C57.6538 56.0138 58.134 56.4713 58.134 57.0654" fill="black"/>
<path fill-rule="evenodd" clip-rule="evenodd" d="M31.8764 43.3661C31.8764 43.1148 31.7449 42.884 31.5295 42.7591L25.7846 39.4309C25.6876 39.3736 25.579 39.3435 25.4689 39.3394H25.4095C25.2993 39.3435 25.1907 39.3736 25.0921 39.4309L19.3475 42.7591C19.1335 42.8847 19 43.1155 19 43.3668L19.0126 52.3311C19.0126 52.4554 19.0764 52.5714 19.1849 52.6329C19.2907 52.6984 19.4236 52.6984 19.5294 52.6329L22.9446 50.6636C23.1603 50.5344 23.2918 50.3061 23.2918 50.0572V45.8694C23.2918 45.6195 23.4234 45.3887 23.6384 45.2644L25.0924 44.4212C25.2003 44.3584 25.3189 44.3273 25.4396 44.3273C25.5584 44.3273 25.6796 44.3581 25.7846 44.4211L27.2379 45.264C27.453 45.3883 27.5851 45.6191 27.5851 45.869V50.0565C27.5851 50.3051 27.7185 50.5345 27.933 50.6629L31.3461 52.6308C31.4533 52.695 31.5866 52.695 31.6933 52.6308C31.7986 52.5694 31.8653 52.4533 31.8653 52.329L31.8764 43.3661ZM58.9851 48.0334C58.9851 48.0959 58.9521 48.1536 58.8983 48.1845L56.9251 49.3297C56.8715 49.3607 56.8053 49.3607 56.7519 49.3297L54.7784 48.1845C54.7242 48.1535 54.6916 48.0957 54.6916 48.0334V45.7397C54.6916 45.6771 54.7242 45.6195 54.7771 45.5881L56.7492 44.4409C56.8034 44.4095 56.8699 44.4095 56.9241 44.4409L58.8976 45.5881C58.9518 45.6195 58.9844 45.6771 58.9844 45.7397L58.9851 48.0334ZM59.5181 31.0442C59.4104 30.9839 59.2794 30.9855 59.1731 31.0479C59.0673 31.1107 59.0019 31.2254 59.0019 31.3497V40.2266C59.0019 40.314 58.9558 40.3946 58.8806 40.4383C58.806 40.482 58.7131 40.482 58.6379 40.4383L57.1988 39.6037C56.9845 39.4789 56.7206 39.4789 56.5054 39.6037L50.7587 42.9432C50.544 43.0675 50.4115 43.2983 50.4115 43.5468V50.2277C50.4115 50.4776 50.544 50.707 50.7587 50.8327L56.5054 54.1745C56.72 54.2987 56.9842 54.2987 57.1995 54.1745L62.9462 50.8313C63.1605 50.7057 63.2934 50.4762 63.2934 50.2263V33.576C63.2934 33.3226 63.1565 33.0894 62.9367 32.9656L59.5181 31.0442ZM78.6549 45.6793C78.8684 45.5545 78.9999 45.324 78.9999 45.0754V43.4563C78.9999 43.2072 78.8683 42.9773 78.6544 42.852L72.9443 39.5142C72.7286 39.3886 72.4641 39.3886 72.2485 39.5142L66.5031 42.8533C66.2874 42.979 66.1558 43.2084 66.1558 43.4583V50.1364C66.1558 50.3877 66.2901 50.6199 66.5058 50.7442L72.2146 54.0204C72.4248 54.142 72.6825 54.1433 72.8954 54.0245L76.3486 52.0921C76.4571 52.0306 76.5263 51.9145 76.5263 51.7889C76.5263 51.6633 76.4599 51.5458 76.3514 51.4844L70.5707 48.1439C70.4622 48.0825 70.3957 47.9664 70.3957 47.8421V45.7472C70.3957 45.6221 70.4608 45.5068 70.5693 45.4445L72.3678 44.3998C72.475 44.337 72.6065 44.337 72.7137 44.3998L74.5135 45.4445C74.6207 45.506 74.6871 45.6221 74.6871 45.7464V47.3934C74.6871 47.5176 74.7536 47.6337 74.8607 47.6965C74.9679 47.758 75.1008 47.758 75.208 47.6952L78.6549 45.6793Z" fill="black"/>
<path fill-rule="evenodd" clip-rule="evenodd" d="M72.5121 45.3669C72.5528 45.3427 72.6038 45.3427 72.645 45.3669L73.7477 46.0074C73.789 46.0314 73.8142 46.0757 73.8142 46.1235V47.4058C73.8142 47.4536 73.789 47.4979 73.7477 47.5219L72.645 48.1624C72.6038 48.1866 72.5528 48.1866 72.5121 48.1624L71.4101 47.5219C71.3681 47.4979 71.3423 47.4536 71.3423 47.4058V46.1235C71.3423 46.0757 71.3667 46.0314 71.4087 46.0074L72.5121 45.3669Z" fill="black"/>
<mask id="mask0_1054_573" style="mask-type:luminance" maskUnits="userSpaceOnUse" x="34" y="39" width="14" height="16">
<path d="M40.7993 39.5476L35.0851 42.8685C34.871 42.9928 34.7397 43.2222 34.7397 43.4702V50.1166C34.7397 50.3648 34.871 50.5941 35.0851 50.7184L40.7997 54.0419C41.0133 54.1657 41.2767 54.1657 41.4901 54.0419L47.2037 50.7184C47.4167 50.5941 47.5482 50.3647 47.5482 50.1166V43.4702C47.5482 43.2222 47.4167 42.9928 47.2024 42.8685L41.4895 39.5476C41.3824 39.4857 41.263 39.4547 41.1436 39.4547C41.0243 39.4547 40.9049 39.4857 40.7978 39.5476" fill="white"/>
</mask>
<g mask="url(#mask0_1054_573)">
<path d="M53.3224 42.3046L37.2208 34.3577L28.9648 51.3158L45.0661 59.2631L53.3224 42.3046Z" fill="black"/>
</g>
<mask id="mask1_1054_573" style="mask-type:luminance" maskUnits="userSpaceOnUse" x="34" y="39" width="14" height="16">
<path d="M34.8813 50.5387C34.936 50.6101 35.0044 50.672 35.0848 50.7184L39.9866 53.5692L40.8031 54.0418C40.9251 54.1128 41.0643 54.1428 41.201 54.1326C41.2466 54.1289 41.2922 54.1203 41.3367 54.1076L47.3634 42.9965C47.3172 42.946 47.2633 42.9036 47.2028 42.8681L43.4612 40.6926L41.4834 39.5468C41.4273 39.514 41.3664 39.4908 41.3044 39.4744L34.8813 50.5387Z" fill="white"/>
</mask>
<g mask="url(#mask1_1054_573)">
<path d="M27.9194 44.6551L39.2888 60.1491L54.3251 48.9634L42.955 33.4698L27.9194 44.6551Z" fill="black"/>
</g>
<mask id="mask2_1054_573" style="mask-type:luminance" maskUnits="userSpaceOnUse" x="35" y="39" width="13" height="16">
<path d="M41.0755 39.4586C40.9796 39.4681 40.8859 39.4982 40.7995 39.5476L35.1016 42.859L41.2457 54.1271C41.3312 54.1148 41.4153 54.0862 41.4912 54.0419L47.2054 50.7184C47.3817 50.6154 47.5025 50.4412 47.5391 50.2437L41.2756 39.4699C41.2294 39.4608 41.1833 39.456 41.1359 39.456C41.1169 39.456 41.0979 39.4569 41.0789 39.4587" fill="white"/>
</mask>
<g mask="url(#mask2_1054_573)">
<path d="M35.1011 39.456V54.1274H47.5363V39.456H35.1011Z" fill="black"/>
</g>
</g>
</g>
<defs>
<clipPath id="clip0_1054_573">
<rect width="98" height="98" fill="white"/>
</clipPath>
<clipPath id="clip1_1054_573">
<rect width="60" height="37" fill="white" transform="translate(19 31)"/>
</clipPath>
</defs>
</svg>
