<svg width="98" height="98" viewBox="0 0 98 98" fill="none" xmlns="http://www.w3.org/2000/svg">
<g clip-path="url(#clip0_1054_496)">
<path d="M96.504 7.649V89.353C96.504 93.3013 93.3032 96.502 89.355 96.502H7.64998C3.70169 96.502 0.500977 93.3013 0.500977 89.353V7.649C0.500977 3.70071 3.70169 0.5 7.64998 0.5H89.355C93.3032 0.5 96.504 3.70071 96.504 7.649Z" stroke="black"/>
<path d="M49.1567 43.3976C46.7797 43.3976 44.8374 45.34 44.8374 47.7169C44.8374 50.0938 46.7797 52.0362 49.1567 52.0362C51.5336 52.0362 53.476 50.0938 53.476 47.7169C53.476 45.34 51.5336 43.3976 49.1567 43.3976Z" fill="black"/>
<path d="M29 47.7171C29 49.0494 29.6697 50.2795 30.7477 51.3178C31.8257 52.3561 33.3236 53.2416 35.1415 53.9823C38.7774 55.4634 43.7103 56.3557 49.1567 56.3557C54.6031 56.3557 59.5361 55.4634 63.1719 53.9823C64.9899 53.2416 66.4877 52.3561 67.5657 51.3178C68.6437 50.2795 69.3134 49.0494 69.3134 47.7171C69.3134 46.3848 68.6437 45.1531 67.5657 44.1149C66.4877 43.0764 64.9899 42.191 63.1719 41.4504C59.5361 39.9693 54.6031 39.0785 49.1567 39.0785C43.7103 39.0785 38.7774 39.9693 35.1415 41.4504C33.3236 42.191 31.8257 43.0764 30.7477 44.1149C29.6697 45.1531 29 46.3848 29 47.7171ZM30.4412 47.7171C30.4412 46.8629 30.8597 46.01 31.7488 45.1538C32.6377 44.2976 33.9863 43.4783 35.6856 42.7862C39.0842 41.4015 43.8689 40.5196 49.1567 40.5196C54.4444 40.5196 59.2292 41.4015 62.6278 42.7862C64.327 43.4783 65.6756 44.2976 66.5646 45.1538C67.4537 46.01 67.8722 46.8629 67.8722 47.7171C67.8722 48.5711 67.4537 49.4225 66.5646 50.2788C65.6756 51.135 64.327 51.9557 62.6278 52.648C59.2292 54.0325 54.4444 54.9131 49.1567 54.9131C43.8689 54.9131 39.0842 54.0325 35.6856 52.648C33.9863 51.9557 32.6377 51.135 31.7488 50.2788C30.8597 49.4225 30.4412 48.5711 30.4412 47.7171Z" fill="black"/>
<path d="M59.6641 65.899C60.8247 65.2296 61.5379 64.0056 61.8707 62.5179C62.2035 61.0302 62.1859 59.2411 61.8779 57.2346C61.2597 53.2215 59.4572 48.3285 56.6173 43.4146C53.7774 38.5008 50.4367 34.4948 47.2669 31.9534C45.682 30.6827 44.1397 29.773 42.6836 29.317C41.2275 28.8611 39.8099 28.8661 38.6494 29.5354C37.4889 30.2049 36.7769 31.4281 36.4441 32.9158C36.1113 34.4035 36.1289 36.1926 36.4369 38.1991C37.0552 42.2121 38.8576 47.1053 41.6975 52.0191C44.5374 56.9329 47.8781 60.9389 51.0479 63.4802C52.6328 64.751 54.175 65.6607 55.6311 66.1166C57.0872 66.5726 58.5037 66.5683 59.6641 65.899ZM58.9423 64.65C58.2155 65.0692 57.2667 65.1187 56.0605 64.741C54.8542 64.3633 53.4381 63.5509 51.95 62.3577C48.9736 59.9715 45.7099 56.0817 42.9459 51.2991C40.1818 46.5165 38.4416 41.748 37.861 37.9797C37.5707 36.0957 37.5746 34.4645 37.8503 33.232C38.126 31.9997 38.6432 31.2036 39.37 30.7843C40.0969 30.3652 41.0458 30.3157 42.252 30.6933C43.4582 31.071 44.8753 31.8828 46.3635 33.0759C49.3399 35.4622 52.6024 39.3526 55.3665 44.1353C58.1305 48.9179 59.872 53.6857 60.4526 57.4538C60.7428 59.3379 60.7378 60.9698 60.4619 62.2023C60.1862 63.4346 59.6692 64.2307 58.9423 64.65Z" fill="black"/>
<path d="M38.6494 65.8989C37.4889 65.2295 36.7758 64.0055 36.4429 62.5177C36.1101 61.0299 36.1271 59.2421 36.4357 57.2355C37.0539 53.2223 38.8571 48.3278 41.697 43.4138C44.537 38.4998 47.8777 34.4937 51.0476 31.9523C52.6325 30.6815 54.174 29.7729 55.6301 29.3169C57.0863 28.861 58.5039 28.866 59.6645 29.5354C60.825 30.2048 61.5371 31.428 61.8699 32.9158C62.2026 34.4035 62.1857 36.1916 61.8771 38.1982C61.2588 42.2113 59.4563 47.1045 56.6163 52.0185C53.7763 56.9325 50.4349 60.9398 47.265 63.4812C45.6801 64.7521 44.1385 65.6606 42.6824 66.1166C41.2263 66.5726 39.81 66.5683 38.6494 65.8989ZM39.3713 64.6499C40.0981 65.0691 41.0463 65.1198 42.2525 64.742C43.4589 64.3645 44.8755 63.5507 46.3637 62.3576C49.3402 59.9713 52.6039 56.0813 55.3681 51.2985C58.1322 46.5157 59.8717 41.7484 60.4522 37.9801C60.7425 36.0959 60.7394 34.4635 60.4637 33.231C60.188 31.9985 59.6707 31.2025 58.9439 30.7833C58.2171 30.3641 57.2684 30.3145 56.0621 30.6922C54.8558 31.0699 53.4377 31.8828 51.9495 33.0761C48.9731 35.4625 45.7114 39.3517 42.9473 44.1345C40.1832 48.9174 38.4416 53.6852 37.861 57.4535C37.5708 59.3376 37.5751 60.9708 37.851 62.2033C38.1267 63.4357 38.6444 64.2307 39.3713 64.6499Z" fill="black"/>
</g>
<defs>
<clipPath id="clip0_1054_496">
<rect width="98" height="98" fill="white"/>
</clipPath>
</defs>
</svg>
