<svg width="98" height="98" viewBox="0 0 98 98" fill="none" xmlns="http://www.w3.org/2000/svg">
<g clip-path="url(#clip0_1054_156)">
<path d="M97.004 89.353V7.649C97.004 3.42457 93.5794 0 89.355 0H7.64998C3.42555 0 0.000976562 3.42457 0.000976562 7.649V89.353C0.000976562 93.5774 3.42555 97.002 7.64998 97.002H89.355C93.5794 97.002 97.004 93.5774 97.004 89.353Z" fill="black"/>
<path d="M70.0635 25.4125H69.3872C70.6764 23.3137 70.2003 20.4959 68.1313 18.9608C65.902 17.307 62.734 17.8393 61.1782 20.1643L57.6663 25.4126H27.4972C25.0175 25.4126 23 27.4301 23 29.9099V58.6625C23 61.1423 25.0175 63.1598 27.4972 63.1598H44.9659L43.646 68.7035H40.7973C38.9407 68.7035 37.4302 70.2139 37.4302 72.0705V72.7735H33.9184C33.3036 72.7735 32.8052 73.272 32.8052 73.8867C32.8052 74.5015 33.3036 75 33.9184 75H63.6424C64.2573 75 64.7557 74.5015 64.7557 73.8867C64.7557 73.272 64.2573 72.7735 63.6424 72.7735H60.1306V72.0705C60.1306 70.2139 58.6202 68.7035 56.7636 68.7035H53.9149L52.595 63.1598H70.0636C72.5434 63.1598 74.5609 61.1423 74.5609 58.6625V52.3359V29.9098C74.5609 27.43 72.5434 25.4125 70.0635 25.4125ZM54.1125 44.9836C52.3719 46.202 49.111 44.5458 45.997 46.2075C45.2372 42.2604 45.7162 38.5482 49.6711 37.7289C50.1822 37.6223 50.7325 37.5741 51.2009 37.5835C52.5395 38.5766 53.8935 39.5811 55.2283 40.5716C55.8126 42.2713 55.5933 43.947 54.1125 44.9836ZM55.2344 33.0507L58.3857 35.3888L55.9623 38.3435C54.9645 37.6033 54.1069 36.967 53.1092 36.2266C53.3164 35.917 55.045 33.3336 55.2344 33.0507ZM63.0288 21.4025C63.872 20.1422 65.5916 19.849 66.8046 20.7491C68.0181 21.6492 68.2354 23.3799 67.2739 24.5523C65.5678 26.6322 61.5118 31.5774 59.7992 33.6653L56.4739 31.1981L63.0288 21.4025ZM57.904 72.0705V72.7735H39.6567V72.0705C39.6567 71.4417 40.1684 70.93 40.7973 70.93H56.7635C57.3923 70.93 57.904 71.4417 57.904 72.0705ZM51.626 68.7035H45.9348L47.2546 63.1598H50.3061L51.626 68.7035ZM72.3343 58.6625C72.3343 59.9146 71.3157 60.9333 70.0636 60.9333C68.2964 60.9333 29.4843 60.9333 27.4974 60.9333C26.2453 60.9333 25.2266 59.9146 25.2266 58.6625V53.4491H28.4079C29.0227 53.4491 29.5212 52.9506 29.5212 52.3359C29.5212 51.7211 29.0227 51.2226 28.4079 51.2226H25.2264V29.9098C25.2264 28.6577 26.245 27.639 27.4971 27.639H56.1764C55.1099 29.2329 51.9985 33.8828 51.0129 35.3555C48.8312 35.3752 46.6532 36.1352 45.2273 37.7998C43.287 40.0647 42.9461 43.6236 44.2141 48.3774C44.4309 49.1903 45.4451 49.4816 46.0589 48.8953C48.9375 46.1448 52.5226 49.145 55.7331 46.5465C57.6929 44.9601 58.1567 42.4381 57.4177 40.0797C58.4167 38.8618 66.6204 28.8598 67.6217 27.639H70.0634C71.3155 27.639 72.3341 28.6577 72.3341 29.9098V51.2225H37.3138C36.6989 51.2225 36.2005 51.721 36.2005 52.3358C36.2005 52.9505 36.6989 53.449 37.3138 53.449H72.3343V58.6625Z" fill="white"/>
<path d="M32.6456 51.2442C32.1096 51.3537 31.7505 51.817 31.7505 52.3364C31.7505 53.0328 32.3872 53.5661 33.0809 53.4275C33.6973 53.3023 34.0728 52.7083 33.9548 52.1182C33.8309 51.5093 33.2402 51.1245 32.6456 51.2442Z" fill="white"/>
</g>
<defs>
<clipPath id="clip0_1054_156">
<rect width="98" height="98" fill="white"/>
</clipPath>
</defs>
</svg>
