<svg width="98" height="98" viewBox="0 0 98 98" fill="none" xmlns="http://www.w3.org/2000/svg">
<g clip-path="url(#clip0_1054_184)">
<path d="M97.004 89.353V7.649C97.004 3.42457 93.5794 0 89.355 0H7.64998C3.42555 0 0.000976562 3.42457 0.000976562 7.649V89.353C0.000976562 93.5774 3.42555 97.002 7.64998 97.002H89.355C93.5794 97.002 97.004 93.5774 97.004 89.353Z" fill="black"/>
<path d="M27 26.25H28.75V28H27V26.25Z" fill="white"/>
<path d="M30.5 26.25H32.25V28H30.5V26.25Z" fill="white"/>
<path d="M34 26.25H35.75V28H34V26.25Z" fill="white"/>
<path d="M27.875 45.5H41.875C42.1071 45.5 42.3296 45.4078 42.4937 45.2437C42.6578 45.0796 42.75 44.8571 42.75 44.625V35.875C42.75 35.6429 42.6578 35.4204 42.4937 35.2563C42.3296 35.0922 42.1071 35 41.875 35H27.875C27.6429 35 27.4204 35.0922 27.2563 35.2563C27.0922 35.4204 27 35.6429 27 35.875V44.625C27 44.8571 27.0922 45.0796 27.2563 45.2437C27.4204 45.4078 27.6429 45.5 27.875 45.5ZM28.75 36.75H41V43.75H28.75V36.75Z" fill="white"/>
<path d="M49.75 35.875H63.75V37.625H49.75V35.875Z" fill="white"/>
<path d="M46.25 39.375H62V41.125H46.25V39.375Z" fill="white"/>
<path d="M46.25 42.875H58.5V44.625H46.25V42.875Z" fill="white"/>
<path d="M30.5 49H53.25V50.75H30.5V49Z" fill="white"/>
<path d="M27 52.5H49.75V54.25H27V52.5Z" fill="white"/>
<path d="M27 56H46.25V57.75H27V56Z" fill="white"/>
<path d="M27 59.5H46.25V61.25H27V59.5Z" fill="white"/>
<path d="M27 63H46.25V64.75H27V63Z" fill="white"/>
<path d="M27 49H28.75V50.75H27V49Z" fill="white"/>
<path d="M69.875 28H69V27.125C69 25.9647 68.5391 24.8519 67.7186 24.0314C66.8981 23.2109 65.7853 22.75 64.625 22.75H26.125C24.9647 22.75 23.8519 23.2109 23.0314 24.0314C22.2109 24.8519 21.75 25.9647 21.75 27.125V65.625C21.75 66.7853 22.2109 67.8981 23.0314 68.7186C23.8519 69.5391 24.9647 70 26.125 70H27V70.875C27 72.0353 27.4609 73.1481 28.2814 73.9686C29.1019 74.7891 30.2147 75.25 31.375 75.25H69.875C71.0353 75.25 72.1481 74.7891 72.9686 73.9686C73.7891 73.1481 74.25 72.0353 74.25 70.875V32.375C74.25 31.2147 73.7891 30.1019 72.9686 29.2814C72.1481 28.4609 71.0353 28 69.875 28ZM68.3087 41.5975L72.0275 45.3163L69.5513 47.7925L65.8325 44.0738L68.3087 41.5975ZM52.4888 59.1938L53.18 57.4L56.225 60.445L54.4312 61.1362L52.4888 59.1938ZM52.6463 61.8188L51.2725 62.3525L51.8062 60.9787L52.6463 61.8188ZM55.315 57.0675L54.0813 55.8338L64.5988 45.3163L65.8325 46.55L55.315 57.0675ZM67.075 47.7925L68.3087 49.0262L57.7912 59.5437L56.5575 58.31L67.075 47.7925ZM23.5 27.125C23.5021 26.4294 23.7793 25.763 24.2711 25.2711C24.763 24.7793 25.4294 24.5021 26.125 24.5H64.625C65.3206 24.5021 65.987 24.7793 66.4789 25.2711C66.9707 25.763 67.2479 26.4294 67.25 27.125V29.75H23.5V27.125ZM26.125 68.25C25.4294 68.2479 24.763 67.9707 24.2711 67.4789C23.7793 66.987 23.5021 66.3206 23.5 65.625V31.5H67.25V40.1888L52.2263 55.2125C52.1386 55.2995 52.07 55.4038 52.025 55.5188L48.9362 63.56C48.8727 63.7177 48.8571 63.8906 48.8913 64.0572C48.9256 64.2237 49.0082 64.3764 49.1288 64.4962C49.2943 64.6595 49.5176 64.7507 49.75 64.75C49.858 64.7509 49.9652 64.7301 50.065 64.6888L58.1062 61.6C58.2212 61.555 58.3255 61.4864 58.4125 61.3987L67.25 52.5612V65.625C67.2479 66.3206 66.9707 66.987 66.4789 67.4789C65.987 67.9707 65.3206 68.2479 64.625 68.25H26.125ZM72.5 70.875C72.4979 71.5706 72.2207 72.237 71.7289 72.7289C71.237 73.2207 70.5706 73.4979 69.875 73.5H31.375C30.6794 73.4979 30.013 73.2207 29.5211 72.7289C29.0293 72.237 28.7521 71.5706 28.75 70.875V70H64.625C65.7853 70 66.8981 69.5391 67.7186 68.7186C68.5391 67.8981 69 66.7853 69 65.625V50.8112L72.5 47.3112V70.875ZM72.5 43.3125L69 39.8125V36.75H72.5V43.3125ZM72.5 35H69V29.75H69.875C70.5706 29.7521 71.237 30.0293 71.7289 30.5211C72.2207 31.013 72.4979 31.6794 72.5 32.375V35Z" fill="white"/>
<path d="M46.25 35.875H48V37.625H46.25V35.875Z" fill="white"/>
</g>
<defs>
<clipPath id="clip0_1054_184">
<rect width="98" height="98" fill="white"/>
</clipPath>
</defs>
</svg>
