<svg width="98" height="98" viewBox="0 0 98 98" fill="none" xmlns="http://www.w3.org/2000/svg">
<g clip-path="url(#clip0_35_417)">
<mask id="mask0_35_417" style="mask-type:luminance" maskUnits="userSpaceOnUse" x="0" y="0" width="98" height="98">
<path d="M98 0H0V98H98V0Z" fill="white"/>
</mask>
<g mask="url(#mask0_35_417)">
<mask id="mask1_35_417" style="mask-type:luminance" maskUnits="userSpaceOnUse" x="0" y="0" width="98" height="98">
<path d="M98 0H0V98H98V0Z" fill="white"/>
</mask>
<g mask="url(#mask1_35_417)">
<path d="M97.003 89.353V7.649C97.003 3.42457 93.5784 0 89.354 0H7.649C3.42457 0 0 3.42457 0 7.649V89.353C0 93.5774 3.42457 97.002 7.649 97.002H89.354C93.5784 97.002 97.003 93.5774 97.003 89.353Z" fill="black"/>
</g>
</g>
<path d="M58.8547 69.9454H39.1447C38.9769 69.9454 38.8159 69.8787 38.6972 69.76C38.5785 69.6414 38.5119 69.4804 38.5119 69.3126V66.3594C38.5107 66.276 38.5263 66.1932 38.5577 66.1159C38.5891 66.0387 38.6357 65.9684 38.6947 65.9095C38.7537 65.8505 38.8239 65.8039 38.9012 65.7725C38.9785 65.7411 39.0613 65.7255 39.1447 65.7266H42.3931V61.7948H26.6741C25.911 61.7948 25.1792 61.4916 24.6396 60.952C24.1 60.4125 23.7969 59.6806 23.7969 58.9176V31.8079C23.7969 31.0649 24.092 30.3524 24.6173 29.8271C25.1427 29.3018 25.8552 29.0066 26.5981 29.0066H42.8319V24.4926C42.8319 24.4926 42.8319 24.4504 42.8319 24.4251C42.8282 24.3194 42.85 24.2143 42.8956 24.1189C42.9411 24.0234 43.009 23.9403 43.0934 23.8766L52.1131 18.156C52.2147 18.0896 52.3335 18.0542 52.4548 18.0542C52.5762 18.0542 52.695 18.0896 52.7966 18.156L61.7909 23.8766C61.8819 23.9321 61.957 24.0103 62.0088 24.1034C62.0605 24.1966 62.0872 24.3016 62.0862 24.4082C62.0903 24.4277 62.0903 24.4478 62.0862 24.4673V28.9898H71.3675C71.7354 28.9898 72.0996 29.0622 72.4395 29.203C72.7794 29.3438 73.0882 29.5501 73.3483 29.8102C73.6084 30.0703 73.8147 30.3792 73.9555 30.719C74.0963 31.0589 74.1688 31.4231 74.1688 31.791V58.9176C74.1688 59.6806 73.8656 60.4125 73.326 60.952C72.7865 61.4916 72.0546 61.7948 71.2916 61.7948H55.6063V65.7266H58.8547C58.9381 65.7255 59.0209 65.7411 59.0982 65.7725C59.1755 65.8039 59.2457 65.8505 59.3047 65.9095C59.3637 65.9684 59.4102 66.0387 59.4416 66.1159C59.473 66.1932 59.4886 66.276 59.4875 66.3594V69.3126C59.4875 69.4804 59.4208 69.6414 59.3022 69.76C59.1835 69.8787 59.0225 69.9454 58.8547 69.9454ZM39.7775 68.6798H58.2219V66.9923H39.7775V68.6798ZM43.6588 65.7266H54.3406V61.7948H43.6588V65.7266ZM54.9734 60.5291H71.3253C71.752 60.5269 72.1607 60.3564 72.4624 60.0547C72.7642 59.7529 72.9347 59.3443 72.9369 58.9176V57.2301H25.0625V58.9176C25.0647 59.3443 25.2352 59.7529 25.537 60.0547C25.8387 60.3564 26.2473 60.5269 26.6741 60.5291H54.9734ZM31.9728 55.9391H72.9369V31.8079C72.9347 31.4013 72.7722 31.012 72.4847 30.7245C72.1971 30.437 71.8078 30.2745 71.4012 30.2723H62.12V34.8707C62.1202 34.9773 62.0941 35.0824 62.0441 35.1766C61.994 35.2707 61.9216 35.3511 61.8331 35.4107L52.7966 41.1313C52.7333 41.1667 52.665 41.1923 52.5941 41.2073H52.4591C52.4113 41.2036 52.3634 41.2036 52.3156 41.2073C52.254 41.1923 52.1944 41.1696 52.1384 41.1398L43.0934 35.4107C43.0023 35.3533 42.9274 35.2735 42.8757 35.179C42.824 35.0845 42.7973 34.9784 42.7981 34.8707V30.2723H31.9728V55.9391ZM25.0625 55.9391H30.7072V30.2723H26.5981C26.1915 30.2745 25.8022 30.437 25.5147 30.7245C25.2272 31.012 25.0647 31.4013 25.0625 31.8079V55.9391ZM53.0919 30.5001V39.4438L60.8122 34.5248V25.581L53.0919 30.5001ZM44.0975 34.5248L51.8262 39.4438V30.5001L44.0975 25.5894V34.5248ZM50.3919 28.0869L52.4591 29.3948L60.2806 24.4166L52.4591 19.4385L44.6291 24.4166L50.3919 28.0869ZM67.115 54.1251H37.7947C37.6269 54.1251 37.4659 54.0584 37.3472 53.9397C37.2285 53.8211 37.1619 53.6601 37.1619 53.4923V50.8429C37.1641 50.6757 37.2314 50.516 37.3496 50.3978C37.4678 50.2796 37.6275 50.2123 37.7947 50.2101H67.115C67.2822 50.2123 67.4418 50.2796 67.56 50.3978C67.6783 50.516 67.7456 50.6757 67.7478 50.8429V53.5091C67.7434 53.674 67.6748 53.8307 67.5566 53.9457C67.4384 54.0608 67.2799 54.1251 67.115 54.1251ZM38.4275 52.8594H66.4822V51.4757H38.4275V52.8594ZM27.9059 53.5935C27.4584 53.5935 27.0292 53.4157 26.7127 53.0993C26.3962 52.7828 26.2184 52.3536 26.2184 51.906C26.2184 51.4585 26.3962 51.0292 26.7127 50.7128C27.0292 50.3963 27.4584 50.2185 27.9059 50.2185C28.3535 50.2185 28.7827 50.3963 29.0992 50.7128C29.4156 51.0292 29.5934 51.4585 29.5934 51.906C29.5934 52.3536 29.4156 52.7828 29.0992 53.0993C28.7827 53.4157 28.3535 53.5935 27.9059 53.5935ZM27.9059 51.4757C27.8085 51.4953 27.7208 51.548 27.6578 51.6249C27.5948 51.7018 27.5604 51.7982 27.5604 51.8976C27.5604 51.997 27.5948 52.0933 27.6578 52.1702C27.7208 52.2471 27.8085 52.2999 27.9059 52.3194C27.961 52.3222 28.0159 52.313 28.067 52.2925C28.1181 52.2719 28.1641 52.2404 28.2019 52.2003C28.2396 52.1602 28.2681 52.1123 28.2855 52.06C28.3029 52.0077 28.3087 51.9523 28.3025 51.8976C28.3073 51.8431 28.3005 51.7883 28.2826 51.7366C28.2647 51.685 28.2361 51.6377 28.1987 51.5979C28.1612 51.558 28.1158 51.5266 28.0653 51.5055C28.0149 51.4845 27.9606 51.4743 27.9059 51.4757ZM27.9059 49.1976C27.4584 49.1976 27.0292 49.0198 26.7127 48.7033C26.3962 48.3868 26.2184 47.9576 26.2184 47.5101C26.2184 47.0625 26.3962 46.6333 26.7127 46.3168C27.0292 46.0004 27.4584 45.8226 27.9059 45.8226C28.3535 45.8226 28.7827 46.0004 29.0992 46.3168C29.4156 46.6333 29.5934 47.0625 29.5934 47.5101C29.5934 47.9576 29.4156 48.3868 29.0992 48.7033C28.7827 49.0198 28.3535 49.1976 27.9059 49.1976ZM27.9059 47.0798C27.8495 47.0771 27.7931 47.0866 27.7407 47.1076C27.6882 47.1285 27.6408 47.1604 27.6016 47.2011C27.5625 47.2419 27.5325 47.2905 27.5137 47.3438C27.4948 47.3971 27.4876 47.4538 27.4925 47.5101C27.4873 47.5668 27.4947 47.6239 27.514 47.6775C27.5334 47.731 27.5643 47.7796 27.6046 47.8199C27.6448 47.8601 27.6934 47.891 27.747 47.9104C27.8005 47.9298 27.8577 47.9371 27.9144 47.9319C27.9694 47.9347 28.0244 47.9255 28.0755 47.905C28.1266 47.8844 28.1726 47.8529 28.2103 47.8128C28.248 47.7727 28.2766 47.7248 28.294 47.6725C28.3113 47.6202 28.3171 47.5648 28.3109 47.5101C28.3171 47.4542 28.3111 47.3977 28.2933 47.3444C28.2755 47.2911 28.2463 47.2423 28.2078 47.2014C28.1693 47.1605 28.1224 47.1284 28.0702 47.1074C28.0181 47.0864 27.9621 47.077 27.9059 47.0798ZM50.8391 47.1219C50.672 47.1183 50.5124 47.0521 50.3919 46.9363C50.2734 46.8177 50.2068 46.6568 50.2068 46.4891C50.2068 46.3214 50.2734 46.1606 50.3919 46.0419L50.9656 45.4682C45.1438 45.1898 38.7819 42.9369 37.6766 39.3932C37.2463 38.0179 37.4403 35.9085 40.79 33.6641C40.9295 33.5882 41.0925 33.5675 41.2466 33.6061C41.4007 33.6448 41.5346 33.74 41.6217 33.8728C41.7088 34.0056 41.7428 34.1664 41.7169 34.3231C41.691 34.4798 41.6071 34.6211 41.4819 34.7188C39.9884 35.7229 38.3263 37.2501 38.8663 39.0304C39.71 41.7051 45.0256 43.9326 50.8981 44.211L50.375 43.6879C50.2565 43.5692 50.1899 43.4084 50.1899 43.2407C50.1899 43.073 50.2565 42.9122 50.375 42.7935C50.4332 42.7338 50.5027 42.6864 50.5795 42.654C50.6563 42.6216 50.7388 42.6049 50.8222 42.6049C50.9055 42.6049 50.9881 42.6216 51.0649 42.654C51.1417 42.6864 51.2112 42.7338 51.2694 42.7935L52.8556 44.3798C52.9278 44.4378 52.9863 44.5109 53.0272 44.594C53.068 44.6771 53.0901 44.7681 53.0919 44.8607C53.0908 44.9558 53.0691 45.0496 53.0284 45.1355C52.9876 45.2215 52.9286 45.2975 52.8556 45.3585L51.2694 46.9448C51.1485 47.0589 50.9884 47.1223 50.8222 47.1219H50.8391ZM55.0578 45.3838C54.89 45.3838 54.729 45.3172 54.6103 45.1985C54.4917 45.0798 54.425 44.9188 54.425 44.751C54.425 44.5832 54.4917 44.4222 54.6103 44.3035C54.729 44.1849 54.89 44.1182 55.0578 44.1182C60.6097 43.7048 65.4697 41.4098 66.1278 38.8869C66.575 37.1994 64.9466 35.6723 63.5037 34.6682C63.4269 34.6264 63.3596 34.5691 63.306 34.4999C63.2525 34.4308 63.2138 34.3513 63.1926 34.2664C63.1713 34.1816 63.1678 34.0932 63.1824 34.007C63.1969 33.9207 63.2292 33.8385 63.2772 33.7653C63.3252 33.6922 63.3878 33.6298 63.4611 33.5821C63.5344 33.5343 63.6168 33.5023 63.7031 33.4881C63.7894 33.4738 63.8778 33.4776 63.9625 33.4992C64.0473 33.5208 64.1267 33.5597 64.1956 33.6135C67.4441 35.7651 67.7056 37.8323 67.3512 39.1654C66.4316 42.6923 60.5169 44.9366 55.1506 45.3416L55.0578 45.3838ZM27.9059 44.8438C27.4584 44.8438 27.0292 44.666 26.7127 44.3496C26.3962 44.0331 26.2184 43.6039 26.2184 43.1563C26.2184 42.7088 26.3962 42.2795 26.7127 41.9631C27.0292 41.6466 27.4584 41.4688 27.9059 41.4688C28.3535 41.4688 28.7827 41.6466 29.0992 41.9631C29.4156 42.2795 29.5934 42.7088 29.5934 43.1563C29.5934 43.6039 29.4156 44.0331 29.0992 44.3496C28.7827 44.666 28.3535 44.8438 27.9059 44.8438ZM27.9059 42.726C27.8495 42.7234 27.7931 42.7329 27.7407 42.7538C27.6882 42.7747 27.6408 42.8067 27.6016 42.8474C27.5625 42.8881 27.5325 42.9368 27.5137 42.9901C27.4948 43.0433 27.4876 43.1 27.4925 43.1563C27.4873 43.213 27.4947 43.2702 27.514 43.3237C27.5334 43.3772 27.5643 43.4259 27.6046 43.4661C27.6448 43.5064 27.6934 43.5373 27.747 43.5567C27.8005 43.576 27.8577 43.5834 27.9144 43.5782C27.9694 43.581 28.0244 43.5718 28.0755 43.5512C28.1266 43.5306 28.1726 43.4992 28.2103 43.4591C28.248 43.4189 28.2766 43.371 28.294 43.3188C28.3113 43.2665 28.3171 43.2111 28.3109 43.1563C28.3242 43.0974 28.3235 43.0361 28.309 42.9775C28.2944 42.9188 28.2663 42.8644 28.227 42.8185C28.1876 42.7726 28.1381 42.7365 28.0824 42.7131C28.0267 42.6898 27.9662 42.6797 27.9059 42.6838V42.726ZM27.9059 40.4563C27.4584 40.4563 27.0292 40.2785 26.7127 39.9621C26.3962 39.6456 26.2184 39.2164 26.2184 38.7688C26.2114 38.5453 26.2503 38.3227 26.3326 38.1148C26.4149 37.9069 26.5389 37.7181 26.6971 37.5599C26.8552 37.4018 27.044 37.2778 27.2519 37.1955C27.4599 37.1131 27.6824 37.0743 27.9059 37.0813C28.3535 37.0813 28.7827 37.2591 29.0992 37.5756C29.4156 37.892 29.5934 38.3213 29.5934 38.7688C29.5934 39.2164 29.4156 39.6456 29.0992 39.9621C28.7827 40.2785 28.3535 40.4563 27.9059 40.4563ZM27.9059 38.3385C27.8499 38.3346 27.7937 38.3429 27.7412 38.3629C27.6887 38.3828 27.6412 38.4139 27.6019 38.454C27.5626 38.4942 27.5324 38.5423 27.5135 38.5952C27.4947 38.6481 27.4875 38.7045 27.4925 38.7604C27.4875 38.8174 27.4949 38.8749 27.5142 38.9288C27.5335 38.9827 27.5643 39.0318 27.6044 39.0727C27.6445 39.1136 27.6929 39.1453 27.7464 39.1657C27.8 39.186 27.8572 39.1946 27.9144 39.1907C28.0118 39.1711 28.0995 39.1184 28.1625 39.0415C28.2255 38.9646 28.2599 38.8682 28.2599 38.7688C28.2599 38.6694 28.2255 38.5731 28.1625 38.4962C28.0995 38.4193 28.0118 38.3665 27.9144 38.3469L27.9059 38.3385ZM27.9059 36.0604C27.4584 36.0604 27.0292 35.8826 26.7127 35.5661C26.3962 35.2497 26.2184 34.8204 26.2184 34.3729C26.2184 33.9253 26.3962 33.4961 26.7127 33.1796C27.0292 32.8632 27.4584 32.6854 27.9059 32.6854C28.3535 32.6854 28.7827 32.8632 29.0992 33.1796C29.4156 33.4961 29.5934 33.9253 29.5934 34.3729C29.5934 34.8204 29.4156 35.2497 29.0992 35.5661C28.7827 35.8826 28.3535 36.0604 27.9059 36.0604ZM27.9059 33.8751C27.8499 33.8712 27.7937 33.8795 27.7412 33.8994C27.6887 33.9194 27.6412 33.9505 27.6019 33.9906C27.5626 34.0307 27.5324 34.0789 27.5135 34.1318C27.4947 34.1847 27.4875 34.241 27.4925 34.2969C27.4889 34.3526 27.497 34.4083 27.5164 34.4606C27.5358 34.5128 27.566 34.5604 27.605 34.6002C27.644 34.64 27.691 34.6712 27.7428 34.6916C27.7947 34.712 27.8503 34.7213 27.9059 34.7188C28.0034 34.6992 28.0911 34.6465 28.1541 34.5696C28.217 34.4927 28.2515 34.3964 28.2515 34.2969C28.2515 34.1975 28.217 34.1012 28.1541 34.0243C28.0911 33.9474 28.0034 33.8947 27.9059 33.8751Z" fill="white"/>
</g>
<defs>
<clipPath id="clip0_35_417">
<rect width="98" height="98" fill="white"/>
</clipPath>
</defs>
</svg>
