<svg width="98" height="98" viewBox="0 0 98 98" fill="none" xmlns="http://www.w3.org/2000/svg">
<g clip-path="url(#clip0_35_421)">
<mask id="mask0_35_421" style="mask-type:luminance" maskUnits="userSpaceOnUse" x="0" y="0" width="98" height="98">
<path d="M98 0H0V98H98V0Z" fill="white"/>
</mask>
<g mask="url(#mask0_35_421)">
<mask id="mask1_35_421" style="mask-type:luminance" maskUnits="userSpaceOnUse" x="0" y="0" width="98" height="98">
<path d="M98 0H0V98H98V0Z" fill="white"/>
</mask>
<g mask="url(#mask1_35_421)">
<path d="M97.003 89.353V7.649C97.003 3.42457 93.5784 0 89.354 0H7.649C3.42457 0 0 3.42457 0 7.649V89.353C0 93.5774 3.42457 97.002 7.649 97.002H89.354C93.5784 97.002 97.003 93.5774 97.003 89.353Z" fill="black"/>
</g>
</g>
<path d="M70.7031 48.0312C70.5001 48.0312 70.3053 48.1119 70.1617 48.2555C70.0182 48.3991 69.9375 48.5938 69.9375 48.7969V56.4531C69.9375 57.0623 69.6955 57.6465 69.2648 58.0773C68.834 58.508 68.2498 58.75 67.6406 58.75H30.125C29.3128 58.75 28.5338 58.4273 27.9595 57.853C27.3852 57.2787 27.0625 56.4997 27.0625 55.6875V31.9531C27.0625 31.344 27.3045 30.7597 27.7352 30.329C28.166 29.8982 28.7502 29.6562 29.3594 29.6562H42.375C42.5781 29.6562 42.7728 29.5756 42.9164 29.432C43.06 29.2884 43.1406 29.0937 43.1406 28.8906C43.1406 28.6876 43.06 28.4928 42.9164 28.3492C42.7728 28.2057 42.5781 28.125 42.375 28.125H29.3594C28.3445 28.1262 27.3715 28.5299 26.6538 29.2476C25.9362 29.9652 25.5325 30.9382 25.5312 31.9531V55.6875C25.5325 56.9055 26.0168 58.0732 26.8781 58.9344C27.7393 59.7957 28.907 60.28 30.125 60.2812H39.7298C38.9306 62.031 37.4872 63.405 35.7003 64.117L33.8061 64.875H32.4219C31.8127 64.875 31.2285 65.117 30.7977 65.5477C30.367 65.9785 30.125 66.5627 30.125 67.1719V68.7031C30.125 68.9062 30.2057 69.1009 30.3492 69.2445C30.4928 69.3881 30.6876 69.4688 30.8906 69.4688H43.1406C43.3437 69.4688 43.5384 69.3881 43.682 69.2445C43.8256 69.1009 43.9062 68.9062 43.9062 68.7031C43.9062 68.5001 43.8256 68.3053 43.682 68.1617C43.5384 68.0182 43.3437 67.9375 43.1406 67.9375H31.6562V67.1719C31.6562 66.9688 31.7369 66.7741 31.8805 66.6305C32.0241 66.4869 32.2188 66.4062 32.4219 66.4062H64.5781C64.7812 66.4062 64.9759 66.4869 65.1195 66.6305C65.2631 66.7741 65.3438 66.9688 65.3438 67.1719V67.9375H46.2031C46.0001 67.9375 45.8053 68.0182 45.6617 68.1617C45.5182 68.3053 45.4375 68.5001 45.4375 68.7031C45.4375 68.9062 45.5182 69.1009 45.6617 69.2445C45.8053 69.3881 46.0001 69.4688 46.2031 69.4688H66.1094C66.3124 69.4688 66.5072 69.3881 66.6508 69.2445C66.7943 69.1009 66.875 68.9062 66.875 68.7031V67.1719C66.875 66.5627 66.633 65.9785 66.2023 65.5477C65.7715 65.117 65.1873 64.875 64.5781 64.875H63.1939L61.2997 64.117C59.5127 63.405 58.0694 62.031 57.2702 60.2812H67.6406C68.6555 60.28 69.6285 59.8763 70.3462 59.1587C71.0638 58.441 71.4675 57.468 71.4688 56.4531V48.7969C71.4688 48.5938 71.3881 48.3991 71.2445 48.2555C71.1009 48.1119 70.9062 48.0312 70.7031 48.0312ZM59.3964 64.875H37.6036C39.3527 63.819 40.6899 62.1988 41.395 60.2812H55.605C56.3101 62.1988 57.6473 63.819 59.3964 64.875Z" fill="white"/>
<path d="M67.6406 28.125H53.0938C52.8907 28.125 52.696 28.2057 52.5524 28.3492C52.4088 28.4928 52.3281 28.6876 52.3281 28.8906C52.3281 29.0937 52.4088 29.2884 52.5524 29.432C52.696 29.5756 52.8907 29.6562 53.0938 29.6562H67.6406C68.2498 29.6562 68.834 29.8982 69.2648 30.329C69.6955 30.7597 69.9375 31.344 69.9375 31.9531V45.7344C69.9375 45.9374 70.0182 46.1322 70.1617 46.2758C70.3053 46.4193 70.5001 46.5 70.7031 46.5C70.9062 46.5 71.1009 46.4193 71.2445 46.2758C71.3881 46.1322 71.4688 45.9374 71.4688 45.7344V31.9531C71.4675 30.9382 71.0638 29.9652 70.3462 29.2476C69.6285 28.5299 68.6555 28.1262 67.6406 28.125Z" fill="white"/>
<path d="M39.3607 32.45L37.5431 37.2964C37.4451 37.5585 37.4009 37.8377 37.4132 38.1172C37.4254 38.3968 37.4939 38.671 37.6144 38.9235C37.735 39.1761 37.9051 39.4017 38.1148 39.587C38.3245 39.7724 38.5693 39.9135 38.8347 40.0021C39.284 40.1496 39.77 40.1405 40.2135 39.9764C40.657 39.8124 41.0319 39.503 41.2771 39.0987L42.8083 36.5469H43.9062C43.9062 36.7499 43.9869 36.9447 44.1305 37.0883C44.2741 37.2318 44.4688 37.3125 44.6719 37.3125C44.8749 37.3125 45.0697 37.2318 45.2133 37.0883C45.3568 36.9447 45.4375 36.7499 45.4375 36.5469V35.7812C45.4375 35.5782 45.3568 35.3835 45.2133 35.2399C45.0697 35.0963 44.8749 35.0156 44.6719 35.0156H42.375C42.2429 35.0157 42.113 35.0499 41.9981 35.1149C41.8831 35.18 41.7869 35.2737 41.7189 35.387L39.9648 38.3078C39.9002 38.4148 39.8011 38.4966 39.6838 38.5399C39.5665 38.5832 39.438 38.5853 39.3194 38.5459C39.2492 38.5226 39.1843 38.4854 39.1288 38.4364C39.0733 38.3875 39.0282 38.3279 38.9963 38.2611C38.9643 38.1944 38.9462 38.1219 38.9429 38.0479C38.9396 37.974 38.9513 37.9002 38.9772 37.8308L40.6393 33.3986L44.7354 32.7188H50.5281L54.1465 35.6136C54.2282 35.679 54.3225 35.7269 54.4235 35.7544C54.5245 35.782 54.6301 35.7885 54.7337 35.7736L58.3758 35.253C58.4805 35.2378 58.5873 35.2456 58.6888 35.2756C58.7903 35.3055 58.8841 35.3571 58.9638 35.4268C59.0444 35.4956 59.109 35.5812 59.1531 35.6776C59.1971 35.774 59.2195 35.8789 59.2188 35.9849C59.2185 36.1648 59.1527 36.3385 59.0336 36.4734C58.9145 36.6082 58.7503 36.6951 58.5718 36.7176L54.027 37.2857L51.1942 35.5845C51.078 35.5139 50.9451 35.4756 50.8091 35.4734C50.6732 35.4712 50.5391 35.5053 50.4207 35.5721C50.3022 35.6389 50.2037 35.7361 50.1353 35.8536C50.0669 35.9711 50.0309 36.1047 50.0312 36.2406V38.8438H44.6719C44.4908 38.8438 44.3155 38.9081 44.1773 39.0251C44.0391 39.1422 43.9469 39.3044 43.917 39.483L43.2386 43.5523L39.8699 44.2031H37.0156C36.8126 44.2031 36.6178 44.2838 36.4742 44.4274C36.3307 44.571 36.25 44.7657 36.25 44.9688V50.3281C36.25 50.5312 36.3307 50.7259 36.4742 50.8695C36.6178 51.0131 36.8126 51.0938 37.0156 51.0938C37.7817 51.0923 38.5297 50.861 39.1629 50.4298C39.796 49.9986 40.2853 49.3874 40.5674 48.6751L47.0453 48.0274C47.1739 48.0146 47.2972 47.9693 47.4036 47.896C47.5101 47.8226 47.5962 47.7235 47.654 47.6079L49.6079 43.6993L51.6391 44.7138L52.3404 48.9247C52.3705 49.1028 52.4627 49.2645 52.6006 49.3812C52.7384 49.4979 52.9131 49.5621 53.0938 49.5625H55.3906C55.8655 49.5631 56.3286 49.7106 56.7164 49.9847C57.1042 50.2588 57.3976 50.6462 57.5566 51.0938H53.0938C52.8907 51.0938 52.696 51.1744 52.5524 51.318C52.4088 51.4616 52.3281 51.6563 52.3281 51.8594C52.3281 52.0624 52.4088 52.2572 52.5524 52.4008C52.696 52.5443 52.8907 52.625 53.0938 52.625H58.4531C58.6562 52.625 58.8509 52.5443 58.9945 52.4008C59.1381 52.2572 59.2188 52.0624 59.2188 51.8594C59.217 51.0912 58.9841 50.3412 58.5505 49.7071C58.1168 49.073 57.5024 48.5841 56.7871 48.3038L56.1517 42.5877C56.1394 42.4766 56.1029 42.3695 56.0449 42.274C55.9868 42.1785 55.9085 42.0969 55.8155 42.0349L51.5625 39.1998V37.592L53.4651 38.7335C53.6118 38.8222 53.7842 38.8586 53.9543 38.8369L58.7617 38.2366C59.0602 38.2007 59.3486 38.1059 59.6102 37.9576C59.8718 37.8093 60.1013 37.6105 60.2855 37.3728C60.4696 37.1351 60.6046 36.8632 60.6828 36.5728C60.761 36.2825 60.7807 35.9795 60.7408 35.6815C60.7008 35.3834 60.6021 35.0963 60.4503 34.8367C60.2985 34.5772 60.0967 34.3504 59.8565 34.1695C59.6163 33.9886 59.3426 33.8572 59.0512 33.7829C58.7598 33.7087 58.4566 33.6931 58.1591 33.737L54.8447 34.2102L51.2754 31.3544C51.1395 31.2461 50.9707 31.1872 50.7969 31.1875H50.3712C50.6468 30.724 50.7937 30.1954 50.7969 29.6562V24.2969C50.7969 24.0938 50.7162 23.8991 50.5726 23.7555C50.429 23.6119 50.2343 23.5312 50.0312 23.5312H48.5C47.4851 23.5325 46.5121 23.9362 45.7944 24.6538C45.0768 25.3715 44.6731 26.3445 44.6719 27.3594V29.6562C44.675 30.1954 44.822 30.724 45.0976 31.1875H44.6719C44.6298 31.1872 44.5878 31.1908 44.5463 31.1982L39.9526 31.9638C39.8199 31.9858 39.6954 32.0423 39.5915 32.1276C39.4876 32.213 39.408 32.3241 39.3607 32.45ZM39.3125 47.2656C39.3119 47.7405 39.1644 48.2036 38.8903 48.5914C38.6162 48.9792 38.2288 49.2726 37.7812 49.4316V45.7344H39.3125V47.2656ZM55.2161 48.0312H53.7422L53.083 44.0768C53.0632 43.9577 53.0155 43.845 52.9437 43.7478C52.872 43.6507 52.7783 43.5719 52.6704 43.5179L49.6079 41.9866C49.5179 41.9417 49.4199 41.9148 49.3196 41.9077C49.2192 41.9006 49.1185 41.9134 49.023 41.9452C48.9276 41.9771 48.8394 42.0274 48.7635 42.0934C48.6875 42.1593 48.6253 42.2396 48.5804 42.3296L46.4734 46.5459L40.8438 47.1125V45.5812L44.051 44.9611C44.2047 44.9319 44.3459 44.8564 44.4554 44.7445C44.5649 44.6327 44.6375 44.49 44.6635 44.3356L45.3204 40.375H50.5672L54.6717 43.1113L55.2161 48.0312ZM48.5 25.0625H49.2656V26.5938H46.334C46.493 26.1462 46.7865 25.7588 47.1742 25.4847C47.562 25.2106 48.0251 25.0631 48.5 25.0625ZM46.2031 29.6562V28.125H49.2656V29.6562C49.2656 30.0624 49.1043 30.4518 48.8171 30.739C48.53 31.0262 48.1405 31.1875 47.7344 31.1875C47.3283 31.1875 46.9388 31.0262 46.6516 30.739C46.3645 30.4518 46.2031 30.0624 46.2031 29.6562Z" fill="white"/>
<path d="M40.8438 52.625C40.3704 52.627 39.9092 52.7751 39.5233 53.0492C39.1373 53.3233 38.8455 53.71 38.6878 54.1562H33.9531C33.7501 54.1562 33.5553 54.2369 33.4117 54.3805C33.2682 54.5241 33.1875 54.7188 33.1875 54.9219C33.1875 55.1249 33.2682 55.3197 33.4117 55.4633C33.5553 55.6068 33.7501 55.6875 33.9531 55.6875H38.6878C38.8437 56.135 39.135 56.523 39.5213 56.7975C39.9076 57.072 40.3698 57.2195 40.8438 57.2195C41.3177 57.2195 41.7799 57.072 42.1662 56.7975C42.5525 56.523 42.8438 56.135 42.9997 55.6875H64.5781C64.7812 55.6875 64.9759 55.6068 65.1195 55.4633C65.2631 55.3197 65.3438 55.1249 65.3438 54.9219C65.3438 54.7188 65.2631 54.5241 65.1195 54.3805C64.9759 54.2369 64.7812 54.1562 64.5781 54.1562H42.9997C42.842 53.71 42.5502 53.3233 42.1642 53.0492C41.7783 52.7751 41.3171 52.627 40.8438 52.625ZM40.8438 55.6875C40.6923 55.6875 40.5443 55.6426 40.4184 55.5585C40.2925 55.4743 40.1944 55.3548 40.1364 55.2149C40.0785 55.075 40.0633 54.921 40.0928 54.7725C40.1224 54.624 40.1953 54.4876 40.3024 54.3805C40.4094 54.2734 40.5459 54.2005 40.6944 54.171C40.8429 54.1414 40.9968 54.1566 41.1367 54.2145C41.2766 54.2725 41.3962 54.3706 41.4803 54.4965C41.5645 54.6224 41.6094 54.7704 41.6094 54.9219C41.6094 55.1249 41.5287 55.3197 41.3851 55.4633C41.2415 55.6068 41.0468 55.6875 40.8438 55.6875Z" fill="white"/>
<path d="M67.6406 51.8594C67.8437 51.8594 68.0384 51.7787 68.182 51.6351C68.3256 51.4915 68.4062 51.2968 68.4062 51.0938V38.8438C68.4062 38.6407 68.3256 38.446 68.182 38.3024C68.0384 38.1588 67.8437 38.0781 67.6406 38.0781H64.5781C64.3751 38.0781 64.1803 38.1588 64.0367 38.3024C63.8932 38.446 63.8125 38.6407 63.8125 38.8438V51.0938C63.8125 51.2968 63.8932 51.4915 64.0367 51.6351C64.1803 51.7787 64.3751 51.8594 64.5781 51.8594H67.6406ZM65.3438 45.7344H66.875V47.2656H65.3438V45.7344ZM66.875 44.2031H65.3438V42.6719H66.875V44.2031ZM66.875 50.3281H65.3438V48.7969H66.875V50.3281ZM65.3438 39.6094H66.875V41.1406H65.3438V39.6094Z" fill="white"/>
<path d="M29.3594 38.0781H32.4219C32.6249 38.0781 32.8197 37.9975 32.9633 37.8539C33.1068 37.7103 33.1875 37.5156 33.1875 37.3125C33.1875 37.1094 33.1068 36.9147 32.9633 36.7711C32.8197 36.6275 32.6249 36.5469 32.4219 36.5469H29.3594C29.1563 36.5469 28.9616 36.6275 28.818 36.7711C28.6744 36.9147 28.5938 37.1094 28.5938 37.3125C28.5938 37.5156 28.6744 37.7103 28.818 37.8539C28.9616 37.9975 29.1563 38.0781 29.3594 38.0781Z" fill="white"/>
<path d="M29.3594 41.1406H32.4219C32.6249 41.1406 32.8197 41.06 32.9633 40.9164C33.1068 40.7728 33.1875 40.5781 33.1875 40.375C33.1875 40.1719 33.1068 39.9772 32.9633 39.8336C32.8197 39.69 32.6249 39.6094 32.4219 39.6094H29.3594C29.1563 39.6094 28.9616 39.69 28.818 39.8336C28.6744 39.9772 28.5938 40.1719 28.5938 40.375C28.5938 40.5781 28.6744 40.7728 28.818 40.9164C28.9616 41.06 29.1563 41.1406 29.3594 41.1406Z" fill="white"/>
<path d="M33.1875 43.4375C33.1875 43.2344 33.1068 43.0397 32.9633 42.8961C32.8197 42.7525 32.6249 42.6719 32.4219 42.6719H29.3594C29.1563 42.6719 28.9616 42.7525 28.818 42.8961C28.6744 43.0397 28.5938 43.2344 28.5938 43.4375C28.5938 43.6406 28.6744 43.8353 28.818 43.9789C28.9616 44.1225 29.1563 44.2031 29.3594 44.2031H32.4219C32.6249 44.2031 32.8197 44.1225 32.9633 43.9789C33.1068 43.8353 33.1875 43.6406 33.1875 43.4375Z" fill="white"/>
<path d="M32.4219 46.5C32.4219 46.2969 32.3412 46.1022 32.1976 45.9586C32.054 45.815 31.8593 45.7344 31.6562 45.7344H29.3594C29.1563 45.7344 28.9616 45.815 28.818 45.9586C28.6744 46.1022 28.5938 46.2969 28.5938 46.5C28.5938 46.7031 28.6744 46.8978 28.818 47.0414C28.9616 47.185 29.1563 47.2656 29.3594 47.2656H31.6562C31.8593 47.2656 32.054 47.185 32.1976 47.0414C32.3412 46.8978 32.4219 46.7031 32.4219 46.5Z" fill="white"/>
<path d="M29.3594 48.7969C29.1563 48.7969 28.9616 48.8775 28.818 49.0211C28.6744 49.1647 28.5938 49.3594 28.5938 49.5625C28.5938 49.7656 28.6744 49.9603 28.818 50.1039C28.9616 50.2475 29.1563 50.3281 29.3594 50.3281H30.8906C31.0937 50.3281 31.2884 50.2475 31.432 50.1039C31.5756 49.9603 31.6562 49.7656 31.6562 49.5625C31.6562 49.3594 31.5756 49.1647 31.432 49.0211C31.2884 48.8775 31.0937 48.7969 30.8906 48.7969H29.3594Z" fill="white"/>
</g>
<defs>
<clipPath id="clip0_35_421">
<rect width="98" height="98" fill="white"/>
</clipPath>
</defs>
</svg>
