<svg width="98" height="98" viewBox="0 0 98 98" fill="none" xmlns="http://www.w3.org/2000/svg">
<g clip-path="url(#clip0_134_373)">
<path d="M97.004 89.353V7.649C97.004 3.42457 93.5794 0 89.355 0H7.64998C3.42555 0 0.000976562 3.42457 0.000976562 7.649V89.353C0.000976562 93.5774 3.42555 97.002 7.64998 97.002H89.355C93.5794 97.002 97.004 93.5774 97.004 89.353Z" fill="black"/>
<path d="M58.053 21C47.6056 21 39.1059 29.4996 39.1059 39.947C39.1059 44.2458 40.5459 48.214 42.9674 51.3968L39.1292 55.235C39.1048 55.2593 39.0826 55.285 39.0616 55.3114C38.7474 55.2459 38.4245 55.2116 38.0962 55.2116C36.843 55.2116 35.6646 55.6997 34.778 56.5862L23.3743 67.99C22.488 68.876 22 70.0543 22 71.3077C22 72.561 22.488 73.7394 23.3742 74.6252C24.2607 75.5118 25.4391 75.9999 26.6923 75.9999C27.9456 75.9999 29.124 75.5118 30.0105 74.6252L41.4142 63.2215C42.3005 62.3356 42.7885 61.1573 42.7885 59.9038C42.7885 59.5753 42.7542 59.2524 42.6887 58.9382C42.7151 58.9173 42.7407 58.895 42.765 58.8707L46.6031 55.0326C49.786 57.4542 53.7542 58.8941 58.053 58.8941C68.5003 58.8941 77 50.3945 77 39.947C77 29.4996 68.5003 21 58.053 21ZM28.7504 73.3653C28.2005 73.9152 27.4697 74.218 26.6923 74.218C25.915 74.218 25.1842 73.9152 24.6342 73.3652C24.0845 72.8158 23.7819 72.0851 23.7819 71.3077C23.7819 70.5302 24.0845 69.7995 24.6343 69.25L34.9332 58.9511L39.0489 63.0668L28.7504 73.3653ZM40.3026 61.8006L36.201 57.6991C36.7445 57.2315 37.4196 56.9951 38.0962 56.9951C38.8415 56.9951 39.587 57.2789 40.1544 57.8464C40.704 58.3958 41.0067 59.1264 41.0067 59.9039C41.0067 60.6079 40.7577 61.2731 40.3026 61.8006ZM41.9247 57.1912C41.7729 56.9779 41.6032 56.7751 41.4144 56.5863C41.2253 56.3974 41.0222 56.2276 40.8088 56.0757L44.116 52.7684C44.4724 53.1556 44.8447 53.5279 45.2318 53.8842L41.9247 57.1912ZM58.053 57.1122C48.588 57.1122 40.8878 49.412 40.8878 39.947C40.8878 30.4821 48.588 22.7819 58.053 22.7819C67.5179 22.7819 75.2181 30.4821 75.2181 39.947C75.2181 49.412 67.5179 57.1122 58.053 57.1122Z" fill="white"/>
<path d="M58.053 24.8013C49.7016 24.8013 42.9072 31.5956 42.9072 39.947C42.9072 48.2985 49.7016 55.0928 58.053 55.0928C66.4044 55.0928 73.1987 48.2985 73.1987 39.947C73.1987 31.5956 66.4044 24.8013 58.053 24.8013ZM58.053 53.3109C50.6842 53.3109 44.6891 47.3159 44.6891 39.947C44.6891 32.5781 50.6842 26.5831 58.053 26.5831C65.4218 26.5831 71.4169 32.5781 71.4169 39.947C71.4169 47.3159 65.4218 53.3109 58.053 53.3109Z" fill="white"/>
<path d="M64.2393 30.4364C63.8271 30.1677 63.2752 30.284 63.0065 30.6963C62.7378 31.1085 62.8542 31.6606 63.2664 31.9291C65.9895 33.7039 67.6153 36.7012 67.6153 39.947C67.6153 42.1645 66.8391 44.3256 65.4297 46.0322C65.1163 46.4115 65.1699 46.9731 65.5493 47.2865C65.7154 47.4237 65.9164 47.4904 66.1162 47.4904C66.3727 47.4904 66.6274 47.3801 66.8036 47.1668C68.476 45.1418 69.3971 42.5777 69.3971 39.9471C69.3973 36.0967 67.4691 32.5414 64.2393 30.4364Z" fill="white"/>
<path d="M60.1146 28.7896C59.439 28.6655 58.7453 28.6025 58.053 28.6025C57.5609 28.6025 57.1621 29.0014 57.1621 29.4935C57.1621 29.9855 57.5609 30.3844 58.053 30.3844C58.6377 30.3844 59.223 30.4375 59.7927 30.5421C59.8472 30.5521 59.9013 30.557 59.9547 30.557C60.3763 30.557 60.751 30.2563 60.83 29.8269C60.9188 29.343 60.5986 28.8786 60.1146 28.7896Z" fill="white"/>
</g>
<defs>
<clipPath id="clip0_134_373">
<rect width="98" height="98" fill="white"/>
</clipPath>
</defs>
</svg>