<svg width="98" height="98" viewBox="0 0 98 98" fill="none" xmlns="http://www.w3.org/2000/svg">
<g clip-path="url(#clip0_134_372)">
<path d="M97.004 89.353V7.649C97.004 3.42457 93.5794 0 89.355 0H7.64998C3.42555 0 0.000976562 3.42457 0.000976562 7.649V89.353C0.000976562 93.5774 3.42555 97.002 7.64998 97.002H89.355C93.5794 97.002 97.004 93.5774 97.004 89.353Z" fill="black"/>
</g>
<path d="M71.0323 48.045H69.5043V47.5744C69.5043 46.6174 68.7243 45.8387 67.7656 45.8387H66.7053C65.7467 45.8387 64.9668 46.6174 64.9668 47.5744V48.045H60.9914V47.5744C60.9914 46.6829 60.3143 45.9468 59.4467 45.8503V24.7807C59.4467 24.3495 59.0971 24 58.6659 24H24.7807C24.3495 24 24 24.3495 24 24.7807V73.2193C24 73.6505 24.3495 74 24.7807 74H71.0323C72.6687 74 74 72.7531 74 71.2207V50.8215C73.9999 49.2905 72.6687 48.045 71.0323 48.045ZM66.5282 47.5743C66.5282 47.4798 66.6093 47.3999 66.7053 47.3999H67.7656C67.8616 47.3999 67.9427 47.4798 67.9427 47.5743V50.6554C67.9427 50.7499 67.8616 50.8297 67.7656 50.8297H66.7053C66.6094 50.8297 66.5282 50.7499 66.5282 50.6554V47.5743ZM64.9667 49.6063V50.6554C64.9667 51.6124 65.7465 52.3911 66.7052 52.3911H67.7655C68.7241 52.3911 69.5042 51.6123 69.5042 50.6554V49.6063H71.0322C71.8076 49.6063 72.4384 50.1515 72.4384 50.8215V53.681H45.4412V50.8215C45.4412 50.1515 46.0721 49.6063 46.8476 49.6063H47.941V50.6554C47.941 51.6124 48.7209 52.3911 49.6796 52.3911H50.7399C51.6985 52.3911 52.4784 51.6123 52.4784 50.6554V49.6063H56.4538V50.6554C56.4538 51.6124 57.2337 52.3911 58.1925 52.3911H59.2526C60.2113 52.3911 60.9913 51.6123 60.9913 50.6554V49.6063H64.9667ZM49.5025 50.6554V47.5743C49.5025 47.4798 49.5836 47.3999 49.6796 47.3999H50.7399C50.8358 47.3999 50.917 47.4798 50.917 47.5743V50.6554C50.917 50.7499 50.8359 50.8297 50.7399 50.8297H49.6796C49.5836 50.8297 49.5025 50.7499 49.5025 50.6554ZM59.2526 47.4C59.3486 47.4 59.4298 47.4799 59.4298 47.5744V50.6555C59.4298 50.75 59.3486 50.8298 59.2526 50.8298H58.1925C58.0965 50.8298 58.0153 50.75 58.0153 50.6555V47.5744C58.0153 47.4799 58.0965 47.4 58.1925 47.4H59.2526ZM25.5614 25.5613H57.8851V45.8675C57.0728 46.013 56.4539 46.7221 56.4539 47.5744V48.045H52.4785V47.5744C52.4785 46.6174 51.6987 45.8387 50.74 45.8387H49.6797C48.7211 45.8387 47.9411 46.6174 47.9411 47.5744V48.045H46.8477C45.2112 48.045 43.8798 49.2905 43.8798 50.8216V71.2208C43.8798 71.6574 43.9882 72.0707 44.1806 72.4388H25.5614V25.5613ZM71.0323 72.4387H46.8476C46.0852 72.4387 45.4412 71.8809 45.4412 71.2207V55.2425H72.4386V71.2207C72.4385 71.8923 71.8077 72.4387 71.0323 72.4387ZM53.4834 57.6368H49.4747C49.0435 57.6368 48.694 57.9863 48.694 58.4175V62.4232C48.694 62.8544 49.0435 63.2039 49.4747 63.2039H53.4834C53.9145 63.2039 54.2641 62.8544 54.2641 62.4232V58.4175C54.2641 57.9864 53.9145 57.6368 53.4834 57.6368ZM52.7026 61.6425H50.2554V59.1983H52.7026V61.6425ZM60.875 57.6368H56.869C56.4379 57.6368 56.0883 57.9863 56.0883 58.4175V62.4232C56.0883 62.8544 56.4379 63.2039 56.869 63.2039H60.875C61.3062 63.2039 61.6557 62.8544 61.6557 62.4232V58.4175C61.6557 57.9864 61.3062 57.6368 60.875 57.6368ZM60.0943 61.6425H57.6499V59.1983H60.0943V61.6425ZM53.4834 64.4771H49.4747C49.0435 64.4771 48.694 64.8266 48.694 65.2578V69.2635C48.694 69.6947 49.0435 70.0442 49.4747 70.0442H53.4834C53.9145 70.0442 54.2641 69.6947 54.2641 69.2635V65.2578C54.2641 64.8266 53.9145 64.4771 53.4834 64.4771ZM52.7026 68.4828H50.2554V66.0386H52.7026V68.4828ZM60.875 64.4771H56.869C56.4379 64.4771 56.0883 64.8266 56.0883 65.2578V69.2635C56.0883 69.6947 56.4379 70.0442 56.869 70.0442H60.875C61.3062 70.0442 61.6557 69.6947 61.6557 69.2635V65.2578C61.6557 64.8266 61.3062 64.4771 60.875 64.4771ZM60.0943 68.4828H57.6499V66.0386H60.0943V68.4828ZM68.4078 57.6368H64.3992C63.9681 57.6368 63.6185 57.9863 63.6185 58.4175V62.4232C63.6185 62.8544 63.9681 63.2039 64.3992 63.2039H68.4078C68.839 63.2039 69.1885 62.8544 69.1885 62.4232V58.4175C69.1885 57.9864 68.839 57.6368 68.4078 57.6368ZM67.6271 61.6425H65.18V59.1983H67.6271V61.6425ZM68.4078 64.4771H64.3992C63.9681 64.4771 63.6185 64.8266 63.6185 65.2578V69.2635C63.6185 69.6947 63.9681 70.0442 64.3992 70.0442H68.4078C68.839 70.0442 69.1885 69.6947 69.1885 69.2635V65.2578C69.1885 64.8266 68.839 64.4771 68.4078 64.4771ZM67.6271 68.4828H65.18V66.0386H67.6271V68.4828ZM28.7919 37.963V29.5724C28.7919 29.1413 29.1415 28.7918 29.5726 28.7918H38.6448C39.076 28.7918 39.4256 29.1413 39.4256 29.5724C39.4256 30.0036 39.076 30.3531 38.6448 30.3531H30.3534V37.1824H37.864V34.8066L36.4121 36.1245C36.2629 36.2598 36.075 36.3271 35.8874 36.3271C35.6874 36.3271 35.4877 36.2506 35.3357 36.0989L33.5556 34.3216C33.2505 34.017 33.2501 33.5227 33.5549 33.2176C33.8593 32.9125 34.3537 32.9121 34.6589 33.2167L35.913 34.4688L39.6813 31.0485C40.0006 30.7588 40.4941 30.7825 40.7842 31.1018C41.0739 31.4211 41.0501 31.9147 40.7308 32.2046L39.4256 33.3893V37.963C39.4256 38.3941 39.076 38.7436 38.6448 38.7436H29.5726C29.1415 38.7436 28.7919 38.3941 28.7919 37.963ZM28.7919 53.1939V44.8061C28.7919 44.3749 29.1415 44.0254 29.5726 44.0254H38.6448C39.076 44.0254 39.4256 44.3749 39.4256 44.8061C39.4256 45.2373 39.076 45.5868 38.6448 45.5868H30.3534V52.4132H37.864V50.0401L36.4121 51.358C36.2629 51.4935 36.075 51.5607 35.8874 51.5607C35.6872 51.5607 35.4873 51.4841 35.3353 51.332L33.5552 49.552C33.2503 49.2471 33.2503 48.7528 33.5552 48.4479C33.86 48.1431 34.3545 48.1431 34.6593 48.4479L35.9134 49.702L39.6813 46.2821C40.0006 45.9922 40.4941 46.0161 40.7842 46.3354C41.0739 46.6547 41.0501 47.1483 40.7308 47.4382L39.4256 48.6228V53.1939C39.4256 53.6251 39.076 53.9746 38.6448 53.9746H29.5726C29.1415 53.9746 28.7919 53.6251 28.7919 53.1939ZM40.7844 61.5694C41.074 61.8887 41.05 62.3824 40.7305 62.672L39.4256 63.8556V68.4275C39.4256 68.8586 39.076 69.2081 38.6448 69.2081H29.5726C29.1415 69.2081 28.7919 68.8586 28.7919 68.4275V60.0397C28.7919 59.6085 29.1415 59.259 29.5726 59.259H38.6448C39.076 59.259 39.4256 59.6085 39.4256 60.0397C39.4256 60.4708 39.076 60.8204 38.6448 60.8204H30.3534V67.6467H37.864V65.2718L36.4118 66.589C36.2628 66.7242 36.0749 66.7914 35.8874 66.7914C35.6874 66.7914 35.4877 66.715 35.3357 66.5631L33.5556 64.7858C33.2505 64.4812 33.2501 63.9869 33.5549 63.6818C33.8593 63.3767 34.3537 63.3763 34.6589 63.681L35.9132 64.9333L39.6816 61.5154C40.0008 61.2258 40.4945 61.2499 40.7844 61.5694ZM43.8797 29.5724C43.8797 29.1413 44.2292 28.7918 44.6604 28.7918H54.8122C55.2433 28.7918 55.5929 29.1413 55.5929 29.5724C55.5929 30.0036 55.2433 30.3531 54.8122 30.3531H44.6604C44.2292 30.3531 43.8797 30.0036 43.8797 29.5724ZM43.8797 33.7663C43.8797 33.3352 44.2292 32.9857 44.6604 32.9857H54.8122C55.2433 32.9857 55.5929 33.3352 55.5929 33.7663C55.5929 34.1975 55.2433 34.547 54.8122 34.547H44.6604C44.2292 34.547 43.8797 34.1975 43.8797 33.7663Z" fill="white"/>
<defs>
<clipPath id="clip0_134_372">
<rect width="98" height="98" fill="white"/>
</clipPath>
</defs>
</svg>