<svg width="98" height="98" viewBox="0 0 98 98" fill="none" xmlns="http://www.w3.org/2000/svg">
<g clip-path="url(#clip0_134_371)">
<path d="M97.004 89.353V7.649C97.004 3.42457 93.5794 0 89.355 0H7.64998C3.42555 0 0.000976562 3.42457 0.000976562 7.649V89.353C0.000976562 93.5774 3.42555 97.002 7.64998 97.002H89.355C93.5794 97.002 97.004 93.5774 97.004 89.353Z" fill="black"/>
<path d="M33.0521 74.2359C33.2806 74.9862 33.7437 75.6434 34.3733 76.111C35.0029 76.5786 35.7659 76.832 36.5501 76.8339C36.9055 76.8342 37.259 76.7836 37.6001 76.6839L61.3721 69.5259L65.6501 68.9679C66.1258 68.9065 66.5847 68.7519 67.0006 68.5129C67.4165 68.2739 67.7812 67.9553 68.0738 67.5752C68.3663 67.1951 68.5811 66.7611 68.7057 66.2979C68.8304 65.8347 68.8624 65.3515 68.8001 64.8759L66.5441 47.6559L73.6481 36.7599L75.4001 34.1139L76.2401 32.7999C76.8297 31.8976 77.0367 30.7981 76.8156 29.7432C76.5945 28.6883 75.9634 27.7645 75.0611 27.1749C74.1589 26.5853 73.0593 26.3783 72.0044 26.5994C70.9496 26.8205 70.0257 27.4516 69.4361 28.3539L68.5721 29.6799L66.8441 32.3199L64.9061 35.2839L63.4601 24.2739C63.398 23.7987 63.2428 23.3405 63.0036 22.9253C62.7643 22.5101 62.4455 22.1461 62.0655 21.8541C61.6855 21.5622 61.2517 21.3479 60.7889 21.2237C60.326 21.0994 59.8433 21.0675 59.3681 21.1299L34.1201 24.4479C33.2016 24.5665 32.363 25.0311 31.7754 25.747C31.1878 26.4628 30.8955 27.3759 30.9581 28.2999L23.6981 30.4839C22.7722 30.7627 21.9949 31.3978 21.537 32.2495C21.0791 33.1011 20.9781 34.0998 21.2561 35.0259L33.0521 74.2359ZM69.5861 31.4139L71.4821 32.6499L73.3721 33.8859L72.6281 35.0259L68.8421 32.5539L69.5861 31.4139ZM70.9421 29.3319C71.2707 28.8291 71.7856 28.4773 72.3736 28.3541C72.9615 28.2309 73.5743 28.3463 74.0771 28.6749C74.58 29.0035 74.9317 29.5184 75.0549 30.1063C75.1781 30.6943 75.0627 31.3071 74.7341 31.8099L74.3621 32.3799L70.6001 29.9019L70.9421 29.3319ZM67.8581 34.0599L69.7541 35.2959L71.6441 36.5319L60.0941 54.2199L58.1981 52.9839L56.3081 51.7479L67.8581 34.0599ZM54.0581 58.2459L54.4181 57.0939C55.0215 57.2499 55.557 57.5999 55.9421 58.0899L55.0301 58.8819C54.9318 58.9713 54.8065 59.0255 54.674 59.036C54.5415 59.0465 54.4093 59.0127 54.2981 58.94C54.1868 58.8672 54.1029 58.7595 54.0595 58.6339C54.0161 58.5083 54.0156 58.3718 54.0581 58.2459ZM57.2981 56.9079C56.6939 56.1627 55.8714 55.6255 54.9461 55.3719L55.5461 53.4099L58.8401 55.5639L57.2981 56.9079ZM33.1241 26.9379C33.2726 26.7449 33.4576 26.583 33.6687 26.4616C33.8797 26.3401 34.1127 26.2614 34.3541 26.2299L59.6021 22.9179C59.684 22.912 59.7662 22.912 59.8481 22.9179C60.2907 22.9269 60.7155 23.094 61.0456 23.3889C61.3758 23.6838 61.5895 24.0871 61.6481 24.5259L63.4001 37.5999L58.8041 44.6259L49.7681 45.8259C49.5294 45.841 49.3065 45.9503 49.1484 46.1298C48.9903 46.3093 48.91 46.5442 48.9251 46.7829C48.9402 47.0216 49.0496 47.2445 49.229 47.4026C49.4085 47.5607 49.6434 47.641 49.8821 47.6259H50.0021L57.5081 46.5999L54.3101 51.5019C54.309 51.5219 54.309 51.5419 54.3101 51.5619C54.2872 51.5995 54.269 51.6398 54.2561 51.6819L53.6981 53.4819L40.9061 55.2039C40.7879 55.2118 40.6725 55.2429 40.5663 55.2954C40.4601 55.3479 40.3653 55.4208 40.2873 55.5099C40.2093 55.5991 40.1496 55.7027 40.1117 55.8149C40.0737 55.9271 40.0582 56.0457 40.0661 56.1639C40.074 56.2821 40.1051 56.3976 40.1576 56.5038C40.2101 56.6099 40.283 56.7047 40.3722 56.7827C40.4613 56.8607 40.5649 56.9204 40.6771 56.9584C40.7893 56.9963 40.9079 57.0118 41.0261 57.0039H41.1401L53.0621 55.4439L52.3541 57.7359C52.1999 58.2337 52.212 58.7682 52.3884 59.2585C52.5649 59.7489 52.8961 60.1685 53.3321 60.4539C53.7222 60.711 54.1789 60.8486 54.6461 60.8499C55.2254 60.8462 55.7837 60.6331 56.2181 60.2499L60.9461 56.1579L60.9941 56.1039C61.0307 56.07 61.063 56.0318 61.0901 55.9899L65.0021 49.9899L67.0001 65.1099C67.0324 65.3508 67.0167 65.5957 66.9538 65.8305C66.891 66.0653 66.7824 66.2853 66.6341 66.4779C66.4906 66.6686 66.3106 66.8289 66.1046 66.9494C65.8986 67.07 65.6707 67.1483 65.4341 67.1799L40.1621 70.4979C39.9214 70.5291 39.6769 70.5125 39.4426 70.4491C39.2083 70.3858 38.9887 70.2769 38.7965 70.1287C38.6043 69.9805 38.4431 69.7959 38.3223 69.5854C38.2014 69.3749 38.1232 69.1426 38.0921 68.9019L32.7581 28.3059C32.6943 27.8194 32.8259 27.3275 33.1241 26.9379ZM24.2201 32.1999L31.1801 30.1059L36.3041 69.1359C36.42 70.0104 36.8483 70.8134 37.51 71.3968C38.1716 71.9802 39.022 72.3045 39.9041 72.3099C40.0648 72.3098 40.2252 72.2978 40.3841 72.2739L50.2721 70.9779L37.0721 74.9499C36.6051 75.09 36.1015 75.0392 35.6719 74.8086C35.2423 74.5781 34.9216 74.1865 34.7801 73.7199L22.9781 34.5099C22.9079 34.2767 22.8844 34.0319 22.9088 33.7896C22.9332 33.5472 23.0052 33.3121 23.1205 33.0976C23.2358 32.8831 23.3923 32.6934 23.581 32.5393C23.7697 32.3853 23.9869 32.27 24.2201 32.1999ZM42.3641 31.2399C42.3335 31.0037 42.3977 30.7649 42.5428 30.5759C42.6879 30.387 42.902 30.2633 43.1381 30.2319L57.5381 28.3359C57.6563 28.3205 57.7764 28.3286 57.8914 28.3596C58.0065 28.3907 58.1143 28.4441 58.2088 28.5168C58.3032 28.5895 58.3824 28.6801 58.4418 28.7834C58.5013 28.8867 58.5398 29.0007 58.5551 29.1189C58.5705 29.2371 58.5624 29.3572 58.5314 29.4722C58.5004 29.5873 58.447 29.6951 58.3742 29.7896C58.3015 29.884 58.2109 29.9632 58.1076 30.0226C58.0043 30.082 57.8903 30.1205 57.7721 30.1359L43.3721 32.0259H43.2581C43.0393 32.0249 42.8283 31.9448 42.6639 31.8003C42.4996 31.6559 42.3931 31.4568 42.3641 31.2399ZM38.0081 40.0359C37.9931 39.9176 38.0017 39.7974 38.0334 39.6825C38.0652 39.5675 38.1195 39.46 38.1932 39.3662C38.2669 39.2724 38.3585 39.1942 38.4627 39.1361C38.5669 39.0781 38.6816 39.0413 38.8001 39.0279L58.6001 36.3999C58.8388 36.3689 59.0801 36.4339 59.2708 36.5808C59.4615 36.7276 59.5861 36.9442 59.6171 37.1829C59.6482 37.4216 59.5831 37.6628 59.4363 37.8536C59.2894 38.0443 59.0728 38.1689 58.8341 38.1999L39.0161 40.8159H38.9021C38.6842 40.8151 38.4739 40.7359 38.3097 40.5926C38.1455 40.4493 38.0384 40.2517 38.0081 40.0359ZM44.7341 47.3799C44.751 47.4978 44.7443 47.6179 44.7145 47.7332C44.6846 47.8485 44.6322 47.9567 44.5602 48.0516C44.4882 48.1464 44.3981 48.2261 44.2951 48.2859C44.1921 48.3457 44.0782 48.3844 43.9601 48.3999L40.0781 48.9099H39.9641C39.7254 48.9258 39.4902 48.8463 39.3102 48.6887C39.1301 48.5312 39.02 48.3086 39.0041 48.0699C38.9882 47.8312 39.0678 47.596 39.2253 47.4159C39.3828 47.2359 39.6054 47.1258 39.8441 47.1099L43.7261 46.5999C43.8435 46.5848 43.9628 46.5929 44.0771 46.624C44.1913 46.655 44.2983 46.7083 44.392 46.7807C44.4856 46.8532 44.564 46.9434 44.6228 47.0462C44.6815 47.1491 44.7193 47.2624 44.7341 47.3799ZM41.2001 64.2999C41.1695 64.0637 41.2337 63.8249 41.3788 63.6359C41.5239 63.447 41.738 63.3233 41.9741 63.2919L48.8801 62.3859C48.9983 62.3701 49.1184 62.3778 49.2337 62.4085C49.3489 62.4392 49.457 62.4922 49.5517 62.5647C49.6464 62.6371 49.7259 62.7275 49.7857 62.8306C49.8455 62.9338 49.8844 63.0477 49.9001 63.1659C49.9159 63.2841 49.9082 63.4042 49.8775 63.5195C49.8469 63.6347 49.7938 63.7427 49.7214 63.8375C49.6489 63.9322 49.5586 64.0117 49.4554 64.0715C49.3522 64.1313 49.2383 64.1701 49.1201 64.1859L42.2021 65.0739H42.0881C41.8718 65.0732 41.663 64.9945 41.4999 64.8524C41.3368 64.7102 41.2304 64.5141 41.2001 64.2999Z" fill="white"/>
</g>
<defs>
<clipPath id="clip0_134_371">
<rect width="98" height="98" fill="white"/>
</clipPath>
</defs>
</svg>