<svg width="98" height="98" viewBox="0 0 98 98" fill="none" xmlns="http://www.w3.org/2000/svg">
<g clip-path="url(#clip0_134_370)">
<path d="M97.004 89.353V7.649C97.004 3.42457 93.5794 0 89.355 0H7.64998C3.42555 0 0.000976562 3.42457 0.000976562 7.649V89.353C0.000976562 93.5774 3.42555 97.002 7.64998 97.002H89.355C93.5794 97.002 97.004 93.5774 97.004 89.353Z" fill="black"/>
<path d="M35.579 36.3459H50.8124C51.8162 36.3459 51.8162 34.7932 50.8124 34.7932H35.579C34.5752 34.7932 34.5752 36.3459 35.579 36.3459Z" fill="white"/>
<path d="M35.579 42.0422H47.2929C48.2967 42.0422 48.2967 40.4895 47.2929 40.4895H35.579C34.5752 40.4895 34.5752 42.0422 35.579 42.0422Z" fill="white"/>
<path d="M35.579 47.738H45.6367C46.6405 47.738 46.6405 46.1853 45.6367 46.1853H35.579C34.5752 46.1853 34.5752 47.738 35.579 47.738Z" fill="white"/>
<path d="M49.8835 66.7584H49.3691V59.1708C49.3691 58.7421 49.0216 58.3945 48.5927 58.3945H45.4771V55.6577C45.4771 55.229 45.1296 54.8813 44.7008 54.8813H40.8182C40.3893 54.8813 40.0418 55.229 40.0418 55.6577V60.3818H36.9323C36.5035 60.3818 36.156 60.7295 36.156 61.1582V66.7584H35.6416C35.2127 66.7584 34.8652 67.106 34.8652 67.5348C34.8652 67.9635 35.2127 68.3111 35.6416 68.3111H49.8834C50.3122 68.3111 50.6597 67.9635 50.6597 67.5348C50.6597 67.106 50.3122 66.7584 49.8835 66.7584ZM37.7088 66.7584V61.9346H40.0387V66.7584H37.7088ZM41.5947 66.7584V56.4341H43.9245V66.7584H41.5947ZM45.4864 66.7584V59.9472H47.8164V66.7584H45.4864Z" fill="white"/>
<path d="M75.9933 46.1815C75.8921 42.9133 74.561 39.8379 72.2449 37.5217C71.1335 36.4104 69.8669 35.547 68.5145 34.9302C68.4918 34.9172 68.4683 34.9051 68.444 34.8941C68.4192 34.8829 68.394 34.8732 68.3687 34.8649C66.6196 34.0936 64.7322 33.7317 62.8533 33.7802V29.5027C62.8533 28.5083 62.0446 27.6994 61.0503 27.6994H59.9306V26.73C59.9306 25.7357 59.1218 24.9267 58.1275 24.9267H57.0047V23.8033C57.0048 22.809 56.1959 22 55.2018 22H24.803C23.8088 22 23 22.809 23 23.8033V67.4973C23 68.4917 23.8088 69.3007 24.803 69.3007H25.9259V70.424C25.9259 71.4184 26.7346 72.2273 27.7257 72.2273L28.8487 72.2319V73.1967C28.8487 74.191 29.6575 75 30.6518 75H54.9032C55.1062 75 55.3071 74.9172 55.4509 74.7739L62.6249 67.634C62.7712 67.4882 62.8535 67.2902 62.8535 67.0837V59.3869C62.9582 59.3895 63.0628 59.3919 63.1675 59.3919C65.3558 59.3919 67.5348 58.8327 69.4406 57.7648C70.3165 57.2741 69.5574 55.9198 68.6817 56.4102C64.5366 58.733 59.3489 58.1606 55.7957 55.0691L63.4197 47.4451L73.8426 50.2071C73.3832 51.5654 72.6572 52.8542 71.6604 53.9912C70.9988 54.7461 72.1662 55.7696 72.828 55.0149C74.9697 52.5718 76.0938 49.4348 75.9933 46.1815ZM67.0859 36.0206L62.5367 46.1318L54.6962 53.9724C50.8449 49.5551 51.021 42.8245 55.2259 38.6196C58.427 35.4185 63.092 34.5526 67.0859 36.0206ZM27.7287 70.6745C27.5907 70.6745 27.4785 70.5621 27.4785 70.4239V26.73C27.4785 26.5918 27.5907 26.4794 27.7287 26.4794H33.1444C34.1482 26.4794 34.1482 24.9267 33.1444 24.9267H27.7287C26.7345 24.9267 25.9258 25.7357 25.9258 26.73V67.7478H24.803C24.665 67.7478 24.5527 67.6354 24.5527 67.4972V23.8033C24.5527 23.6651 24.665 23.5527 24.803 23.5527H55.2018C55.3398 23.5527 55.4521 23.6651 55.4521 23.8033V24.9268H37.4922C36.4884 24.9268 36.4884 26.4795 37.4922 26.4795H58.1276C58.2656 26.4795 58.3779 26.5919 58.3779 26.7301V27.6995H30.6517C29.6575 27.6995 28.8486 28.5084 28.8486 29.5028V70.6792L27.7287 70.6745ZM30.4014 73.1966V29.5027C30.4014 29.3645 30.5137 29.2521 30.6517 29.2521H61.0504C61.1884 29.2521 61.3007 29.3645 61.3007 29.5027V33.9144C58.674 34.3022 56.1454 35.5043 54.1279 37.5218C49.1331 42.5167 49.1331 50.6439 54.1279 55.6388C56.0925 57.6033 58.5691 58.8482 61.3007 59.2521V66.2406H55.9298C54.9356 66.2406 54.1268 67.0496 54.1268 68.044V73.4472H30.6517C30.5137 73.4472 30.4014 73.3348 30.4014 73.1966ZM55.6795 72.3432V68.044C55.6795 67.9058 55.7918 67.7934 55.9298 67.7934H60.2087L55.6795 72.3432ZM64.2698 46.0641L68.5026 36.6562C69.4533 37.1648 70.346 37.8189 71.1468 38.6197C73.8679 41.3409 74.9126 45.1519 74.2369 48.7054L64.2698 46.0641Z" fill="white"/>
</g>
<defs>
<clipPath id="clip0_134_370">
<rect width="98" height="98" fill="white"/>
</clipPath>
</defs>
</svg>