<svg width="98" height="98" viewBox="0 0 98 98" fill="none" xmlns="http://www.w3.org/2000/svg">
<path d="M97.0039 89.353V7.649C97.0039 3.42457 93.5793 0 89.3549 0L7.64991 0C3.42548 0 0.000907898 3.42457 0.000907898 7.649V89.353C0.000907898 93.5774 3.42548 97.002 7.64991 97.002H89.3549C93.5793 97.002 97.0039 93.5774 97.0039 89.353Z" fill="black"/>
<g clip-path="url(#clip0_393_337)">
<path d="M48.5009 24.8999C49.0439 24.8999 49.4842 24.4597 49.4842 23.9166V19.9833C49.4842 19.4403 49.0439 19 48.5009 19C47.9579 19 47.5176 19.4403 47.5176 19.9833V23.9166C47.5176 24.4597 47.9577 24.8999 48.5009 24.8999Z" fill="white"/>
<path d="M36.3403 23.5056L38.3069 26.9108C38.5754 27.3829 39.1757 27.548 39.6478 27.2795C40.1199 27.0111 40.285 26.4108 40.0166 25.9387C40.0145 25.9349 40.0123 25.9312 40.0101 25.9274L38.0434 22.5221C37.775 22.05 37.1746 21.8849 36.7025 22.1534C36.2304 22.4218 36.0653 23.0221 36.3338 23.4942C36.3359 23.4981 36.3381 23.5019 36.3403 23.5056Z" fill="white"/>
<path d="M28.412 32.1367C28.4157 32.1389 28.4195 32.141 28.4233 32.1432L31.8285 34.1098C32.2971 34.3844 32.8995 34.2274 33.1741 33.7588C33.4487 33.2902 33.2916 32.6878 32.823 32.4132C32.8194 32.411 32.8155 32.4089 32.8117 32.4067L29.4065 30.4401C28.9379 30.1655 28.3355 30.3226 28.0609 30.7911C27.7863 31.2596 27.9434 31.8621 28.412 32.1367Z" fill="white"/>
<path d="M30.8003 42.5998C30.8003 42.0567 30.36 41.6165 29.817 41.6165H25.8837C25.3407 41.6165 24.9004 42.0567 24.9004 42.5998C24.9004 43.1428 25.3407 43.5831 25.8837 43.5831H29.817C30.36 43.5831 30.8003 43.1428 30.8003 42.5998Z" fill="white"/>
<path d="M31.84 51.0832C31.8362 51.0854 31.8324 51.0876 31.8286 51.0898L28.4234 53.0565C27.9512 53.3248 27.786 53.9251 28.0544 54.3972C28.3227 54.8693 28.923 55.0345 29.3951 54.7662C29.3989 54.764 29.4028 54.7618 29.4066 54.7596L32.8118 52.7929C33.2839 52.5246 33.4491 51.9243 33.1808 51.4522C32.9125 50.9801 32.3122 50.8149 31.84 51.0832Z" fill="white"/>
<path d="M68.589 53.0631C68.5852 53.0609 68.5814 53.0587 68.5776 53.0565L65.1723 51.0898C64.7039 50.8151 64.1014 50.9722 63.8266 51.4406C63.5519 51.9091 63.709 52.5116 64.1775 52.7863C64.1813 52.7885 64.1851 52.7907 64.1889 52.793L67.5941 54.7596C68.0626 55.0343 68.6651 54.8772 68.9398 54.4088C69.2145 53.9402 69.0574 53.3378 68.589 53.0631Z" fill="white"/>
<path d="M71.1158 41.6165H67.1825C66.6395 41.6165 66.1992 42.0567 66.1992 42.5998C66.1992 43.1428 66.6395 43.5831 67.1825 43.5831H71.1158C71.6589 43.5831 72.0992 43.1428 72.0992 42.5998C72.0992 42.0567 71.6589 41.6165 71.1158 41.6165Z" fill="white"/>
<path d="M64.6808 34.2414C64.8534 34.2414 65.023 34.196 65.1725 34.1097L68.5778 32.143C69.0499 31.8746 69.2149 31.2743 68.9465 30.8021C68.6781 30.33 68.0777 30.1649 67.6056 30.4334C67.6018 30.4355 67.5981 30.4377 67.5943 30.4399L64.1891 32.4066C63.7188 32.6781 63.5576 33.2795 63.8292 33.7498C64.0049 34.054 64.3295 34.2414 64.6808 34.2414Z" fill="white"/>
<path d="M57.3485 27.2711C57.3489 27.2713 57.3492 27.2716 57.3496 27.2717C57.82 27.543 58.4214 27.3816 58.6927 26.9111L58.6928 26.9108L60.6595 23.5056C60.9342 23.0371 60.7771 22.4346 60.3087 22.1599C59.8402 21.8852 59.2377 22.0423 58.963 22.5107C58.9608 22.5145 58.9586 22.5183 58.9564 22.5221L56.9897 25.9274C56.7178 26.3975 56.8785 26.9991 57.3485 27.2711Z" fill="white"/>
<path d="M50.4669 58.333C51.01 58.333 51.4503 57.8927 51.4503 57.3496V46.5331H53.4169C55.5892 46.5331 57.3502 44.7721 57.3502 42.5998C57.3502 40.4275 55.5892 38.6665 53.4169 38.6665C51.2446 38.6665 49.4836 40.4275 49.4836 42.5998V44.5664H47.517V42.5998C47.517 40.4275 45.756 38.6665 43.5837 38.6665C41.4114 38.6665 39.6504 40.4275 39.6504 42.5998C39.6504 44.7721 41.4114 46.5331 43.5837 46.5331H45.5503V57.3496C45.5503 57.8927 45.9906 58.333 46.5337 58.333C47.0767 58.333 47.517 57.8927 47.517 57.3496V46.5331H49.4836V57.3496C49.4836 57.8927 49.9238 58.333 50.4669 58.333ZM51.4503 42.5998C51.4503 41.5136 52.3307 40.6331 53.4169 40.6331C54.5031 40.6331 55.3836 41.5136 55.3836 42.5998C55.3836 43.686 54.5031 44.5664 53.4169 44.5664H51.4503V42.5998ZM45.5503 44.5664H43.5837C42.4975 44.5664 41.617 43.686 41.617 42.5998C41.617 41.5136 42.4975 40.6331 43.5837 40.6331C44.6699 40.6331 45.5503 41.5136 45.5503 42.5998V44.5664Z" fill="white"/>
<path d="M49.2636 26.8852C40.5844 26.4682 33.2105 33.166 32.7936 41.8452C32.5547 46.8149 34.6808 51.6047 38.5267 54.7614C39.2198 55.3043 39.6322 56.13 39.6497 57.0102V59.3161C39.6548 60.5618 40.4419 61.67 41.6163 62.0852V63.2494C41.6189 63.9775 41.8923 64.6786 42.3833 65.2161C41.3606 66.3277 41.3606 68.0377 42.3833 69.1494C41.2901 70.3478 41.3754 72.2055 42.5738 73.2987C43.1182 73.7953 43.8294 74.0692 44.5663 74.066C45.0956 74.0799 45.536 73.662 45.5497 73.1327C45.5551 72.9262 45.4937 72.7234 45.3746 72.5546C45.3435 72.4945 45.3066 72.4375 45.2644 72.3845C45.1836 72.3105 45.0912 72.25 44.9911 72.2055C44.9626 72.1908 44.934 72.179 44.9045 72.1672C44.805 72.1309 44.7006 72.11 44.5948 72.1052C44.585 72.1052 44.5761 72.0993 44.5663 72.0993C44.0232 72.0993 43.583 71.659 43.583 71.116C43.583 70.573 44.0232 70.1327 44.5663 70.1327H48.4996C49.0426 70.1327 49.4829 69.6924 49.4829 69.1494C49.4829 68.6063 49.0426 68.166 48.4996 68.166H44.5663C44.0232 68.166 43.583 67.7258 43.583 67.1827C43.583 66.6397 44.0232 66.1994 44.5663 66.1994H48.4996C49.0426 66.1994 49.4829 65.7591 49.4829 65.2161C49.4829 64.673 49.0426 64.2327 48.4996 64.2327H44.5663C44.0232 64.2327 43.583 63.7925 43.583 63.2494V62.2661H48.4996C49.0426 62.2661 49.4829 61.8258 49.4829 61.2828C49.4829 60.7397 49.0426 60.2995 48.4996 60.2995H42.5996C42.0566 60.2995 41.6163 59.8592 41.6163 59.3161V57.0102C41.6002 55.5399 40.9231 54.1549 39.7726 53.2392C33.8987 48.4118 33.0505 39.7367 37.8778 33.8628C40.6393 30.5028 44.826 28.6453 49.1702 28.8528C56.4354 29.285 62.1422 35.2391 62.2661 42.5161C62.3014 46.7016 60.4194 50.6731 57.1577 53.2962C56.0158 54.2368 55.3629 55.645 55.3828 57.1243V59.3161C55.3828 59.8592 54.9425 60.2995 54.3995 60.2995H51.4495C50.9065 60.2995 50.4662 60.7397 50.4662 61.2828C50.4662 61.8258 50.9065 62.2661 51.4495 62.2661H53.4162V63.2494C53.4162 63.7925 52.9759 64.2327 52.4329 64.2327H51.4495C50.9065 64.2327 50.4662 64.673 50.4662 65.2161C50.4662 65.7591 50.9065 66.1994 51.4495 66.1994H52.4329C52.9759 66.1994 53.4162 66.6397 53.4162 67.1827C53.4162 67.7258 52.9759 68.166 52.4329 68.166H51.4495C50.9065 68.166 50.4662 68.6063 50.4662 69.1494C50.4662 69.6924 50.9065 70.1327 51.4495 70.1327H52.4329C52.9759 70.1327 53.4162 70.573 53.4162 71.116C53.4162 71.659 52.9759 72.0993 52.4329 72.0993H47.5162C46.9732 72.0993 46.5329 72.5396 46.5329 73.0827C46.5329 73.6257 46.9732 74.066 47.5162 74.066H51.2814C50.7385 75.6021 49.0531 76.4071 47.517 75.8642C47.0467 75.6981 46.6263 75.4152 46.295 75.0424C45.9338 74.6368 45.3121 74.6007 44.9065 74.9618C44.5009 75.3229 44.4647 75.9446 44.8259 76.3502C46.6242 78.3767 49.7249 78.5617 51.7514 76.7635C52.5885 76.0207 53.1464 75.0141 53.3326 73.9106C54.8726 73.4293 55.7308 71.7907 55.2496 70.2507C55.1218 69.8415 54.9053 69.4655 54.6158 69.1494C55.6385 68.0377 55.6385 66.3277 54.6158 65.2161C55.1069 64.6786 55.3802 63.9775 55.3828 63.2494V62.0852C56.5573 61.67 57.3443 60.5618 57.3495 59.3161V57.1243C57.3363 56.2409 57.7191 55.3978 58.3928 54.8263C62.1225 51.8278 64.2743 47.2868 64.2327 42.5013C64.0906 34.1839 57.5675 27.3789 49.2636 26.8852Z" fill="white"/>
</g>
<defs>
<clipPath id="clip0_393_337">
<rect width="59" height="59" fill="white" transform="translate(19 20)"/>
</clipPath>
</defs>
</svg>
