<svg width="98" height="98" viewBox="0 0 98 98" fill="none" xmlns="http://www.w3.org/2000/svg">
<path d="M97.0039 89.353V7.649C97.0039 3.42457 93.5793 0 89.3549 0L7.64991 0C3.42548 0 0.000907898 3.42457 0.000907898 7.649V89.353C0.000907898 93.5774 3.42548 97.002 7.64991 97.002H89.3549C93.5793 97.002 97.0039 93.5774 97.0039 89.353Z" fill="black"/>
<g clip-path="url(#clip0_393_338)">
<path d="M74.5064 60.4719L68.6639 57.5506L64.9455 47.8784C64.9017 47.7641 64.8349 47.66 64.7491 47.5726C64.6632 47.4853 64.5603 47.4166 64.4468 47.3708L41.3751 38.1484C41.2138 38.0841 41.0372 38.0685 40.8671 38.1033C40.697 38.1381 40.5408 38.2219 40.4177 38.3443L37.3406 41.4214C37.2198 41.5446 37.1374 41.7003 37.1034 41.8695C37.0694 42.0387 37.0853 42.2141 37.1491 42.3744L46.3715 65.446C46.4173 65.5596 46.486 65.6625 46.5734 65.7483C46.6607 65.8341 46.7648 65.901 46.8792 65.9448L56.5514 69.6631L59.4726 75.5056C59.5341 75.6345 59.6257 75.7466 59.7396 75.8326C59.8536 75.9187 59.9865 75.976 60.1272 75.9999C60.1746 76.0043 60.2223 76.0043 60.2697 75.9999C60.5056 75.9989 60.7314 75.9045 60.8976 75.7372L74.7379 61.8969C74.8398 61.7986 74.9168 61.6774 74.9625 61.5435C75.0082 61.4095 75.0213 61.2665 75.0007 61.1265C74.9768 60.9858 74.9194 60.8528 74.8334 60.7389C74.7474 60.625 74.6352 60.5334 74.5064 60.4719ZM39.015 42.2586L39.5093 41.7688L50.9939 53.2534C50.237 54.3259 49.9101 55.6433 50.0779 56.9452C50.2456 58.2471 50.8958 59.4387 51.8998 60.2843C52.9038 61.13 54.1885 61.5681 55.5 61.512C56.8115 61.456 58.0542 60.9098 58.9824 59.9816C59.9106 59.0534 60.4567 57.8107 60.5128 56.4993C60.5688 55.1878 60.1307 53.903 59.2851 52.899C58.4395 51.895 57.2479 51.2449 55.946 51.0771C54.6441 50.9094 53.3266 51.2363 52.2541 51.9931L40.7695 40.5085L41.2593 40.0142L63.4226 48.8804L66.9183 57.9737L56.9744 67.9175L47.8811 64.4218L39.015 42.2586ZM55.2733 52.8125C56.0738 52.8137 56.849 53.0924 57.4671 53.6011C58.0851 54.1097 58.5076 54.817 58.6627 55.6022C58.8178 56.3875 58.6958 57.2023 58.3175 57.9077C57.9393 58.6131 57.3281 59.1656 56.5882 59.471C55.8483 59.7763 55.0254 59.8157 54.2598 59.5824C53.4941 59.3492 52.8329 58.8576 52.389 58.1916C51.9451 57.5255 51.7458 56.7261 51.8251 55.9296C51.9045 55.1331 52.2575 54.3888 52.8241 53.8234C53.4743 53.1752 54.3552 52.8116 55.2733 52.8125ZM60.5147 73.6041L58.2881 69.151L68.1429 59.2963L72.596 61.5228L60.5147 73.6041Z" fill="white"/>
<path d="M35.0327 66.6483C34.8624 66.4874 34.6369 66.3977 34.4026 66.3977C34.1682 66.3977 33.9428 66.4874 33.7725 66.6483L32.6414 67.7794C29.623 63.6828 27.9578 58.7465 27.878 53.6586C27.7982 48.5706 29.3076 43.5845 32.1961 39.3952C33.0614 39.8714 34.0578 40.0543 35.0359 39.9165C36.014 39.7788 36.9211 39.3278 37.6213 38.6311C38.3214 37.9344 38.777 37.0296 38.9197 36.0522C39.0624 35.0749 38.8844 34.0776 38.4126 33.2098C42.602 30.3214 47.588 28.8119 52.676 28.8917C57.7639 28.9716 62.7002 30.6367 66.7968 33.6551L65.6479 34.7729C65.4823 34.9399 65.3895 35.1656 65.3897 35.4008C65.389 35.518 65.4114 35.6342 65.4558 35.7427C65.5001 35.8512 65.5654 35.9499 65.6479 36.0331L69.5756 39.9296C69.7425 40.0955 69.9682 40.1886 70.2035 40.1886C70.4388 40.1886 70.6645 40.0955 70.8314 39.9296L74.7368 36.0242C74.8196 35.9415 74.8853 35.8433 74.9301 35.7351C74.9749 35.627 74.998 35.5111 74.998 35.3941C74.998 35.277 74.9749 35.1611 74.9301 35.053C74.8853 34.9449 74.8196 34.8467 74.7368 34.764L70.8314 30.8586C70.6645 30.6927 70.4388 30.5996 70.2035 30.5996C69.9682 30.5996 69.7425 30.6927 69.5756 30.8586L68.066 32.3593C64.3454 29.5596 59.9467 27.8006 55.3216 27.263C50.6965 26.7253 46.0116 27.4284 41.748 29.3L46.8825 24.1789C47.4646 24.4571 48.1265 24.52 48.7507 24.3566C49.3749 24.1932 49.921 23.814 50.2922 23.2862C50.6634 22.7584 50.8356 22.1163 50.7784 21.4736C50.7211 20.8309 50.438 20.2293 49.9794 19.7755C49.5208 19.3216 48.9162 19.0449 48.2729 18.9945C47.6297 18.944 46.9894 19.123 46.4656 19.4997C45.9417 19.8764 45.5683 20.4265 45.4115 21.0524C45.2546 21.6783 45.3246 22.3394 45.6089 22.9187L36.9431 31.5978C36.0632 31.0076 35.0057 30.7412 33.9513 30.8441C32.8968 30.947 31.9107 31.4128 31.1615 32.1619C30.4124 32.9111 29.9466 33.8972 29.8437 34.9517C29.7408 36.0061 30.0072 37.0636 30.5974 37.9435L21.9183 46.6093C21.3368 46.3259 20.6737 46.2579 20.0468 46.4173C19.4199 46.5767 18.8698 46.9532 18.4943 47.4799C18.1188 48.0065 17.9421 48.6493 17.9957 49.2939C18.0494 49.9385 18.3298 50.5432 18.7872 51.0006C19.2445 51.458 19.8493 51.7384 20.4939 51.792C21.1385 51.8456 21.7812 51.669 22.3079 51.2935C22.8346 50.918 23.2111 50.3679 23.3705 49.741C23.5298 49.1141 23.4618 48.451 23.1785 47.8695L28.3129 42.7484C26.4395 47.0108 25.7342 51.6951 26.2695 56.3202C26.8048 60.9453 28.5614 65.3446 31.3589 69.0664L29.8537 70.576C29.6878 70.7429 29.5947 70.9686 29.5947 71.2039C29.5947 71.4392 29.6878 71.6649 29.8537 71.8318L33.7591 75.7372C33.9254 75.9044 34.1512 75.9989 34.387 75.9999C34.5045 76 34.6209 75.9768 34.7294 75.9317C34.838 75.8866 34.9365 75.8205 35.0193 75.7372L38.9292 71.8318C39.0951 71.6649 39.1882 71.4392 39.1882 71.2039C39.1882 70.9686 39.0951 70.7429 38.9292 70.576L35.0327 66.6483ZM70.2124 32.7378L72.8576 35.383L70.2124 38.0281L67.5672 35.383L70.2124 32.7378ZM47.3901 21.0617C47.5225 20.9283 47.6915 20.8372 47.8757 20.7999C48.0599 20.7627 48.251 20.7811 48.4248 20.8526C48.5985 20.9242 48.7471 21.0458 48.8517 21.2019C48.9562 21.3581 49.0121 21.5417 49.0121 21.7297C49.0121 21.9176 48.9562 22.1013 48.8517 22.2574C48.7471 22.4136 48.5985 22.5352 48.4248 22.6067C48.251 22.6783 48.0599 22.6966 47.8757 22.6594C47.6915 22.6222 47.5225 22.5311 47.3901 22.3976C47.3023 22.31 47.2327 22.2058 47.1852 22.0912C47.1377 21.9766 47.1132 21.8537 47.1132 21.7297C47.1132 21.6056 47.1377 21.4827 47.1852 21.3681C47.2327 21.2535 47.3023 21.1494 47.3901 21.0617ZM32.4276 33.428C32.6862 33.1682 32.9937 32.962 33.3322 32.8213C33.6707 32.6806 34.0337 32.6081 34.4004 32.6081C34.767 32.6081 35.13 32.6806 35.4685 32.8213C35.8071 32.962 36.1145 33.1682 36.3731 33.428C36.764 33.8183 37.0304 34.3158 37.1385 34.8576C37.2466 35.3993 37.1916 35.9609 36.9804 36.4714C36.7692 36.9818 36.4113 37.4182 35.952 37.7252C35.4928 38.0322 34.9528 38.196 34.4004 38.196C33.8479 38.196 33.3079 38.0322 32.8487 37.7252C32.3894 37.4182 32.0316 36.9818 31.8204 36.4714C31.6092 35.9609 31.5541 35.3993 31.6622 34.8576C31.7703 34.3158 32.0367 33.8183 32.4276 33.428ZM21.4017 49.7265C21.2199 49.8781 20.9879 49.9562 20.7514 49.9456C20.5149 49.9349 20.2909 49.8361 20.1235 49.6687C19.9561 49.5013 19.8573 49.2773 19.8467 49.0408C19.836 48.8043 19.9141 48.5724 20.0658 48.3905C20.244 48.2154 20.4838 48.1172 20.7337 48.1172C20.9836 48.1172 21.2235 48.2154 21.4017 48.3905C21.4895 48.4782 21.5591 48.5823 21.6066 48.697C21.6542 48.8116 21.6786 48.9344 21.6786 49.0585C21.6786 49.1826 21.6542 49.3054 21.6066 49.42C21.5591 49.5347 21.4895 49.6388 21.4017 49.7265ZM34.4004 73.8312L31.7552 71.1861L34.4004 68.5409L37.0455 71.1861L34.4004 73.8312Z" fill="white"/>
</g>
<defs>
<clipPath id="clip0_393_338">
<rect width="57" height="57" fill="white" transform="translate(18 19)"/>
</clipPath>
</defs>
</svg>
