<svg xmlns="http://www.w3.org/2000/svg" xmlns:xlink="http://www.w3.org/1999/xlink" width="97.003" height="97.003" viewBox="0 0 97.003 97.003">
  <defs>
    <linearGradient id="linear-gradient" x1="5.957" y1="-4.828" x2="6.803" y2="-3.981" gradientUnits="objectBoundingBox">
      <stop offset="0" stop-color="#fefb01"/>
      <stop offset="1" stop-color="#fcbb45"/>
    </linearGradient>
  </defs>
  <g id="Group_303" data-name="Group 303" transform="translate(-249.353 -3176.26)">
    <rect id="Rectangle_1" data-name="Rectangle 1" width="97.003" height="97.003" rx="7.649" transform="translate(346.355 3176.26) rotate(90)" fill="url(#linear-gradient)"/>
    <path id="Path_1" data-name="Path 1" d="M40.4,151.913v-.929a2.47,2.47,0,0,1,1.4-.942c4.883-.965,8.147-4.08,10.612-8.167,2.07-3.433,1.738-4.219-2.08-5.57-.216-.08-.441-.143-.657-.229a8.313,8.313,0,0,1-2.322-1.294c-1.708-1.486-.7-3.626,1.317-4.11,1.473-.355,2.757.59,4.186.77.955.119,1.337-.2,1.221-1.221a48.939,48.939,0,0,1-.172-7.888,13.346,13.346,0,0,1,6.886-11.318,17.371,17.371,0,0,1,18.636-.056,13.279,13.279,0,0,1,6.85,10.227,45.383,45.383,0,0,1-.023,8.93c-.1,1.29.163,1.529,1.443,1.231,1.586-.372,2.916-1.191,4.564-.464a2.508,2.508,0,0,1,1.629,2.183,2.426,2.426,0,0,1-.9,1.7,9.33,9.33,0,0,1-2.68,1.406c-.717.292-1.463.517-2.163.843-1.44.677-1.854,1.569-1.181,3C89.3,144.947,92.734,148.7,98.287,150a2.654,2.654,0,0,1,1.632.985v.929A4.311,4.311,0,0,1,97.381,154a11.634,11.634,0,0,1-3.34.945,2.55,2.55,0,0,0-2.7,2.481c-.232,1.6-.713,1.821-2.339,1.688a11.252,11.252,0,0,1-1.148-.169c-3.181-.564-6.167-.242-8.784,1.871a19.114,19.114,0,0,1-1.632,1.115c-4.458,2.893-9.023,3.224-13.68.508-1.267-.74-2.471-1.592-3.7-2.4a8.24,8.24,0,0,0-3.34-1.224,21.506,21.506,0,0,0-5.656.348c-.965.106-1.9-.169-1.954-1.168-.133-2.4-1.606-3-3.629-3.214a10.42,10.42,0,0,1-2.763-.859A4.046,4.046,0,0,1,40.4,151.913Z" transform="translate(227.795 3088.517)" fill="#fff"/>
  </g>
</svg>
