<svg width="351" height="110" viewBox="0 0 351 110" fill="none" xmlns="http://www.w3.org/2000/svg">
<rect x="0.766602" width="349.516" height="109.55" rx="7" fill="white"/>
<path d="M104.725 70.6965C104.329 70.6965 103.968 70.5245 103.727 70.2148C102.196 68.426 103.159 62.3197 103.159 62.2509C103.641 58.5527 104.415 54.8889 105.465 51.3284C106.135 49.0923 107.03 46.925 108.114 44.8437C105.671 44.9297 104.037 46.0993 102.351 47.8366C102.247 47.7678 102.161 47.6818 102.075 47.5958L101.989 47.5098C101.869 47.3894 101.748 47.269 101.594 47.1658C101.078 46.7186 100.613 46.2198 100.217 45.6521C99.8732 45.1533 99.7872 44.5169 99.9937 43.9493C100.458 42.8828 102.127 42.4184 102.626 42.3152C103.796 42.0744 104.966 41.9368 106.153 41.868C106.394 41.868 106.652 41.868 106.893 41.868C108.389 41.8336 109.886 42.0916 111.297 42.6248C112.174 42.9688 112.983 43.4504 113.705 44.0697C112.708 45.6865 111.813 47.355 111.022 49.0751C110.247 50.7264 108.2 55.4394 108.527 56.1446C108.527 56.179 108.579 56.2134 108.613 56.2306C109.095 55.6458 109.49 54.9922 109.817 54.3041C110.729 52.6873 112.105 50.2448 113.74 47.8711C115.701 45.0501 117.559 43.0204 119.279 41.8508L119.624 41.6272C121.568 40.3027 123.787 38.7891 126.23 38.7891C126.815 38.7891 127.383 38.8751 127.95 39.0471C128.157 39.1331 128.312 39.3051 128.38 39.5115C128.432 39.7351 128.38 39.9759 128.26 40.1651C124.458 46.5122 119.469 58.1743 120.054 59.3439C120.071 59.3955 120.122 59.4299 120.174 59.4471C120.381 59.1375 120.57 58.7935 120.725 58.4495C121.275 57.3659 122.187 55.5598 123.305 53.7365C124.32 52.0165 125.507 50.3824 126.832 48.8687C128.466 46.7702 130.445 44.9469 132.681 43.5193C133.886 42.8656 135.228 42.4872 136.604 42.4356C137.172 42.4356 137.55 42.556 137.688 42.7968C137.791 43.0376 137.757 43.3128 137.585 43.5364C137.464 43.7428 137.275 44.0525 137.068 44.3965C136.724 44.9813 136.311 45.6349 136.071 46.0822C134.608 48.4903 133.266 50.9844 132.062 53.5301C131.787 54.1149 131.512 54.6997 131.236 55.2502C130.135 57.5207 129.103 59.6536 128.759 62.0101C128.724 62.0961 128.518 63.1453 128.81 63.5409C128.879 63.6441 129 63.6957 129.12 63.6957C129.327 63.6785 129.533 63.5925 129.705 63.4721C130.359 62.9905 131.563 62.1133 134.488 57.8475C135.296 56.609 136.036 55.3018 136.673 53.9601C136.81 53.6677 136.931 53.4269 137.051 53.1689C138.015 51.1048 138.341 50.4168 139.976 49.4879C140.509 49.1955 141.094 49.0407 141.696 49.0579C142.608 49.0751 143.52 49.3159 144.329 49.7631C145.051 50.1071 145.67 50.6404 146.135 51.294C146.273 51.5864 146.273 51.9304 146.135 52.24C146.066 52.3948 146.049 52.4981 146.083 52.5497C146.101 52.5841 146.135 52.5841 146.187 52.5841C146.273 52.5841 146.376 52.5669 146.462 52.5325H146.531C146.737 52.4637 146.961 52.3949 147.167 52.3261C147.804 52.154 148.44 51.9648 148.716 51.9304C148.767 51.9304 148.819 51.9304 148.87 51.9304C149.025 51.9132 149.18 51.9648 149.283 52.0852C149.335 52.2228 149.318 52.3776 149.249 52.5152L146.754 59.1719C146.754 59.1719 146.032 60.9608 146.221 61.2704C146.238 61.3048 146.273 61.322 146.307 61.322C146.41 61.322 146.565 61.2017 146.789 60.978C147.442 60.2556 148.027 59.4988 148.578 58.7075L149.507 57.2283C150.384 55.7318 151.158 54.1837 151.829 52.5841C152.036 52.068 152.277 51.5176 152.586 50.8812C152.707 50.7092 152.81 50.5372 152.896 50.348C152.948 50.2448 153.016 50.1416 153.085 50.0212C153.378 49.4879 153.739 48.8343 154.066 48.8343H154.1C154.393 48.8343 154.823 48.7999 155.305 48.7999C157.094 48.7999 158.178 49.0579 158.539 49.5911C158.161 50.2792 157.748 50.95 157.283 51.5864C157.059 51.9305 156.87 52.2057 156.75 52.3949C155.494 54.7342 154.444 57.1595 153.584 59.6708C153.12 61.0812 152.896 63.0594 153.275 63.5754C153.326 63.6614 153.429 63.713 153.533 63.713C153.653 63.713 153.756 63.6613 153.86 63.5925C154.376 63.1625 154.84 62.6637 155.236 62.1305C155.425 61.8897 155.614 61.6489 155.821 61.4081C156.681 60.4276 157.455 59.4128 158.298 58.3291C158.745 57.7271 159.227 57.1251 159.709 56.5058C159.829 56.351 159.967 56.179 160.087 56.0242C160.552 55.405 160.982 54.8201 161.429 54.8201C161.619 54.8201 161.791 54.9234 161.894 55.0782C159.365 59.4472 156.509 63.627 153.361 67.5831C152.999 68.0303 152.466 68.3055 151.881 68.3228C151.64 68.3228 151.382 68.2712 151.158 68.1679C149.318 67.1875 149.645 61.8725 150.092 59.8256C149.386 61.0984 148.612 62.3369 147.769 63.5409C146.548 65.3126 144.776 67.6519 143.451 67.6519C143.107 67.6519 142.797 67.4799 142.591 67.2047C142.023 66.2587 142.23 64.5386 142.419 63.1454C142.471 62.6809 142.539 62.2509 142.556 61.8897C142.04 63.1453 141.387 64.3322 140.63 65.4674C139.666 66.7919 138.668 67.5143 137.567 67.7035C137.395 67.7379 137.223 67.7379 137.034 67.7551C136.449 67.7896 135.864 67.5315 135.486 67.0843C134.178 65.5362 134.883 61.6145 135.245 59.516L135.279 59.3096C134.918 59.7568 134.591 60.2384 134.316 60.7544C134.127 61.0812 133.937 61.3908 133.748 61.6661C133.61 61.9069 132.681 63.2141 131.804 64.4698C131.047 65.5362 130.29 66.6371 129.998 67.0671C129.155 68.3228 128.243 68.512 127.795 68.512C127.709 68.512 127.623 68.512 127.555 68.4948C126.729 68.2024 126.161 67.2563 125.851 65.5878C125.18 61.7693 127.434 54.717 127.469 54.6482C127.555 54.3902 127.589 54.2353 127.537 54.1837C127.537 54.1837 127.52 54.1665 127.503 54.1665C127.262 54.1665 126.419 55.319 125.869 56.265C124.079 59.2752 122.479 62.3885 121.051 65.5878C119.623 69.1312 118.574 69.6988 118.196 69.7848C118.092 69.8192 117.989 69.8192 117.886 69.8364C116.613 69.8364 116.2 67.4799 116.045 66.7059C115.632 63.9538 115.735 61.15 116.32 58.4323C116.905 55.9554 117.748 53.5301 118.798 51.2252L119.469 49.4879C119.761 48.7483 119.83 48.2839 119.727 48.0602C119.675 47.957 119.589 47.9055 119.469 47.8711C119.434 47.8711 119.4 47.8711 119.348 47.8711C118.522 47.8711 116.888 49.9351 116.389 50.692L116.166 51.0188C114.824 52.9969 110.712 59.0171 108.441 65.8115C106.686 70.7481 104.811 70.8169 104.742 70.8169L104.725 70.6965ZM143.709 51.552C143.296 51.552 142.608 52.1884 141.799 53.3237C140.664 54.9922 139.735 56.781 139.03 58.6559C138.221 60.8404 137.963 62.5949 138.324 63.6098C138.376 63.7474 138.462 63.8162 138.565 63.8162C139.236 63.8162 140.888 61.2704 142.195 59.2235C142.505 58.7591 142.78 58.3119 143.038 57.9335C143.572 57.0906 144.019 54.0805 144.019 54.0461C144.225 52.7733 144.208 51.982 143.95 51.6724C143.881 51.5864 143.778 51.5348 143.675 51.5348L143.709 51.552ZM171.614 70.6276C170.289 70.6276 168.982 70.3869 167.76 69.9052C166.418 69.3204 165.661 68.4604 165.575 67.4111C165.489 66.3447 165.868 65.2782 166.591 64.487C167.313 63.6958 168.122 62.9905 169.016 62.3885C169.498 62.0445 169.945 61.7177 170.307 61.3908C170.685 57.4003 171.39 53.4613 172.44 49.5911C173.334 46.1682 174.797 42.9 176.775 39.9587C177.429 39.7867 178.1 39.7007 178.788 39.7007C180.13 39.7007 181.455 39.9759 182.676 40.5435C182.367 41.1111 182.04 41.6616 181.73 42.212C178.788 47.4238 175.743 52.7732 173.765 59.0687C174.625 58.5871 175.468 58.1055 176.362 57.5895C179.872 55.491 183.502 53.6161 187.253 51.9649C188.027 50.0212 188.543 47.9742 188.801 45.8929C189.076 43.3472 188.749 41.3863 187.837 40.0447C186.685 38.3934 184.672 37.5162 182.005 37.5162C181.283 37.5162 180.56 37.5678 179.855 37.6882C177.584 38.0666 175.399 38.8406 173.386 39.9587C171.322 41.1284 168.896 42.814 168.517 45.4457C167.072 44.6029 166.04 43.1924 165.661 41.5584C165.455 40.5263 165.73 39.4427 166.418 38.6514C167.657 37.3786 169.206 36.4669 170.909 36.0025C172.922 35.3833 174.986 34.9877 177.085 34.8501C177.79 34.7985 178.479 34.7812 179.167 34.7812C182.969 34.7812 186.272 35.5037 188.732 36.8797C189.988 37.5506 191.072 38.5138 191.898 39.6663C192.741 40.8703 193.24 42.2808 193.343 43.7428C193.446 45.3425 193.412 46.925 193.24 48.5247C193.222 48.8171 193.188 49.1095 193.171 49.4191C194.048 49.2299 195.149 48.8859 196.199 48.5591C196.852 48.3527 197.523 48.1463 198.126 47.9743C198.951 47.7335 199.794 47.613 200.655 47.5786C201.136 47.5786 201.429 47.6647 201.549 47.8195C201.618 47.9227 201.618 48.043 201.566 48.1634C201.36 48.5591 201.119 49.0407 200.861 49.5395C200.396 50.434 199.932 51.3628 199.553 52.0508C198.366 54.2525 195.614 59.7396 195.751 63.3002C195.751 63.541 195.872 63.6786 196.078 63.6786C196.491 63.6786 197.283 63.1109 198.091 62.2337C198.934 61.3392 199.588 60.3072 200.035 59.1548C200.93 56.265 201.996 53.4269 203.252 50.6748C203.872 50.348 204.577 50.1931 205.282 50.2103C206.177 50.1587 207.072 50.4168 207.811 50.9328C207.381 51.6724 207.072 52.326 206.762 52.9625C206.59 53.3237 206.401 53.6849 206.211 54.0633C204.852 56.7466 203.751 59.5676 202.908 62.4573C202.839 62.7153 202.839 62.8873 202.908 62.9733C202.943 63.0077 202.977 63.0249 203.011 63.0249C203.734 63.0249 206.934 59.1204 208.138 57.1079C208.327 56.7639 208.62 56.2994 208.895 55.8522C209.205 55.3878 209.48 54.9062 209.738 54.4246C210.168 53.5129 210.512 52.5669 210.788 51.5864C210.874 51.3112 210.96 51.0188 211.063 50.7092C212.233 47.1658 213.936 43.8117 216.104 40.7499C216.723 40.6983 217.532 40.6295 218.392 40.6295C219.373 40.6295 220.37 40.7155 221.334 40.9219C220.955 41.5756 220.542 42.1948 220.095 42.7968C220.009 42.9344 219.906 43.0548 219.82 43.1925C218.203 45.4286 216.844 47.8366 215.76 50.3824C216.878 49.8319 218.082 49.4879 219.321 49.4019C220.112 49.3503 220.869 49.6944 221.368 50.2964C222.005 51.0876 222.246 52.6013 222.039 54.545C221.626 57.1423 220.68 59.6192 219.252 61.8209C217.687 64.3666 215.811 66.2415 214.125 66.9983C213.196 67.3767 212.198 67.5831 211.201 67.6003C210.426 67.6003 209.429 67.4283 209.171 66.6371C208.31 64.0226 208.947 59.1547 209.085 58.2087C208.551 58.8451 208.052 59.5504 207.536 60.3072C206.968 61.1156 206.383 61.9413 205.661 62.8529C205.592 62.9389 205.523 63.0249 205.437 63.1281C204.508 64.2634 202.805 66.3447 201.394 66.3447C201.325 66.3447 201.274 66.3447 201.205 66.3447C200.035 66.1727 200.052 64.6418 200.052 63.1625C200.052 62.7669 200.052 62.4057 200.052 62.0617C199.932 62.2165 199.777 62.4229 199.588 62.6809C198.573 64.0742 196.663 66.6887 194.788 66.6887C194.272 66.6887 193.773 66.4823 193.394 66.1383C192.569 65.4158 192.104 64.0226 192.053 61.9929C191.966 57.8991 193.928 53.9257 195.235 51.294C195.321 51.122 195.407 50.95 195.493 50.778C195.562 50.692 195.579 50.5888 195.528 50.5028C195.442 50.348 195.184 50.3308 195.132 50.3308C194.478 50.3824 193.842 50.5888 193.274 50.9156C193.102 51.0016 192.913 51.0876 192.706 51.1736C191.313 56.1618 188.68 60.7028 185.033 64.3838C183.382 66.0866 181.472 67.5315 179.39 68.6496C177.154 69.8192 174.694 70.5073 172.182 70.6449C172.01 70.6449 171.838 70.6449 171.666 70.6449L171.614 70.6276ZM170.393 64.6246C170.255 64.8998 170.031 65.2266 169.79 65.5878C169.206 66.4479 168.552 67.4283 168.707 68.0648C168.758 68.254 168.879 68.426 169.051 68.512C169.55 68.7528 170.083 68.8732 170.633 68.856C172.836 68.856 175.347 67.3251 176.053 66.8435C181.489 63.455 184.724 57.7443 186.496 53.5473C181.592 55.7146 177.033 58.6215 173.008 62.1649C172.836 63.369 172.887 64.573 173.128 65.7599C173.145 65.8803 173.163 66.0179 173.18 66.1383C172.698 66.7231 171.975 67.0327 171.236 66.9811H171.132C170.668 66.2759 170.41 65.4502 170.375 64.6074L170.393 64.6246ZM216.585 51.6552C215.932 51.6896 215.295 51.8788 214.727 52.2229C213.368 55.3018 210.891 63.6785 211.579 64.7278C211.613 64.7966 211.682 64.831 211.751 64.831C211.82 64.831 211.889 64.7966 211.958 64.7622C214.143 63.0593 216.689 58.8623 217.635 55.3878C217.996 54.0633 218.117 51.982 217.188 51.724C216.998 51.6724 216.792 51.6552 216.585 51.6552ZM238.572 68.2196C238.331 68.2196 238.073 68.168 237.85 68.0648C236.869 67.5315 236.577 65.7082 236.491 64.2978C236.422 62.7669 236.525 61.236 236.817 59.7224C236.198 60.8748 235.424 62.0445 234.667 63.1625L234.495 63.4205C233.273 65.1922 231.501 67.5315 230.177 67.5315C229.833 67.5315 229.523 67.3595 229.316 67.0843C228.8 66.1555 228.955 64.6074 229.076 63.2313C229.127 62.6809 229.179 62.1649 229.179 61.7349C228.663 62.9905 228.009 64.1774 227.252 65.3126C226.289 66.6371 225.291 67.3595 224.19 67.5487C224.018 67.5831 223.846 67.5831 223.656 67.6003C223.071 67.6348 222.487 67.3767 222.108 66.9295C220.801 65.3814 221.506 61.4597 221.867 59.3612L221.901 59.1548C222.332 57.2455 222.865 55.3706 223.519 53.5301C224.482 51.1564 224.912 50.434 226.736 49.4191C227.252 49.1267 227.854 48.9719 228.439 48.9891C230.177 49.0407 231.794 49.8663 232.843 51.2424C232.981 51.5348 232.981 51.8788 232.843 52.1884C232.775 52.3432 232.757 52.4465 232.792 52.4981C232.809 52.5325 232.843 52.5325 232.895 52.5325C232.981 52.5325 233.084 52.5153 233.17 52.4809H233.239C233.445 52.4121 233.669 52.3433 233.876 52.2745C234.512 52.1024 235.149 51.9132 235.424 51.8788C235.476 51.8788 235.527 51.8788 235.579 51.8788C235.734 51.8616 235.888 51.9132 235.992 52.0336C236.043 52.1712 236.026 52.326 235.957 52.4636L233.445 59.1203C233.445 59.1203 232.723 60.9092 232.912 61.2188C232.929 61.2532 232.964 61.2704 232.998 61.2704C233.101 61.2704 233.256 61.15 233.48 60.9264C234.134 60.204 234.719 59.4472 235.269 58.6559L236.198 57.1767C237.075 55.6802 237.85 54.1321 238.521 52.5325C238.744 51.9648 238.968 51.38 239.243 50.8296L239.553 50.2964C239.604 50.1932 239.673 50.09 239.742 49.9696C240.035 49.4363 240.396 48.7827 240.723 48.7827H240.757C241.05 48.7827 241.48 48.7483 241.961 48.7483C243.751 48.7483 244.835 49.0063 245.196 49.5395C244.817 50.2276 244.404 50.8984 243.94 51.5348C243.716 51.8789 243.527 52.154 243.407 52.3432C242.151 54.6825 241.101 57.1079 240.241 59.6192C239.777 61.0296 239.553 63.0077 239.931 63.5237C239.983 63.6097 240.086 63.6614 240.189 63.6614C240.31 63.6614 240.413 63.6097 240.516 63.5409C241.032 63.1109 241.497 62.6121 241.893 62.0789C242.082 61.8381 242.271 61.5973 242.478 61.3565C243.338 60.376 244.112 59.3612 244.955 58.2775C245.402 57.6927 245.884 57.0735 246.366 56.4542C246.486 56.2994 246.624 56.1274 246.744 55.9726C247.209 55.3534 247.656 54.7685 248.086 54.7685C248.275 54.7685 248.447 54.8718 248.551 55.0266C246.022 59.3956 243.166 63.5754 240.017 67.5315C239.656 67.9787 239.123 68.2539 238.555 68.2711L238.572 68.2196ZM230.486 51.5348C230.073 51.5348 229.402 52.1369 228.611 53.2549C226.615 56.0586 224.31 61.3392 225.084 63.5925C225.136 63.7301 225.205 63.7989 225.325 63.7989C225.979 63.7989 227.682 61.2016 229.041 59.1203C229.316 58.6903 229.575 58.2775 229.815 57.9335C230.246 57.297 230.59 55.4222 230.744 54.5105C230.762 54.3557 230.796 54.2009 230.83 54.0461C231.037 52.7733 231.002 51.982 230.762 51.6724C230.693 51.5864 230.59 51.5348 230.486 51.5348ZM244.198 47.1658C244.06 47.1658 243.923 47.1658 243.785 47.1142C242.701 46.9422 241.893 46.0478 241.824 44.9469C241.807 44.2417 242.03 43.5365 242.46 42.9688C242.994 42.2808 243.734 41.7476 244.577 41.4895C244.938 41.4035 245.299 41.352 245.677 41.352C245.746 41.352 245.815 41.352 245.884 41.352C246.865 41.438 247.587 42.298 247.518 43.2784C247.518 43.33 247.518 43.3816 247.501 43.4505C247.398 44.3793 247.002 45.2394 246.4 45.9446C245.884 46.6498 245.075 47.097 244.198 47.183V47.1658ZM157.455 47.1658C157.318 47.1658 157.18 47.1658 157.042 47.1142C155.958 46.9422 155.15 46.0478 155.081 44.9469C155.064 44.2417 155.287 43.5365 155.718 42.9688C156.251 42.2808 156.991 41.7476 157.834 41.4895C158.195 41.4035 158.556 41.352 158.935 41.352C159.004 41.352 159.072 41.352 159.141 41.352C160.122 41.438 160.844 42.298 160.776 43.2784C160.776 43.33 160.776 43.3816 160.758 43.4505C160.655 44.3793 160.259 45.2394 159.657 45.9446C159.141 46.6498 158.333 47.097 157.455 47.183V47.1658Z" fill="#313131"/>
<path d="M210.977 74.9453L210.134 77.6286H209.653L208.586 73.9648H209.205L209.962 76.8202L210.857 73.9648H211.218L212.113 76.8202L212.87 73.9648H213.455L212.388 77.6286H211.855L211.012 74.9453H210.977Z" fill="#313131"/>
<path d="M213.833 77.4364C213.593 77.23 213.455 76.9032 213.472 76.5935C213.472 75.8711 214.091 75.4755 214.762 75.3379C215.072 75.2519 215.382 75.2003 215.571 75.1659C215.571 74.5467 215.296 74.3231 214.848 74.3231C214.487 74.3231 214.126 74.4778 213.868 74.7187L213.679 74.2714C214.023 73.9962 214.453 73.8414 214.883 73.8758C215.64 73.8758 216.139 74.2714 216.139 75.2519V77.66H215.605V77.3504C215.365 77.6084 215.021 77.746 214.676 77.746C214.367 77.746 214.057 77.6428 213.833 77.4364Z" fill="#313131"/>
<path d="M217.187 74.4129H216.603V73.9141H217.187V72.9336H217.772V73.9141H218.701V74.3957H217.755V76.7694C217.755 77.1306 217.893 77.2166 218.117 77.2166C218.289 77.2166 218.478 77.1478 218.598 77.0446L218.736 77.4918C218.512 77.6466 218.254 77.7154 217.979 77.7154C217.446 77.7154 217.17 77.4402 217.17 76.8726V74.4129H217.187Z" fill="#313131"/>
<path d="M218.975 75.7049C218.906 75.0169 219.233 74.346 219.818 73.9676C220.042 73.8472 220.282 73.7784 220.54 73.7956C221.194 73.7612 221.762 74.1912 221.917 74.8276C222.003 75.1201 222.054 75.4125 222.054 75.7221H219.56C219.56 76.6682 219.955 77.2014 220.712 77.2014C221.108 77.2014 221.487 77.0637 221.779 76.8057L221.917 77.2873C221.676 77.4937 221.383 77.6142 221.074 77.6486C220.936 77.6486 220.799 77.7002 220.678 77.7002C219.646 77.7002 218.975 77.0293 218.975 75.7393V75.7049Z" fill="#313131"/>
<path d="M223.262 77.5779H222.677V73.9141H223.159L223.21 74.2753C223.451 74.0001 223.795 73.8453 224.139 73.8281C224.242 73.8281 224.346 73.8281 224.449 73.8797L224.397 74.4129C224.311 74.4129 224.225 74.3613 224.122 74.3613C223.778 74.3957 223.468 74.5506 223.227 74.8086V77.5779H223.262Z" fill="#313131"/>
<path d="M226.254 77.5766V73.9128H226.839V77.5766H226.254ZM226.203 72.8807C226.203 72.6915 226.358 72.5195 226.547 72.5195C226.736 72.5195 226.891 72.64 226.908 72.812C226.908 72.8292 226.908 72.8464 226.908 72.8636C226.925 73.07 226.788 73.242 226.581 73.2592C226.581 73.2592 226.564 73.2592 226.547 73.2592C226.323 73.2592 226.186 73.1216 226.186 72.8636L226.203 72.8807Z" fill="#313131"/>
<path d="M227.684 76.7676C227.976 77.0084 228.337 77.1632 228.716 77.1632C229.198 77.1632 229.438 76.9912 229.438 76.5784C229.438 76.3032 229.129 76.0968 228.544 75.8216C227.821 75.5464 227.598 75.2884 227.598 74.7551C227.598 74.1875 228.062 73.7231 228.63 73.7231C228.664 73.7231 228.681 73.7231 228.699 73.7231C229.129 73.6887 229.559 73.8607 229.851 74.1703L229.628 74.6175C229.37 74.3767 229.043 74.2563 228.699 74.2563C228.251 74.2563 228.079 74.4799 228.079 74.7379C228.079 74.9615 228.355 75.1851 228.922 75.4087C229.542 75.6323 229.903 75.942 229.903 76.5268C229.937 76.888 229.731 77.2492 229.421 77.4212C229.198 77.5589 228.94 77.6449 228.664 77.6449C228.355 77.6449 228.062 77.5761 227.77 77.4728C227.684 77.4384 227.615 77.3869 227.546 77.3353L227.46 77.2492L227.684 76.7504V76.7676Z" fill="#313131"/>
<path d="M231.931 72.4492H232.516V76.6978C232.516 77.059 232.602 77.1794 232.825 77.1794C232.946 77.1622 233.066 77.1278 233.187 77.0934L233.324 77.5407C233.135 77.6095 232.946 77.6611 232.739 77.6783C232.12 77.6783 231.931 77.3686 231.931 76.6462V72.4492Z" fill="#313131"/>
<path d="M233.668 77.5766V73.9128H234.253V77.5766H233.668ZM233.617 72.8807C233.617 72.6915 233.772 72.5195 233.961 72.5195C234.15 72.5195 234.305 72.64 234.322 72.812C234.322 72.8292 234.322 72.8464 234.322 72.8636C234.339 73.07 234.202 73.242 233.995 73.2592C233.995 73.2592 233.978 73.2592 233.961 73.2592C233.737 73.2592 233.6 73.1216 233.6 72.8636L233.617 72.8807Z" fill="#313131"/>
<path d="M235.821 74.4118V77.5767H235.236V74.4118H234.703V73.9302H235.236V73.6549C235.185 73.2765 235.323 72.8981 235.598 72.6229C235.787 72.4337 236.045 72.3477 236.32 72.3477C236.527 72.3477 236.733 72.3821 236.94 72.4337L236.888 72.9153C236.716 72.8465 236.527 72.8121 236.355 72.8293C235.907 72.8293 235.821 73.1045 235.821 73.6377V73.9129H236.664V74.3946H235.821V74.4118Z" fill="#313131"/>
<path d="M236.836 75.7049C236.767 75.0169 237.094 74.346 237.679 73.9676C237.903 73.8472 238.144 73.7784 238.402 73.7956C239.055 73.7612 239.623 74.1912 239.778 74.8276C239.864 75.1201 239.916 75.4125 239.916 75.7221H237.421C237.421 76.6682 237.817 77.2014 238.574 77.2014C238.969 77.2014 239.348 77.0637 239.64 76.8057L239.778 77.2873C239.537 77.4937 239.245 77.6142 238.935 77.6486C238.797 77.6486 238.66 77.7002 238.539 77.7002C237.507 77.7002 236.836 77.0293 236.836 75.7393V75.7049Z" fill="#313131"/>
<path d="M248.034 50.123V51.8258H248.43V50.123H249.015V49.7617H247.397V50.123H248.017H248.034Z" fill="#313131"/>
<path d="M250.408 51.8242L250.769 50.0869V51.8242H251.165V49.7773H250.58L250.219 51.3942L249.857 49.7773H249.272V51.8242H249.634V50.0869L249.995 51.8242H250.408Z" fill="#313131"/>
</svg>
