<svg width="351" height="110" viewBox="0 0 351 110" fill="none" xmlns="http://www.w3.org/2000/svg">
<rect x="0.640625" width="349.516" height="109.55" rx="7" fill="white"/>
<path d="M161.344 59.1312L158.032 57.6086L153.775 65.4569L126.81 65.3396L131.541 58.3112L129.176 55.5L118.885 69.44H156.73L161.344 59.1312Z" fill="#404040"/>
<path d="M153.417 28.3263H195.399L207.935 44.9602L211.01 42.6176L197.41 24.3438H151.17L138.16 42.1484L141.59 44.0224L153.417 28.3263Z" fill="#404040"/>
<path d="M222.959 65.227H195.994L193.629 60.7758L190.791 63.1184L194.102 68.8582H230.174L220.831 55.8555L218.229 58.3154L222.959 65.227Z" fill="#404040"/>
<path d="M177.427 29.9648H171.04L166.428 39.5704H182.395L177.427 29.9648ZM172.578 36.1732L173.761 33.5961H174.943L176.363 36.1732H172.578Z" fill="#404040"/>
<path d="M137.924 57.0263C138.123 56.7785 138.396 56.5996 138.704 56.5154C139.012 56.4312 139.339 56.446 139.639 56.5577L141.413 57.4361L142.95 54.4492C141.59 52.9265 142.181 50.525 142.181 50.525C142.181 50.525 142.122 45.4295 138.751 43.9653C135.38 42.501 131.537 44.9609 131.537 44.9609V47.7721C131.537 47.7721 132.719 47.1278 135.736 47.0694C138.752 47.0111 137.155 49.0024 137.155 49.0024C137.155 49.0024 129.586 48.7683 130.177 53.9222C130.769 59.076 137.215 57.9047 137.924 57.0263ZM135.381 52.8681C135.887 51.6379 137.835 51.6968 137.835 51.6968C137.835 51.6968 137.776 53.4246 137.096 54.0984C136.911 54.2593 136.676 54.3533 136.431 54.3647C136.185 54.3762 135.942 54.3045 135.743 54.1615C135.543 54.0184 135.399 53.8125 135.333 53.5775C135.268 53.3425 135.285 53.0923 135.381 52.8681Z" fill="#404040"/>
<path d="M169.148 50.525C169.148 50.525 169.089 45.4295 165.719 43.9653C162.348 42.501 158.504 44.9609 158.504 44.9609V47.7721C158.504 47.7721 159.687 47.1278 162.702 47.0694C165.718 47.0111 164.122 49.0024 164.122 49.0024C164.122 49.0024 156.553 48.7683 157.144 53.9222C157.736 59.076 164.181 57.9047 164.89 57.0263C165.089 56.7785 165.362 56.5996 165.67 56.5154C165.978 56.4312 166.305 56.446 166.604 56.5577L168.378 57.4361L169.916 54.4492C168.557 52.9276 169.148 50.525 169.148 50.525ZM164.063 54.0978C163.878 54.2588 163.643 54.3527 163.397 54.3642C163.151 54.3756 162.909 54.304 162.71 54.1609C162.51 54.0179 162.366 53.812 162.3 53.577C162.235 53.3419 162.251 53.0918 162.348 52.8676C162.853 51.6374 164.802 51.6963 164.802 51.6963C164.802 51.6963 164.743 53.424 164.063 54.0978Z" fill="#404040"/>
<path d="M151.529 43.6147C150.524 42.912 141.418 45.0206 143.191 52.398C144.965 59.7755 155.846 57.4351 155.846 57.4351V37.6992H151.648L151.529 43.6147ZM151.529 53.4542C151.529 53.4542 148.573 53.1613 148.573 50.4084C148.573 47.6556 151.529 47.6556 151.529 47.6556V53.4542Z" fill="#404040"/>
<path d="M187.065 57.4954V46.5996C187.065 46.5996 185.528 41.9139 180.797 44.376C180.472 44.376 178.313 42.2674 175.357 44.4933L174.114 43.6733H170.508V57.3787H174.647V48.6509C174.647 48.6509 175.416 47.6553 176.539 48.6509V57.4343H180.973V48.8271C180.973 48.8271 181.682 48.0072 182.866 48.8271V57.4954H187.065Z" fill="#404040"/>
<path d="M193.213 58.0211V43.6131L189.074 43.5547V57.026C188.833 57.7788 188.33 58.4223 187.654 58.8417L190.019 61.7702C191.498 60.9341 192.63 59.6057 193.213 58.0211Z" fill="#404040"/>
<path d="M200.487 43.4382C193.805 42.8523 192.327 53.1021 196.88 56.148C201.433 59.1938 205.986 56.0307 205.986 56.0307L206.341 52.7508C206.341 52.7508 200.664 55.328 199.127 51.7552L206.104 51.6968C206.104 51.6968 207.169 44.0241 200.487 43.4382ZM199.246 48.2996C199.338 47.981 199.531 47.7004 199.798 47.5C200.064 47.2996 200.389 47.19 200.724 47.1878C201.071 47.1982 201.407 47.3091 201.691 47.5067C201.974 47.7043 202.193 47.98 202.321 48.2996H199.246Z" fill="#404040"/>
<path d="M210.127 56.148C214.681 59.1939 219.233 56.0307 219.233 56.0307L219.588 52.7509C219.588 52.7509 213.912 55.3281 212.374 51.7552L219.351 51.6969C219.351 51.6969 220.418 44.0253 213.734 43.4383C207.05 42.8512 205.574 53.1017 210.127 56.148ZM213.971 47.1868C214.317 47.1972 214.653 47.308 214.937 47.5056C215.221 47.7033 215.44 47.9789 215.567 48.2986H212.495C212.587 47.9804 212.78 47.7002 213.046 47.4998C213.312 47.2994 213.636 47.1896 213.971 47.1868Z" fill="#404040"/>
<path d="M191.027 41.5602C192.333 41.5602 193.392 40.5114 193.392 39.2176C193.392 37.9238 192.333 36.875 191.027 36.875C189.721 36.875 188.662 37.9238 188.662 39.2176C188.662 40.5114 189.721 41.5602 191.027 41.5602Z" fill="#404040"/>
<path d="M136.861 78.2305H133.195V90.1786H136.861V78.2305Z" fill="#404040"/>
<path d="M149.694 79.2227C147.092 81.9166 151.645 85.0214 151.645 85.0214C151.645 85.0214 153.065 85.6073 152.768 86.8959C152.471 88.1845 148.924 86.7202 148.924 86.7202V89.5904C148.924 89.5904 152.945 90.9374 155.133 89.5904C157.322 88.2434 156.73 84.5533 154.011 83.0306C151.292 81.508 153.506 79.6335 156.081 80.8926L156.495 81.0978L156.791 78.7552C156.791 78.7552 152.296 76.5282 149.694 79.2227Z" fill="#404040"/>
<path d="M163.413 86.8402C163.201 87.0486 162.914 87.1656 162.615 87.1656C162.316 87.1656 162.029 87.0486 161.816 86.8402V77.8789H157.914V88.4217C157.914 88.4217 158.86 92.0529 163.414 89.5335V90.1756H167.11V77.9345H163.414L163.413 86.8402Z" fill="#404040"/>
<path d="M142.446 78.7554V78.1111H138.75V90.3522H142.446V81.4493C142.446 81.4493 143.071 80.601 144.043 81.4493V90.4105H147.946V79.8683C147.946 79.8683 146.999 76.2393 142.446 78.7554Z" fill="#404040"/>
<path d="M192.118 78.7554V78.1111H188.422V90.3522H192.118V81.4493C192.118 81.4493 192.742 80.601 193.715 81.4493V90.4105H197.617V79.8683C197.617 79.8683 196.671 76.2393 192.118 78.7554Z" fill="#404040"/>
<path d="M186.695 83.7696C186.695 83.7696 186.644 79.3584 183.726 78.0904C180.808 76.8224 177.481 78.9526 177.481 78.9526V81.3864C177.481 81.3864 178.505 80.8305 181.116 80.7782C183.726 80.726 182.344 82.4515 182.344 82.4515C182.344 82.4515 175.792 82.2486 176.304 86.7103C176.816 91.1721 182.396 90.157 183.01 89.3976C183.182 89.183 183.419 89.0281 183.685 88.9552C183.952 88.8822 184.235 88.8951 184.494 88.9918L186.03 89.7523L187.361 87.1667C186.183 85.8481 186.695 83.7696 186.695 83.7696ZM182.292 86.8621C182.132 87.0016 181.929 87.083 181.716 87.093C181.504 87.103 181.293 87.0411 181.121 86.9172C180.948 86.7934 180.823 86.6152 180.766 86.4117C180.709 86.2082 180.724 85.9916 180.808 85.7975C181.243 84.733 182.932 84.7835 182.932 84.7835C182.932 84.7835 182.881 86.2795 182.29 86.8627L182.292 86.8621Z" fill="#404040"/>
<path d="M213.085 85.076L219.202 85.0248C219.202 85.0248 220.136 78.2983 214.277 77.783C208.418 77.2677 207.121 86.2573 211.114 88.9279C215.106 91.5985 219.099 88.825 219.099 88.825L219.41 85.9487C219.41 85.9487 214.433 88.2091 213.085 85.076ZM214.484 80.8355C214.789 80.8447 215.083 80.942 215.332 81.1154C215.581 81.2888 215.773 81.5307 215.884 81.8111H213.19C213.271 81.5319 213.44 81.2861 213.674 81.1102C213.907 80.9344 214.191 80.838 214.484 80.8355Z" fill="#404040"/>
<path d="M172.815 78.813L172.874 77.9346L169.148 77.993V90.0562H172.756V81.1556C172.959 80.9769 173.196 80.8409 173.454 80.7556C173.712 80.6704 173.984 80.6377 174.255 80.6596C174.526 80.6815 174.789 80.7574 175.03 80.8829C175.27 81.0084 175.482 81.1807 175.653 81.3896V77.8751C174.628 77.8671 173.63 78.197 172.815 78.813Z" fill="#404040"/>
<path d="M200.898 79.1344C200.213 79.706 199.667 80.4221 199.3 81.2302C198.932 82.0383 198.752 82.9178 198.772 83.804C198.737 84.7263 198.907 85.6448 199.271 86.4944C199.635 87.3439 200.184 88.1036 200.878 88.7194C201.616 89.3717 202.493 89.8498 203.445 90.1177C204.396 90.3856 205.396 90.4363 206.37 90.2659C206.988 90.1781 207.763 90.0219 208.588 89.8262V87.0611C207.958 87.2351 207.309 87.3306 206.655 87.3452C206.162 87.3688 205.668 87.2933 205.204 87.1234C204.74 86.9535 204.316 86.6925 203.956 86.3562C203.614 86.0469 203.346 85.6657 203.171 85.2405C202.996 84.8153 202.919 84.3568 202.946 83.8985C202.929 83.4204 203.01 82.9437 203.182 82.4968C203.355 82.0499 203.616 81.6419 203.951 81.2969C204.277 80.962 204.67 80.6981 205.105 80.5222C205.54 80.3463 206.007 80.2621 206.476 80.2751C207.189 80.2816 207.899 80.3736 208.589 80.5492V77.54C207.828 77.37 207.05 77.2876 206.27 77.2943C204.31 77.2229 202.394 77.8791 200.898 79.1344Z" fill="#404040"/>
<path d="M134.733 76.2364C135.843 76.2364 136.743 75.3449 136.743 74.2452C136.743 73.1454 135.843 72.2539 134.733 72.2539C133.623 72.2539 132.723 73.1454 132.723 74.2452C132.723 75.3449 133.623 76.2364 134.733 76.2364Z" fill="#404040"/>
</svg>
