<svg width="351" height="110" viewBox="0 0 351 110" fill="none" xmlns="http://www.w3.org/2000/svg">
<rect x="0.671875" width="349.516" height="109.55" rx="7" fill="white"/>
<mask id="mask0_411_908" style="mask-type:luminance" maskUnits="userSpaceOnUse" x="87" y="29" width="176" height="50">
<path d="M262.692 29.5625H87.6172V78.2513H262.692V29.5625Z" fill="white"/>
</mask>
<g mask="url(#mask0_411_908)">
<mask id="mask1_411_908" style="mask-type:luminance" maskUnits="userSpaceOnUse" x="87" y="29" width="176" height="50">
<path d="M262.68 29.5625H87.6055V78.2513H262.68V29.5625Z" fill="white"/>
</mask>
<g mask="url(#mask1_411_908)">
<path fill-rule="evenodd" clip-rule="evenodd" d="M116.181 72.7171C103.389 69.9511 96.2917 66.3107 94.8681 61.7957C93.4243 57.301 97.7356 52.8267 107.761 48.332C94.3191 53.0504 87.7708 57.9518 88.1165 62.9956C88.4622 68.0394 95.6612 72.0866 109.693 75.178C120.39 77.1914 131.25 78.2083 142.13 78.2287C154.169 78.3507 166.187 77.6389 178.145 76.1135C188.944 74.8119 199.6 72.5137 209.992 69.2393C212.493 68.4055 214.75 67.5513 216.784 66.6768C216.682 66.7174 216.581 66.7378 216.479 66.7581C206.107 70.0528 195.451 72.351 184.632 73.6323C172.695 75.1576 160.656 75.8898 148.637 75.7881C137.757 75.7881 126.898 74.7509 116.201 72.7171" fill="#313131"/>
<path fill-rule="evenodd" clip-rule="evenodd" d="M233.177 33.7296C218.515 30.9637 203.629 29.5807 188.702 29.5604C172.209 29.3977 155.737 30.3739 139.387 32.489C124.582 34.2584 109.96 37.3904 95.745 41.8648C92.7963 42.8613 90.0915 43.8782 87.6309 44.9154C88.1596 44.7121 88.7087 44.529 89.2578 44.3663C103.493 39.892 118.095 36.7396 132.899 34.9499C149.27 32.8551 165.742 31.8789 182.235 32.0213C197.142 32.0213 212.028 33.4246 226.69 36.1905C244.403 40.0547 254.144 45.1188 255.913 51.3829C257.682 57.6673 251.399 63.8907 237.062 70.0937C254.835 63.6669 263.377 57.0368 262.685 50.2033C261.994 43.3698 252.171 37.8786 233.198 33.7296" fill="#313131"/>
<path d="M109.147 57.9308L111.771 56.7105C111.974 57.5444 112.462 58.2766 113.154 58.785C113.906 59.2934 114.801 59.5375 115.696 59.4968C116.55 59.5375 117.383 59.2528 118.014 58.6833C118.604 58.1138 118.909 57.3003 118.888 56.4868C118.888 55.3072 117.892 54.2497 115.919 53.3141C115.635 53.1718 115.431 53.0701 115.289 53.0091C113.621 52.3176 112.116 51.321 110.815 50.0601C110.062 49.1448 109.676 48.0059 109.717 46.8263C109.656 45.301 110.266 43.8367 111.384 42.8198C112.604 41.7622 114.17 41.2131 115.797 41.2741C117.099 41.2334 118.4 41.5182 119.539 42.1486C120.515 42.6978 121.268 43.5723 121.634 44.6299L119.071 45.9518C118.726 45.3824 118.278 44.9146 117.729 44.5688C117.221 44.2638 116.651 44.1214 116.062 44.1214C115.289 44.0807 114.536 44.3248 113.947 44.8129C113.418 45.2807 113.133 45.9721 113.174 46.6636C113.174 47.8839 114.313 49.0228 116.611 50.0601L117.017 50.2634C118.563 50.8736 119.966 51.7888 121.125 52.9684C121.898 53.9039 122.285 55.0632 122.244 56.2631C122.325 57.9715 121.674 59.6595 120.434 60.8391C119.092 62.0187 117.343 62.6288 115.553 62.5272C114.048 62.5882 112.564 62.1814 111.303 61.3476C110.184 60.5137 109.412 59.2935 109.127 57.9308M125.335 43.2062C125.335 42.7181 125.538 42.23 125.884 41.8843C126.616 41.1521 127.816 41.1521 128.548 41.8843C129.28 42.6164 129.28 43.8164 128.548 44.5485C128.202 44.9146 127.714 45.0976 127.226 45.0976C126.189 45.0976 125.335 44.2434 125.335 43.2062ZM125.721 48.8805H128.731V61.9984H125.721V48.8805Z" fill="#313131"/>
<path d="M133.023 61.978V48.8601H135.85V50.9956C136.379 50.1617 137.111 49.4906 137.965 49.0228C138.88 48.5754 139.897 48.372 140.934 48.3923C141.788 48.372 142.643 48.5347 143.415 48.8601C144.513 49.3279 145.307 50.3244 145.53 51.4837C145.652 52.3175 145.713 53.1514 145.693 54.0056V61.9577H142.663V55.2055C142.785 54.0259 142.561 52.8463 142.032 51.7684C141.463 51.1379 140.629 50.8125 139.795 50.9142C139.145 50.9142 138.514 51.0362 137.924 51.3006C137.396 51.5447 136.948 51.9108 136.643 52.3989C136.399 52.765 136.237 53.1717 136.176 53.5988C136.074 54.3716 136.033 55.1648 136.054 55.958V61.9373H133.044L133.023 61.978Z" fill="#313131"/>
<path d="M159.092 55.3676C159.153 54.2287 158.828 53.1101 158.137 52.1949C157.486 51.4221 156.51 51.0153 155.493 51.056C154.476 51.0153 153.48 51.4424 152.809 52.2356C152.117 53.1711 151.771 54.31 151.832 55.4693C151.751 56.6286 152.097 57.7675 152.768 58.703C154.11 60.147 156.347 60.2284 157.791 58.8861C157.893 58.8047 157.974 58.703 158.055 58.6013C158.767 57.6658 159.133 56.5269 159.072 55.3473M161.98 61.1232C161.98 63.6858 161.472 65.4959 160.435 66.5534C159.418 67.5907 157.689 68.1194 155.269 68.1194C153.744 68.2008 152.219 67.794 150.938 66.9805C149.9 66.3094 149.29 65.1705 149.29 63.9502H152.504C152.544 64.479 152.829 64.9467 153.297 65.2315C153.907 65.5569 154.618 65.7196 155.31 65.6789C156.306 65.7806 157.303 65.4755 158.076 64.8247C158.726 64.0316 159.031 63.035 158.95 62.0181V60.269C158.503 60.9809 157.852 61.5503 157.099 61.9571C156.347 62.3435 155.493 62.5266 154.639 62.5062C152.971 62.5876 151.344 61.8757 150.267 60.6148C149.128 59.1098 148.558 57.259 148.68 55.388C148.599 53.5576 149.168 51.7678 150.307 50.3238C152.076 48.3307 154.964 47.8223 157.323 49.0629C158.076 49.5103 158.665 50.1815 158.991 50.995V48.8595H161.98V61.1639V61.1232Z" fill="#313131"/>
<path d="M169.077 48.8594V56.242C168.976 57.2182 169.26 58.1944 169.85 58.9876C171.375 60.0859 173.45 60.0859 174.975 58.9876C175.585 58.2148 175.87 57.2386 175.768 56.242V48.8594H178.778V55.3472C178.778 57.8487 178.269 59.6791 177.273 60.818C175.992 62.0586 174.243 62.6891 172.453 62.5264C170.664 62.6891 168.894 62.079 167.593 60.8384C166.596 59.6994 166.088 57.8894 166.088 55.3472V48.8594H169.077Z" fill="#313131"/>
<path d="M185.977 40.543H182.967V61.979H185.977V40.543Z" fill="#313131"/>
<path d="M202.569 61.9774H199.58V60.269C199.092 60.9809 198.461 61.5503 197.709 61.9571C196.956 62.3435 196.102 62.5265 195.248 62.5062C193.581 62.5876 191.954 61.8757 190.876 60.6148C189.737 59.1301 189.168 57.2794 189.29 55.388C189.208 53.5576 189.778 51.7678 190.917 50.3238C192.686 48.3307 195.574 47.8223 197.933 49.0629C198.685 49.5103 199.275 50.1815 199.6 50.995V48.8392H202.59V61.9571L202.569 61.9774ZM199.661 55.3676C199.722 54.2287 199.397 53.1101 198.705 52.1949C198.055 51.4221 197.078 51.0153 196.062 51.056C195.045 51.0153 194.048 51.4424 193.377 52.2356C192.686 53.1711 192.34 54.31 192.401 55.4693C192.32 56.6286 192.665 57.7675 193.337 58.703C194.679 60.147 196.916 60.2284 198.36 58.8861C198.461 58.8047 198.543 58.703 198.624 58.6013C199.336 57.6658 199.702 56.5269 199.641 55.3473" fill="#313131"/>
<path d="M209.73 50.9537C209.974 50.2012 210.402 49.5503 211.012 49.0419C211.581 48.6148 212.272 48.3911 212.984 48.4114C213.411 48.4114 213.838 48.4724 214.245 48.5741C214.672 48.6758 215.059 48.8182 215.445 49.0216L214.367 51.5638C214.103 51.3808 213.838 51.2384 213.533 51.1571C213.208 51.0554 212.883 51.0147 212.537 51.0147C211.642 50.9537 210.808 51.4215 210.381 52.2146C209.873 53.4959 209.649 54.8585 209.73 56.2415V61.9971H206.721V48.8589H209.73V50.974V50.9537Z" fill="#313131"/>
<path d="M216.928 43.1836C216.928 42.6955 217.131 42.2074 217.477 41.8616C218.209 41.1295 219.409 41.1295 220.141 41.8616C220.873 42.5938 220.873 43.7937 220.141 44.5259C219.795 44.892 219.307 45.075 218.819 45.075C217.782 45.075 216.928 44.2208 216.928 43.1836ZM217.314 48.8578H220.324V61.9757H217.314V48.8578Z" fill="#313131"/>
<path d="M225.306 61.9788V51.4845H223.008V48.8609H225.306V43.8984H228.295V48.8609H230.593V51.4845H228.295V61.9788H225.306Z" fill="#313131"/>
<path d="M235.434 68.1631H232.343L235.943 60.8618L231.123 48.8828H234.438L236.838 55.6756C236.98 56.1027 237.102 56.5298 237.204 56.9569C237.305 57.384 237.387 57.8111 237.468 58.2586C237.692 57.5061 237.976 56.7739 238.322 56.0621L238.383 55.8994L241.616 48.9031H244.87L235.414 68.1834L235.434 68.1631Z" fill="#313131"/>
</g>
</g>
</svg>
