<svg id="Group_290" data-name="Group 290" xmlns="http://www.w3.org/2000/svg" xmlns:xlink="http://www.w3.org/1999/xlink" width="97.003" height="97.003" viewBox="0 0 97.003 97.003">
  <defs>
    <linearGradient id="linear-gradient" x1="4.417" y1="-5.516" x2="5.71" y2="-4.223" gradientUnits="objectBoundingBox">
      <stop offset="0.001" stop-color="#fbe18a"/>
      <stop offset="0.209" stop-color="#fcbb45"/>
      <stop offset="0.376" stop-color="#f75274"/>
      <stop offset="0.524" stop-color="#d53692"/>
      <stop offset="0.739" stop-color="#8f39ce"/>
      <stop offset="1" stop-color="#5b4fe9"/>
    </linearGradient>
  </defs>
  <rect id="Rectangle_3" data-name="Rectangle 3" width="97.002" height="97.003" rx="7.649" transform="translate(97.003 0) rotate(90)" fill="url(#linear-gradient)"/>
  <g id="Group_1" data-name="Group 1" transform="translate(20.067 20.067)">
    <path id="Path_3" data-name="Path 3" d="M98.676,68.713a3.335,3.335,0,1,0,3.334,3.334A3.334,3.334,0,0,0,98.676,68.713Z" transform="translate(-55.185 -58.559)" fill="#fff"/>
    <path id="Path_4" data-name="Path 4" d="M101.661,70a14,14,0,1,0,14.005,14A14.021,14.021,0,0,0,101.661,70Zm0,22.978a8.971,8.971,0,1,1,8.973-8.973A8.98,8.98,0,0,1,101.661,92.98Z" transform="translate(-72.994 -55.572)" fill="#fff"/>
    <path id="Path_5" data-name="Path 5" d="M123.022,122.521h-22.7a17.1,17.1,0,0,1-17.083-17.08V82.735a17.1,17.1,0,0,1,17.083-17.083h22.7a17.1,17.1,0,0,1,17.083,17.083v22.706A17.1,17.1,0,0,1,123.022,122.521ZM100.319,71A11.745,11.745,0,0,0,88.587,82.735v22.706a11.742,11.742,0,0,0,11.733,11.729h22.7a11.745,11.745,0,0,0,11.733-11.729V82.735A11.747,11.747,0,0,0,123.022,71Z" transform="translate(-83.236 -65.652)" fill="#fff"/>
  </g>
</svg>
