<svg xmlns="http://www.w3.org/2000/svg" xmlns:xlink="http://www.w3.org/1999/xlink" width="97.003" height="97.002" viewBox="0 0 97.003 97.002">
  <defs>
    <linearGradient id="linear-gradient" x1="1.775" y1="-5.007" x2="2.621" y2="-5.854" gradientUnits="objectBoundingBox">
      <stop offset="0" stop-color="#22004a"/>
      <stop offset="0.957" stop-color="#010003"/>
      <stop offset="1"/>
    </linearGradient>
  </defs>
  <g id="Group_304" data-name="Group 304" transform="translate(-616.547 -3176.302)">
    <rect id="Rectangle_5" data-name="Rectangle 5" width="97.002" height="97.003" rx="7.649" transform="translate(713.55 3176.302) rotate(90)" fill="url(#linear-gradient)"/>
    <g id="Group_5" data-name="Group 5" transform="translate(637.85 3193.72)">
      <path id="Path_10" data-name="Path 10" d="M203.094,85.324a24.133,24.133,0,0,0,14.081,4.5v-10.1a14.286,14.286,0,0,1-2.956-.309v7.951a24.15,24.15,0,0,1-14.085-4.5v20.609a18.682,18.682,0,0,1-29.075,15.511,18.679,18.679,0,0,0,32.034-13.05V85.324Zm3.649-10.19a14.055,14.055,0,0,1-3.649-8.24v-1.3h-2.8a14.145,14.145,0,0,0,6.452,9.54Zm-29.158,35.941a8.538,8.538,0,0,1,6.8-13.71,8.609,8.609,0,0,1,2.594.4V87.441a19.2,19.2,0,0,0-2.959-.169v8.037a8.541,8.541,0,0,0-6.435,15.766Z" transform="translate(-162.78 -63.136)" fill="#ee1d52" fill-rule="evenodd"/>
      <path id="Path_11" data-name="Path 11" d="M203.854,82.866a24.15,24.15,0,0,0,14.085,4.5V79.42a14.129,14.129,0,0,1-7.477-4.286,14.145,14.145,0,0,1-6.452-9.54h-7.361v40.343a8.545,8.545,0,0,1-15.345,5.138,8.542,8.542,0,0,1,6.435-15.766V87.272a18.665,18.665,0,0,0-12.96,31.715,18.682,18.682,0,0,0,29.075-15.511Z" transform="translate(-166.499 -63.136)" fill="#fff" fill-rule="evenodd"/>
      <path id="Path_12" data-name="Path 12" d="M220,81.137v-2.15a14.084,14.084,0,0,1-7.477-2.136A14.106,14.106,0,0,0,220,81.137ZM206.074,67.311c-.066-.385-.119-.77-.156-1.161v-1.3H195.755v40.34a8.545,8.545,0,0,1-12.386,7.6,8.545,8.545,0,0,0,15.345-5.138V67.311ZM189.8,88.989V86.7a18.382,18.382,0,0,0-2.561-.172,18.667,18.667,0,0,0-10.4,34.177A18.665,18.665,0,0,1,189.8,88.989Z" transform="translate(-168.564 -64.853)" fill="#69c9d0" fill-rule="evenodd"/>
    </g>
  </g>
</svg>
