<svg id="Group_291" data-name="Group 291" xmlns="http://www.w3.org/2000/svg" xmlns:xlink="http://www.w3.org/1999/xlink" width="97.003" height="97.002" viewBox="0 0 97.003 97.002">
  <defs>
    <linearGradient id="linear-gradient" x1="4.079" y1="-6.456" x2="4.925" y2="-5.61" gradientUnits="objectBoundingBox">
      <stop offset="0" stop-color="#3cf"/>
      <stop offset="1" stop-color="#337fff"/>
    </linearGradient>
  </defs>
  <rect id="Rectangle_2" data-name="Rectangle 2" width="97.002" height="97.003" rx="7.649" transform="translate(97.003 0) rotate(90)" fill="url(#linear-gradient)"/>
  <path id="Path_2" data-name="Path 2" d="M179.171,72.858a21.928,21.928,0,0,1-5.351,1.526c.859-.143,2.123-1.7,2.631-2.332a9.839,9.839,0,0,0,1.775-3.238c.046-.093.08-.209-.01-.279a.305.305,0,0,0-.285.023,27.321,27.321,0,0,1-6.342,2.428.423.423,0,0,1-.438-.116,5.3,5.3,0,0,0-.554-.567,11.219,11.219,0,0,0-3.072-1.881,10.706,10.706,0,0,0-4.714-.76,11.229,11.229,0,0,0-4.472,1.264,11.506,11.506,0,0,0-3.606,2.946,11.053,11.053,0,0,0-2.153,4.312,11.7,11.7,0,0,0-.116,4.554c.036.255.013.289-.219.255-8.711-1.3-15.932-4.415-21.794-11.093-.252-.292-.391-.292-.6.02-2.564,3.845-1.32,10.021,1.884,13.06.428.4.866.809,1.34,1.178a11.106,11.106,0,0,1-4.206-1.178c-.255-.163-.381-.07-.4.219a6.438,6.438,0,0,0,.07,1.247,11.175,11.175,0,0,0,6.886,8.91,6.473,6.473,0,0,0,1.4.428,12.425,12.425,0,0,1-4.123.126c-.3-.056-.415.093-.3.382,1.814,4.949,5.735,6.419,8.668,7.258.391.07.786.07,1.181.163-.027.033-.05.033-.07.07-.975,1.483-4.349,2.587-5.921,3.135a21.183,21.183,0,0,1-8.99,1.151c-.481-.07-.584-.066-.713,0-.133.083-.017.2.136.322.614.4,1.237.763,1.874,1.111a29.748,29.748,0,0,0,6.007,2.4c10.8,2.982,22.961.789,31.072-7.265,6.366-6.329,8.6-15.053,8.6-23.787,0-.342.4-.531.644-.71a21.11,21.11,0,0,0,4.229-4.4,1.35,1.35,0,0,0,.279-.843v-.046C179.387,72.719,179.383,72.762,179.171,72.858Z" transform="translate(-103.87 -40.976)" fill="#fff"/>
</svg>
