<svg width="98" height="98" viewBox="0 0 98 98" fill="none" xmlns="http://www.w3.org/2000/svg">
<g clip-path="url(#clip0_1092_2660)">
<mask id="mask0_1092_2660" style="mask-type:luminance" maskUnits="userSpaceOnUse" x="0" y="0" width="98" height="98">
<path d="M98 0H0V98H98V0Z" fill="white"/>
</mask>
<g mask="url(#mask0_1092_2660)">
<path d="M97.004 89.353V7.649C97.004 3.42457 93.5794 0 89.355 0H7.64998C3.42555 0 0.000976562 3.42457 0.000976562 7.649V89.353C0.000976562 93.5774 3.42555 97.002 7.64998 97.002H89.355C93.5794 97.002 97.004 93.5774 97.004 89.353Z" fill="black"/>
</g>
<path d="M28.2734 26.8066H29.8757V28.4089H28.2734V26.8066Z" fill="white"/>
<path d="M31.4775 26.8066H33.0798V28.4089H31.4775V26.8066Z" fill="white"/>
<path d="M34.6826 26.8066H36.2848V28.4089H34.6826V26.8066Z" fill="white"/>
<path d="M29.0745 44.4317H41.8923C42.1048 44.4317 42.3086 44.3473 42.4588 44.1971C42.6091 44.0468 42.6935 43.8431 42.6935 43.6306V35.6195C42.6935 35.407 42.6091 35.2032 42.4588 35.053C42.3086 34.9028 42.1048 34.8184 41.8923 34.8184H29.0745C28.8621 34.8184 28.6583 34.9028 28.5081 35.053C28.3578 35.2032 28.2734 35.407 28.2734 35.6195V43.6306C28.2734 43.8431 28.3578 44.0468 28.5081 44.1971C28.6583 44.3473 28.8621 44.4317 29.0745 44.4317ZM29.8757 36.4206H41.0912V42.8295H29.8757V36.4206Z" fill="white"/>
<path d="M49.1025 35.6191H61.9203V37.2214H49.1025V35.6191Z" fill="white"/>
<path d="M45.8975 38.8232H60.3175V40.4255H45.8975V38.8232Z" fill="white"/>
<path d="M45.8975 42.0283H57.113V43.6305H45.8975V42.0283Z" fill="white"/>
<path d="M31.4775 47.6357H52.3065V49.238H31.4775V47.6357Z" fill="white"/>
<path d="M28.2734 50.8408H49.1024V52.443H28.2734V50.8408Z" fill="white"/>
<path d="M28.2734 54.0449H45.8979V55.6471H28.2734V54.0449Z" fill="white"/>
<path d="M28.2734 57.249H45.8979V58.8512H28.2734V57.249Z" fill="white"/>
<path d="M28.2734 60.4541H45.8979V62.0563H28.2734V60.4541Z" fill="white"/>
<path d="M28.2734 47.6357H29.8757V49.238H28.2734V47.6357Z" fill="white"/>
<path d="M67.528 28.4092H66.7269V27.6081C66.7269 26.5458 66.3048 25.5269 65.5537 24.7757C64.8025 24.0246 63.7836 23.6025 62.7213 23.6025H27.4724C26.41 23.6025 25.3912 24.0246 24.64 24.7757C23.8888 25.5269 23.4668 26.5458 23.4668 27.6081V62.857C23.4668 63.9194 23.8888 64.9382 24.64 65.6894C25.3912 66.4406 26.41 66.8626 27.4724 66.8626H28.2735V67.6637C28.2735 68.7261 28.6955 69.7449 29.4467 70.4961C30.1979 71.2473 31.2167 71.6693 32.279 71.6693H67.528C68.5903 71.6693 69.6091 71.2473 70.3603 70.4961C71.1115 69.7449 71.5335 68.7261 71.5335 67.6637V32.4148C71.5335 31.3524 71.1115 30.3336 70.3603 29.5824C69.6091 28.8312 68.5903 28.4092 67.528 28.4092ZM66.094 40.8585L69.4987 44.2632L67.2316 46.5304L63.8268 43.1256L66.094 40.8585ZM51.6099 56.9689L52.2427 55.3266L55.0306 58.1145L53.3883 58.7473L51.6099 56.9689ZM51.7541 59.3722L50.4963 59.8609L50.985 58.6031L51.7541 59.3722ZM54.1975 55.0222L53.0679 53.8926L62.6973 44.2632L63.8268 45.3928L54.1975 55.0222ZM64.9644 46.5304L66.094 47.6599L56.4646 57.2893L55.335 56.1597L64.9644 46.5304ZM25.069 27.6081C25.0709 26.9713 25.3247 26.3611 25.775 25.9108C26.2253 25.4605 26.8355 25.2067 27.4724 25.2048H62.7213C63.3581 25.2067 63.9683 25.4605 64.4186 25.9108C64.8689 26.3611 65.1227 26.9713 65.1246 27.6081V30.0114H25.069V27.6081ZM27.4724 65.2604C26.8355 65.2585 26.2253 65.0047 25.775 64.5544C25.3247 64.1041 25.0709 63.4939 25.069 62.857V31.6137H65.1246V39.5687L51.3695 53.3238C51.2893 53.4034 51.2265 53.4989 51.1853 53.6042L48.3574 60.9664C48.2992 61.1108 48.2849 61.2691 48.3162 61.4216C48.3476 61.5741 48.4232 61.7139 48.5336 61.8236C48.6851 61.973 48.8896 62.0565 49.1024 62.0559C49.2013 62.0567 49.2994 62.0377 49.3908 61.9999L56.753 59.1719C56.8583 59.1307 56.9538 59.0679 57.0334 58.9877L65.1246 50.8964V62.857C65.1227 63.4939 64.8689 64.1041 64.4186 64.5544C63.9683 65.0047 63.3581 65.2585 62.7213 65.2604H27.4724ZM69.9313 67.6637C69.9294 68.3005 69.6756 68.9107 69.2253 69.361C68.775 69.8113 68.1648 70.0652 67.528 70.0671H32.279C31.6422 70.0652 31.032 69.8113 30.5817 69.361C30.1314 68.9107 29.8776 68.3005 29.8757 67.6637V66.8626H62.7213C63.7836 66.8626 64.8025 66.4406 65.5537 65.6894C66.3048 64.9382 66.7269 63.9194 66.7269 62.857V49.2942L69.9313 46.0898V67.6637ZM69.9313 42.4287L66.7269 39.2242V36.4203H69.9313V42.4287ZM69.9313 34.8181H66.7269V30.0114H67.528C68.1648 30.0133 68.775 30.2672 69.2253 30.7175C69.6756 31.1678 69.9294 31.778 69.9313 32.4148V34.8181Z" fill="white"/>
<path d="M45.8975 35.6191H47.4997V37.2214H45.8975V35.6191Z" fill="white"/>
</g>
<defs>
<clipPath id="clip0_1092_2660">
<rect width="98" height="98" fill="white"/>
</clipPath>
</defs>
</svg>
