<svg width="98" height="98" viewBox="0 0 98 98" fill="none" xmlns="http://www.w3.org/2000/svg">
<g clip-path="url(#clip0_1092_2678)">
<mask id="mask0_1092_2678" style="mask-type:luminance" maskUnits="userSpaceOnUse" x="0" y="0" width="98" height="98">
<path d="M98 0H0V98H98V0Z" fill="white"/>
</mask>
<g mask="url(#mask0_1092_2678)">
<path d="M97.004 89.353V7.649C97.004 3.42457 93.5794 0 89.355 0H7.64998C3.42555 0 0.000976562 3.42457 0.000976562 7.649V89.353C0.000976562 93.5774 3.42555 97.002 7.64998 97.002H89.355C93.5794 97.002 97.004 93.5774 97.004 89.353Z" fill="black"/>
</g>
<path d="M48.9998 39.443H49C49.8737 39.4429 50.583 38.7589 50.6145 37.8856L50.8255 32.0445C50.8415 31.5957 50.6851 31.1878 50.3736 30.8649C50.062 30.5417 49.6597 30.3709 49.2108 30.3709H48.7889C48.3398 30.3709 47.9377 30.5418 47.6261 30.8649C47.3145 31.188 47.1583 31.5959 47.1743 32.0448L47.3852 37.8857C47.4168 38.759 48.1259 39.443 48.9998 39.443ZM48.7369 31.9668C48.7371 31.9665 48.74 31.9606 48.7508 31.9494C48.7614 31.9385 48.7672 31.9353 48.7671 31.9353C48.7674 31.9352 48.7737 31.9332 48.789 31.9332H49.2109C49.2258 31.9332 49.2323 31.9351 49.2324 31.9351C49.2328 31.9353 49.2385 31.9385 49.2493 31.9496C49.2597 31.9604 49.2629 31.9662 49.2629 31.9662C49.263 31.9666 49.2647 31.973 49.2641 31.9883L49.0532 37.8291C49.0522 37.8574 49.0284 37.8804 49.0001 37.8804H49C48.9717 37.8804 48.9479 37.8574 48.9469 37.8292L48.736 31.9886C48.7352 31.9732 48.737 31.9668 48.7369 31.9668ZM48.9999 39.7887C47.9797 39.7887 47.1497 40.6187 47.1497 41.6389C47.1497 42.6591 47.9797 43.4891 48.9999 43.4891C50.0201 43.4891 50.8501 42.6591 50.8501 41.6389C50.8501 40.6187 50.0201 39.7887 48.9999 39.7887ZM48.9999 41.9266C48.8412 41.9266 48.7122 41.7976 48.7122 41.6389C48.7122 41.4802 48.8412 41.3512 48.9999 41.3512C49.1586 41.3512 49.2876 41.4802 49.2876 41.6389C49.2876 41.7976 49.1586 41.9266 48.9999 41.9266ZM72.8167 65.5177C72.2161 62.1046 69.8184 59.4076 66.6957 58.3199C67.926 57.3852 68.7224 55.9073 68.7224 54.2464C68.7224 51.4266 66.4284 49.1325 63.6086 49.1325C60.7888 49.1325 58.4948 51.4266 58.4948 54.2464C58.4948 55.9072 59.2911 57.3851 60.5214 58.3198C59.5464 58.6604 58.631 59.1633 57.8104 59.8137C57.4947 59.4471 57.1553 59.0979 56.7924 58.7697C55.5293 57.6274 54.0469 56.7886 52.4506 56.2928C54.1434 55.1705 55.2626 53.2489 55.2626 51.0701C55.2626 50.0806 55.0313 49.1441 54.6209 48.3112C54.8618 48.192 55.0994 48.0657 55.3322 47.9314L57.8055 49.7223C57.943 49.8219 58.1037 49.8707 58.2634 49.8707C58.4647 49.8707 58.6647 49.7932 58.8161 49.6419L61.7119 46.7461C61.9832 46.4747 62.0174 46.0464 61.7922 45.7355L60.0015 43.2623C60.5517 42.3087 60.9727 41.2929 61.2577 40.2314L64.2718 39.749C64.6508 39.6884 64.9296 39.3614 64.9296 38.9776V34.8822C64.9296 34.4984 64.6508 34.1715 64.2718 34.1108L61.2577 33.6284C60.9726 32.5665 60.5516 31.5508 60.0015 30.5976L61.7922 28.1243C62.0174 27.8135 61.9832 27.3852 61.7119 27.1138L58.8161 24.218C58.5445 23.9465 58.1161 23.9127 57.8054 24.1376L55.3323 25.9282C54.3788 25.378 53.3632 24.9571 52.3014 24.6721L51.8189 21.6578C51.7583 21.2787 51.4312 21 51.0475 21H46.9522C46.5684 21 46.2415 21.2787 46.1808 21.6577L45.6983 24.6719C44.6365 24.9569 43.6208 25.3779 42.6674 25.928L40.1942 24.1375C39.8835 23.9125 39.4552 23.9464 39.1836 24.2179L36.2878 27.1137C36.0165 27.3851 35.9823 27.8134 36.2075 28.1243L37.9981 30.5975C37.4479 31.5511 37.0269 32.5669 36.7419 33.6283L33.7278 34.1107C33.3488 34.1714 33.0701 34.4983 33.0701 34.8821V38.9775C33.0701 39.3613 33.3488 39.6883 33.7278 39.7489L36.742 40.2313C37.027 41.2933 37.448 42.309 37.9981 43.2622L36.2075 45.7354C35.9823 46.0463 36.0165 46.4746 36.2878 46.746L39.1836 49.6418C39.4551 49.9133 39.8835 49.9471 40.1942 49.7222L42.6675 47.9313C42.9005 48.0656 43.1381 48.192 43.3792 48.3112C42.9687 49.1441 42.7374 50.0805 42.7374 51.07C42.7374 53.2488 43.8564 55.1704 45.5493 56.2927C43.9528 56.7884 42.4705 57.6273 41.2074 58.7696C40.8444 59.0979 40.505 59.447 40.1893 59.8136C39.3687 59.1632 38.4534 58.6604 37.4784 58.3197C38.7088 57.385 39.5051 55.9071 39.5051 54.2462C39.5051 51.4264 37.2111 49.1323 34.3914 49.1323C31.5715 49.1323 29.2775 51.4264 29.2775 54.2462C29.2775 55.907 30.0738 57.3849 31.3042 58.3196C28.1814 59.4073 25.7837 62.1044 25.1831 65.5178C25.1171 65.8935 25.2158 66.2613 25.4612 66.5537C25.7066 66.8461 26.0519 67.007 26.4336 67.007H37.4401V67.3214C37.4401 69.3497 39.0902 70.9998 41.1185 70.9998H56.8812C58.9096 70.9998 60.5597 69.3497 60.5597 67.3214V67.007H71.5662C71.9479 67.007 72.2932 66.846 72.5385 66.5536C72.784 66.2616 72.8828 65.8937 72.8167 65.5177ZM60.0573 54.2464C60.0573 52.2882 61.6504 50.695 63.6086 50.695C65.5669 50.695 67.1599 52.2881 67.1599 54.2464C67.1599 56.2043 65.5673 57.7972 63.6095 57.7977C63.6092 57.7977 63.6089 57.7977 63.6085 57.7977C63.6082 57.7977 63.6079 57.7977 63.6076 57.7977C61.6498 57.7972 60.0573 56.2043 60.0573 54.2464ZM43.047 46.3354C42.7768 46.1642 42.4295 46.1748 42.1705 46.3624L39.8173 48.0661L37.8636 46.1123L39.5673 43.7592C39.7549 43.5001 39.7656 43.1527 39.5941 42.8825C38.908 41.8008 38.4182 40.6193 38.1388 39.3712C38.0689 39.059 37.8158 38.821 37.5 38.7704L34.6324 38.3114V35.5483L37.5 35.0894C37.8158 35.0388 38.069 34.8007 38.1388 34.4886C38.418 33.241 38.9077 32.0596 39.5942 30.9771C39.7656 30.707 39.7549 30.3597 39.5673 30.1005L37.8636 27.7475L39.8174 25.7937L42.1705 27.4974C42.4297 27.685 42.777 27.6955 43.0471 27.5242C44.1289 26.838 45.3103 26.3483 46.5586 26.0689C46.8707 25.9991 47.1088 25.7459 47.1592 25.4301L47.6184 22.5625H50.3814L50.8405 25.4302C50.8911 25.746 51.1291 25.9991 51.4412 26.069C52.6891 26.3484 53.8706 26.8381 54.9526 27.5244C55.2229 27.6956 55.5699 27.6852 55.8293 27.4975L58.1823 25.7938L60.1361 27.7476L58.4324 30.1006C58.2447 30.3597 58.234 30.707 58.4055 30.9772C59.0917 32.059 59.5814 33.2403 59.8608 34.4886C59.9307 34.8008 60.1839 35.0388 60.4997 35.0894L63.3673 35.5483V38.3114L60.4997 38.7704C60.1839 38.821 59.9306 39.0591 59.8608 39.3712C59.5816 40.6188 59.092 41.8002 58.4054 42.8826C58.234 43.1527 58.2447 43.5001 58.4324 43.7592L60.136 46.1123L58.1823 48.0661L55.8292 46.3624C55.57 46.1748 55.2227 46.1641 54.9525 46.3355C54.5668 46.5802 54.1637 46.8002 53.7504 46.9956C53.3437 46.5223 52.8686 46.1096 52.3392 45.7745C55.9094 44.422 58.4549 40.9683 58.4549 36.93C58.4549 31.7164 54.2133 27.4748 48.9999 27.4748C43.7864 27.4748 39.5448 31.7164 39.5448 36.93C39.5448 40.9685 42.0905 44.4223 45.6609 45.7747C45.1314 46.1098 44.656 46.5223 44.2494 46.9957C43.836 46.8001 43.4329 46.5802 43.047 46.3354ZM48.9999 44.8226C44.6479 44.8226 41.1073 41.2819 41.1073 36.93C41.1073 32.5779 44.6479 29.0373 48.9999 29.0373C53.3518 29.0373 56.8924 32.5779 56.8924 36.93C56.8924 41.2819 53.3518 44.8226 48.9999 44.8226ZM44.2999 51.0702C44.2999 48.4786 46.4084 46.3702 49 46.3702C51.5916 46.3702 53.7001 48.4786 53.7001 51.0702C53.7001 53.661 51.5929 55.7688 49.0025 55.7702C49.0016 55.7702 49.0006 55.7702 48.9999 55.7702C48.9991 55.7702 48.9982 55.7702 48.9973 55.7702C46.4069 55.7687 44.2999 53.6609 44.2999 51.0702ZM30.84 54.2464C30.84 52.2882 32.4331 50.695 34.3914 50.695C36.3496 50.695 37.9426 52.2881 37.9426 54.2464C37.9426 56.2043 36.35 57.7972 34.3923 57.7977C34.392 57.7977 34.3916 57.7977 34.3913 57.7977C34.391 57.7977 34.3907 57.7977 34.3903 57.7977C32.4326 57.7972 30.84 56.2043 30.84 54.2464ZM37.5416 65.4447H26.7904C27.5779 61.8986 30.7198 59.3605 34.3904 59.3602H34.3915H34.3924C36.1734 59.3604 37.8743 59.962 39.2508 61.0644C38.3909 62.3871 37.8067 63.8755 37.5416 65.4447ZM58.9972 67.3216C58.9972 68.4883 58.048 69.4375 56.8812 69.4375H41.1185C39.9518 69.4375 39.0026 68.4883 39.0026 67.3216V66.2685C39.5682 61.172 43.8577 57.334 48.9973 57.3327C48.9982 57.3327 48.9991 57.3328 49 57.3328C49.0008 57.3328 49.0017 57.3327 49.0025 57.3327C54.1421 57.3341 58.4314 61.172 58.9972 66.2685V67.3216ZM60.4583 65.4447C60.193 63.8755 59.6088 62.3871 58.7489 61.0645C60.1255 59.9621 61.8263 59.3604 63.6075 59.3603H63.6085C63.6085 59.3603 63.6091 59.3603 63.6094 59.3603C67.2799 59.3607 70.4218 61.8989 71.2093 65.4447H60.4583Z" fill="white"/>
</g>
<defs>
<clipPath id="clip0_1092_2678">
<rect width="98" height="98" fill="white"/>
</clipPath>
</defs>
</svg>
