<svg width="98" height="98" viewBox="0 0 98 98" fill="none" xmlns="http://www.w3.org/2000/svg">
<g clip-path="url(#clip0_1092_2757)">
<mask id="mask0_1092_2757" style="mask-type:luminance" maskUnits="userSpaceOnUse" x="0" y="0" width="98" height="98">
<path d="M98 0H0V98H98V0Z" fill="white"/>
</mask>
<g mask="url(#mask0_1092_2757)">
<path d="M97.004 89.353V7.649C97.004 3.42457 93.5794 0 89.355 0H7.64998C3.42555 0 0.000976562 3.42457 0.000976562 7.649V89.353C0.000976562 93.5774 3.42555 97.002 7.64998 97.002H89.355C93.5794 97.002 97.004 93.5774 97.004 89.353Z" fill="black"/>
</g>
<g clip-path="url(#clip1_1092_2757)">
<path d="M34.7998 29.0833V31.5333H53.5831V29.9H36.4331V29.0833C36.4331 27.7303 37.5301 26.6333 38.8831 26.6333H54.3998V25H38.8831C36.6289 25.0028 34.8026 26.8291 34.7998 29.0833Z" fill="white"/>
<path d="M34.7998 42.9668V69.9168C34.8026 72.171 36.6289 73.9973 38.8831 74.0001H56.8498V72.3668H38.8831C37.5301 72.3668 36.4331 71.2698 36.4331 69.9168V67.4668H55.2165V65.8335H36.4331V42.9668H34.7998Z" fill="white"/>
<path d="M62.5668 46.2334V56.5119L57.0192 50.9643C55.5729 49.518 53.2273 49.518 51.781 50.9643C50.3347 52.4106 50.3347 54.7562 51.781 56.2025L58.2817 62.7031L57.9192 63.3375C56.2268 66.2732 56.4489 69.9355 58.4834 72.6451V74.0001H60.1168V72.3667C60.1168 72.1813 60.0538 72.0011 59.9377 71.8563C58.1656 69.6575 57.9268 66.5954 59.3368 64.1486L60.0091 62.9719C60.1905 62.6529 60.1367 62.2517 59.8775 61.9917L52.9358 55.0501C52.1487 54.2378 52.1591 52.9442 52.9586 52.1447C53.7585 51.3447 55.0521 51.3344 55.8644 52.1215L64.4394 60.6965L65.5942 59.5417L64.2001 58.1452V46.2334H62.5668Z" fill="white"/>
<path d="M48.6836 69.0996H50.3169V70.7329H48.6836V69.0996Z" fill="white"/>
<path d="M69.9163 74.0005V57.703C69.9183 55.5353 69.1351 53.4398 67.7111 51.8049L66.4618 50.3008L65.2041 51.3435L66.4642 52.8636C67.6366 54.2031 68.283 55.9229 68.283 57.703V74.0005H69.9163Z" fill="white"/>
<path d="M51.9502 45.417H53.5835V48.6837H51.9502V45.417Z" fill="white"/>
<path d="M31.0199 31.715C30.8281 31.8701 30.7168 32.1033 30.7168 32.3502V40.5168C30.7168 40.9678 31.0825 41.3335 31.5335 41.3335C31.5721 41.3335 31.6112 41.3307 31.6495 41.3255L38.8835 40.2915V43.7835C38.8835 45.1365 39.9805 46.2335 41.3335 46.2335H45.4168V63.3835C45.4168 63.8345 45.7825 64.2002 46.2335 64.2002H52.7668C53.2178 64.2002 53.5835 63.8345 53.5835 63.3835V59.3002H51.9501V62.5669H50.3168V56.0335H48.6835V62.5669H47.0501V45.4168C47.0501 44.9658 46.6845 44.6002 46.2335 44.6002H41.3335C40.8825 44.6002 40.5168 44.2345 40.5168 43.7835V40.0587L42.1501 39.825V42.1502C42.1501 42.6012 42.5158 42.9668 42.9668 42.9668H52.7668C54.1198 42.9668 55.2168 44.0638 55.2168 45.4168V48.6835H56.8501V45.4168C56.8473 43.1626 55.021 41.3363 52.7668 41.3335H52.7457C53.286 40.6309 53.5803 39.77 53.5835 38.8835V37.2502C53.5835 34.9952 51.7551 33.1668 49.5001 33.1668C47.2451 33.1668 45.4168 34.9952 45.4168 37.2502V38.8835C45.42 39.77 45.7143 40.6309 46.2546 41.3335H43.7835V34.8002C43.7835 34.415 43.5147 34.0824 43.1383 34.0015L31.7049 31.5515C31.4637 31.4996 31.2117 31.5594 31.0199 31.715ZM47.0501 38.8835V37.2502C47.0501 35.8972 48.1471 34.8002 49.5001 34.8002C50.8531 34.8002 51.9501 35.8972 51.9501 37.2502V38.8835C51.9501 40.2365 50.8531 41.3335 49.5001 41.3335C48.1471 41.3335 47.0501 40.2365 47.0501 38.8835ZM32.3501 33.3602L42.1501 35.4609V38.1753L32.3501 39.5754V33.3602Z" fill="white"/>
<path d="M25.6182 33.1423L26.0137 31.5576L29.2804 32.3731L28.8848 33.9578L25.6182 33.1423Z" fill="white"/>
<path d="M25.6182 39.7237L28.8848 38.9082L29.2804 40.4929L26.0137 41.3084L25.6182 39.7237Z" fill="white"/>
<path d="M25 35.6162H28.2667V37.2495H25V35.6162Z" fill="white"/>
<path d="M69.9165 25H60.1165C57.8623 25.0028 56.036 26.8291 56.0332 29.0833V37.25C56.036 39.5042 57.8623 41.3305 60.1165 41.3333H60.7534L60.1329 44.4365C60.0691 44.7563 60.2015 45.0829 60.4694 45.2683C60.7374 45.4534 61.0895 45.4617 61.3659 45.2895L67.701 41.3333H69.9165C72.1707 41.3305 73.9971 39.5042 73.9999 37.25V29.0833C73.9971 26.8291 72.1707 25.0028 69.9165 25ZM72.3665 37.25C72.3665 38.603 71.2695 39.7 69.9165 39.7H67.4665C67.3134 39.7 67.1635 39.7431 67.0339 39.824L62.1052 42.9045L62.5502 40.6802C62.5992 40.4397 62.5378 40.1901 62.3827 40.0003C62.2276 39.8101 61.9951 39.7 61.7499 39.7H60.1165C58.7635 39.7 57.6665 38.603 57.6665 37.25V29.0833C57.6665 27.7303 58.7635 26.6333 60.1165 26.6333H69.9165C71.2695 26.6333 72.3665 27.7303 72.3665 29.0833V37.25Z" fill="white"/>
<path d="M69.9164 30.7169H67.0868L65.6983 28.6302C65.538 28.416 65.2863 28.29 65.0188 28.29C64.7512 28.29 64.4996 28.416 64.3393 28.6302L62.946 30.7169H60.1164C59.7862 30.7169 59.4883 30.9159 59.3619 31.2209C59.2355 31.526 59.3057 31.8773 59.539 32.111L61.6624 34.2344L60.9574 37.0517C60.8776 37.3619 60.9865 37.6901 61.2357 37.8911C61.4849 38.092 61.8287 38.1287 62.1146 37.9852L65.0164 36.5301L67.9182 37.9852C68.2033 38.1279 68.5458 38.0912 68.7947 37.8915C69.0431 37.6917 69.1528 37.3655 69.0754 37.056L68.3704 34.2384L70.4938 32.115C70.7303 31.8817 70.802 31.5288 70.6752 31.2217C70.5484 30.9151 70.2486 30.7153 69.9164 30.7169ZM66.889 33.4062C66.686 33.6091 66.6047 33.9038 66.674 34.1822L67.0604 35.7254L65.3813 34.886C65.1516 34.7711 64.8812 34.7711 64.6515 34.886L62.9747 35.7254L63.3611 34.1822C63.4305 33.9038 63.3492 33.6091 63.1462 33.4062L62.0879 32.3502H63.3831C63.6562 32.3502 63.911 32.2139 64.0625 31.987L65.0164 30.5534L65.9702 31.9842C66.1214 32.2123 66.3762 32.3498 66.6497 32.3502H67.9449L66.889 33.4062Z" fill="white"/>
</g>
</g>
<defs>
<clipPath id="clip0_1092_2757">
<rect width="98" height="98" fill="white"/>
</clipPath>
<clipPath id="clip1_1092_2757">
<rect width="49" height="49" fill="white" transform="translate(25 25)"/>
</clipPath>
</defs>
</svg>
