<svg width="98" height="98" viewBox="0 0 98 98" fill="none" xmlns="http://www.w3.org/2000/svg">
<g clip-path="url(#clip0_1092_2804)">
<mask id="mask0_1092_2804" style="mask-type:luminance" maskUnits="userSpaceOnUse" x="0" y="0" width="98" height="98">
<path d="M98 0H0V98H98V0Z" fill="white"/>
</mask>
<g mask="url(#mask0_1092_2804)">
<path d="M97.004 89.353V7.649C97.004 3.42457 93.5794 0 89.355 0H7.64998C3.42555 0 0.000976562 3.42457 0.000976562 7.649V89.353C0.000976562 93.5774 3.42555 97.002 7.64998 97.002H89.355C93.5794 97.002 97.004 93.5774 97.004 89.353Z" fill="black"/>
</g>
<path d="M48.8346 54.8092C48.8241 54.8092 48.8135 54.8103 48.803 54.8103C48.4676 54.8103 48.1881 54.5466 48.1712 54.208C48.1544 53.8589 48.4233 53.5626 48.7724 53.5457C55.7566 53.2071 60.8307 49.7604 64.6465 42.7341L63.7374 43.0357C63.4051 43.1454 63.0476 42.9661 62.9369 42.635C62.8272 42.3038 63.0065 41.9452 63.3376 41.8345L65.7223 41.0424C65.8815 40.9896 66.0556 41.0023 66.2053 41.0772C66.3551 41.1521 66.469 41.2839 66.5217 41.4432L67.3138 43.8278C67.4235 44.159 67.2442 44.5176 66.913 44.6283C66.8466 44.6505 66.7791 44.661 66.7137 44.661C66.449 44.661 66.2011 44.4933 66.1136 44.2275L65.7961 43.272C61.7514 50.7687 56.3314 54.4454 48.8346 54.8092ZM74.4182 25.6387V59.8105V61.7564C74.4182 62.4241 73.875 62.9672 73.2074 62.9672H71.8437C71.7424 63.2678 71.6201 63.5642 71.4777 63.85L72.4428 64.815C72.9153 65.2875 72.9153 66.0554 72.4428 66.5279L71.0664 67.9042C70.5939 68.3767 69.8261 68.3767 69.3536 67.9042L68.3885 66.9392C68.1027 67.0816 67.8064 67.205 67.5058 67.3052V68.6689C67.5058 69.3365 66.9626 69.8796 66.295 69.8796H64.3491C63.6815 69.8796 63.1383 69.3365 63.1383 68.6689V67.3052C62.8367 67.2039 62.5403 67.0816 62.2555 66.9392L61.2905 67.9042C60.818 68.3767 60.0502 68.3767 59.5777 67.9042L58.2013 66.5289C57.7288 66.0564 57.7288 65.2886 58.2013 64.8161L59.1664 63.8511C59.024 63.5663 58.9016 63.2699 58.8004 62.9683H57.4377C56.7701 62.9683 56.2269 62.4251 56.2269 61.7575V61.4179H52.487C52.5071 61.5719 52.5187 61.728 52.5187 61.8872V64.4913L54.3412 64.447C55.1691 64.428 55.9242 64.7222 56.518 65.3023C57.1118 65.8824 57.4261 66.628 57.4261 67.4581V70.0273C57.4261 71.5429 56.5507 73.3475 54.878 73.8643C53.6103 74.2555 52.391 74.4159 51.2256 74.4159C49.2323 74.4159 47.396 73.9497 45.7412 73.378C45.6642 73.6407 45.4217 73.8337 45.1337 73.8337H41.089C40.7399 73.8337 40.4562 73.55 40.4562 73.2009V64.5155C40.4562 64.1664 40.7399 63.8827 41.089 63.8827H45.1337C45.4322 63.8827 45.6822 64.0894 45.7486 64.3679C46.7316 64.3004 47.3939 64.0641 47.7177 63.6612C48.1407 63.1349 48.0099 62.2553 47.8337 61.4189H40.0312L40.2621 62.2806C40.394 62.7721 40.3254 63.2868 40.0702 63.7298C39.8139 64.1727 39.4026 64.4891 38.9111 64.621C38.7476 64.6653 38.581 64.6864 38.4154 64.6864C38.0842 64.6864 37.7562 64.5988 37.4609 64.429C37.1645 64.2582 36.9262 64.0156 36.7606 63.7277C35.4939 62.9008 31.8869 61.9853 31.061 62.1899L30.3871 62.3703L32.1769 65.2274C32.6346 65.9583 32.4743 66.8748 31.8035 67.3589C31.5293 67.5562 31.2129 67.6511 30.8986 67.6511C30.4166 67.6511 29.941 67.4275 29.6383 67.0077L26.8687 63.1645C26.412 63.1455 25.9658 63.0252 25.5587 62.8048C24.8637 62.4283 24.3712 61.8123 24.1718 61.0677L23.6761 59.2168C23.2669 57.6906 24.2309 56.1023 25.8235 55.6751L26.046 55.615V25.6387C26.046 24.5049 26.9689 23.582 28.1026 23.582H72.3616C73.4953 23.582 74.4182 24.5049 74.4182 25.6387ZM27.3116 25.6387V31.8466H73.1526V25.6387C73.1526 25.2031 72.7982 24.8477 72.3616 24.8477H28.1026C27.6671 24.8477 27.3116 25.202 27.3116 25.6387ZM26.161 61.6921C26.5586 61.9073 27.0248 61.9589 27.4751 61.8387L30.1319 61.1268L29.4927 58.74L28.7481 56.2025L26.1515 56.8986C25.2328 57.1443 24.6707 58.0376 24.8985 58.8898L25.3942 60.7408C25.5028 61.1458 25.7749 61.4833 26.161 61.6921ZM29.1099 62.7109L28.2651 62.9377L30.6655 66.2663C30.7562 66.3918 30.9387 66.4213 31.0642 66.3306C31.2045 66.2294 31.1897 66.0321 31.1053 65.8982L29.1099 62.7109ZM30.713 58.4057L31.3817 60.9011C32.6389 60.9106 34.7503 61.4548 36.249 62.0697L33.625 52.2769C32.622 53.5636 31.0326 55.1193 29.9399 55.769L30.7088 58.3909C30.7098 58.3962 30.7119 58.4004 30.713 58.4057ZM39.0398 62.6055L35.7407 50.2941C35.6637 50.0062 35.4021 49.8153 35.1163 49.8153C35.0615 49.8153 35.0056 49.8227 34.9497 49.8374C34.7841 49.8817 34.6459 49.9893 34.5584 50.1391C34.4719 50.2888 34.4487 50.4629 34.493 50.6284L37.7921 62.9398C37.8364 63.1054 37.9439 63.2436 38.0937 63.3311C38.2445 63.4176 38.4175 63.4408 38.5831 63.3965C38.7487 63.3522 38.8868 63.2446 38.9744 63.0948C39.0608 62.9451 39.084 62.7711 39.0398 62.6055ZM39.836 57.3457C40.1187 56.8553 40.1946 56.2847 40.048 55.7384C39.8023 54.8229 38.9902 54.208 38.0895 54.1701L39.1357 58.0756C39.4226 57.8952 39.662 57.6474 39.836 57.3457ZM44.5009 65.1462H41.7218V72.5659H44.5009V65.1462ZM51.9006 65.7706C51.7287 65.7759 51.5652 65.7094 51.4429 65.5913C51.3205 65.4721 51.252 65.3086 51.252 65.1388V61.8872C51.252 60.6174 50.2194 59.5848 48.9496 59.5848C48.8895 59.5848 48.8494 59.5901 48.8251 59.5943C48.7766 59.8042 48.9085 60.4086 48.9981 60.8167C49.2491 61.9611 49.5613 63.3849 48.7028 64.4522C48.1354 65.1578 47.1703 65.547 45.7655 65.6335V72.0439C48.3811 72.9889 51.2467 73.6607 54.5036 72.6545C55.5403 72.3339 56.1594 71.0672 56.1594 70.0273V67.457C56.1594 66.9613 55.9875 66.5532 55.6332 66.2072C55.2788 65.8613 54.8653 65.6968 54.3707 65.7105L51.9006 65.7706ZM57.4377 58.5998H58.8014C58.9027 58.2981 59.025 58.0018 59.1674 57.717L58.2024 56.752C57.9735 56.5231 57.848 56.2193 57.848 55.8955C57.848 55.5718 57.9735 55.268 58.2024 55.0391L59.5787 53.6628C60.0512 53.1903 60.8191 53.1903 61.2916 53.6628L62.2566 54.6278C62.5414 54.4854 62.8377 54.3631 63.1394 54.2618V52.8981C63.1394 52.2305 63.6825 51.6873 64.3501 51.6873H66.296C66.9637 51.6873 67.5068 52.2305 67.5068 52.8981V54.2618C67.8085 54.3631 68.1048 54.4854 68.3896 54.6278L69.3546 53.6628C69.8271 53.1903 70.5949 53.1903 71.0674 53.6628L72.4438 55.0391C72.6727 55.267 72.7982 55.5718 72.7982 55.8955C72.7982 56.2193 72.6727 56.5241 72.4438 56.752L71.4788 57.717C71.6212 58.0018 71.7435 58.2981 71.8448 58.5998H73.1526V33.1122H27.3116V55.2775L29.0076 54.8229C29.8081 54.593 32.4954 51.9911 33.2158 50.6453C33.1778 50.2519 33.2601 49.8575 33.4626 49.5073C33.7189 49.0643 34.1302 48.7479 34.6217 48.6161C35.1131 48.4843 35.6289 48.5528 36.0719 48.808C36.5148 49.0643 36.8312 49.4757 36.9631 49.9671L37.752 52.9118C39.3403 52.7948 40.8422 53.8168 41.2694 55.4104C41.5035 56.2837 41.3833 57.1949 40.9308 57.9786C40.5859 58.5755 40.0797 59.0417 39.4722 59.3338L39.6916 60.1512H47.5827C47.5131 59.6165 47.5437 59.1503 47.8401 58.7812C48.0869 58.4732 48.4602 58.3182 48.9496 58.3182C50.2869 58.3182 51.4545 59.0586 52.0651 60.1512H56.2248V59.8105C56.2259 59.1429 56.769 58.5998 57.4377 58.5998ZM73.1526 59.8654H71.8036C71.2794 59.8654 70.8164 59.5311 70.653 59.0322C70.5654 58.7664 70.4568 58.5038 70.3302 58.2538C70.0929 57.7855 70.1826 57.2213 70.5538 56.85L71.5083 55.8955L70.21 54.5972L69.2555 55.5517C68.8842 55.923 68.32 56.0126 67.8517 55.7764C67.6017 55.6498 67.3391 55.5412 67.0733 55.4536C66.5755 55.2902 66.2401 54.8271 66.2401 54.303V52.954H64.4039V54.303C64.4039 54.8271 64.0696 55.2902 63.5707 55.4536C63.3049 55.5412 63.0423 55.6498 62.7924 55.7764C62.3241 56.0137 61.7598 55.923 61.3886 55.5528L60.4341 54.5983L59.1358 55.8966L60.0903 56.8511C60.4615 57.2223 60.5512 57.7866 60.3149 58.2538C60.1883 58.5048 60.0797 58.7664 59.9922 59.0322C59.8287 59.53 59.3657 59.8654 58.8415 59.8654H57.4926V61.7027H58.8415C59.3657 61.7027 59.8287 62.037 59.9922 62.5359C60.0797 62.8016 60.1883 63.0632 60.3149 63.3142C60.5522 63.7825 60.4626 64.3468 60.0913 64.718L59.1368 65.6725L60.4351 66.9708L61.3896 66.0163C61.7609 65.6451 62.3251 65.5554 62.7934 65.7927C63.0434 65.9193 63.306 66.0279 63.5718 66.1155C64.0696 66.2789 64.405 66.742 64.405 67.2661V68.6151H66.2412V67.2661C66.2412 66.742 66.5755 66.28 67.0744 66.1155C67.3402 66.0279 67.6017 65.9193 67.8528 65.7927C68.321 65.5554 68.8853 65.6451 69.2565 66.0163L70.211 66.9708L71.5094 65.6725L70.5549 64.718C70.1836 64.3468 70.094 63.7825 70.3313 63.3142C70.4578 63.0632 70.5665 62.8016 70.654 62.5359C70.8175 62.038 71.2805 61.7027 71.8047 61.7027H73.1526V59.8654ZM37.8269 39.0005C37.906 39.2452 37.83 39.5131 37.6339 39.6797L36.1794 40.9105L36.633 42.7605C36.6941 43.0104 36.5982 43.272 36.3904 43.4228C36.1826 43.5736 35.9042 43.5842 35.6848 43.4492L34.0648 42.4462L32.4448 43.4492C32.3425 43.5125 32.2265 43.5441 32.1115 43.5441C31.9807 43.5441 31.8499 43.504 31.7392 43.4228C31.5314 43.272 31.4355 43.0094 31.4966 42.7605L31.9501 40.9105L30.4957 39.6797C30.2996 39.5141 30.2236 39.2452 30.3027 39.0005C30.3818 38.7558 30.6012 38.5839 30.8575 38.5649L32.757 38.4246L33.4773 36.6612C33.5744 36.4229 33.8064 36.2678 34.0627 36.2678C34.319 36.2678 34.551 36.4229 34.648 36.6612L35.3684 38.4246L37.2689 38.5649C37.5284 38.5839 37.7478 38.7558 37.8269 39.0005ZM35.6342 39.7135L34.8874 39.6586C34.648 39.6407 34.4392 39.4888 34.3485 39.2673L34.0658 38.5744L33.7832 39.2673C33.6925 39.4899 33.4837 39.6418 33.2442 39.6586L32.4975 39.7135L33.0692 40.1965C33.2527 40.3516 33.3318 40.5973 33.2748 40.8304L33.0966 41.5571L33.7326 41.1626C33.8349 41.0993 33.9498 41.0677 34.0658 41.0677C34.1819 41.0677 34.2968 41.0993 34.3991 41.1626L35.0351 41.5571L34.8569 40.8304C34.7999 40.5973 34.879 40.3516 35.0625 40.1965L35.6342 39.7135ZM46.8887 39.0005C46.9678 39.2452 46.8919 39.5131 46.6957 39.6797L45.2413 40.9105L45.6948 42.7605C45.756 43.0104 45.66 43.272 45.4523 43.4228C45.3415 43.503 45.2107 43.5441 45.0799 43.5441C44.965 43.5441 44.849 43.5125 44.7467 43.4492L43.1267 42.4462L41.5067 43.4492C41.2883 43.5852 41.0099 43.5747 40.8011 43.4228C40.5923 43.2709 40.4973 43.0094 40.5585 42.7605L41.012 40.9105L39.5576 39.6797C39.3614 39.5141 39.2855 39.2452 39.3646 39.0005C39.4437 38.7558 39.6631 38.5839 39.9194 38.5649L41.8189 38.4246L42.5392 36.6612C42.6362 36.4229 42.8683 36.2678 43.1246 36.2678C43.3808 36.2678 43.6129 36.4229 43.7099 36.6612L44.4303 38.4246L46.3298 38.5649C46.5903 38.5839 46.8096 38.7558 46.8887 39.0005ZM44.696 39.7135L43.9493 39.6586C43.7099 39.6407 43.5011 39.4888 43.4104 39.2673L43.1277 38.5744L42.8451 39.2673C42.7544 39.4899 42.5455 39.6418 42.3061 39.6586L41.5594 39.7135L42.131 40.1965C42.3146 40.3516 42.3937 40.5973 42.3367 40.8304L42.1585 41.5571L42.7944 41.1626C42.9991 41.0361 43.2564 41.0361 43.461 41.1626L44.097 41.5571L43.9187 40.8304C43.8618 40.5973 43.9409 40.3516 44.1244 40.1965L44.696 39.7135ZM48.4971 39.0005C48.5762 38.7558 48.7956 38.5839 49.0519 38.5649L52.8351 38.2854L54.2694 34.7744C54.3665 34.536 54.5985 34.381 54.8548 34.381C55.1111 34.381 55.3431 34.536 55.4401 34.7744L56.8745 38.2854L60.6577 38.5649C60.914 38.5839 61.1333 38.7558 61.2124 39.0005C61.2916 39.2452 61.2156 39.5131 61.0194 39.6797L58.1233 42.1298L59.0261 45.8138C59.0873 46.0637 58.9913 46.3253 58.7835 46.4761C58.6728 46.5563 58.542 46.5974 58.4112 46.5974C58.2962 46.5974 58.1802 46.5658 58.0779 46.5025L54.8537 44.5049L51.6296 46.5025C51.4112 46.6386 51.1328 46.628 50.924 46.4761C50.7151 46.3243 50.6202 46.0627 50.6814 45.8138L51.5842 42.1298L48.688 39.6797C48.494 39.5131 48.418 39.2452 48.4971 39.0005ZM50.6898 39.7135L52.7032 41.4157C52.8867 41.5708 52.9658 41.8165 52.9089 42.0496L52.2814 44.6104L54.5226 43.2224C54.6249 43.1591 54.7398 43.1275 54.8558 43.1275C54.9719 43.1275 55.0868 43.1591 55.1891 43.2224L57.4303 44.6104L56.8028 42.0496C56.7458 41.8165 56.8249 41.5708 57.0085 41.4157L59.0219 39.7135L56.3925 39.5194C56.1531 39.5015 55.9443 39.3496 55.8536 39.1281L54.8558 36.6876L53.8581 39.1281C53.7674 39.3507 53.5586 39.5025 53.3192 39.5194L50.6898 39.7135ZM69.4211 60.784C69.4211 63.0442 67.5828 64.8825 65.3226 64.8825C63.0624 64.8825 61.224 63.0442 61.224 60.784C61.224 58.5238 63.0624 56.6855 65.3226 56.6855C67.5817 56.6855 69.4211 58.5238 69.4211 60.784ZM68.1555 60.784C68.1555 59.222 66.8846 57.9511 65.3226 57.9511C63.7606 57.9511 62.4897 59.222 62.4897 60.784C62.4897 62.346 63.7606 63.6169 65.3226 63.6169C66.8846 63.6169 68.1555 62.346 68.1555 60.784ZM44.2183 54.2218L42.5951 54.6563C42.2576 54.747 42.0572 55.094 42.1479 55.4315C42.2239 55.7141 42.4791 55.9008 42.7586 55.9008C42.8124 55.9008 42.8683 55.8934 42.9231 55.8787L44.5463 55.4441C44.8838 55.3534 45.0842 55.0064 44.9935 54.6689C44.9028 54.3314 44.5558 54.1321 44.2183 54.2218ZM44.5463 57.1285L42.9231 56.6939C42.5856 56.6043 42.2386 56.8036 42.1479 57.1411C42.0572 57.4786 42.2576 57.8256 42.5951 57.9163L44.2183 58.3509C44.2731 58.3656 44.328 58.373 44.3828 58.373C44.6623 58.373 44.9175 58.1863 44.9935 57.9037C45.0842 57.5662 44.8838 57.2192 44.5463 57.1285ZM43.3766 52.7642C43.6234 52.5174 43.6234 52.1166 43.3766 51.8688C43.1298 51.6209 42.7291 51.622 42.4812 51.8688L41.2926 53.0574C41.0458 53.3042 41.0458 53.705 41.2926 53.9528C41.416 54.0762 41.5784 54.1384 41.7398 54.1384C41.9022 54.1384 42.0635 54.0762 42.1869 53.9528L43.3766 52.7642ZM53.3086 28.4547C53.3086 27.3557 54.203 26.4613 55.302 26.4613H69.072C70.171 26.4613 71.0653 27.3557 71.0653 28.4547C71.0653 29.5537 70.171 30.448 69.072 30.448H55.302C54.203 30.4491 53.3086 29.5547 53.3086 28.4547ZM54.5742 28.4547C54.5742 28.8565 54.9012 29.1824 55.302 29.1824H69.072C69.4738 29.1824 69.7997 28.8555 69.7997 28.4547C69.7997 28.0539 69.4728 27.727 69.072 27.727H55.302C54.9001 27.727 54.5742 28.0539 54.5742 28.4547ZM30.7647 28.4547C30.7647 27.4221 31.6042 26.5826 32.6367 26.5826C33.6693 26.5826 34.5088 27.4221 34.5088 28.4547C34.5088 29.4872 33.6693 30.3268 32.6367 30.3268C31.6042 30.3268 30.7647 29.4872 30.7647 28.4547ZM32.0303 28.4547C32.0303 28.789 32.3024 29.0611 32.6367 29.0611C32.9711 29.0611 33.2432 28.789 33.2432 28.4547C33.2432 28.1204 32.9711 27.8482 32.6367 27.8482C32.3024 27.8482 32.0303 28.1204 32.0303 28.4547ZM35.6405 28.4547C35.6405 27.4221 36.48 26.5826 37.5126 26.5826C38.5451 26.5826 39.3846 27.4221 39.3846 28.4547C39.3846 29.4872 38.5451 30.3268 37.5126 30.3268C36.4811 30.3278 35.6405 29.4872 35.6405 28.4547ZM36.9061 28.4547C36.9061 28.789 37.1782 29.0611 37.5126 29.0611C37.8469 29.0611 38.119 28.789 38.119 28.4547C38.119 28.1204 37.8469 27.8482 37.5126 27.8482C37.1782 27.8482 36.9061 28.1204 36.9061 28.4547ZM40.5163 28.4547C40.5163 27.4221 41.3558 26.5826 42.3884 26.5826C43.4209 26.5826 44.2605 27.4221 44.2605 28.4547C44.2605 29.4872 43.4209 30.3268 42.3884 30.3268C41.3569 30.3278 40.5163 29.4872 40.5163 28.4547ZM41.7819 28.4547C41.7819 28.789 42.054 29.0611 42.3884 29.0611C42.7227 29.0611 42.9948 28.789 42.9948 28.4547C42.9948 28.1204 42.7227 27.8482 42.3884 27.8482C42.054 27.8482 41.7819 28.1204 41.7819 28.4547Z" fill="white"/>
</g>
<defs>
<clipPath id="clip0_1092_2804">
<rect width="98" height="98" fill="white"/>
</clipPath>
</defs>
</svg>
