<svg width="98" height="98" viewBox="0 0 98 98" fill="none" xmlns="http://www.w3.org/2000/svg">
<g clip-path="url(#clip0_129_387)">
<mask id="mask0_129_387" style="mask-type:luminance" maskUnits="userSpaceOnUse" x="0" y="0" width="98" height="98">
<path d="M97.003 0H0V97.002H97.003V0Z" fill="white"/>
</mask>
<g mask="url(#mask0_129_387)">
<path d="M97.003 89.353V7.649C97.003 3.42457 93.5784 0 89.354 0H7.649C3.42458 0 0 3.42457 0 7.649V89.353C0 93.5774 3.42458 97.002 7.649 97.002H89.354C93.5784 97.002 97.003 93.5774 97.003 89.353Z" fill="black"/>
</g>
<g clip-path="url(#clip1_129_387)">
<path d="M44.3359 73.3766L45.1234 74.637V77.0001H46.7657V74.1658L45.7283 72.5063L44.3359 73.3766Z" fill="white"/>
<path d="M63.8033 67.3394L60.9297 74.2369V76.9999H62.5716V74.5654L65.4457 67.668V62.2471H63.8033V67.3394Z" fill="white"/>
<path d="M32.4096 46.5092H37.449C37.5139 47.4294 37.6874 48.3361 37.9685 49.2123L39.5322 48.7103C39.2199 47.7366 39.0614 46.7198 39.0614 45.688C39.0614 40.2248 43.506 35.7802 48.9692 35.7802C52.6162 35.7802 55.9611 37.7809 57.6979 41.0024L59.1432 40.2231C58.7331 39.4626 58.2452 38.7615 57.6936 38.1253L61.2594 34.5595C61.943 35.0115 62.733 35.238 63.5234 35.238C64.5748 35.238 65.6263 34.8376 66.4265 34.0374C68.0274 32.4365 68.0274 29.8316 66.4265 28.2311C64.8256 26.6302 62.2216 26.6302 60.6202 28.2311C59.2184 29.6329 59.0446 31.8051 60.0981 33.3983L56.5332 36.9632C54.667 35.3444 52.3107 34.3463 49.7904 34.1673V29.1284C51.6622 28.7473 53.0751 27.0883 53.0751 25.1054C53.0751 22.8419 51.2332 21 48.9692 21C46.7057 21 44.8638 22.8419 44.8638 25.1054C44.8638 27.0883 46.2767 28.7473 48.1485 29.1284V34.1673C45.5803 34.3484 43.2411 35.3726 41.407 36.9645L37.8403 33.3983C38.8943 31.8051 38.7205 29.6329 37.3182 28.2311C35.7173 26.6302 33.1129 26.6302 31.512 28.2311C29.9111 29.8316 29.9111 32.4365 31.512 34.0374C32.3126 34.8376 33.3641 35.238 34.4151 35.238C35.2055 35.238 35.9955 35.0115 36.6795 34.5595L40.2457 38.1257C38.6538 39.9599 37.6297 42.2991 37.4485 44.8672H32.4096C32.0285 42.9955 30.3695 41.5826 28.3867 41.5826C26.1231 41.5826 24.2812 43.4244 24.2812 45.688C24.2812 47.952 26.1227 49.7938 28.3867 49.7938C30.3695 49.7938 32.0281 48.3809 32.4096 46.5092ZM61.7815 29.3924C62.2617 28.9117 62.8923 28.6716 63.5234 28.6716C64.1544 28.6716 64.785 28.9117 65.2653 29.3924C66.2257 30.3524 66.2257 31.9153 65.2653 32.8757C64.3048 33.8366 62.7415 33.8362 61.7815 32.8757C60.821 31.9153 60.821 30.3528 61.7815 29.3924ZM46.5062 25.1054C46.5062 23.7472 47.611 22.6423 48.9692 22.6423C50.3275 22.6423 51.4327 23.7472 51.4327 25.1054C51.4327 26.4636 50.3275 27.5689 48.9692 27.5689C47.611 27.5689 46.5062 26.4636 46.5062 25.1054ZM36.157 32.8757C35.1965 33.8366 33.6337 33.8366 32.6732 32.8757C31.7128 31.9157 31.7128 30.3528 32.6732 29.3924C33.1539 28.9122 33.7845 28.6721 34.4151 28.6721C35.0461 28.6721 35.6768 28.9122 36.157 29.3924C37.1174 30.3528 37.1174 31.9153 36.157 32.8757ZM28.3867 48.1515C27.0284 48.1515 25.9232 47.0462 25.9232 45.688C25.9232 44.3298 27.0284 43.2249 28.3867 43.2249C29.7449 43.2249 30.8502 44.3298 30.8502 45.688C30.8502 47.0462 29.7449 48.1515 28.3867 48.1515Z" fill="white"/>
<path d="M69.5511 41.5825C67.5686 41.5825 65.9097 42.9954 65.5281 44.8671H60.4879C60.4148 43.8306 60.2055 42.8142 59.8586 41.8362L58.3107 42.3848C58.6862 43.444 58.8768 44.5552 58.8768 45.6879C58.8768 48.133 57.9697 50.4756 56.3551 52.2828H53.3884C55.5639 50.8298 56.9059 48.3791 56.9059 45.6879C56.9059 41.3112 53.3452 37.7505 48.9685 37.7505C44.5918 37.7505 41.0311 41.3112 41.0311 45.6879C41.0311 48.7555 42.7623 51.4971 45.486 52.8216V54.9651C43.1609 54.0914 41.2332 52.3657 40.1036 50.1116L38.6355 50.8473C39.0739 51.7219 39.6161 52.5276 40.2437 53.2518L36.6783 56.8168C35.0851 55.7632 32.9134 55.9371 31.5112 57.3389C29.9103 58.9398 29.9103 61.5443 31.5112 63.1451C32.3119 63.9458 33.3633 64.3457 34.4144 64.3457C35.4658 64.3457 36.5173 63.9458 37.3175 63.1451C38.7197 61.7433 38.8936 59.5712 37.84 57.978L41.4045 54.4135C42.5859 55.4389 43.9714 56.2229 45.486 56.7018V58.8171H40.8124V67.7393L43.4651 71.9836L44.8575 71.1133L42.4543 67.2681V60.4595H47.1283V45.7528C47.1283 44.721 47.9679 43.8815 48.9997 43.8815C50.0319 43.8815 50.8714 44.721 50.8714 45.7528V59.8806H52.5138V53.9252H55.1815V59.8806H56.8238V55.4983H59.4933V59.8806H61.1356V57.3132H63.8033V60.6052H65.4457V55.6713H61.1356V53.856H57.1268C59.0972 51.8876 60.2909 49.2793 60.4888 46.5095H65.5281C65.9097 48.3808 67.5682 49.7937 69.5511 49.7937C71.815 49.7937 73.6565 47.9518 73.6565 45.6883C73.6565 43.4243 71.815 41.5825 69.5511 41.5825ZM36.1562 61.9843C35.1958 62.9443 33.6329 62.9443 32.6725 61.9839C31.712 61.0234 31.712 59.4606 32.6725 58.5005C33.1531 58.0199 33.7837 57.7802 34.4144 57.7802C35.0454 57.7802 35.676 58.0199 36.1562 58.5001C37.1167 59.4606 37.1167 61.0234 36.1562 61.9843ZM48.9997 42.2396C47.0621 42.2396 45.486 43.8157 45.486 45.7528V50.9349C43.7458 49.786 42.6734 47.8382 42.6734 45.6879C42.6734 42.2169 45.4975 39.3928 48.9685 39.3928C52.4399 39.3928 55.264 42.2169 55.264 45.6879C55.264 47.8062 54.2155 49.736 52.5138 50.8917V45.7528C52.5138 43.8157 50.9372 42.2396 48.9997 42.2396ZM69.5511 48.1514C68.1929 48.1514 67.088 47.0461 67.088 45.6879C67.088 44.3297 68.1929 43.2248 69.5511 43.2248C70.9093 43.2248 72.0146 44.3297 72.0146 45.6879C72.0146 47.0461 70.9093 48.1514 69.5511 48.1514Z" fill="white"/>
<path d="M60.4102 62.1104H62.0525V65.3946H60.4102V62.1104Z" fill="white"/>
<path d="M48.0539 73.1274L47.1836 71.735L48.576 70.8647L49.4467 72.2571L48.0539 73.1274Z" fill="white"/>
<path d="M44.2227 66.9957L45.6151 66.125L47.706 69.4708L46.3136 70.3411L44.2227 66.9957Z" fill="white"/>
</g>
</g>
<defs>
<clipPath id="clip0_129_387">
<rect width="98" height="98" fill="white"/>
</clipPath>
<clipPath id="clip1_129_387">
<rect width="56" height="56" fill="white" transform="translate(21 21)"/>
</clipPath>
</defs>
</svg>
