<svg width="98" height="98" viewBox="0 0 98 98" fill="none" xmlns="http://www.w3.org/2000/svg">
<g clip-path="url(#clip0_129_386)">
<mask id="mask0_129_386" style="mask-type:luminance" maskUnits="userSpaceOnUse" x="0" y="0" width="98" height="98">
<path d="M97.003 0H0V97.002H97.003V0Z" fill="white"/>
</mask>
<g mask="url(#mask0_129_386)">
<path d="M97.003 89.353V7.649C97.003 3.42457 93.5784 0 89.354 0H7.649C3.42458 0 0 3.42457 0 7.649V89.353C0 93.5774 3.42458 97.002 7.649 97.002H89.354C93.5784 97.002 97.003 93.5774 97.003 89.353Z" fill="black"/>
</g>
<path d="M67.5429 26.6322H66.9378C68.0913 24.7543 67.6654 22.2332 65.8141 20.8597C63.8195 19.3799 60.985 19.8562 59.593 21.9364L56.4508 26.6323H29.4574C27.2387 26.6323 25.4336 28.4374 25.4336 30.6562V56.3822C25.4336 58.6009 27.2387 60.406 29.4574 60.406H45.0872L43.9063 65.3662H41.3574C39.6963 65.3662 38.3448 66.7175 38.3448 68.3787V69.0077H35.2027C34.6526 69.0077 34.2066 69.4538 34.2066 70.0038C34.2066 70.5538 34.6526 70.9999 35.2027 70.9999H61.7978C62.3479 70.9999 62.7939 70.5538 62.7939 70.0038C62.7939 69.4538 62.3479 69.0077 61.7978 69.0077H58.6557V68.3787C58.6557 66.7175 57.3042 65.3662 55.643 65.3662H53.0942L51.9132 60.406H67.543C69.7618 60.406 71.5669 58.6009 71.5669 56.3822V50.7215V30.6561C71.5669 28.4373 69.7618 26.6322 67.5429 26.6322ZM53.271 44.1431C51.7136 45.2333 48.796 43.7515 46.0098 45.2382C45.33 41.7066 45.7586 38.3852 49.2971 37.6521C49.7544 37.5568 50.2468 37.5136 50.6659 37.522C51.8636 38.4106 53.0751 39.3094 54.2693 40.1956C54.7922 41.7164 54.596 43.2157 53.271 44.1431ZM54.2748 33.4664L57.0944 35.5584L54.9261 38.202C54.0334 37.5397 53.266 36.9704 52.3733 36.308C52.5587 36.031 54.1054 33.7195 54.2748 33.4664ZM61.2487 23.0444C62.0032 21.9167 63.5418 21.6543 64.6271 22.4597C65.7128 23.2651 65.9073 24.8136 65.047 25.8626C63.5205 27.7235 59.8914 32.1482 58.3591 34.0163L55.3839 31.8088L61.2487 23.0444ZM56.6634 68.3787V69.0077H40.337V68.3787C40.337 67.8161 40.7948 67.3583 41.3574 67.3583H55.6429C56.2056 67.3583 56.6634 67.8161 56.6634 68.3787ZM51.0463 65.3662H45.9541L47.1351 60.406H49.8653L51.0463 65.3662ZM69.5747 56.3822C69.5747 57.5025 68.6633 58.4139 67.543 58.4139C65.9619 58.4139 31.2353 58.4139 29.4575 58.4139C28.3373 58.4139 27.4258 57.5025 27.4258 56.3822V51.7176H30.2722C30.8224 51.7176 31.2683 51.2715 31.2683 50.7215C31.2683 50.1715 30.8224 49.7254 30.2722 49.7254H27.4256V30.6561C27.4256 29.5358 28.3371 28.6244 29.4573 28.6244H55.1177C54.1635 30.0505 51.3795 34.2109 50.4977 35.5286C48.5457 35.5462 46.5969 36.2262 45.3211 37.7155C43.5851 39.7421 43.2801 42.9263 44.4146 47.1797C44.6085 47.9071 45.516 48.1677 46.0652 47.6431C48.6407 45.1821 51.8485 47.8665 54.7211 45.5415C56.4746 44.1221 56.8895 41.8656 56.2283 39.7555C57.1221 38.6658 64.4623 29.7167 65.3581 28.6244H67.5428C68.6631 28.6244 69.5745 29.5358 69.5745 30.6561V49.7253H38.2406C37.6905 49.7253 37.2445 50.1714 37.2445 50.7214C37.2445 51.2714 37.6905 51.7175 38.2406 51.7175H69.5747V56.3822Z" fill="white"/>
<path d="M34.0645 49.7446C33.585 49.8426 33.2637 50.2571 33.2637 50.7219C33.2637 51.3449 33.8333 51.822 34.454 51.698C35.0055 51.5861 35.3415 51.0546 35.2359 50.5266C35.1251 49.9818 34.5965 49.6375 34.0645 49.7446Z" fill="white"/>
</g>
<defs>
<clipPath id="clip0_129_386">
<rect width="98" height="98" fill="white"/>
</clipPath>
</defs>
</svg>
