<svg width="98" height="98" viewBox="0 0 98 98" fill="none" xmlns="http://www.w3.org/2000/svg">
<g clip-path="url(#clip0_142_166)">
<mask id="mask0_142_166" style="mask-type:luminance" maskUnits="userSpaceOnUse" x="0" y="0" width="98" height="98">
<path d="M97.003 0H0V97.002H97.003V0Z" fill="white"/>
</mask>
<g mask="url(#mask0_142_166)">
<path d="M97.003 89.353V7.649C97.003 3.42457 93.5784 0 89.354 0H7.649C3.42458 0 0 3.42457 0 7.649V89.353C0 93.5774 3.42458 97.002 7.649 97.002H89.354C93.5784 97.002 97.003 93.5774 97.003 89.353Z" fill="black"/>
</g>
<g clip-path="url(#clip1_142_166)">
<path d="M48.4978 30.6797C46.0399 30.6797 44.041 32.6786 44.041 35.1365C44.041 37.5943 46.0399 39.5931 48.4978 39.5931C50.9557 39.5931 52.9545 37.5942 52.9545 35.1365C52.9545 32.6787 50.9556 30.6797 48.4978 30.6797ZM48.4978 37.3659C47.2689 37.3659 46.2684 36.3654 46.2684 35.1365C46.2684 33.9075 47.2689 32.907 48.4978 32.907C49.7267 32.907 50.7272 33.9075 50.7272 35.1365C50.7272 36.3654 49.7267 37.3659 48.4978 37.3659Z" fill="white"/>
<path d="M71.8864 44.0454C72.502 44.0454 73.0001 43.5504 73.0001 42.9349V38.4808C73.0001 38.0883 72.7935 37.724 72.4552 37.5239L50.6707 24.5868C50.6609 24.5803 50.6511 24.5748 50.6414 24.5694C49.2874 23.819 47.7605 23.7963 46.3281 24.5846L24.5449 37.5239C24.2066 37.7239 24 38.0883 24 38.4808V42.9349C24 43.5504 24.4981 44.0454 25.1137 44.0454H28.4546V64.0919C25.9978 64.0919 24 66.0894 24 68.5459V71.8865C24 72.502 24.4981 73.0001 25.1137 73.0001H71.8864C72.502 73.0001 73.0001 72.5021 73.0001 71.8865V68.5459C73.0001 66.0894 71.0023 64.0919 68.5455 64.0919V44.0454H71.8864ZM70.7728 68.5455V70.7727H26.2272V68.5455C26.2272 67.3177 27.2267 66.3183 28.4545 66.3183H29.5682H67.4318H68.5455C69.7733 66.3182 70.7728 67.3176 70.7728 68.5455ZM30.6818 64.0909V44.0454H35.1364V64.0909H30.6818ZM37.3636 64.0909V44.0454H44.0455V64.0909H37.3636ZM46.2727 64.0909V44.0454H50.7273V64.0909H46.2727ZM52.9545 64.0909V44.0454H59.6364V64.0909H52.9545ZM61.8637 64.0909V44.0454H66.3183V64.0909H61.8637ZM26.2272 41.8182V39.1113L47.4332 26.5133C48.127 26.1316 48.8643 26.1326 49.5495 26.5057L70.7728 39.1113V41.8182H26.2272Z" fill="white"/>
</g>
</g>
<defs>
<clipPath id="clip0_142_166">
<rect width="98" height="98" fill="white"/>
</clipPath>
<clipPath id="clip1_142_166">
<rect width="49" height="49" fill="white" transform="translate(24 24)"/>
</clipPath>
</defs>
</svg>
