<svg width="98" height="98" viewBox="0 0 98 98" fill="none" xmlns="http://www.w3.org/2000/svg">
<g clip-path="url(#clip0_142_169)">
<mask id="mask0_142_169" style="mask-type:luminance" maskUnits="userSpaceOnUse" x="0" y="0" width="98" height="98">
<path d="M97.003 0H0V97.002H97.003V0Z" fill="white"/>
</mask>
<g mask="url(#mask0_142_169)">
<path d="M97.003 89.353V7.649C97.003 3.42457 93.5784 0 89.354 0H7.649C3.42458 0 0 3.42457 0 7.649V89.353C0 93.5774 3.42458 97.002 7.649 97.002H89.354C93.5784 97.002 97.003 93.5774 97.003 89.353Z" fill="black"/>
</g>
<path d="M37.8405 55.2102C38.2887 54.9517 38.4421 54.3778 38.1836 53.9296C37.9247 53.4817 37.3512 53.3279 36.903 53.5864C36.4547 53.8453 36.3009 54.4192 36.5598 54.8671C36.8184 55.3153 37.3922 55.4691 37.8405 55.2102Z" fill="white"/>
<path d="M33.9985 61.6799L38.7197 69.8578C39.7385 71.6244 42.0303 72.2784 43.8426 71.2307C45.636 70.1943 46.2523 67.903 45.2148 66.1082L42.4023 61.2361L44.838 59.8298C45.2862 59.5706 45.4401 58.9974 45.1811 58.5492L43.962 56.4376C44.1074 56.4094 45.0632 56.2219 61.9188 52.9154C64.0026 52.8022 65.251 50.5233 64.1985 48.7014L61.0828 43.3049L63.0738 40.2892C63.2694 39.9926 63.2811 39.6113 63.1035 39.3037L61.2285 36.0562C61.0509 35.7485 60.7136 35.5684 60.3602 35.5892L56.7534 35.8057L53.2945 29.8145C52.7936 28.9465 51.896 28.421 50.894 28.4086C50.8819 28.4082 50.8702 28.4082 50.8581 28.4082C49.8899 28.4082 49.011 28.8901 48.4902 29.705L36.2434 45.3063L28.2816 49.903C25.1501 51.7102 24.0654 55.7275 25.8796 58.8674C27.5371 61.7385 31.0315 62.8679 33.9985 61.6799ZM43.5914 67.046C44.1092 67.9418 43.8027 69.088 42.9044 69.6069C42.0032 70.1281 40.8555 69.808 40.3435 68.9207L35.656 60.8007L38.9036 58.9257C44.3286 68.3234 43.5043 66.8955 43.5914 67.046ZM41.4648 59.6119L40.5273 57.9882L42.1511 57.0507L43.0886 58.6744L41.4648 59.6119ZM59.8944 37.4954L61.1901 39.7395L60.0347 41.4893L57.8015 37.621L59.8944 37.4954ZM50.0583 30.7329C50.3099 30.3213 50.7091 30.2788 50.871 30.2832C51.031 30.285 51.4298 30.3348 51.6704 30.7516L62.5747 49.6389C62.9299 50.2538 62.4982 51.0269 61.7859 51.0444C61.6581 51.0474 61.5991 51.0704 61.2717 51.1316L49.7372 31.153C49.9792 30.8417 50.0104 30.8116 50.0583 30.7329ZM48.4895 32.7423L59.3268 51.5132L42.9711 54.7212L37.9979 46.1075L48.4895 32.7423ZM27.5034 57.9299C27.0918 57.2177 26.8743 56.4091 26.8743 55.5909C26.8743 53.9188 27.7729 52.3617 29.2191 51.5267L36.5261 47.308L41.2136 55.4269L33.9066 59.646C31.668 60.938 28.7958 60.1682 27.5034 57.9299Z" fill="white"/>
<path d="M34.936 55.8029C34.6771 55.3546 34.1036 55.2008 33.6554 55.4597L32.0316 56.3972C31.5841 56.6558 31.0095 56.5016 30.751 56.0541C30.4921 55.6058 29.9186 55.452 29.4703 55.7109C29.0221 55.9699 28.8683 56.5433 29.1272 56.9916C29.8988 58.3283 31.62 58.7996 32.9691 58.021L34.5929 57.0835C35.0411 56.8246 35.195 56.2515 34.936 55.8029Z" fill="white"/>
<path d="M71.6067 30.4135L66.3827 33.3205C65.9304 33.5725 65.7675 34.1434 66.0194 34.5957C66.2706 35.0476 66.8412 35.2113 67.2946 34.9589L72.5182 32.052C72.9708 31.8 73.1334 31.2291 72.8815 30.7768C72.6299 30.3242 72.059 30.1616 71.6067 30.4135Z" fill="white"/>
<path d="M71.0587 40.1238L67.4365 39.1533C66.9362 39.0193 66.4221 39.3159 66.288 39.8161C66.154 40.3164 66.451 40.8302 66.9512 40.9642L70.5738 41.9347C71.077 42.0698 71.5886 41.7684 71.7219 41.2718C71.8559 40.7716 71.5589 40.2574 71.0587 40.1238Z" fill="white"/>
<path d="M61.9564 27.0075L60.9848 30.6301C60.8508 31.1303 61.1474 31.6441 61.6477 31.7785C62.1476 31.9122 62.6617 31.6163 62.7961 31.1157L63.7673 27.4931C63.9013 26.9929 63.6047 26.4787 63.1045 26.3447C62.6046 26.2107 62.0904 26.5073 61.9564 27.0075Z" fill="white"/>
</g>
<defs>
<clipPath id="clip0_142_169">
<rect width="98" height="98" fill="white"/>
</clipPath>
</defs>
</svg>
