<svg width="98" height="98" viewBox="0 0 98 98" fill="none" xmlns="http://www.w3.org/2000/svg">
<g clip-path="url(#clip0_142_165)">
<mask id="mask0_142_165" style="mask-type:luminance" maskUnits="userSpaceOnUse" x="0" y="0" width="98" height="98">
<path d="M97.003 0H0V97.002H97.003V0Z" fill="white"/>
</mask>
<g mask="url(#mask0_142_165)">
<path d="M97.003 89.353V7.649C97.003 3.42457 93.5784 0 89.354 0H7.649C3.42458 0 0 3.42457 0 7.649V89.353C0 93.5774 3.42458 97.002 7.649 97.002H89.354C93.5784 97.002 97.003 93.5774 97.003 89.353Z" fill="black"/>
</g>
</g>
<g clip-path="url(#clip1_142_165)">
<path d="M23.2788 43.6905C22.1546 43.8728 21.285 44.7742 21.143 45.9042C20.9542 47.6158 20.9523 49.3429 21.1375 51.055C21.2665 52.2025 22.1415 53.125 23.2806 53.3145L26.1974 53.7921C26.7574 56.1772 27.7027 58.4551 28.996 60.5359L27.2791 62.9339C26.595 63.8615 26.6115 65.1309 27.3195 66.0405C27.8659 66.709 28.4473 67.3482 29.0611 67.9554C29.624 68.5192 30.2463 69.0857 30.9934 69.7135C31.8957 70.4075 33.1478 70.4219 34.0661 69.7493L36.4759 68.0205C38.5546 69.3136 40.8303 70.2591 43.2134 70.8199L43.6919 73.7413C43.8738 74.8659 44.7753 75.736 45.9056 75.8781C46.4282 75.9367 46.9589 75.978 47.4933 76H47.5712C48.0489 75.9996 48.5083 75.8158 48.8545 75.4866C49.2144 75.1427 49.4174 74.6663 49.4164 74.1685V66.8224C49.4109 65.8408 48.6361 65.0361 47.6554 64.9937C38.8818 64.5356 32.0028 57.2881 32.0028 48.5025C32.0028 39.7169 38.8818 32.4694 47.6554 32.0114C48.6377 31.9683 49.4129 31.1613 49.4164 30.178V22.8356C49.4178 22.3373 49.2143 21.8604 48.8535 21.5166C48.4933 21.1632 48.0017 20.9767 47.4977 21.0023C46.9642 21.0234 46.4353 21.0619 45.8926 21.1169C44.7629 21.2625 43.8658 22.1379 43.6926 23.2637L43.2151 26.1823C40.832 26.7435 38.5564 27.6894 36.4776 28.9827L34.0678 27.2575C33.141 26.5798 31.8768 26.6 30.9723 27.307C30.3077 27.8511 29.6716 28.429 29.0665 29.0386C28.443 29.6482 27.8559 30.2941 27.3084 30.9728C26.609 31.8763 26.5911 33.1333 27.2645 34.0564L28.9923 36.4691C27.7002 38.5497 26.7561 40.8274 26.1974 43.2121L23.2788 43.6905ZM27.8557 44.202C28.3887 41.6129 29.4111 39.1495 30.8679 36.9439C31.0767 36.6267 31.0683 36.2137 30.8468 35.9053L28.756 32.9858C28.5627 32.7307 28.5571 32.3798 28.7422 32.1186C29.2446 31.4959 29.7837 30.9036 30.3564 30.3448C30.9128 29.7829 31.4971 29.2492 32.1072 28.7462C32.3698 28.546 32.7338 28.546 32.9964 28.7462L35.9114 30.838C36.2202 31.0589 36.6332 31.0665 36.95 30.8573C39.1537 29.3999 41.6158 28.3771 44.2035 27.8442C44.5756 27.7676 44.8618 27.4693 44.9232 27.0944L45.4997 23.5643C45.5411 23.2477 45.7843 22.9952 46.0992 22.9419C46.5841 22.8915 47.0755 22.8557 47.5833 22.8356L47.5631 30.1789C37.804 30.6773 30.1485 38.7382 30.1539 48.5101C30.1593 58.282 37.8236 66.3345 47.5833 66.8222L47.5705 74.1683C47.0782 74.1481 46.5906 74.1096 46.1093 74.0555C45.793 74.0093 45.545 73.7599 45.5007 73.4432L44.9232 69.9113C44.8618 69.5364 44.5757 69.2382 44.2035 69.1614C41.6158 68.6281 39.1537 67.6051 36.95 66.1475C36.633 65.9384 36.2201 65.9465 35.9114 66.1676L32.9937 68.2613C32.7449 68.4548 32.3992 68.4641 32.1403 68.2842C31.4665 67.7168 30.8826 67.1842 30.3564 66.6589C29.7944 66.1036 29.2611 65.5199 28.7587 64.9099C28.561 64.6459 28.561 64.2831 28.7587 64.0189L30.8477 61.1021C31.0689 60.7936 31.077 60.3805 30.8679 60.0635C29.411 57.8584 28.3886 55.3952 27.8557 52.8064C27.7792 52.4346 27.4814 52.1485 27.1068 52.0868L23.5776 51.5083C23.2491 51.4541 22.9969 51.1876 22.9607 50.8566C22.7891 49.2799 22.7909 47.6891 22.9663 46.1129C23.0119 45.7963 23.2609 45.5476 23.5776 45.5025L27.1058 44.9249C27.4818 44.8634 27.7804 44.5755 27.8557 44.202Z" fill="white"/>
<path d="M73.2495 45.752C72.0882 45.7568 71.0553 46.4905 70.6681 47.5853H49.4164V44.8353H64.0829C65.6016 44.8353 66.8328 43.6041 66.8328 42.0854V37.3335C68.0956 36.8871 68.853 35.5958 68.6265 34.2758C68.4 32.9557 67.2554 31.9908 65.9161 31.9908C64.5768 31.9908 63.4322 32.9557 63.2057 34.2758C62.9792 35.5958 63.7367 36.8871 64.9994 37.3335V42.0854C64.9994 42.5916 64.589 43.0021 64.0827 43.0021H49.4164V40.2521H59.4996C60.0058 40.2521 60.4162 39.8417 60.4162 39.3354C60.4162 38.8291 60.0058 38.4187 59.4996 38.4187H49.4164V36.5854H54.9163C56.4351 36.5854 57.6663 35.3542 57.6663 33.8353V28.1669C58.9291 27.7205 59.6865 26.4292 59.46 25.1092C59.2335 23.7892 58.0889 22.8242 56.7496 22.8242C55.4103 22.8242 54.2658 23.7892 54.0392 25.1092C53.8127 26.4292 54.5702 27.7205 55.8329 28.1669V33.8355C55.8329 34.3417 55.4225 34.7522 54.9162 34.7522H49.1743C48.8589 34.1661 48.2295 33.819 47.5656 33.8649C39.8409 34.3542 33.8262 40.762 33.8262 48.5021C33.8262 56.2422 39.8409 62.65 47.5656 63.1393H47.6728C48.299 63.1446 48.8768 62.8031 49.1743 62.252H54.9162C55.4224 62.252 55.8329 62.6624 55.8329 63.1687V68.8374C54.5702 69.2838 53.8127 70.575 54.0392 71.8951C54.2658 73.2151 55.4103 74.18 56.7496 74.18C58.0889 74.18 59.2335 73.2151 59.46 71.8951C59.6865 70.575 58.9291 69.2838 57.6663 68.8374V63.1687C57.6663 61.65 56.4352 60.4187 54.9163 60.4187H49.4164V58.5854H59.4996C60.0058 58.5854 60.4162 58.175 60.4162 57.6688C60.4162 57.1626 60.0058 56.7521 59.4996 56.7521H49.4164V54.0022H64.0829C64.5891 54.0022 64.9996 54.4126 64.9996 54.9188V59.6707C63.7368 60.1171 62.9794 61.4084 63.2059 62.7284C63.4324 64.0484 64.577 65.0134 65.9163 65.0134C67.2556 65.0134 68.4002 64.0484 68.6267 62.7284C68.8532 61.4084 68.0957 60.1171 66.833 59.6707V54.9188C66.833 53.4 65.6018 52.1688 64.0831 52.1688H49.4164V49.4186H70.6681C71.1365 50.7337 72.5172 51.4878 73.8769 51.1712C75.2364 50.8547 76.1421 49.5683 75.9816 48.1816C75.8209 46.7951 74.6453 45.7496 73.2495 45.752ZM65.9162 33.8355C66.4224 33.8355 66.8328 34.2459 66.8328 34.7522C66.8328 35.2585 66.4224 35.6689 65.9162 35.6689C65.41 35.6689 64.9996 35.2585 64.9996 34.7522C64.9996 34.2459 65.4099 33.8355 65.9162 33.8355ZM56.7496 24.6689C57.2558 24.6689 57.6663 25.0793 57.6663 25.5856C57.6663 26.092 57.2559 26.5023 56.7496 26.5023C56.2433 26.5023 55.833 26.0919 55.833 25.5856C55.833 25.0794 56.2433 24.6689 56.7496 24.6689ZM56.7496 72.3351C56.2434 72.3351 55.833 71.9247 55.833 71.4184C55.833 70.9121 56.2434 70.5017 56.7496 70.5017C57.2558 70.5017 57.6663 70.9121 57.6663 71.4184C57.6663 71.9247 57.2558 72.3351 56.7496 72.3351ZM65.9162 63.1686C65.41 63.1686 64.9996 62.7582 64.9996 62.2519C64.9996 61.7455 65.41 61.3352 65.9162 61.3352C66.4224 61.3352 66.8328 61.7456 66.8328 62.2519C66.8328 62.7581 66.4224 63.1686 65.9162 63.1686ZM35.6665 48.502C35.6741 41.7732 40.8719 36.1901 47.5831 35.7019V61.3023C40.8719 60.814 35.6741 55.2308 35.6665 48.502ZM73.2495 49.4186C72.7432 49.4186 72.3328 49.0083 72.3328 48.5019C72.3328 47.9956 72.7432 47.5853 73.2495 47.5853C73.7558 47.5853 74.1662 47.9957 74.1662 48.5019C74.1662 49.0082 73.7557 49.4186 73.2495 49.4186Z" fill="white"/>
</g>
<defs>
<clipPath id="clip0_142_165">
<rect width="98" height="98" fill="white"/>
</clipPath>
<clipPath id="clip1_142_165">
<rect width="55" height="55" fill="white" transform="translate(21 21)"/>
</clipPath>
</defs>
</svg>
