<svg width="98" height="98" viewBox="0 0 98 98" fill="none" xmlns="http://www.w3.org/2000/svg">
<g clip-path="url(#clip0_142_168)">
<mask id="mask0_142_168" style="mask-type:luminance" maskUnits="userSpaceOnUse" x="0" y="0" width="98" height="98">
<path d="M97.003 0H0V97.002H97.003V0Z" fill="white"/>
</mask>
<g mask="url(#mask0_142_168)">
<path d="M97.003 89.353V7.649C97.003 3.42457 93.5784 0 89.354 0H7.649C3.42458 0 0 3.42457 0 7.649V89.353C0 93.5774 3.42458 97.002 7.649 97.002H89.354C93.5784 97.002 97.003 93.5774 97.003 89.353Z" fill="black"/>
</g>
<path d="M69.5008 37.3434L48.9383 27.0622C48.6627 26.9246 48.3376 26.9246 48.0625 27.0622L27.5 37.3434C27.168 37.5094 26.9585 37.8482 26.9585 38.2193V58.7818C26.9585 59.1529 27.168 59.4917 27.4995 59.6576L48.062 69.9389C48.2 70.0079 48.3499 70.0422 48.5002 70.0422C48.6505 70.0422 48.8003 70.0079 48.9383 69.9389L69.5008 59.6576C69.8323 59.4917 70.0418 59.1529 70.0418 58.7818V38.2193C70.0418 37.8482 69.8323 37.5094 69.5008 37.3434ZM48.5002 29.0327L66.8732 38.2193L62.9429 40.1845L44.5703 30.9979L48.5002 29.0327ZM55.1095 44.1011L36.7365 34.9146L42.3804 32.0926L60.7535 41.2792L55.1095 44.1011ZM55.8439 45.9234L61.7189 42.9859V50.2694L59.8399 48.9274C59.6269 48.7752 59.3606 48.715 59.1026 48.7595C58.8446 48.805 58.615 48.9514 58.4656 49.1669L55.8439 52.9548V45.9234ZM34.547 36.0093L52.9196 45.1958L48.5002 47.4058L30.1271 38.2193L34.547 36.0093ZM28.9168 39.8036L47.521 49.1057V67.4782L28.9168 58.1762V39.8036ZM49.4793 67.4787V49.1057L53.8856 46.9025V56.0891C53.8856 56.5175 54.1637 56.8959 54.5725 57.0237C54.6694 57.054 54.7673 57.0682 54.8647 57.0682C55.18 57.0682 55.4836 56.9155 55.6701 56.6467L59.5109 51.0992L62.1297 52.9694C62.4283 53.1824 62.821 53.2113 63.1465 53.0429C63.4721 52.8754 63.6772 52.5391 63.6772 52.1724V42.0067L68.0835 39.8036V58.1762L49.4793 67.4787Z" fill="white"/>
</g>
<defs>
<clipPath id="clip0_142_168">
<rect width="98" height="98" fill="white"/>
</clipPath>
</defs>
</svg>
