<svg width="98" height="98" viewBox="0 0 98 98" fill="none" xmlns="http://www.w3.org/2000/svg">
<g clip-path="url(#clip0_142_167)">
<mask id="mask0_142_167" style="mask-type:luminance" maskUnits="userSpaceOnUse" x="0" y="0" width="98" height="98">
<path d="M97.003 0H0V97.002H97.003V0Z" fill="white"/>
</mask>
<g mask="url(#mask0_142_167)">
<path d="M97.003 89.353V7.649C97.003 3.42457 93.5784 0 89.354 0H7.649C3.42458 0 0 3.42457 0 7.649V89.353C0 93.5774 3.42458 97.002 7.649 97.002H89.354C93.5784 97.002 97.003 93.5774 97.003 89.353Z" fill="black"/>
</g>
</g>
<path d="M56.6543 67.8385H66.1716C66.6289 67.8385 66.9997 67.4677 66.9997 67.0104V47.9762C66.9997 47.5188 66.6289 47.148 66.1716 47.148H56.6543C56.1969 47.148 55.8262 47.5188 55.8262 47.9762V67.0104C55.8262 67.4677 56.1969 67.8385 56.6543 67.8385ZM62.2411 58.3214H65.3435V61.4238H62.2411V58.3214ZM60.5849 61.4238H57.4823V58.3214H60.5849V61.4238ZM65.3435 56.6652H62.2411V53.5628H65.3435V56.6652ZM60.5849 56.6652H57.4823V53.5628H60.5849V56.6652ZM57.4824 63.08H60.585V66.1823H57.4824V63.08ZM62.2411 66.1823V63.08H65.3435V66.1823H62.2411ZM65.3435 51.9066H62.2411V48.8043H65.3435V51.9066ZM60.5849 48.8043V51.9067H57.4823V48.8043H60.5849ZM39.4563 47.148H29.939C29.4816 47.148 29.1108 47.5188 29.1108 47.9762V67.0104C29.1108 67.4677 29.4816 67.8385 29.939 67.8385H39.4563C39.9136 67.8385 40.2844 67.4677 40.2844 67.0104V47.9762C40.2844 47.5188 39.9136 47.148 39.4563 47.148ZM33.8695 56.6652H30.7671V53.5628H33.8696L33.8695 56.6652ZM35.5257 53.5628H38.6282V56.6652H35.5257V53.5628ZM30.7671 58.3214H33.8696V61.4238H30.7671V58.3214ZM35.5257 58.3214H38.6282V61.4238H35.5257V58.3214ZM38.6282 51.9066H35.5257V48.8043H38.6282V51.9066ZM33.8695 48.8043V51.9067H30.7671V48.8043H33.8695ZM30.7671 63.08H33.8696V66.1823H30.7671V63.08ZM35.5257 66.1823V63.08H38.6282V66.1823H35.5257ZM42.6724 34.6893H37.9138C37.4565 34.6893 37.0857 35.0601 37.0857 35.5174V40.2761C37.0857 40.7334 37.4565 41.1042 37.9138 41.1042H42.6724C43.1298 41.1042 43.5005 40.7334 43.5005 40.2761V35.5174C43.5005 35.0601 43.1298 34.6893 42.6724 34.6893ZM41.8443 39.4479H38.7419V36.3456H41.8443V39.4479ZM50.6473 34.6893H45.8887C45.4313 34.6893 45.0605 35.0601 45.0605 35.5174V40.2761C45.0605 40.7334 45.4313 41.1042 45.8887 41.1042H50.6473C51.1046 41.1042 51.4754 40.7334 51.4754 40.2761V35.5174C51.4754 35.0601 51.1046 34.6893 50.6473 34.6893ZM49.8191 39.4479H46.7168V36.3456H49.8191V39.4479ZM58.622 34.6893H53.8635C53.4062 34.6893 53.0354 35.0601 53.0354 35.5174V40.2761C53.0354 40.7334 53.4062 41.1042 53.8635 41.1042H58.622C59.0793 41.1042 59.4501 40.7334 59.4501 40.2761V35.5174C59.4501 35.0601 59.0793 34.6893 58.622 34.6893ZM57.7939 39.4479H54.6916V36.3456H57.7939V39.4479ZM72.7078 70.6875H71.2094V43.4709C71.2094 43.0135 70.8386 42.6427 70.3813 42.6427H62.6666V32.3226C62.6666 31.8653 62.2958 31.4945 61.8384 31.4945H49.0961V28.3815H56.0386C56.3357 28.3815 56.6101 28.2223 56.7575 27.9643C56.905 27.7064 56.9028 27.3892 56.7521 27.1331L55.3139 24.6907L56.7521 22.2483C56.9028 21.9923 56.905 21.6751 56.7575 21.4172C56.6101 21.1593 56.3358 21 56.0386 21H48.269C48.2687 21 48.2684 21 48.268 21C47.8106 21 47.4398 21.3708 47.4398 21.8281V31.4945H34.6976C34.2402 31.4945 33.8695 31.8653 33.8695 32.3226V42.6427H26.1547C25.6974 42.6427 25.3266 43.0135 25.3266 43.4709V70.6872H23.8281C23.3708 70.6872 23 71.058 23 71.5153C23 71.9726 23.3708 72.3434 23.8281 72.3434H26.1487C26.1508 72.3434 26.1528 72.3438 26.1547 72.3438H70.3813H72.7078C73.1651 72.3438 73.5359 71.973 73.5359 71.5156C73.5359 71.0583 73.1651 70.6875 72.7078 70.6875ZM53.6394 25.111L54.59 26.7252H49.0961V22.6562H54.5899L53.6393 24.2705C53.4866 24.5299 53.4866 24.8516 53.6394 25.111ZM35.5257 33.1508H48.2659C48.2666 33.1508 48.2672 33.1509 48.268 33.1509C48.2687 33.1509 48.2693 33.1508 48.27 33.1508H61.0103V42.6427H35.5258V33.1508H35.5257ZM26.9829 44.299H34.6956C34.6963 44.299 34.697 44.2991 34.6977 44.2991C34.6984 44.2991 34.699 44.299 34.6998 44.299H43.5623V52.446C43.5623 52.9033 43.9331 53.2741 44.3905 53.2741C44.8478 53.2741 45.2186 52.9033 45.2186 52.446V44.299H47.4398V54.293C47.4398 54.7503 47.8106 55.1211 48.268 55.1211C48.7253 55.1211 49.0961 54.7503 49.0961 54.293V44.299H51.3173V52.446C51.3173 52.9033 51.6881 53.2741 52.1454 53.2741C52.6028 53.2741 52.9736 52.9033 52.9736 52.446V44.299H61.8364C61.8371 44.299 61.8377 44.2991 61.8384 44.2991C61.8392 44.2991 61.8398 44.299 61.8405 44.299H69.5533V70.6875H54.1233V59.4067C54.1233 58.9493 53.7525 58.5786 53.2952 58.5786H43.2405C42.7832 58.5786 42.4124 58.9493 42.4124 59.4067V70.6875H26.9829V44.299ZM49.0961 60.2348H52.4671V70.6875H49.0961V60.2348ZM47.4398 70.6875H44.0687V60.2348H47.4398V70.6875Z" fill="white"/>
<defs>
<clipPath id="clip0_142_167">
<rect width="98" height="98" fill="white"/>
</clipPath>
</defs>
</svg>
