<svg width="909" height="909" viewBox="0 0 909 909" fill="none" xmlns="http://www.w3.org/2000/svg">
<g clip-path="url(#clip0_112_139)">
<mask id="mask0_112_139" style="mask-type:luminance" maskUnits="userSpaceOnUse" x="0" y="0" width="909" height="909">
<path d="M909 0H0V909H909V0Z" fill="white"/>
</mask>
<g mask="url(#mask0_112_139)">
<path d="M454.5 901.5C701.371 901.5 901.5 701.371 901.5 454.5C901.5 207.629 701.371 7.5 454.5 7.5C207.629 7.5 7.5 207.629 7.5 454.5C7.5 701.371 207.629 901.5 454.5 901.5Z" stroke="#6C7174" stroke-width="15"/>
</g>
<g clip-path="url(#clip1_112_139)">
<path d="M263.007 352.007C248.67 352.007 237.008 363.67 237.008 378.006C237.008 392.342 248.671 404.005 263.007 404.005C277.344 404.005 289.006 392.342 289.006 378.006C289.006 363.67 277.343 352.007 263.007 352.007ZM263.007 384.006C259.698 384.006 257.007 381.315 257.007 378.006C257.007 374.697 259.698 372.006 263.007 372.006C266.316 372.006 269.007 374.697 269.007 378.006C269.007 381.315 266.314 384.006 263.007 384.006Z" fill="#7D8284"/>
<path d="M676.999 320.008H572.2L547.062 238.076C545.773 233.877 541.894 231.01 537.501 231.01H372.505C368.112 231.01 364.234 233.877 362.944 238.076L337.806 320.008H312.922V298.009C312.922 292.487 308.444 288.009 302.922 288.009H246.924C241.402 288.009 236.924 292.487 236.924 298.009V320.008H233.007C214.259 320.008 199.008 335.26 199.008 354.007V626.001C199.008 644.748 214.26 660 233.007 660H676.997C695.745 660 710.996 644.748 710.996 626.001V354.007C710.998 335.26 695.746 320.008 676.999 320.008ZM379.897 251.01H530.111L551.28 320.008H358.728L379.897 251.01ZM256.926 308.008H292.925V320.008H256.926V308.008ZM690.998 626.001C690.998 633.721 684.718 640.001 676.998 640.001H670.748V570.086C670.748 564.564 666.27 560.086 660.748 560.086C655.226 560.086 650.748 564.564 650.748 570.086V640H233.009C225.289 640 219.009 633.72 219.009 626V354.007C219.009 346.287 225.289 340.007 233.009 340.007H676.999C684.719 340.007 690.999 346.287 690.999 354.007V626.001H690.998Z" fill="#7D8284"/>
<path d="M327.045 479.254C327.031 479.254 327.019 479.254 327.005 479.254C321.501 479.254 317.027 483.705 317.006 489.215L317.004 490.004C317.004 495.526 321.482 500.004 327.004 500.004C332.526 500.004 337.004 495.526 337.004 490.004L337.006 489.293C337.027 483.771 332.568 479.275 327.045 479.254Z" fill="#7D8284"/>
<path d="M455.002 352.007C426.238 352.007 398.671 360.772 375.281 377.351C352.413 393.562 335.209 415.972 325.528 442.158C323.613 447.338 326.26 453.09 331.441 455.005C336.618 456.919 342.372 454.273 344.288 449.092C361.332 402.986 405.825 372.007 455.002 372.007C520.065 372.007 572.999 424.941 572.999 490.004C572.999 555.067 520.065 608.001 455.002 608.001C404.373 608.001 359.45 575.808 343.216 527.892C341.445 522.662 335.769 519.859 330.536 521.63C325.306 523.401 322.502 529.079 324.274 534.31C343.26 590.35 395.795 628.001 455.001 628.001C531.093 628.001 592.998 566.096 592.998 490.004C592.998 413.912 531.094 352.007 455.002 352.007Z" fill="#7D8284"/>
<path d="M455.002 400.506C405.652 400.506 365.504 440.654 365.504 490.004C365.504 539.354 405.652 579.502 455.002 579.502C504.352 579.502 544.5 539.354 544.5 490.004C544.5 440.654 504.352 400.506 455.002 400.506ZM455.002 559.502C416.681 559.502 385.504 528.325 385.504 490.004C385.504 451.683 416.681 420.506 455.002 420.506C493.323 420.506 524.5 451.683 524.5 490.004C524.5 528.325 493.323 559.502 455.002 559.502Z" fill="#7D8284"/>
<path d="M455.003 445.099C430.242 445.099 410.098 465.244 410.098 490.004C410.098 495.526 414.575 500.004 420.098 500.004C425.62 500.004 430.098 495.526 430.098 490.004C430.098 476.271 441.271 465.099 455.003 465.099C460.525 465.099 465.003 460.621 465.003 455.099C465.003 449.577 460.525 445.099 455.003 445.099Z" fill="#7D8284"/>
<path d="M648.995 368.007H596.996C591.474 368.007 586.996 372.485 586.996 378.007C586.996 383.529 591.474 388.007 596.996 388.007H648.995C654.517 388.007 658.995 383.529 658.995 378.007C658.995 372.485 654.517 368.007 648.995 368.007Z" fill="#7D8284"/>
<path d="M455.004 148C449.482 148 445.004 152.478 445.004 158V189.543C445.004 195.065 449.481 199.543 455.004 199.543C460.526 199.543 465.004 195.065 465.004 189.543V158C465.004 152.478 460.526 148 455.004 148Z" fill="#7D8284"/>
<path d="M522.975 184.508C519.069 180.604 512.739 180.604 508.832 184.508L493.401 199.939C489.496 203.844 489.496 210.176 493.401 214.082C495.354 216.034 497.913 217.011 500.473 217.011C503.033 217.011 505.591 216.034 507.544 214.082L522.975 198.651C526.88 194.746 526.88 188.414 522.975 184.508Z" fill="#7D8284"/>
<path d="M416.603 199.939L401.173 184.509C397.267 180.605 390.937 180.605 387.03 184.509C383.125 188.414 383.125 194.746 387.03 198.652L402.461 214.082C404.414 216.034 406.973 217.011 409.532 217.011C412.091 217.011 414.65 216.034 416.603 214.082C420.508 210.177 420.508 203.845 416.603 199.939Z" fill="#7D8284"/>
<path d="M487.003 275.009H423.004C417.482 275.009 413.004 279.487 413.004 285.009C413.004 290.531 417.482 295.009 423.004 295.009H487.003C492.525 295.009 497.003 290.531 497.003 285.009C497.003 279.487 492.525 275.009 487.003 275.009Z" fill="#7D8284"/>
<path d="M667.815 528.013C665.956 526.152 663.376 525.083 660.746 525.083C658.116 525.083 655.536 526.152 653.676 528.013C651.816 529.883 650.746 532.453 650.746 535.083C650.746 537.713 651.815 540.293 653.676 542.152C655.536 544.022 658.116 545.083 660.746 545.083C663.376 545.083 665.956 544.013 667.815 542.152C669.675 540.293 670.746 537.713 670.746 535.083C670.746 532.453 669.676 529.883 667.815 528.013Z" fill="#7D8284"/>
</g>
</g>
<defs>
<clipPath id="clip0_112_139">
<rect width="909" height="909" fill="white"/>
</clipPath>
<clipPath id="clip1_112_139">
<rect width="512" height="512" fill="white" transform="translate(199 148)"/>
</clipPath>
</defs>
</svg>
