<svg width="98" height="98" viewBox="0 0 98 98" fill="none" xmlns="http://www.w3.org/2000/svg">
<g clip-path="url(#clip0_1_9)">
<path d="M97.003 89.353V7.649C97.003 3.42457 93.5784 0 89.354 0L7.64899 0C3.42457 0 -7.62939e-06 3.42457 -7.62939e-06 7.649V89.353C-7.62939e-06 93.5774 3.42457 97.002 7.64899 97.002H89.354C93.5784 97.002 97.003 93.5774 97.003 89.353Z" fill="black"/>
<path d="M72.546 42.9303C72.827 42.769 73 42.4708 73 42.1481V35.4516C73 35.1289 72.827 34.8307 72.546 34.6694L66.7157 31.3211C66.4348 31.1598 66.0886 31.1598 65.8076 31.3211L60.4313 34.4087L55.2384 31.4266V25.2515C55.2384 24.9288 55.0655 24.6306 54.7844 24.4693L48.954 21.121C48.6731 20.9597 48.3269 20.9597 48.046 21.121L42.2157 24.4693C41.9346 24.6306 41.7617 24.9288 41.7617 25.2515V31.4265L36.5687 34.4086L31.1925 31.3211C30.9115 31.1598 30.5653 31.1598 30.2844 31.3211L24.454 34.6694C24.173 34.8307 24 35.1289 24 35.4516V42.1481C24 42.4708 24.173 42.769 24.454 42.9303L29.8304 46.0179V51.982L24.454 55.0697C24.173 55.231 24 55.5291 24 55.8519V62.5484C24 62.8711 24.173 63.1692 24.454 63.3306L30.2844 66.6788C30.4248 66.7596 30.5817 66.7999 30.7384 66.7999C30.8952 66.7999 31.0521 66.7596 31.1925 66.6788L36.5688 63.5913L41.7617 66.5734V72.7484C41.7617 73.0711 41.9346 73.3693 42.2157 73.5306L48.046 76.879C48.1864 76.9597 48.3432 77 48.5 77C48.6568 77 48.8136 76.9597 48.954 76.879L54.7844 73.5307C55.0655 73.3694 55.2384 73.0713 55.2384 72.7485V66.5734L60.4312 63.5914L65.8075 66.6789C65.9479 66.7597 66.1048 66.8 66.2616 66.8C66.4183 66.8 66.5752 66.7597 66.7156 66.6789L72.5459 63.3307C72.8269 63.1693 72.9999 62.8713 72.9999 62.5485V55.852C72.9999 55.5293 72.8269 55.2311 72.5459 55.0698L67.1696 51.9822V46.0181L72.546 42.9303ZM66.2617 58.1571L62.2474 55.8517L66.2617 53.5464L70.2759 55.8517L66.2617 58.1571ZM54.3304 65.009L49.4081 62.1823V56.218L54.7844 53.1304C55.0655 52.9691 55.2384 52.671 55.2384 52.3482V46.1731L60.4312 43.191L65.3535 46.0179V51.982L59.9771 55.0696C59.6961 55.2309 59.5231 55.529 59.5231 55.8517V62.0269L54.3304 65.009ZM48.5 68.3573L44.4858 66.052L48.5 63.7466L52.5143 66.052L48.5 68.3573ZM37.4769 62.027V55.8519C37.4769 55.5292 37.3039 55.231 37.0229 55.0697L31.6465 51.9821V46.018L36.5688 43.1911L41.7617 46.1732V52.3482C41.7617 52.6709 41.9346 52.9691 42.2157 53.1304L47.5919 56.218V62.1823L42.6697 65.0091L37.4769 62.027ZM30.7384 58.1571L26.7242 55.8517L30.7384 53.5464L34.7527 55.8517L30.7384 58.1571ZM42.6697 32.991L48.046 36.0785C48.1864 36.1592 48.3432 36.1996 48.5 36.1996C48.6568 36.1996 48.8136 36.1593 48.954 36.0785L54.3304 32.991L59.5231 35.9731V41.6267L54.3303 44.6088L48.954 41.5213C48.6731 41.3599 48.3269 41.3599 48.046 41.5213L42.6696 44.6088L37.4768 41.6267V35.9732L42.6697 32.991ZM47.5919 29.1212V33.7318L43.5778 31.4266V26.816L47.5919 29.1212ZM49.4081 29.1212L53.4223 26.8158V31.4265L49.4081 33.7318V29.1212ZM65.3536 39.3214V43.932L61.3393 41.6266V37.016L65.3536 39.3214ZM43.5778 47.2161L47.5919 49.5215V54.1321L43.5778 51.8267V47.2161ZM48.5 47.957L44.4857 45.6517L48.5 43.3464L52.5143 45.6516L48.5 47.957ZM49.4081 49.5215L53.4223 47.2161V51.8267L49.4081 54.1321V49.5215ZM35.6608 37.016V41.6266L31.6465 43.932V39.3214L35.6608 37.016ZM67.1697 43.932V39.3214L71.1839 37.0161V41.6266L67.1697 43.932ZM66.2617 33.1463L70.2758 35.4516L66.2617 37.7569L62.2474 35.4516L66.2617 33.1463ZM48.5 22.9462L52.5143 25.2515L48.5 27.5568L44.4857 25.2515L48.5 22.9462ZM30.7384 33.1463L34.7527 35.4516L30.7384 37.7569L26.7242 35.4516L30.7384 33.1463ZM25.8161 37.0161L29.8304 39.3214V43.932L25.8161 41.6266V37.0161ZM25.8161 57.4161L29.8304 59.7215V64.3323L25.8161 62.0269V57.4161ZM31.6465 64.3323V59.7215L35.6608 57.4161V62.0268L31.6465 64.3323ZM43.5778 67.6164L47.5919 69.9216V74.5324L43.5778 72.227V67.6164ZM53.4225 72.2269L49.4081 74.5324V69.9216L53.4223 67.6163V72.2269H53.4225ZM61.3393 57.4161L65.3536 59.7215V64.3323L61.3393 62.0269V57.4161ZM67.1697 64.3323V59.7215L71.1839 57.4162V62.0269L67.1697 64.3323Z" fill="white"/>
</g>
<defs>
<clipPath id="clip0_1_9">
<rect width="97.003" height="97.002" fill="white"/>
</clipPath>
</defs>
</svg>
