<svg width="98" height="98" viewBox="0 0 98 98" fill="none" xmlns="http://www.w3.org/2000/svg">
<g clip-path="url(#clip0_1_15)">
<path d="M97.003 89.353V7.649C97.003 3.42457 93.5784 0 89.354 0L7.64899 0C3.42457 0 -7.62939e-06 3.42457 -7.62939e-06 7.649V89.353C-7.62939e-06 93.5774 3.42457 97.002 7.64899 97.002H89.354C93.5784 97.002 97.003 93.5774 97.003 89.353Z" fill="black"/>
<path d="M45.4949 36.8084C45.0397 36.8418 44.6997 37.2312 44.7271 37.6864C44.7546 38.119 45.1165 38.4535 45.5497 38.4535C45.5662 38.4535 45.5881 38.4535 45.6046 38.4481V38.4535C46.0597 38.4206 46.3997 38.0258 46.3723 37.5761C46.3394 37.121 45.95 36.781 45.4949 36.8084Z" fill="white"/>
<path d="M39.6819 57.7019C39.2377 57.6027 38.7935 57.8769 38.6948 58.3216C38.5961 58.7658 38.8758 59.21 39.32 59.3087C39.3803 59.3197 39.4406 59.3252 39.5009 59.3252C39.8738 59.3252 40.2138 59.0669 40.3016 58.683C40.4003 58.2448 40.1206 57.8006 39.6819 57.7019Z" fill="white"/>
<path d="M59.3581 38.1136C58.9194 37.9929 58.4642 38.2452 58.3435 38.6839C58.2229 39.1226 58.4806 39.5777 58.9194 39.6989C58.9906 39.7209 59.0674 39.7264 59.1387 39.7264C59.4952 39.7264 59.8297 39.49 59.9284 39.1226C60.0545 38.6888 59.7968 38.2342 59.3581 38.1136Z" fill="white"/>
<path d="M61.4529 40.5264C61.5462 40.5593 61.6504 40.5758 61.7436 40.5758C62.0781 40.5758 62.3907 40.3784 62.5113 40.0493C62.6758 39.6216 62.462 39.1445 62.0342 38.9855C61.612 38.8264 61.1349 39.0409 60.9758 39.4626C60.8168 39.8903 61.0252 40.3619 61.4529 40.5264Z" fill="white"/>
<path d="M42.3142 58.1955C41.8646 58.1297 41.4478 58.4368 41.382 58.8865C41.3162 59.3361 41.6233 59.7529 42.0729 59.8242C42.1113 59.8302 42.1552 59.8302 42.1936 59.8302C42.5939 59.8302 42.9449 59.5396 43.0052 59.1283C43.0765 58.6781 42.7639 58.2613 42.3142 58.1955Z" fill="white"/>
<path d="M53.8633 37.0332C53.8578 37.0332 53.8578 37.0332 53.8578 37.0332C53.4081 36.9784 53.0023 37.2959 52.9475 37.7461C52.8872 38.2013 53.2107 38.6071 53.6604 38.6619V38.6674C53.6933 38.6674 53.7262 38.6734 53.7591 38.6734C54.1704 38.6734 54.5268 38.3658 54.5762 37.9496C54.631 37.4988 54.313 37.0875 53.8633 37.0332Z" fill="white"/>
<path d="M28.9555 53.5232C28.6594 53.8687 28.7033 54.3836 29.0487 54.6798C29.2023 54.8114 29.3942 54.8772 29.5807 54.8772C29.8165 54.8772 30.0468 54.7785 30.2113 54.5865C30.502 54.2411 30.4636 53.7201 30.1126 53.43C29.7671 53.1339 29.2517 53.1777 28.9555 53.5232Z" fill="white"/>
<path d="M56.6271 37.4719C56.1774 37.3842 55.7497 37.6748 55.6619 38.119C55.5742 38.5638 55.8648 38.997 56.309 39.0847C56.3639 39.0957 56.4187 39.1006 56.4681 39.1006C56.8574 39.1006 57.2029 38.8264 57.2742 38.4371C57.3619 37.9874 57.0713 37.5597 56.6271 37.4719Z" fill="white"/>
<path d="M34.5983 56.0952C34.1815 55.9142 33.699 56.1116 33.518 56.5284C33.3425 56.9452 33.5344 57.4283 33.9567 57.6087C34.0609 57.6526 34.1706 57.6745 34.2748 57.6745C34.5983 57.6745 34.8999 57.4826 35.0315 57.17C35.2125 56.7532 35.0206 56.2706 34.5983 56.0952Z" fill="white"/>
<path d="M29.5697 41.8974C29.2133 42.1716 29.1475 42.6865 29.4217 43.049C29.5862 43.2574 29.8275 43.3671 30.0743 43.3671C30.2497 43.3671 30.4252 43.3123 30.5733 43.1971C30.9352 42.9169 31.001 42.4019 30.7268 42.0449C30.4472 41.683 29.9317 41.6177 29.5697 41.8974Z" fill="white"/>
<path d="M31.9826 40.34C31.5822 40.5539 31.4342 41.0529 31.6535 41.4527C31.8016 41.7269 32.0867 41.8859 32.3774 41.8859C32.509 41.8859 32.6406 41.853 32.7667 41.7872C33.1671 41.5678 33.3151 41.0688 33.1013 40.6685C32.8819 40.2742 32.3829 40.1207 31.9826 40.34Z" fill="white"/>
<path d="M32.2404 54.9161C31.8455 54.6858 31.3465 54.8169 31.1162 55.2122C30.8858 55.6016 31.0175 56.1061 31.4068 56.3364H31.4123C31.5384 56.4132 31.681 56.4516 31.8236 56.4516C32.1087 56.4516 32.3829 56.303 32.5365 56.0403C32.7668 55.651 32.6297 55.1464 32.2404 54.9161Z" fill="white"/>
<path d="M48.286 36.7097C47.8309 36.7097 47.4634 37.0826 47.4634 37.5378C47.4689 37.9874 47.8363 38.3548 48.286 38.3548H48.2915C48.7467 38.3548 49.1141 37.9814 49.1086 37.5268C49.1086 37.0716 48.7412 36.7097 48.286 36.7097Z" fill="white"/>
<path d="M66.1032 42.9558C66.2513 43.0655 66.4213 43.1148 66.5858 43.1148C66.8435 43.1148 67.0903 42.9997 67.2548 42.7748C67.5181 42.4074 67.4413 41.8974 67.0739 41.6287C66.7064 41.36 66.191 41.4423 65.9222 41.8097C65.659 42.1771 65.7358 42.6926 66.1032 42.9558Z" fill="white"/>
<path d="M42.709 37.0875C42.2593 37.1478 41.9467 37.5591 42.007 38.0094C42.0619 38.4261 42.4128 38.7277 42.8186 38.7277C42.857 38.7277 42.8899 38.7223 42.9283 38.7168C43.378 38.6564 43.6961 38.2452 43.6357 37.7949C43.5754 37.3458 43.1641 37.0277 42.709 37.0875Z" fill="white"/>
<path d="M67.6113 53.9236C67.7758 54.0826 67.9842 54.1594 68.1926 54.1594C68.401 54.1594 68.6148 54.0777 68.7793 53.9186C69.0974 53.5896 69.0919 53.0686 68.7684 52.7506C68.4448 52.4325 67.9239 52.438 67.6058 52.7615C67.2877 53.0851 67.2877 53.6055 67.6113 53.9236Z" fill="white"/>
<path d="M64.6281 40.1316V40.1371C64.2223 39.9227 63.7287 40.0817 63.5203 40.4881C63.312 40.8939 63.471 41.388 63.8713 41.5963C63.992 41.6561 64.1236 41.6896 64.2497 41.6896C64.5458 41.6896 64.8365 41.5251 64.9845 41.2448C65.1929 40.839 65.0284 40.34 64.6281 40.1316Z" fill="white"/>
<path d="M63.3284 55.6729C62.9171 55.8698 62.7471 56.3584 62.9445 56.7697C63.0871 57.0658 63.3777 57.2358 63.6848 57.2358C63.8055 57.2358 63.9261 57.2139 64.0413 57.159C64.4471 56.9616 64.6226 56.4681 64.4251 56.0623C64.2277 55.651 63.7397 55.4755 63.3284 55.6729Z" fill="white"/>
<path d="M50.3645 58.6068C49.9094 58.6232 49.5584 59.0071 49.5748 59.4628C49.5968 59.907 49.9587 60.2519 50.3974 60.2519H50.4358C50.4358 60.2465 50.4358 60.2465 50.4358 60.2465C50.8855 60.23 51.2364 59.8461 51.22 59.3904C51.1981 58.9358 50.8142 58.5848 50.3645 58.6068Z" fill="white"/>
<path d="M65.6152 54.3837C65.2368 54.6359 65.1326 55.1465 65.3848 55.5243C65.5439 55.7607 65.8071 55.8917 66.0703 55.8917C66.2294 55.8917 66.3884 55.8478 66.5255 55.7491C66.9039 55.4969 67.0081 54.9869 66.7558 54.6085C66.5036 54.2307 65.9881 54.1319 65.6152 54.3837Z" fill="white"/>
<path d="M47.6719 58.6397V58.6336C47.2168 58.6282 46.8439 58.9901 46.8329 59.4453C46.8274 59.8949 47.1839 60.2733 47.639 60.2843C47.639 60.2783 47.639 60.2783 47.639 60.2783C48.0942 60.2898 48.4726 59.9273 48.478 59.4721C48.489 59.023 48.1271 58.6452 47.6719 58.6397Z" fill="white"/>
<path d="M44.9849 58.5026C44.5297 58.4642 44.1349 58.8042 44.0965 59.2533C44.0636 59.7085 44.3981 60.1039 44.8478 60.1417H44.9191C45.3413 60.1417 45.7032 59.8182 45.7361 59.3904C45.7745 58.9358 45.44 58.541 44.9849 58.5026Z" fill="white"/>
<path d="M53.0461 58.4039C52.5909 58.4532 52.2674 58.859 52.3167 59.3087C52.3606 59.731 52.7171 60.0436 53.1338 60.0436C53.1613 60.0436 53.1887 60.0436 53.2216 60.0381C53.6713 59.9887 54.0003 59.5829 53.9509 59.1332C53.9016 58.683 53.4958 58.3545 53.0461 58.4039Z" fill="white"/>
<path d="M51.0775 36.781C50.6223 36.759 50.2329 37.1045 50.211 37.5597C50.1836 38.0094 50.5291 38.3987 50.9842 38.4261H51.0281C51.4613 38.4261 51.8233 38.0861 51.8507 37.6529C51.8781 37.1977 51.5326 36.8084 51.0775 36.781Z" fill="white"/>
<path d="M56.6545 58.6945C56.5777 58.2448 56.15 57.9487 55.7058 58.0255C55.2561 58.1072 54.96 58.5355 55.0368 58.9791C55.1081 59.3795 55.4535 59.6591 55.8484 59.6591C55.8922 59.6591 55.9416 59.6536 55.991 59.6482C56.4406 59.5665 56.7368 59.1382 56.6545 58.6945Z" fill="white"/>
<path d="M39.9507 37.5542C39.5065 37.6474 39.2214 38.0806 39.3091 38.5298C39.3914 38.9136 39.7369 39.1823 40.1153 39.1823C40.1701 39.1823 40.2304 39.1769 40.2853 39.1659C40.7294 39.0727 41.0146 38.6394 40.9214 38.1953C40.8282 37.7511 40.3949 37.4664 39.9507 37.5542Z" fill="white"/>
<path d="M56.3529 30.48C56.6764 30.1619 56.6764 29.641 56.3529 29.3174C56.0348 28.9994 55.5139 28.9994 55.1903 29.3174C54.8723 29.641 54.8668 30.1619 55.1903 30.48C55.3493 30.6445 55.5632 30.7213 55.7716 30.7213C55.98 30.7213 56.1939 30.644 56.3529 30.48Z" fill="white"/>
<path d="M60.8716 36.5232H60.877C60.707 36.1004 60.2299 35.8926 59.8077 36.0565C59.3854 36.2271 59.177 36.7042 59.3416 37.1259C59.4732 37.4495 59.7803 37.6469 60.1093 37.6469C60.208 37.6469 60.3122 37.6304 60.4109 37.5865C60.8332 37.4226 61.0416 36.9455 60.8716 36.5232Z" fill="white"/>
<path d="M62.2042 49.4542C61.7545 49.4323 61.3651 49.7832 61.3432 50.2384C61.3213 50.6935 61.6722 51.0774 62.1219 51.0994H62.1658C62.599 51.0994 62.9664 50.7594 62.9884 50.3201C63.0103 49.8655 62.6593 49.4816 62.2042 49.4542Z" fill="white"/>
<path d="M62.0233 52.1901C61.5736 52.1353 61.1623 52.4533 61.102 52.9036C61.0472 53.3527 61.3597 53.764 61.8149 53.8248C61.8478 53.8303 61.8862 53.8303 61.9191 53.8303C62.3249 53.8303 62.6814 53.5287 62.7362 53.1174C62.7965 52.6623 62.4785 52.251 62.0233 52.1901Z" fill="white"/>
<path d="M61.7709 42.8955C62.2151 42.8132 62.5058 42.38 62.4235 41.9358C62.3358 41.4911 61.908 41.1949 61.4638 41.2832C61.0142 41.3655 60.7235 41.7987 60.8058 42.2429C60.8826 42.6377 61.228 42.9119 61.6119 42.9119C61.6667 42.9119 61.7161 42.9065 61.7709 42.8955Z" fill="white"/>
<path d="M61.6284 54.9052C61.1842 54.8119 60.7455 55.0916 60.6468 55.5358C60.5535 55.98 60.8332 56.4182 61.2774 56.5114C61.3377 56.5278 61.3926 56.5333 61.4529 56.5333C61.8313 56.5333 62.1713 56.2706 62.2535 55.8862C62.3522 55.4426 62.0726 55.0033 61.6284 54.9052Z" fill="white"/>
<path d="M58.9687 35.1523C59.1003 35.1523 59.232 35.1243 59.3526 35.059C59.7529 34.8446 59.9065 34.3456 59.6926 33.9458C59.4842 33.5455 58.9852 33.3919 58.5849 33.6058C58.1791 33.8197 58.031 34.3132 58.2394 34.719C58.3874 34.9932 58.6726 35.1523 58.9687 35.1523Z" fill="white"/>
<path d="M58.2009 31.522C57.9377 31.1485 57.4276 31.0668 57.0547 31.3295C56.6873 31.5927 56.5996 32.1027 56.8628 32.4761C57.0218 32.7004 57.2796 32.8216 57.5318 32.8216C57.6964 32.8216 57.8664 32.7717 58.0089 32.6681C58.3818 32.4043 58.4696 31.8894 58.2009 31.522Z" fill="white"/>
<path d="M62.1767 46.7123C61.7216 46.7282 61.3596 47.1071 61.3761 47.5568V47.5623C61.3871 48.0065 61.7545 48.3574 62.1987 48.3574H62.2206C62.6758 48.3459 63.0322 47.9681 63.0213 47.5129C63.0048 47.0632 62.6264 46.7013 62.1767 46.7123Z" fill="white"/>
<path d="M61.1951 44.8861C61.2444 45.3133 61.6009 45.6265 62.0177 45.6265C62.0451 45.6265 62.0725 45.621 62.0999 45.621C62.5551 45.5716 62.8841 45.1658 62.8348 44.7161C62.7854 44.261 62.3796 43.9374 61.9299 43.9813C61.4748 44.0306 61.1512 44.4365 61.1951 44.8861Z" fill="white"/>
<path d="M35.07 43.9923C35.1139 43.9977 35.1523 44.0032 35.1962 44.0032C35.5965 44.0032 35.9475 43.7126 36.0078 43.3068C36.0791 42.8571 35.772 42.4403 35.3223 42.3685C34.8726 42.2972 34.4504 42.6048 34.3845 43.054C34.3133 43.5042 34.6204 43.9204 35.07 43.9923Z" fill="white"/>
<path d="M38.5578 63.6355C38.1794 63.8823 38.0697 64.3923 38.3165 64.7761C38.4755 65.0174 38.7387 65.149 39.0074 65.149C39.161 65.149 39.3145 65.1057 39.4571 65.0119C39.8355 64.7657 39.9452 64.2552 39.6929 63.8773C39.4462 63.4984 38.9362 63.3882 38.5578 63.6355Z" fill="white"/>
<path d="M34.7958 49.4652C35.2455 49.4652 35.6129 49.0977 35.6129 48.6426C35.6129 48.1874 35.24 47.82 34.7904 47.82C34.3352 47.8255 33.9678 48.1929 33.9678 48.6481C33.9678 49.1032 34.3407 49.4707 34.7958 49.4652Z" fill="white"/>
<path d="M59.04 60.6023V60.6084C58.8646 61.0197 59.0565 61.5077 59.4733 61.6832C59.5775 61.7326 59.6871 61.7545 59.7968 61.7545C60.1149 61.7545 60.4165 61.5681 60.5536 61.2555C60.7346 60.8387 60.5426 60.3561 60.1204 60.1752C59.7036 59.9942 59.221 60.1861 59.04 60.6023Z" fill="white"/>
<path d="M58.9851 62.6703C58.5903 62.44 58.0858 62.5771 57.8609 62.9719C57.6306 63.3613 57.7677 63.8658 58.1626 64.0961C58.2887 64.1674 58.4313 64.2058 58.5739 64.2058C58.8535 64.2058 59.1332 64.0578 59.2868 63.7945C59.5116 63.3997 59.3745 62.8952 58.9851 62.6703Z" fill="white"/>
<path d="M57.5538 65.0065C57.1919 64.7268 56.6764 64.7926 56.3967 65.149C56.1171 65.5055 56.1774 66.0215 56.5393 66.3061C56.6874 66.4213 56.8684 66.4767 57.0438 66.4767C57.2851 66.4767 57.5319 66.3725 57.6909 66.1641C57.9706 65.8071 57.9103 65.2856 57.5538 65.0065Z" fill="white"/>
<path d="M38.4042 61.579C38.2067 61.1677 37.7132 60.9977 37.3019 61.1952C36.8961 61.3926 36.7206 61.8867 36.9235 62.298C37.0661 62.5881 37.3567 62.7586 37.6638 62.7586C37.7845 62.7586 37.9051 62.7367 38.0203 62.6764C38.4316 62.4784 38.6016 61.9848 38.4042 61.579Z" fill="white"/>
<path d="M39.5449 33.3535V33.359C39.7861 32.9697 39.671 32.4652 39.2871 32.2239C38.9032 31.9776 38.3987 32.0928 38.152 32.4767C37.9107 32.86 38.0258 33.3705 38.4097 33.6113C38.5468 33.699 38.7003 33.7374 38.8484 33.7374C39.1226 33.7374 39.3913 33.6058 39.5449 33.3535Z" fill="white"/>
<path d="M36.7754 37.0875C36.3477 36.9345 35.8761 37.1648 35.728 37.592C35.58 38.0198 35.8103 38.4919 36.238 38.6394C36.3258 38.6729 36.419 38.6833 36.5067 38.6833C36.8467 38.6833 37.1648 38.4694 37.2854 38.1349V38.1294C37.4335 37.7022 37.2032 37.2361 36.7754 37.0875Z" fill="white"/>
<path d="M37.8887 34.5759C37.4774 34.3839 36.9893 34.56 36.7919 34.9713C36.6 35.3826 36.7754 35.8756 37.1867 36.068C37.3019 36.1229 37.4171 36.1448 37.5377 36.1448C37.8448 36.1448 38.1409 35.9693 38.2835 35.6732C38.4754 35.2614 38.3 34.7739 37.8887 34.5759Z" fill="white"/>
<path d="M39.852 30.1729C39.5558 30.5184 39.5942 31.0394 39.9342 31.3355C40.0933 31.4665 40.2852 31.5324 40.4716 31.5324C40.702 31.5324 40.9323 31.4391 41.0968 31.2472C41.3929 30.9072 41.3545 30.3862 41.0145 30.0901C40.6691 29.7945 40.1481 29.8274 39.852 30.1729Z" fill="white"/>
<path d="M35.9309 39.6924C35.4867 39.5832 35.0425 39.8574 34.9328 40.2961C34.8231 40.7403 35.0973 41.1845 35.536 41.2936C35.6018 41.3101 35.6677 41.3156 35.7335 41.3156C36.1009 41.3156 36.4409 41.0633 36.5286 40.6904C36.6383 40.2468 36.3696 39.8026 35.9309 39.6924Z" fill="white"/>
<path d="M34.8397 50.5619C34.39 50.6003 34.05 50.9952 34.0884 51.4503C34.1213 51.8781 34.4832 52.2071 34.9055 52.2071C34.9329 52.2071 34.9549 52.2071 34.9768 52.2016C35.4265 52.1682 35.7665 51.7684 35.7281 51.3132C35.6897 50.8635 35.2949 50.523 34.8397 50.5619Z" fill="white"/>
<path d="M34.8232 46.7232C34.8452 46.7287 34.8671 46.7287 34.8835 46.7287C35.3113 46.7287 35.6732 46.3997 35.7061 45.9664C35.739 45.5113 35.399 45.1164 34.9439 45.0835C34.4942 45.0506 34.0994 45.3912 34.0665 45.8463C34.0281 46.2949 34.3735 46.6903 34.8232 46.7232Z" fill="white"/>
<path d="M35.1084 53.2929C34.6587 53.3642 34.3571 53.7914 34.4284 54.2361C34.4942 54.6419 34.8452 54.9271 35.24 54.9271C35.2839 54.9271 35.3278 54.9216 35.3771 54.9161C35.8213 54.8388 36.1284 54.4171 36.0516 53.9724C35.9803 53.5232 35.5581 53.2161 35.1084 53.2929Z" fill="white"/>
<path d="M70.9784 44.9815C69.4599 35.2466 61.7529 27.5406 52.019 26.0222C51.7563 24.3139 50.2806 23 48.5 23C46.7194 23 45.2442 24.3134 44.9815 26.0216C35.2466 27.5401 27.5401 35.2466 26.0216 44.9815C24.3134 45.2442 23 46.7194 23 48.5C23 50.2806 24.3139 51.7563 26.0222 52.019C27.5077 61.7589 35.3744 69.5175 44.9837 70.9789C45.2464 72.6866 46.7199 74 48.5 74C50.2806 74 51.7558 72.6866 52.0185 70.9784C61.6273 69.5158 69.4917 61.7578 70.9778 52.019C72.6861 51.7563 74 50.2806 74 48.5C74 46.7194 72.6866 45.2442 70.9784 44.9815ZM48.5 24.6452C49.5584 24.6452 50.4194 25.5061 50.4194 26.5645C50.4122 27.5971 49.5726 28.4899 48.5 28.4839C47.4416 28.4839 46.5806 27.6229 46.5806 26.5645C46.5806 25.5061 47.4416 24.6452 48.5 24.6452ZM24.6452 48.5C24.6452 47.4416 25.5061 46.5806 26.5645 46.5806C27.6229 46.5806 28.4839 47.4416 28.4839 48.5C28.4839 49.5584 27.6229 50.4194 26.5645 50.4194C25.5061 50.4194 24.6452 49.5584 24.6452 48.5ZM48.5 72.3548C47.4416 72.3548 46.5806 71.4939 46.5806 70.4355C46.5806 69.3771 47.4416 68.5161 48.5 68.5161C49.5584 68.5161 50.4194 69.3771 50.4194 70.4355C50.4194 71.4939 49.5584 72.3548 48.5 72.3548ZM61.3871 65.2033C59.8116 66.4218 58.0606 67.4232 56.1774 68.1608V63.0504C56.1774 62.5963 55.8095 62.2278 55.3548 62.2278C54.9002 62.2278 54.5323 62.5963 54.5323 63.0504V67.1775C54.3173 67.4665 54.3107 67.8581 54.5323 68.1525V68.7284C54.263 68.809 53.9915 68.8841 53.7185 68.9537C53.7058 68.9208 53.6943 68.8879 53.6768 68.8567C53.4574 68.4564 52.9584 68.3138 52.5581 68.5331C52.2762 68.6856 52.1232 68.9866 52.1369 69.2899C52.0541 69.3042 51.9718 69.3201 51.8885 69.3338C51.4229 67.9063 50.081 66.871 48.5 66.871C47.0676 66.871 45.8332 67.7221 45.2667 68.9439C44.9497 68.8523 44.6207 68.9625 44.4173 69.2066C44.0241 69.1292 43.6336 69.0437 43.2486 68.9444C43.2777 68.9159 43.3084 68.8896 43.3342 68.8567C43.6029 68.4947 43.5316 67.9787 43.1697 67.7045C42.9613 67.5466 42.7025 67.5087 42.4677 67.5713V63.0509C42.4677 62.5968 42.0998 62.2283 41.6452 62.2283C41.1905 62.2283 40.8226 62.5968 40.8226 63.0509V65.7106C40.5775 65.6623 40.3159 65.7117 40.1152 65.8899C39.7806 66.197 39.7532 66.718 40.0548 67.0525C40.2139 67.2335 40.4387 67.3267 40.6635 67.3267C40.7173 67.3267 40.7694 67.3086 40.8226 67.2976V68.1608C38.9394 67.4232 37.1884 66.4213 35.6129 65.2033V62.6703C35.6129 61.6092 35.761 60.7296 36.0533 60.0068C36.2035 60.1445 36.3971 60.2295 36.6055 60.2295C36.6932 60.2295 36.7865 60.2185 36.8797 60.1856C37.3074 60.0265 37.5323 59.5604 37.3787 59.1327C37.3008 58.9155 37.1402 58.7515 36.9455 58.6616C38.7376 56.9517 42.4244 56.9759 46.6854 57.0077C47.1981 57.0115 49.8013 57.0115 50.3141 57.0077C53.351 56.9841 56.0935 56.9676 58.0699 57.5775C57.7897 57.7666 57.6427 58.1138 57.7288 58.4642C57.8275 58.8316 58.162 59.0784 58.524 59.0784C58.5953 59.0784 58.6611 59.0729 58.7324 59.0565C59.1491 58.9473 59.4036 58.5355 59.3345 58.1187C59.6218 58.2887 59.8807 58.4839 60.1072 58.7088C60.9681 59.5643 61.3865 60.8601 61.3865 62.6709L61.3871 65.2033ZM54.5926 43.1532C56.8273 43.1532 58.6452 44.9711 58.6452 47.2058C58.6452 49.0999 57.357 50.7232 55.515 51.1536C55.2134 51.2233 54.903 51.2584 54.5926 51.2584C53.152 51.2584 51.8068 50.4808 51.0824 49.2283L50.8444 48.8181H50.37H46.63H46.1556L45.9176 49.2283C45.1927 50.4808 43.848 51.2584 42.4074 51.2584C42.097 51.2584 41.7866 51.2233 41.4867 51.1536C39.643 50.7232 38.3548 49.0999 38.3548 47.2058C38.3548 44.9717 40.1727 43.1532 42.4074 43.1532H54.5926ZM44.8817 41.5081C45.9725 40.8955 47.208 40.5703 48.5 40.5703C49.792 40.5703 51.0275 40.8955 52.1183 41.5081H44.8817ZM43.0331 52.8652C44.6437 52.6825 46.1485 51.7903 47.0797 50.4632H49.9198C50.8663 51.8166 52.4078 52.705 54.0469 52.8772C51.294 56.1643 45.7054 56.1643 42.9531 52.8772C42.9799 52.875 43.0063 52.8685 43.0331 52.8652ZM63.0323 63.7885V62.6703C63.0323 60.3984 62.4548 58.7208 61.2665 57.5407C59.578 55.8643 56.8969 55.4579 53.6998 55.374C54.7105 54.6644 55.578 53.7453 56.2372 52.6584C58.6402 51.9362 60.2909 49.7465 60.2909 47.2058C60.2909 44.1442 57.861 41.6457 54.8295 41.5201C53.1432 39.8722 50.8614 38.9252 48.5 38.9252C46.1386 38.9252 43.8568 39.8722 42.1711 41.5201C39.1396 41.6452 36.7097 44.1442 36.7097 47.2058C36.7097 49.7459 38.3592 51.9356 40.7628 52.6584C41.422 53.7453 42.2895 54.665 43.3002 55.3746C40.1025 55.4585 37.422 55.8654 35.7335 57.5413C34.5452 58.7208 33.9677 60.3989 33.9677 62.6709V63.789C30.9247 60.8957 28.7394 57.1086 27.8439 52.8498C27.9667 52.8339 28.089 52.7988 28.1987 52.7231C28.5716 52.4648 28.6703 51.9554 28.4126 51.5825V51.5765C28.4071 51.5682 28.3994 51.5622 28.3934 51.554C29.4309 50.9299 30.129 49.7964 30.129 48.5C30.129 47.0594 29.2681 45.8184 28.0353 45.2568C28.0605 45.259 28.0852 45.2695 28.1104 45.2695C28.3517 45.2695 28.5875 45.1658 28.752 44.9624C29.0372 44.6059 28.9769 44.0849 28.6204 43.8053C28.4268 43.6506 28.1866 43.6013 27.9618 43.6424C29.6355 36.5655 34.8759 30.8551 41.6775 28.5261C41.5805 28.7871 41.615 29.0887 41.7982 29.3229C41.9627 29.5253 42.204 29.6349 42.4453 29.6349C42.6207 29.6349 42.8017 29.5801 42.9553 29.46C43.3117 29.1743 43.372 28.6588 43.0924 28.3029C43.0425 28.2404 42.9832 28.1905 42.9213 28.1461C43.3134 28.0386 43.7082 27.9388 44.1091 27.8538C44.2643 28.0748 44.5094 28.2042 44.7759 28.2042C44.8856 28.2042 45.0007 28.1823 45.1104 28.1324C45.1647 28.1082 45.2146 28.0781 45.2607 28.0441C45.825 29.2725 47.0627 30.129 48.5 30.129C50.081 30.129 51.4229 29.0937 51.8885 27.6657C52.2268 27.7205 52.5625 27.7836 52.8953 27.8543C52.7473 28.2119 52.8701 28.6374 53.2106 28.8562H53.2052C53.3477 28.9495 53.5013 28.9878 53.6548 28.9878C53.9235 28.9878 54.1868 28.8562 54.3458 28.6149C54.4187 28.5025 54.4571 28.3786 54.4703 28.2535C61.5988 30.3594 67.1655 36.1322 68.9779 43.3808C68.6911 43.2432 68.3368 43.2783 68.0835 43.5031C67.738 43.7992 67.7051 44.3202 68.0012 44.6602V44.6657C68.1657 44.8521 68.3906 44.9454 68.6209 44.9454C68.8128 44.9454 69.0047 44.8795 69.1583 44.7425C69.1928 44.7123 69.2214 44.6788 69.2499 44.6454C69.2784 44.8006 69.3091 44.9547 69.3343 45.111C67.9063 45.5771 66.871 46.919 66.871 48.5C66.871 50.081 67.9063 51.4229 69.3343 51.8885C68.5803 56.5372 66.3023 60.6791 63.0323 63.7885ZM70.4355 50.4194C69.3771 50.4194 68.5161 49.5584 68.5161 48.5C68.5161 47.4416 69.3771 46.5806 70.4355 46.5806C71.4939 46.5806 72.3548 47.4416 72.3548 48.5C72.3548 49.5584 71.4939 50.4194 70.4355 50.4194Z" fill="white"/>
</g>
<defs>
<clipPath id="clip0_1_15">
<rect width="97.003" height="97.002" fill="white"/>
</clipPath>
</defs>
</svg>
