<svg width="98" height="98" viewBox="0 0 98 98" fill="none" xmlns="http://www.w3.org/2000/svg">
<g clip-path="url(#clip0_129_385)">
<mask id="mask0_129_385" style="mask-type:luminance" maskUnits="userSpaceOnUse" x="0" y="0" width="98" height="98">
<path d="M97.003 0H0V97.002H97.003V0Z" fill="white"/>
</mask>
<g mask="url(#mask0_129_385)">
<path d="M97.003 89.353V7.649C97.003 3.42457 93.5784 0 89.354 0H7.649C3.42458 0 0 3.42457 0 7.649V89.353C0 93.5774 3.42458 97.002 7.649 97.002H89.354C93.5784 97.002 97.003 93.5774 97.003 89.353Z" fill="black"/>
<path d="M71.2055 48.5427L71.2055 48.5426L65.469 43.2839L66.671 41.9701L72.408 47.2284C74.1464 48.8262 75.1365 51.0773 75.1388 53.438V76.433H73.356V53.4379C73.3556 51.5776 72.5749 49.8025 71.2055 48.5427Z" fill="white" stroke="black" stroke-width="0.1"/>
<path d="M55.3352 50.5486L55.3351 50.5486L55.3338 50.5497C54.6569 51.1051 54.2457 51.9203 54.2022 52.7955C54.1589 53.6702 54.4871 54.5225 55.1061 55.1423L55.1415 55.1069L55.1061 55.1423L61.6958 61.732C61.996 62.0322 62.0434 62.503 61.8073 62.8569C59.4452 66.391 58.187 70.5482 58.1915 74.7988V76.4329H34.707C32.1363 76.4296 30.0533 74.3466 30.05 71.7759L30.05 24.7069C30.0533 22.1363 32.1363 20.0533 34.707 20.05L59.1828 20.05C61.7534 20.0533 63.8365 22.1363 63.8397 24.707V52.5586V52.5793L63.8544 52.594L70.1329 58.8744L68.8725 60.1348L59.6162 50.8783C59.6161 50.8781 59.6159 50.878 59.6158 50.8779C58.4808 49.6947 56.6381 49.5525 55.3352 50.5486ZM61.9716 50.7112L62.057 50.7966V50.6759V27.5311V27.4811H62.007H31.8828H31.8328V27.5311V67.0691V67.1191H31.8828H55.3673V68.9019H31.8828H31.8328V68.9519V71.776C31.8328 73.363 33.1199 74.6501 34.7069 74.6501H56.3653H56.4149L56.4153 74.6005C56.4453 70.3288 57.6534 66.1477 59.9059 62.5177L59.9268 62.4841L59.8988 62.456L53.8457 56.4027C52.871 55.4275 52.3538 54.0864 52.4209 52.7096C52.4883 51.3328 53.1341 50.0484 54.1984 49.1734C56.2117 47.5978 59.0874 47.7883 60.8755 49.6151L60.8759 49.6155L61.9716 50.7112ZM62.007 25.6983H62.057V25.6483V24.7069C62.057 23.1199 60.7698 21.8328 59.1828 21.8328H34.7069C33.1199 21.8328 31.8328 23.1199 31.8328 24.7069V25.6483V25.6983H31.8828H62.007Z" fill="white" stroke="black" stroke-width="0.1"/>
<path d="M35.6484 31.2473H35.5984V31.2973V35.0628V35.1128H35.6484H39.4139H39.4639V35.0628V31.2973V31.2473H39.4139H35.6484ZM39.4139 36.8956H35.6484C34.636 36.8956 33.8156 36.0752 33.8156 35.0628V31.2973C33.8156 30.2849 34.636 29.4646 35.6484 29.4646H39.4139C40.4263 29.4646 41.2467 30.2849 41.2467 31.2973V35.0628C41.2467 36.0752 40.4263 36.8956 39.4139 36.8956Z" fill="white" stroke="black" stroke-width="0.1"/>
<path d="M45.0625 31.2473H45.0125V31.2973V35.0628V35.1128H45.0625H48.828H48.878V35.0628V31.2973V31.2473H48.828H45.0625ZM48.828 36.8956H45.0625C44.0501 36.8956 43.2297 36.0752 43.2297 35.0628V31.2973C43.2297 30.2849 44.0501 29.4646 45.0625 29.4646H48.828C49.8404 29.4646 50.6607 30.2849 50.6607 31.2973V35.0628C50.6607 36.0752 49.8404 36.8956 48.828 36.8956Z" fill="white" stroke="black" stroke-width="0.1"/>
<path d="M54.4765 31.2473H54.4265V31.2973V35.0628V35.1128H54.4765H58.242H58.292V35.0628V31.2973V31.2473H58.242H54.4765ZM58.242 36.8956H54.4765C53.4641 36.8956 52.6438 36.0752 52.6438 35.0628V31.2973C52.6438 30.2849 53.4641 29.4646 54.4765 29.4646H58.242C59.2544 29.4646 60.0748 30.2849 60.0748 31.2973V35.0628C60.0748 36.0752 59.2544 36.8956 58.242 36.8956Z" fill="white" stroke="black" stroke-width="0.1"/>
<path d="M35.6484 40.6599H35.5984V40.7099V44.4754V44.5254H35.6484H39.4139H39.4639V44.4754V40.7099V40.6599H39.4139H35.6484ZM39.4139 46.3082H35.6484C34.636 46.3082 33.8156 45.4878 33.8156 44.4754V40.7099C33.8156 39.6975 34.636 38.8771 35.6484 38.8771H39.4139C40.4263 38.8771 41.2467 39.6975 41.2467 40.7099V44.4754C41.2467 45.4878 40.4263 46.3082 39.4139 46.3082Z" fill="white" stroke="black" stroke-width="0.1"/>
<path d="M35.6484 50.074H35.5984V50.124V53.8895V53.9395H35.6484H39.4139H39.4639V53.8895V50.124V50.074H39.4139H35.6484ZM39.4139 55.7223H35.6484C34.636 55.7223 33.8156 54.9019 33.8156 53.8895V50.124C33.8156 49.1116 34.636 48.2912 35.6484 48.2912H39.4139C40.4263 48.2912 41.2467 49.1116 41.2467 50.124V53.8895C41.2467 54.9019 40.4263 55.7223 39.4139 55.7223Z" fill="white" stroke="black" stroke-width="0.1"/>
<path d="M45.0625 40.6599H45.0125V40.7099V44.4754V44.5254H45.0625H48.828H48.878V44.4754V40.7099V40.6599H48.828H45.0625ZM48.828 46.3082H45.0625C44.0501 46.3082 43.2297 45.4878 43.2297 44.4754V40.7099C43.2297 39.6975 44.0501 38.8771 45.0625 38.8771H48.828C49.8404 38.8771 50.6607 39.6975 50.6607 40.7099V44.4754C50.6607 45.4878 49.8404 46.3082 48.828 46.3082Z" fill="white" stroke="black" stroke-width="0.1"/>
<path d="M54.4765 40.6599H54.4265V40.7099V44.4754V44.5254H54.4765H58.242H58.292V44.4754V40.7099V40.6599H58.242H54.4765ZM58.242 46.3082H54.4765C53.4641 46.3082 52.6438 45.4878 52.6438 44.4754V40.7099C52.6438 39.6975 53.4641 38.8771 54.4765 38.8771H58.242C59.2544 38.8771 60.0748 39.6975 60.0748 40.7099V44.4754C60.0748 45.4878 59.2544 46.3082 58.242 46.3082Z" fill="white" stroke="black" stroke-width="0.1"/>
<path d="M45.0625 50.074H45.0125V50.124V53.8895V53.9395H45.0625H48.828H48.878V53.8895V50.124V50.074H48.828H45.0625ZM48.828 55.7223H45.0625C44.0501 55.7223 43.2297 54.9019 43.2297 53.8895V50.124C43.2297 49.1116 44.0501 48.2912 45.0625 48.2912H48.828C49.8404 48.2912 50.6607 49.1116 50.6607 50.124V53.8895C50.6607 54.9019 49.8404 55.7223 48.828 55.7223Z" fill="white" stroke="black" stroke-width="0.1"/>
<path d="M35.6484 59.4885H35.5984V59.5385V63.3041V63.3541H35.6484H39.4139H39.4639V63.3041V59.5385V59.4885H39.4139H35.6484ZM39.4139 65.1368H35.6484C34.636 65.1368 33.8156 64.3164 33.8156 63.3041V59.5385C33.8156 58.5261 34.636 57.7058 35.6484 57.7058H39.4139C40.4263 57.7058 41.2467 58.5261 41.2467 59.5385V63.3041C41.2467 64.3164 40.4263 65.1368 39.4139 65.1368Z" fill="white" stroke="black" stroke-width="0.1"/>
<path d="M45.0625 59.4885H45.0125V59.5385V63.3041V63.3541H45.0625H48.828H48.878V63.3041V59.5385V59.4885H48.828H45.0625ZM48.828 65.1368H45.0625C44.0501 65.1368 43.2297 64.3164 43.2297 63.3041V59.5385C43.2297 58.5261 44.0501 57.7058 45.0625 57.7058H48.828C49.8404 57.7058 50.6607 58.5261 50.6607 59.5385V63.3041C50.6607 64.3164 49.8404 65.1368 48.828 65.1368Z" fill="white" stroke="black" stroke-width="0.1"/>
<path d="M46.052 70.884H47.8347V72.6667H46.052V70.884Z" fill="white" stroke="black" stroke-width="0.1"/>
</g>
</g>
<defs>
<clipPath id="clip0_129_385">
<rect width="98" height="98" fill="white"/>
</clipPath>
</defs>
</svg>
