<svg width="98" height="98" viewBox="0 0 98 98" fill="none" xmlns="http://www.w3.org/2000/svg">
<g clip-path="url(#clip0_129_388)">
<mask id="mask0_129_388" style="mask-type:luminance" maskUnits="userSpaceOnUse" x="0" y="0" width="98" height="98">
<path d="M97.003 0H0V97.002H97.003V0Z" fill="white"/>
</mask>
<g mask="url(#mask0_129_388)">
<path d="M97.003 89.353V7.649C97.003 3.42457 93.5784 0 89.354 0H7.649C3.42458 0 0 3.42457 0 7.649V89.353C0 93.5774 3.42458 97.002 7.649 97.002H89.354C93.5784 97.002 97.003 93.5774 97.003 89.353Z" fill="black"/>
<mask id="mask1_129_388" style="mask-type:luminance" maskUnits="userSpaceOnUse" x="23" y="20" width="57" height="57">
<path d="M23 20H80V77H23V20Z" fill="white"/>
</mask>
<g mask="url(#mask1_129_388)">
<path d="M56.5508 20.8351L56.0441 23.4803C55.7658 24.9331 54.4957 25.9829 53.0172 25.9829H41.9377C40.4594 25.9829 39.1892 24.9331 38.9108 23.4803L38.4043 20.8351H56.5508Z" stroke="white" stroke-width="2" stroke-miterlimit="10" stroke-linecap="round" stroke-linejoin="round"/>
<path d="M64.2086 63.6941V72.4499C64.2086 74.5017 62.5454 76.165 60.4935 76.165H34.465C32.4132 76.165 30.75 74.5017 30.75 72.4499V24.55C30.75 22.4982 32.4132 20.835 34.465 20.835H60.4935C62.5454 20.835 64.2086 22.4982 64.2086 24.55V48.9941" stroke="white" stroke-width="2" stroke-miterlimit="10" stroke-linecap="round" stroke-linejoin="round"/>
<path d="M64.209 59.8403V56.9981" stroke="white" stroke-width="2" stroke-miterlimit="10" stroke-linecap="round" stroke-linejoin="round"/>
<path d="M45.8164 23.54H49.1447" stroke="white" stroke-width="2" stroke-miterlimit="10" stroke-linecap="round" stroke-linejoin="round"/>
<path d="M60.5915 24.3625C60.5915 24.8165 60.2234 25.1846 59.7693 25.1846C59.3153 25.1846 58.9473 24.8165 58.9473 24.3625C58.9473 23.9085 59.3153 23.5404 59.7693 23.5404C60.2234 23.5404 60.5915 23.9085 60.5915 24.3625Z" fill="black"/>
<path d="M56.1907 55.3696H48.5103C47.5481 55.3696 46.768 56.1496 46.768 57.1117V61.9897H40.9609" stroke="white" stroke-width="2" stroke-miterlimit="10" stroke-linecap="round" stroke-linejoin="round"/>
<path d="M56.1907 61.9897H40.9609" stroke="white" stroke-width="2" stroke-miterlimit="10" stroke-linecap="round" stroke-linejoin="round"/>
<path d="M70.3209 56.999H58.1179C57.0539 56.999 56.1914 56.1366 56.1914 55.0725C56.1914 54.0085 57.0539 53.1461 58.1179 53.1461H70.3209C71.385 53.1461 72.2476 54.0085 72.2476 55.0725C72.2476 56.1366 71.385 56.999 70.3209 56.999Z" stroke="white" stroke-width="2" stroke-miterlimit="10" stroke-linecap="round" stroke-linejoin="round"/>
<path d="M70.3209 63.6943H58.1179C57.0539 63.6943 56.1914 62.8319 56.1914 61.7678C56.1914 60.7038 57.0539 59.8414 58.1179 59.8414H70.3209C71.385 59.8414 72.2476 60.7038 72.2476 61.7678C72.2476 62.8319 71.385 63.6943 70.3209 63.6943Z" stroke="white" stroke-width="2" stroke-miterlimit="10" stroke-linecap="round" stroke-linejoin="round"/>
<path d="M55.5694 70.834H48.5047C47.4406 70.834 46.5781 69.9714 46.5781 68.9073C46.5781 67.8434 47.4406 66.9809 48.5047 66.9809H55.5694C56.6335 66.9809 57.496 67.8434 57.496 68.9073C57.496 69.9714 56.6335 70.834 55.5694 70.834Z" stroke="white" stroke-width="2" stroke-miterlimit="10" stroke-linecap="round" stroke-linejoin="round"/>
<path d="M39.0337 63.9165H36.4948C35.4309 63.9165 34.5684 63.054 34.5684 61.99C34.5684 60.926 35.4309 60.0635 36.4948 60.0635H39.0337C40.0978 60.0635 40.9604 60.926 40.9604 61.99C40.9604 63.054 40.0978 63.9165 39.0337 63.9165Z" stroke="white" stroke-width="2" stroke-miterlimit="10" stroke-linecap="round" stroke-linejoin="round"/>
<path d="M35 33.0002V42.1934C35 43.7591 35.7767 44.8131 37.096 45.6561C37.7386 46.0666 38.55 46.359 39.5586 46.3603C40.432 46.3616 41.162 46.1593 41.7655 45.8554C43.3031 45.0811 44.2834 43.9052 44.2834 42.1838V33.0002" stroke="white" stroke-width="2" stroke-miterlimit="10" stroke-linecap="round" stroke-linejoin="round"/>
<path d="M58.9984 32.6135L48.9609 45.9253" stroke="white" stroke-width="2" stroke-miterlimit="10" stroke-linecap="round" stroke-linejoin="round"/>
<path d="M49.4648 32.6129L59.7468 46.1611" stroke="white" stroke-width="2" stroke-miterlimit="10" stroke-linecap="round" stroke-linejoin="round"/>
<path d="M37.7637 63.917V67.166C37.7637 68.1282 38.5436 68.9082 39.5058 68.9082H42.6159" stroke="white" stroke-width="2" stroke-miterlimit="10" stroke-linecap="round" stroke-linejoin="round"/>
</g>
</g>
</g>
<defs>
<clipPath id="clip0_129_388">
<rect width="98" height="98" fill="white"/>
</clipPath>
</defs>
</svg>
