<svg width="98" height="98" viewBox="0 0 98 98" fill="none" xmlns="http://www.w3.org/2000/svg">
<g clip-path="url(#clip0_1054_487)">
<path d="M96.504 7.649V89.353C96.504 93.3013 93.3032 96.502 89.355 96.502H7.64998C3.70169 96.502 0.500977 93.3013 0.500977 89.353V7.649C0.500977 3.70071 3.70169 0.5 7.64998 0.5H89.355C93.3032 0.5 96.504 3.70071 96.504 7.649Z" stroke="black"/>
<path d="M48.5 29L29 35.972L31.9742 61.823L48.5 71L65.0258 61.823L68 35.972L48.5 29Z" fill="black"/>
<path d="M49 29V33.662V33.641V54.914V71L65.102 61.823L68 35.972L49 29Z" fill="black"/>
<path d="M49.0224 33L36 60H40.8554L43.4733 53.9586H54.5267L57.1446 60H62L49.0224 33ZM52.8262 50.2345H45.2186L49.0224 41.7724L52.8262 50.2345Z" fill="white"/>
</g>
<defs>
<clipPath id="clip0_1054_487">
<rect width="98" height="98" fill="white"/>
</clipPath>
</defs>
</svg>
