<svg width="98" height="98" viewBox="0 0 98 98" fill="none" xmlns="http://www.w3.org/2000/svg">
<g clip-path="url(#clip0_1054_130)">
<path d="M97.004 89.353V7.649C97.004 3.42457 93.5794 0 89.355 0H7.64998C3.42555 0 0.000976562 3.42457 0.000976562 7.649V89.353C0.000976562 93.5774 3.42555 97.002 7.64998 97.002H89.355C93.5794 97.002 97.004 93.5774 97.004 89.353Z" fill="black"/>
<path d="M26.1562 26.1562H27.875V27.875H26.1562V26.1562Z" fill="white"/>
<path d="M29.5938 26.1562H31.3125V27.875H29.5938V26.1562Z" fill="white"/>
<path d="M33.0312 26.1562H34.75V27.875H33.0312V26.1562Z" fill="white"/>
<path d="M67.4062 41.625V31.3125C67.4062 31.0846 67.3157 30.866 67.1545 30.7048C66.9934 30.5437 66.7748 30.4531 66.5469 30.4531H27.0156C26.7877 30.4531 26.5691 30.5437 26.408 30.7048C26.2468 30.866 26.1563 31.0846 26.1562 31.3125V41.625C26.1563 41.8529 26.2468 42.0715 26.408 42.2327C26.5691 42.3938 26.7877 42.4844 27.0156 42.4844H66.5469C66.7748 42.4844 66.9934 42.3938 67.1545 42.2327C67.3157 42.0715 67.4062 41.8529 67.4062 41.625ZM65.6875 40.7656H27.875V32.1719H65.6875V40.7656Z" fill="white"/>
<path d="M71.7031 53.6562C72.3866 53.6555 73.0419 53.3836 73.5253 52.9003C74.0086 52.4169 74.2805 51.7616 74.2812 51.0781V47.6406C74.2805 46.9571 74.0086 46.3018 73.5253 45.8185C73.0419 45.3352 72.3866 45.0633 71.7031 45.0625H70.8438V25.2969C70.843 24.6134 70.5711 23.958 70.0878 23.4747C69.6045 22.9914 68.9491 22.7195 68.2656 22.7188H25.2969C24.6134 22.7195 23.958 22.9914 23.4747 23.4747C22.9914 23.958 22.7195 24.6134 22.7188 25.2969V68.2656C22.7195 68.9491 22.9914 69.6045 23.4747 70.0878C23.958 70.5711 24.6134 70.843 25.2969 70.8438H34.4722C34.9607 71.8716 35.7304 72.74 36.6921 73.3483C37.6539 73.9567 38.7683 74.2802 39.9062 74.2812H71.7031C72.3866 74.2805 73.0419 74.0086 73.5253 73.5253C74.0086 73.0419 74.2805 72.3866 74.2812 71.7031V68.2656C74.2805 67.5821 74.0086 66.9268 73.5253 66.4435C73.0419 65.9602 72.3866 65.6883 71.7031 65.6875H60.5312V63.9688H71.7031C72.3866 63.968 73.0419 63.6961 73.5253 63.2128C74.0086 62.7294 74.2805 62.0741 74.2812 61.3906V57.9531C74.2805 57.2696 74.0086 56.6143 73.5253 56.131C73.0419 55.6477 72.3866 55.3758 71.7031 55.375H60.5312V53.6562H71.7031ZM33.8906 68.2656C33.8909 68.5532 33.9118 68.8404 33.953 69.125H25.2969C25.069 69.1247 24.8506 69.0341 24.6895 68.873C24.5284 68.7119 24.4378 68.4935 24.4375 68.2656V25.2969C24.4378 25.069 24.5284 24.8506 24.6895 24.6895C24.8506 24.5284 25.069 24.4378 25.2969 24.4375H68.2656C68.4935 24.4378 68.7119 24.5284 68.873 24.6895C69.0341 24.8506 69.1247 25.069 69.125 25.2969V26.1562H36.4688V27.875H69.125V45.0625H47.6406C46.9571 45.0633 46.3018 45.3352 45.8185 45.8185C45.3352 46.3018 45.0633 46.9571 45.0625 47.6406V51.0781C45.0633 51.7616 45.3352 52.4169 45.8185 52.9003C46.3018 53.3836 46.9571 53.6555 47.6406 53.6562H58.8125V55.375H45.0625C44.1952 55.3745 43.3381 55.5617 42.5499 55.9236C41.7618 56.2856 41.0613 56.8138 40.4965 57.472C39.9317 58.1302 39.516 58.9027 39.2779 59.7367C39.0398 60.5707 38.9849 61.4463 39.1171 62.3034C37.6719 62.4963 36.3457 63.2069 35.3845 64.3033C34.4234 65.3998 33.8926 66.8076 33.8906 68.2656ZM50.2188 72.5625H39.9062C39.2098 72.5625 38.5237 72.3932 37.9072 72.0691C37.2907 71.7451 36.7622 71.276 36.3672 70.7023C35.9723 70.1287 35.7227 69.4676 35.6399 68.776C35.5572 68.0845 35.6438 67.3832 35.8923 66.7325C36.1408 66.0819 36.5438 65.5014 37.0664 65.0411C37.5891 64.5807 38.2158 64.2544 38.8927 64.09C39.5695 63.9257 40.2761 63.9284 40.9517 64.0978C41.6272 64.2673 42.2515 64.5984 42.7707 65.0626L43.9168 63.782C43.0609 63.0158 42.0029 62.5114 40.8688 62.3287C40.6743 61.46 40.7545 60.5523 41.0983 59.7312C41.442 58.91 42.0322 58.2158 42.7875 57.7446C43.5428 57.2733 44.4257 57.0483 45.3144 57.1006C46.2031 57.1528 47.0536 57.4798 47.7485 58.0363C48.4433 58.5928 48.9482 59.3513 49.1933 60.2071C49.4384 61.0629 49.4117 61.9737 49.1168 62.8137C48.8219 63.6537 48.2735 64.3813 47.5472 64.8961C46.8209 65.4109 45.9527 65.6874 45.0625 65.6875V67.4062C46.1987 67.4052 47.3115 67.0828 48.2722 66.4762C49.233 65.8697 50.0026 65.0037 50.4922 63.9784C51.6058 64.0492 52.6481 64.5506 53.3987 65.3764C54.1492 66.2022 54.549 67.2876 54.5135 68.4029C54.4779 69.5182 54.0099 70.5759 53.2083 71.3523C52.4068 72.1286 51.3346 72.5626 50.2188 72.5625ZM54.4231 63.9688H58.8125V65.6875H55.6528C55.347 65.0468 54.9307 64.465 54.4231 63.9688ZM71.7031 67.4062C71.931 67.4065 72.1494 67.4971 72.3105 67.6582C72.4716 67.8194 72.5622 68.0378 72.5625 68.2656V71.7031C72.5622 71.931 72.4716 72.1494 72.3105 72.3105C72.1494 72.4716 71.931 72.5622 71.7031 72.5625H54.4231C55.1009 71.9021 55.6127 71.0906 55.9167 70.1944C56.2207 69.2982 56.3082 68.3428 56.172 67.4062H71.7031ZM71.7031 57.0938C71.931 57.094 72.1494 57.1846 72.3105 57.3457C72.4716 57.5069 72.5622 57.7253 72.5625 57.9531V61.3906C72.5622 61.6185 72.4716 61.8369 72.3105 61.998C72.1494 62.1591 71.931 62.2497 71.7031 62.25H51.0158C51.1519 61.3135 51.0644 60.3581 50.7604 59.4619C50.4565 58.5657 49.9446 57.7542 49.2668 57.0938H71.7031ZM47.6406 51.9375C47.4128 51.9372 47.1944 51.8466 47.0332 51.6855C46.8721 51.5244 46.7815 51.306 46.7812 51.0781V47.6406C46.7815 47.4128 46.8721 47.1944 47.0332 47.0332C47.1944 46.8721 47.4128 46.7815 47.6406 46.7812H71.7031C71.931 46.7815 72.1494 46.8721 72.3105 47.0332C72.4716 47.1944 72.5622 47.4128 72.5625 47.6406V51.0781C72.5622 51.306 72.4716 51.5244 72.3105 51.6855C72.1494 51.8466 71.931 51.9372 71.7031 51.9375H47.6406Z" fill="white"/>
<path d="M48.5 48.5H50.2188V50.2188H48.5V48.5Z" fill="white"/>
<path d="M60.5312 48.5H70.8438V50.2188H60.5312V48.5Z" fill="white"/>
<path d="M60.5312 58.8125H70.8438V60.5312H60.5312V58.8125Z" fill="white"/>
<path d="M60.5312 69.125H70.8438V70.8438H60.5312V69.125Z" fill="white"/>
<path d="M38.6941 49.8506L31.1872 44.3685C31.073 44.2851 30.9399 44.2311 30.7998 44.2115C30.6597 44.1918 30.5169 44.207 30.3841 44.2558C30.2513 44.3046 30.1326 44.3854 30.0385 44.4911C29.9444 44.5968 29.8779 44.724 29.8449 44.8616L27.6718 53.8996C27.6312 54.0683 27.6426 54.2452 27.7046 54.4072C27.7665 54.5693 27.876 54.7088 28.0186 54.8074C28.1613 54.906 28.3305 54.9592 28.5039 54.9599C28.6774 54.9606 28.847 54.9087 28.9904 54.8112L31.0105 53.438L33.0016 58.8582C33.0405 58.9641 33.0999 59.0614 33.1764 59.1443C33.2529 59.2273 33.345 59.2944 33.4475 59.3418C33.5499 59.3892 33.6606 59.416 33.7734 59.4205C33.8862 59.4251 33.9988 59.4075 34.1047 59.3685L37.3313 58.1832C37.4373 58.1443 37.5345 58.0849 37.6175 58.0084C37.7005 57.9319 37.7676 57.8399 37.8149 57.7374C37.8623 57.635 37.8891 57.5243 37.8937 57.4115C37.8983 57.2988 37.8806 57.1862 37.8417 57.0803L35.8505 51.66L38.2791 51.399C38.4516 51.3805 38.6144 51.3102 38.7462 51.1974C38.878 51.0846 38.9725 50.9346 39.0174 50.7671C39.0624 50.5995 39.0555 50.4223 38.9978 50.2587C38.9401 50.0952 38.8342 49.9529 38.6941 49.8506ZM34.5726 50.0687C34.4427 50.0827 34.3177 50.126 34.2072 50.1955C34.0966 50.265 34.0033 50.3587 33.9344 50.4697C33.8654 50.5806 33.8227 50.7058 33.8094 50.8357C33.7961 50.9656 33.8126 51.0969 33.8576 51.2195L35.932 56.8662L34.3187 57.4589L32.2444 51.8122C32.1994 51.6896 32.127 51.5789 32.0328 51.4885C31.9386 51.398 31.825 51.3303 31.7006 51.2903C31.5763 51.2504 31.4445 51.2393 31.3152 51.2579C31.186 51.2765 31.0626 51.3243 30.9546 51.3978L29.8626 52.1401L31.2146 46.5167L35.8853 49.9276L34.5726 50.0687Z" fill="white"/>
<path d="M31.3125 39.0469H38.1875C38.4154 39.0469 38.634 38.9563 38.7952 38.7952C38.9563 38.634 39.0469 38.4154 39.0469 38.1875V34.75H37.3281V37.3281H35.6094V34.75H33.8906V37.3281H32.1719V34.75H30.4531V38.1875C30.4531 38.4154 30.5437 38.634 30.7048 38.7952C30.866 38.9563 31.0846 39.0469 31.3125 39.0469Z" fill="white"/>
<path d="M41.625 39.0469H48.5C48.7279 39.0469 48.9465 38.9563 49.1077 38.7952C49.2688 38.634 49.3594 38.4154 49.3594 38.1875V34.75H47.6406V37.3281H45.9219V34.75H44.2031V37.3281H42.4844V34.75H40.7656V38.1875C40.7656 38.4154 40.8562 38.634 41.0173 38.7952C41.1785 38.9563 41.3971 39.0469 41.625 39.0469Z" fill="white"/>
<path d="M51.9375 39.0469H58.8125C59.0404 39.0469 59.259 38.9563 59.4202 38.7952C59.5813 38.634 59.6719 38.4154 59.6719 38.1875V34.75H57.9531V37.3281H56.2344V34.75H54.5156V37.3281H52.7969V34.75H51.0781V38.1875C51.0781 38.4154 51.1687 38.634 51.3298 38.7952C51.491 38.9563 51.7096 39.0469 51.9375 39.0469Z" fill="white"/>
<path d="M52.7969 58.8125H56.2344V60.5312H52.7969V58.8125Z" fill="white"/>
<path d="M61.3906 37.3281H63.1094V39.0469H61.3906V37.3281Z" fill="white"/>
<path d="M51.9375 48.5H56.2344V50.2188H51.9375V48.5Z" fill="white"/>
</g>
<defs>
<clipPath id="clip0_1054_130">
<rect width="98" height="98" fill="white"/>
</clipPath>
</defs>
</svg>
