<svg width="98" height="98" viewBox="0 0 98 98" fill="none" xmlns="http://www.w3.org/2000/svg">
<g clip-path="url(#clip0_1055_785)">
<path d="M96.504 7.649V89.353C96.504 93.3013 93.3032 96.502 89.355 96.502H7.64998C3.70169 96.502 0.500977 93.3013 0.500977 89.353V7.649C0.500977 3.70071 3.70169 0.5 7.64998 0.5H89.355C93.3032 0.5 96.504 3.70071 96.504 7.649Z" stroke="black"/>
<g clip-path="url(#clip1_1055_785)">
<path d="M55.1128 36.5884C52.6121 34.1238 50.2397 31.724 49.5342 29C48.8288 31.724 46.4564 34.1243 43.9557 36.5889C40.2367 40.3508 36.005 44.6314 36.005 51.0526C35.8126 58.5764 41.7758 64.868 49.2137 64.9978C56.6516 65.1277 62.8713 59.1604 62.9997 51.6366V51.0528C63.0635 44.6314 58.8318 40.3508 55.1128 36.5886V36.5884ZM42.9299 52.2846C42.5453 52.8035 42.1607 53.3873 41.9039 53.971C41.8396 54.0361 41.7755 54.1657 41.6476 54.1657L41.5836 54.1651C41.263 54.1651 40.9422 53.5814 40.9422 53.5814C40.8779 53.4515 40.7497 53.2574 40.6859 53.1275L40.6216 52.9982C39.7878 51.1816 40.4932 48.6525 40.4932 48.6525C40.8135 47.4205 41.3909 46.1877 42.0963 45.1501C42.545 44.5013 43.0583 43.853 43.5711 43.2042L44.2125 43.853L47.2262 46.9664C47.3546 47.0963 47.3546 47.2904 47.2262 47.4203L44.0841 50.9878L42.9296 52.2843L42.9299 52.2846ZM49.6626 61.2354C47.0978 61.2354 44.982 59.0948 45.0458 56.5006C45.0458 55.3329 45.4945 54.2308 46.2002 53.3873C47.1622 52.2195 48.3804 51.0523 49.727 49.4958C51.2657 51.1822 52.2918 52.2846 53.2537 53.5822C53.3181 53.6473 53.3821 53.7769 53.4462 53.9065C53.9592 54.6846 54.2795 55.5929 54.2795 56.566C54.3433 59.1602 52.2277 61.2359 49.6626 61.2359V61.2354ZM58.4471 53.7113C58.3828 53.9062 58.1909 54.0355 57.9985 54.1003L57.9341 54.1009C57.7417 54.0358 57.6138 53.9062 57.4854 53.7766C56.6521 52.5446 55.7545 51.3768 54.7285 50.339L53.5105 49.0419L49.4067 44.7613C48.5733 43.9831 47.7395 43.0749 46.97 42.2317C46.97 42.1669 46.9059 42.1669 46.9059 42.1669C46.7775 41.9722 46.6497 41.7778 46.5853 41.518V41.3882C46.457 40.6746 46.7137 39.9612 47.2267 39.4423C47.996 38.6641 48.8299 37.8207 49.5991 36.9777C50.4324 37.8857 51.3301 38.7937 52.2282 39.7017C54.0235 41.3882 55.6266 43.2693 57.1013 45.28C58.3193 47.0309 58.9607 49.0419 58.9607 51.1824C58.832 51.9606 58.7036 52.8686 58.4474 53.7115L58.4471 53.7113Z" fill="black"/>
</g>
</g>
<defs>
<clipPath id="clip0_1055_785">
<rect width="98" height="98" fill="white"/>
</clipPath>
<clipPath id="clip1_1055_785">
<rect width="27" height="36" fill="white" transform="translate(36 29)"/>
</clipPath>
</defs>
</svg>
