<svg width="98" height="98" viewBox="0 0 98 98" fill="none" xmlns="http://www.w3.org/2000/svg">
<g clip-path="url(#clip0_1054_389)">
<path d="M96.504 7.649V89.353C96.504 93.3013 93.3032 96.502 89.355 96.502H7.64998C3.70169 96.502 0.500977 93.3013 0.500977 89.353V7.649C0.500977 3.70071 3.70169 0.5 7.64998 0.5H89.355C93.3032 0.5 96.504 3.70071 96.504 7.649Z" stroke="black"/>
<path d="M38.5312 62.5938C38.5312 64.7129 40.2558 66.4375 42.375 66.4375C44.4942 66.4375 46.2188 64.7129 46.2188 62.5938C46.2188 60.4746 44.4942 58.75 42.375 58.75C40.2558 58.75 38.5312 60.4746 38.5312 62.5938ZM42.375 61.3125C43.081 61.3125 43.6562 61.8878 43.6562 62.5938C43.6562 63.2997 43.081 63.875 42.375 63.875C41.669 63.875 41.0938 63.2997 41.0938 62.5938C41.0938 61.8878 41.669 61.3125 42.375 61.3125Z" fill="black"/>
<path d="M55.1875 62.5938C55.1875 64.7129 56.9121 66.4375 59.0312 66.4375C61.1504 66.4375 62.875 64.7129 62.875 62.5938C62.875 60.4746 61.1504 58.75 59.0312 58.75C56.9121 58.75 55.1875 60.4746 55.1875 62.5938ZM59.0312 61.3125C59.7372 61.3125 60.3125 61.8878 60.3125 62.5938C60.3125 63.2997 59.7372 63.875 59.0312 63.875C58.3253 63.875 57.75 63.2997 57.75 62.5938C57.75 61.8878 58.3253 61.3125 59.0312 61.3125Z" fill="black"/>
<path d="M64.1562 56.1875H39.8125C39.1065 56.1875 38.5312 55.6122 38.5312 54.9062V53.625H57.75C59.7487 53.625 61.6924 52.1067 62.1767 50.1682L65.3991 37.2788C65.4952 36.8957 65.408 36.4908 65.1659 36.1795C64.9237 35.8682 64.5509 35.6875 64.1562 35.6875H34.8618L33.9316 31.5042C33.4947 29.5388 31.8572 28 30.2031 28H28.2812C27.574 28 27 28.574 27 29.2812C27 29.9885 27.574 30.5625 28.2812 30.5625H30.2031C30.5183 30.5625 31.2243 31.1314 31.4306 32.0603L32.5593 37.1417C32.5696 37.2148 32.585 37.2839 32.6067 37.3531L35.9688 52.4834V54.9062C35.9688 57.0254 37.6933 58.75 39.8125 58.75H42.375H59.0312H64.1562C64.8635 58.75 65.4375 58.176 65.4375 57.4688C65.4375 56.7615 64.8635 56.1875 64.1562 56.1875ZM62.515 38.25L59.6898 49.5468C59.4925 50.3399 58.5674 51.0625 57.75 51.0625H38.2776L35.4306 38.25H62.515Z" fill="black"/>
</g>
<defs>
<clipPath id="clip0_1054_389">
<rect width="98" height="98" fill="white"/>
</clipPath>
</defs>
</svg>
