<svg width="98" height="98" viewBox="0 0 98 98" fill="none" xmlns="http://www.w3.org/2000/svg">
<g clip-path="url(#clip0_1055_770)">
<path d="M96.504 7.649V89.353C96.504 93.3013 93.3032 96.502 89.355 96.502H7.64998C3.70169 96.502 0.500977 93.3013 0.500977 89.353V7.649C0.500977 3.70071 3.70169 0.5 7.64998 0.5H89.355C93.3032 0.5 96.504 3.70071 96.504 7.649Z" stroke="black"/>
<g clip-path="url(#clip1_1055_770)">
<path d="M66.9477 35.962C66.9477 33.3657 64.8268 31.2609 62.2106 31.2609C59.8218 31.2609 57.847 33.016 57.5216 35.2975L57.4737 35.2724C53.5996 33.5384 50.3364 36.6097 50.3364 36.6097L41.7046 45.2179L45.1152 48.4774L52.0628 41.7036C55.3071 38.4838 57.0737 40.6631 57.0737 40.6631C59.516 42.7106 57.1578 45.1343 57.1578 45.1343L60.6527 48.4774C63.5067 45.4184 63.6722 42.7487 62.8047 40.625C65.1404 40.3347 66.9477 38.3585 66.9477 35.962Z" fill="black"/>
<path d="M62.8487 57.5824C62.8649 57.5524 62.874 57.5349 62.874 57.5349C64.6214 53.6902 61.5265 50.4517 61.5265 50.4517L52.8522 41.8853L49.5679 45.2702L56.3936 52.1649C59.6379 55.3847 57.4419 57.138 57.4419 57.138C55.3789 59.5617 52.9366 57.2214 52.9366 57.2214L49.5679 60.6897C52.6502 63.522 55.3405 63.6862 57.4803 62.8253C57.7728 65.1432 59.7643 66.9369 62.1792 66.9369C64.7954 66.9369 66.9161 64.8322 66.9161 62.2359C66.9161 59.8652 65.1477 57.9054 62.8487 57.5824Z" fill="black"/>
<path d="M52.926 49.5637L45.9784 56.3374C42.734 59.5573 40.9674 57.3782 40.9674 57.3782C38.5251 55.3306 40.8832 52.907 40.8832 52.907L37.3885 49.5637C34.5345 52.6226 34.3689 55.2923 35.2363 57.416C32.9006 57.7064 31.0933 59.6825 31.0933 62.0792C31.0933 64.6755 33.2141 66.7801 35.8305 66.7801C38.2193 66.7802 40.1941 65.0253 40.5195 62.7438C40.5498 62.7598 40.5674 62.7687 40.5674 62.7687C44.4416 64.5032 47.7047 61.4314 47.7047 61.4314L56.3367 52.8231L52.926 49.5637Z" fill="black"/>
<path d="M41.6476 45.8762C38.4032 42.6565 40.5989 40.9032 40.5989 40.9032C42.6624 38.4795 45.1045 40.8198 45.1045 40.8198L48.4732 37.3516C45.3909 34.5194 42.7007 34.3551 40.5608 35.2159C40.2683 32.8978 38.2771 31.1042 35.8618 31.1042C33.246 31.1042 31.1253 33.209 31.125 35.8053C31.125 38.1762 32.8934 40.1359 35.1925 40.4588C35.1763 40.4889 35.1674 40.5065 35.1674 40.5065C33.4196 44.351 36.5148 47.5893 36.5148 47.5893L45.1891 56.1558L48.4735 52.7711L41.6476 45.8762Z" fill="black"/>
</g>
</g>
<defs>
<clipPath id="clip0_1055_770">
<rect width="98" height="98" fill="white"/>
</clipPath>
<clipPath id="clip1_1055_770">
<rect width="36" height="36" fill="white" transform="translate(31 31)"/>
</clipPath>
</defs>
</svg>
