<svg width="98" height="98" viewBox="0 0 98 98" fill="none" xmlns="http://www.w3.org/2000/svg">
<g clip-path="url(#clip0_1055_744)">
<path d="M96.504 7.649V89.353C96.504 93.3013 93.3032 96.502 89.355 96.502H7.64998C3.70169 96.502 0.500977 93.3013 0.500977 89.353V7.649C0.500977 3.70071 3.70169 0.5 7.64998 0.5H89.355C93.3032 0.5 96.504 3.70071 96.504 7.649Z" stroke="black"/>
<path d="M52.4834 33.1667H48.6834C48.1584 33.1667 47.7334 33.5917 47.7334 34.1167C47.7334 34.6417 48.1584 35.0667 48.6834 35.0667H52.4834C53.0084 35.0667 53.4334 34.6417 53.4334 34.1167C53.4334 33.5917 53.0084 33.1667 52.4834 33.1667Z" fill="black"/>
<path d="M56.6001 30H41.4001C39.3051 30 37.6001 31.705 37.6001 33.8V64.2C37.6001 66.295 39.3051 68 41.4001 68H56.6001C58.6951 68 60.4001 66.295 60.4001 64.2V33.8C60.4001 31.705 58.6951 30 56.6001 30ZM58.5001 64.2C58.5001 65.2495 57.6496 66.1 56.6001 66.1H41.4001C40.3506 66.1 39.5001 65.2495 39.5001 64.2V33.8C39.5001 32.7505 40.3506 31.9 41.4001 31.9H56.6001C57.6496 31.9 58.5001 32.7505 58.5001 33.8V64.2Z" fill="black"/>
<path d="M49.0001 64.8333C50.0494 64.8333 50.9001 63.9827 50.9001 62.9333C50.9001 61.884 50.0494 61.0333 49.0001 61.0333C47.9508 61.0333 47.1001 61.884 47.1001 62.9333C47.1001 63.9827 47.9508 64.8333 49.0001 64.8333Z" fill="black"/>
<path d="M45.5169 35.0667C46.0416 35.0667 46.4669 34.6414 46.4669 34.1167C46.4669 33.592 46.0416 33.1667 45.5169 33.1667C44.9922 33.1667 44.5669 33.592 44.5669 34.1167C44.5669 34.6414 44.9922 35.0667 45.5169 35.0667Z" fill="black"/>
</g>
<defs>
<clipPath id="clip0_1055_744">
<rect width="98" height="98" fill="white"/>
</clipPath>
</defs>
</svg>
