<svg width="98" height="98" viewBox="0 0 98 98" fill="none" xmlns="http://www.w3.org/2000/svg">
<g clip-path="url(#clip0_1054_349)">
<path d="M96.504 7.649V89.353C96.504 93.3013 93.3032 96.502 89.355 96.502H7.64998C3.70169 96.502 0.500977 93.3013 0.500977 89.353V7.649C0.500977 3.70071 3.70169 0.5 7.64998 0.5H89.355C93.3032 0.5 96.504 3.70071 96.504 7.649Z" stroke="black"/>
<mask id="mask0_1054_349" style="mask-type:luminance" maskUnits="userSpaceOnUse" x="29" y="29" width="41" height="41">
<path d="M70 29H29V70H70V29Z" fill="white"/>
</mask>
<g mask="url(#mask0_1054_349)">
<path d="M70 49.5C70 50.74 69.8896 51.9542 69.6787 53.133C67.9642 62.7221 59.5818 70 49.5 70C41.9041 70 35.273 65.869 31.732 59.7308C30.8676 58.2339 30.1882 56.6182 29.723 54.9137C29.251 53.1892 29 51.3735 29 49.5C29 38.1782 38.1782 29 49.5 29C58.8446 29 66.7283 35.2521 69.1975 43.8018C69.7197 45.6108 70 47.5228 70 49.5Z" fill="black"/>
<path d="M39.4237 43.2729H31.8739L29.7227 54.9136C30.1879 56.618 30.8673 58.2338 31.7317 59.7307H32.432L33.2654 55.2223H37.4139C42.4652 55.2223 43.8233 50.6873 44.1488 48.4598C44.4751 46.2333 42.846 43.2729 39.4237 43.2729ZM40.519 48.8355C40.3341 50.0981 39.4011 52.6694 36.5378 52.6694H33.7373L34.989 45.8944H37.8398C40.6187 45.8944 40.7039 47.5729 40.519 48.8355Z" fill="white"/>
<path d="M69.1969 43.8017C68.5552 43.4704 67.7904 43.2729 66.9068 43.2729H59.3569L56.3154 59.7307H59.915L60.7484 55.2224H64.8969C67.1436 55.2224 68.6597 54.3254 69.678 53.1331C69.889 51.9541 69.9994 50.74 69.9994 49.5C69.9994 47.5227 69.7191 45.6108 69.1969 43.8017ZM68.0021 48.8355C67.8172 50.0982 66.8842 52.6695 64.0201 52.6695H61.2203L62.4721 45.8945H65.3229C68.1017 45.8945 68.187 47.573 68.0021 48.8355Z" fill="white"/>
<path d="M53.7632 43.3275C52.2982 43.3275 50.3436 43.3275 49.3912 43.3275L50.2119 38.8871H46.6271L43.5854 55.3444H47.1702L48.9194 45.8803C49.5656 45.8803 50.4241 45.8803 51.2104 45.8803C52.7312 45.8803 53.7632 46.2062 53.5459 47.6184C53.3287 49.0305 52.0794 55.2767 52.0794 55.2767H55.7185C55.7185 55.2767 57.1307 48.3245 57.3479 46.3691C57.5653 44.4138 55.7729 43.3275 53.7632 43.3275Z" fill="white"/>
</g>
</g>
<defs>
<clipPath id="clip0_1054_349">
<rect width="98" height="98" fill="white"/>
</clipPath>
</defs>
</svg>
