<svg width="98" height="98" viewBox="0 0 98 98" fill="none" xmlns="http://www.w3.org/2000/svg">
<g clip-path="url(#clip0_1054_596)">
<path d="M96.504 7.649V89.353C96.504 93.3013 93.3032 96.502 89.355 96.502H7.64998C3.70169 96.502 0.500977 93.3013 0.500977 89.353V7.649C0.500977 3.70071 3.70169 0.5 7.64998 0.5H89.355C93.3032 0.5 96.504 3.70071 96.504 7.649Z" stroke="black"/>
<path d="M49.2086 32.0003C47.8558 32.0067 46.5639 32.1219 45.4271 32.3231C42.0784 32.9148 41.4705 34.1529 41.4705 36.4366V39.4527H49.3839V40.4579H41.4704H38.5006C36.2007 40.4579 34.1869 41.8402 33.5572 44.4698C32.8306 47.4841 32.7981 49.3652 33.5572 52.5125C34.1198 54.8551 35.4629 56.5244 37.7628 56.5244H40.4836V52.9086C40.4836 50.297 42.7435 47.9928 45.427 47.9928H53.3312C55.5315 47.9928 57.2878 46.1813 57.2878 43.9716V36.4365C57.2878 34.2923 55.4787 32.681 53.3312 32.3231C51.9719 32.0967 50.5613 31.9938 49.2086 32.0003ZM44.9291 34.4259C45.7465 34.4259 46.4141 35.1043 46.4141 35.9384C46.4141 36.7696 45.7465 37.4419 44.9291 37.4419C44.1086 37.4419 43.4441 36.7696 43.4441 35.9384C43.4441 35.1043 44.1086 34.4259 44.9291 34.4259Z" fill="black"/>
<path d="M58.2744 40.4578V43.9716C58.2744 46.6963 55.9649 48.9888 53.3311 48.9888H45.4268C43.2618 48.9888 41.4702 50.842 41.4702 53.0102V60.5457C41.4702 62.69 43.3349 63.9517 45.4268 64.5666C47.9319 65.3032 50.3336 65.4367 53.3311 64.5666C55.3232 63.9901 57.2876 62.829 57.2876 60.5457V57.5295H49.3837V56.5244H57.2876H61.2441C63.5441 56.5244 64.4013 54.9203 65.2009 52.5125C66.0271 50.0334 65.992 47.6495 65.2009 44.4698C64.6326 42.1805 63.547 40.4579 61.2441 40.4579H58.2744V40.4578ZM53.8292 59.5401C54.6495 59.5401 55.3141 60.2119 55.3141 61.0431C55.3141 61.8772 54.6495 62.5559 53.8292 62.5559C53.0119 62.5559 52.3444 61.8772 52.3444 61.0431C52.3443 60.2119 53.0118 59.5401 53.8292 59.5401Z" fill="black"/>
</g>
<defs>
<clipPath id="clip0_1054_596">
<rect width="98" height="98" fill="white"/>
</clipPath>
</defs>
</svg>
