<svg width="98" height="98" viewBox="0 0 98 98" fill="none" xmlns="http://www.w3.org/2000/svg">
<g clip-path="url(#clip0_1054_583)">
<path d="M96.504 7.649V89.353C96.504 93.3013 93.3032 96.502 89.355 96.502H7.64998C3.70169 96.502 0.500977 93.3013 0.500977 89.353V7.649C0.500977 3.70071 3.70169 0.5 7.64998 0.5H89.355C93.3032 0.5 96.504 3.70071 96.504 7.649Z" stroke="black"/>
<path fill-rule="evenodd" clip-rule="evenodd" d="M71.3325 55.2162V57.902H76.1858C77.1802 57.902 78.887 57.1749 78.9464 55.142V54.1033C78.9464 52.3671 77.5215 51.3433 76.1858 51.3433H73.7666V50.0968H78.5605V47.3962H73.9595C72.7722 47.3962 71.1841 48.3755 71.1841 50.2007V51.1355C71.1841 52.9607 72.7573 53.8955 73.9595 53.8955C77.2989 53.9103 73.158 53.8955 76.2451 53.8955V55.2013M45.3296 54.5633C45.3296 54.5633 47.9269 54.3407 47.9269 50.9871C47.9269 47.6336 44.7804 47.322 44.7804 47.322H39.1108V57.902H41.9605V55.3497L44.4242 57.902H48.6393L45.3296 54.5633ZM44.2313 52.3968H41.9605V49.9781H44.2461C44.2461 49.9781 44.8843 50.2155 44.8843 51.18C44.8843 52.1445 44.2313 52.3968 44.2313 52.3968ZM54.9619 47.3962H52.0678C50.0048 47.3962 49.3072 49.2658 49.3072 50.1562V57.902H52.2013V56.0471H54.9174V57.902H57.7225V50.1562C57.7225 47.9007 55.6743 47.3962 54.9619 47.3962ZM54.9174 53.0497H52.1865V50.4826C52.1865 50.4826 52.1865 49.9039 53.0919 49.9039H54.0863C54.8877 49.9039 54.9026 50.4826 54.9026 50.4826V53.0497H54.9174Z" fill="black"/>
<path d="M62.0564 47.3961H59.0435V57.9019H62.0564V47.3961Z" fill="black"/>
<path fill-rule="evenodd" clip-rule="evenodd" d="M66.2861 55.1864V47.3961H63.2881V55.1864V57.9019H66.2861H70.338V55.1864H66.2861Z" fill="black"/>
<path fill-rule="evenodd" clip-rule="evenodd" d="M21.2266 57.902H32.9516C32.9516 57.902 30.7105 47.6781 38.1314 43.5381C39.7492 42.7516 44.8993 39.8136 53.3295 46.0458C53.5966 45.8232 53.8489 45.6452 53.8489 45.6452C53.8489 45.6452 46.1312 37.9439 37.5378 38.8045C33.2188 39.1903 27.9054 43.1226 24.7886 48.3162C21.6718 53.5097 21.2266 57.902 21.2266 57.902Z" fill="black"/>
<path fill-rule="evenodd" clip-rule="evenodd" d="M21.2266 57.902H32.9516C32.9516 57.902 30.7105 47.6781 38.1314 43.5381C39.7492 42.7516 44.8993 39.8136 53.3295 46.0458C53.5966 45.8232 53.8489 45.6452 53.8489 45.6452C53.8489 45.6452 46.1312 37.9439 37.5378 38.8045C33.2188 39.1903 27.9054 43.1226 24.7886 48.3162C21.6718 53.5097 21.2266 57.902 21.2266 57.902Z" fill="black"/>
<path fill-rule="evenodd" clip-rule="evenodd" d="M21.2266 57.9019H32.9516C32.9516 57.9019 30.7105 47.6781 38.1314 43.5381C39.7492 42.7516 44.8993 39.8136 53.3295 46.0458C53.5966 45.8232 53.8489 45.6452 53.8489 45.6452C53.8489 45.6452 46.1312 37.9439 37.5378 38.8045C33.2039 39.1903 27.8906 43.1226 24.7738 48.3161C21.657 53.5097 21.2266 57.9019 21.2266 57.9019ZM45.6562 39.6355L45.7156 38.6413C45.582 38.5671 45.211 38.389 44.276 38.1219L44.2166 39.1013C44.7064 39.2645 45.1813 39.4426 45.6562 39.6355Z" fill="black"/>
<path fill-rule="evenodd" clip-rule="evenodd" d="M44.2461 42.7813L44.1868 43.7161C44.6765 43.731 45.1663 43.7903 45.6561 43.8942L45.7155 42.9742C45.2109 42.8703 44.7211 42.811 44.2461 42.7813ZM38.7547 38.1516H38.9031L38.6062 37.2465C38.1461 37.2465 37.6712 37.2761 37.1814 37.3355L37.4634 38.211C37.8938 38.1665 38.3242 38.1516 38.7547 38.1516ZM39.4671 43.6123L39.8084 44.6361C40.2388 44.4284 40.6693 44.2503 41.0997 44.1168L40.7731 43.1374C40.2685 43.2858 39.8381 43.449 39.4671 43.6123ZM32.7289 39.7097L32.061 38.6858C31.6899 38.8787 31.304 39.0865 30.9033 39.3239L31.586 40.3626C31.9719 40.1252 32.343 39.9026 32.7289 39.7097ZM35.7714 46.3871L36.4839 47.4555C36.7362 47.0845 37.033 46.7432 37.3595 46.4019L36.6916 45.3929C36.3503 45.7045 36.0386 46.0458 35.7714 46.3871ZM33.6194 51.1652L34.8216 52.1148C34.8809 51.5361 34.9848 50.9574 35.1332 50.3787L34.0646 49.5329C33.8717 50.0819 33.7381 50.631 33.6194 51.1652ZM27.1186 44.1168L26.0649 43.1968C25.679 43.5678 25.3079 43.9387 24.9666 44.3097L26.1094 45.289C26.4211 44.8884 26.7624 44.4878 27.1186 44.1168ZM22.6364 50.7497L20.9296 50.1265C20.6476 50.7645 20.3359 51.5065 20.1875 51.9071L21.8943 52.5303C22.0873 52.0258 22.3989 51.2987 22.6364 50.7497ZM33.3967 54.9342C33.4264 55.7207 33.5006 56.3587 33.5748 56.8039L35.3559 57.4419C35.2223 56.8632 35.0887 56.2103 34.9997 55.5129L33.3967 54.9342Z" fill="black"/>
</g>
<defs>
<clipPath id="clip0_1054_583">
<rect width="98" height="98" fill="white"/>
</clipPath>
</defs>
</svg>
