<svg width="98" height="98" viewBox="0 0 98 98" fill="none" xmlns="http://www.w3.org/2000/svg">
<g clip-path="url(#clip0_1054_510)">
<path d="M96.504 7.649V89.353C96.504 93.3013 93.3032 96.502 89.355 96.502H7.64998C3.70169 96.502 0.500977 93.3013 0.500977 89.353V7.649C0.500977 3.70071 3.70169 0.5 7.64998 0.5H89.355C93.3032 0.5 96.504 3.70071 96.504 7.649Z" stroke="black"/>
<g clip-path="url(#clip1_1054_510)">
<path d="M53.3868 33.0002L48.999 40.621L44.6113 33.0002H29.9995L48.999 65.9998L67.9986 33.0002H53.3868Z" fill="black"/>
<path d="M53.3866 33.0002L48.9988 40.621L44.6111 33.0002H37.5991L48.9988 52.7996L60.3986 33.0002H53.3866Z" fill="#787878"/>
</g>
</g>
<defs>
<clipPath id="clip0_1054_510">
<rect width="98" height="98" fill="white"/>
</clipPath>
<clipPath id="clip1_1054_510">
<rect width="38" height="33" fill="white" transform="translate(30 33)"/>
</clipPath>
</defs>
</svg>
