<svg width="98" height="98" viewBox="0 0 98 98" fill="none" xmlns="http://www.w3.org/2000/svg">
<g clip-path="url(#clip0_1054_262)">
<path d="M97.004 89.353V7.649C97.004 3.42457 93.5794 0 89.355 0H7.64998C3.42555 0 0.000976562 3.42457 0.000976562 7.649V89.353C0.000976562 93.5774 3.42555 97.002 7.64998 97.002H89.355C93.5794 97.002 97.004 93.5774 97.004 89.353Z" fill="black"/>
<path d="M31.9826 21.8425C30.4664 21.8425 29.2187 23.0902 29.2187 24.6064V54.1064C29.2187 55.3368 31.0643 55.3368 31.0643 54.1064V31.0649H67.9339V54.1064C67.906 55.3635 69.8059 55.3635 69.7776 54.1064V24.6064C69.7776 23.0902 68.5318 21.8425 67.0156 21.8425H31.9826ZM31.9826 23.6881H67.0156C67.5423 23.6881 67.9339 24.0797 67.9339 24.6064V29.2193H31.0643V24.6064C31.0643 24.0797 31.4559 23.6881 31.9826 23.6881ZM33.8281 25.5301C33.319 25.5301 32.9062 25.9429 32.9062 26.452C32.9062 26.9611 33.319 27.3738 33.8281 27.3738C34.3372 27.3738 34.75 26.9611 34.75 26.452C34.75 25.9429 34.3372 25.5301 33.8281 25.5301ZM37.5156 25.5301C37.0065 25.5301 36.5937 25.9429 36.5937 26.452C36.5937 26.9611 37.0065 27.3738 37.5156 27.3738C38.0248 27.3738 38.4375 26.9611 38.4375 26.452C38.4375 25.9429 38.0248 25.5301 37.5156 25.5301ZM41.2031 25.5301C40.694 25.5301 40.2812 25.9429 40.2812 26.452C40.2812 26.9611 40.694 27.3738 41.2031 27.3738C41.7123 27.3738 42.125 26.9611 42.125 26.452C42.125 25.9429 41.7123 25.5301 41.2031 25.5301ZM54.0626 25.5319C52.8179 25.6166 52.9028 27.4062 54.1058 27.3757H65.1719C66.3741 27.3478 66.3741 25.5585 65.1719 25.5319H54.0626ZM24.613 27.3757C23.0968 27.3757 21.8438 28.6215 21.8438 30.1377V63.3269C21.8438 64.8431 23.0968 66.0908 24.613 66.0908H74.3924C75.9086 66.0908 77.1562 64.8431 77.1562 63.3269V30.1376C77.1562 28.6214 75.9086 27.3756 74.3924 27.3756H72.5487C71.2919 27.3477 71.2919 29.2472 72.5487 29.2193H74.3924C74.9191 29.2193 75.3107 29.6109 75.3107 30.1376V56.8756H23.6875V30.1376C23.6875 29.6109 24.0863 29.2193 24.613 29.2193H26.4495C27.7063 29.2472 27.7063 27.3477 26.4495 27.3756L24.613 27.3757ZM52.2764 34.7344C51.8712 34.7317 51.5117 34.9941 51.3906 35.3809L45.8575 51.9728C45.4674 53.1396 47.2175 53.7247 47.6076 52.5579L53.1407 35.9606C53.3494 35.3637 52.9088 34.7386 52.2764 34.7344ZM56.2844 40.064L60.9658 43.9694L56.2844 47.8694C55.2842 48.6524 56.5193 50.1301 57.4674 49.2846L62.9932 44.677C63.4345 44.3085 63.4345 43.6304 62.9932 43.2618L57.4674 38.6471C57.3022 38.5056 57.0924 38.4271 56.8282 38.4275C55.9568 38.5038 55.6408 39.5432 56.2844 40.064ZM42.1016 38.4292C41.894 38.4362 41.6948 38.5128 41.5362 38.647L36.005 43.2617C35.5637 43.6303 35.5637 44.3084 36.005 44.6769L41.5362 49.2845C42.4875 50.1705 43.758 48.6436 42.7138 47.8693L38.0324 43.9693L42.7138 40.0639C43.3949 39.5062 42.9816 38.4024 42.1016 38.4292ZM23.6875 58.7212H75.3107V63.3269C75.3107 63.8536 74.9191 64.2452 74.3924 64.2452H24.613C24.0863 64.2452 23.6875 63.8536 23.6875 63.3269V58.7212ZM51.3942 60.5631L47.6112 60.565C46.4361 60.7054 46.5151 62.37 47.6545 62.4015H51.3437C52.6098 62.5133 52.7152 60.5885 51.3942 60.5631ZM44.3289 67.8624C43.9588 67.8555 43.6199 68.0687 43.4682 68.4062C43.0243 69.3584 42.2289 70.4703 40.8556 71.622H39.3594C37.8432 71.622 36.5974 72.8769 36.5974 74.3931V76.2296C36.5955 76.7387 37.0065 77.153 37.5156 77.155H61.4826C61.9945 77.1569 62.41 76.7416 62.408 76.2296V74.3931C62.408 72.8769 61.155 71.622 59.6388 71.622H58.1444C56.7712 70.4703 55.9757 69.3583 55.5318 68.4062C55.3757 68.0599 55.0234 67.8448 54.6441 67.8643C53.9855 67.8991 53.5742 68.5921 53.8609 69.1859C54.2203 69.9567 54.769 70.7835 55.5084 71.622H43.4916C44.2309 70.7835 44.7797 69.9567 45.1391 69.1859C45.4318 68.5814 45.0004 67.8768 44.3289 67.8624ZM39.3594 73.4676H59.6388C60.1654 73.4676 60.5643 73.8664 60.5643 74.3931V75.3114H38.4411V74.3931C38.4411 73.8664 38.8327 73.4676 39.3594 73.4676Z" fill="white"/>
</g>
<defs>
<clipPath id="clip0_1054_262">
<rect width="98" height="98" fill="white"/>
</clipPath>
</defs>
</svg>
