<svg width="98" height="98" viewBox="0 0 98 98" fill="none" xmlns="http://www.w3.org/2000/svg">
<g clip-path="url(#clip0_1054_212)">
<path d="M97.004 89.353V7.649C97.004 3.42457 93.5794 0 89.355 0H7.64998C3.42555 0 0.000976562 3.42457 0.000976562 7.649V89.353C0.000976562 93.5774 3.42555 97.002 7.64998 97.002H89.355C93.5794 97.002 97.004 93.5774 97.004 89.353Z" fill="black"/>
<mask id="mask0_1054_212" style="mask-type:luminance" maskUnits="userSpaceOnUse" x="20" y="21" width="59" height="59">
<path d="M20 21H79V80H20V21Z" fill="white"/>
</mask>
<g mask="url(#mask0_1054_212)">
<path d="M21.1523 38.8989H39.232H73.6438" stroke="white" stroke-width="2" stroke-miterlimit="10" stroke-linecap="round" stroke-linejoin="round"/>
<path d="M30.7754 33.9952C32.2845 33.9952 33.5159 32.7678 33.5159 31.2595C33.5159 29.7512 32.2845 28.5237 30.7754 28.5237C29.2696 28.5237 28.0381 29.7512 28.0381 31.2595C28.0381 32.7678 29.2696 33.9952 30.7754 33.9952Z" stroke="white" stroke-width="2" stroke-miterlimit="10" stroke-linecap="round" stroke-linejoin="round"/>
<path d="M54.5644 28.5236H64.8733C66.3791 28.5236 67.6106 29.7544 67.6106 31.2593C67.6106 32.7644 66.3791 33.9951 64.8733 33.9951H54.5644C53.0587 33.9951 51.8271 32.7644 51.8271 31.2593C51.8271 29.7544 53.0587 28.5236 54.5644 28.5236Z" stroke="white" stroke-width="2" stroke-miterlimit="10" stroke-linecap="round" stroke-linejoin="round"/>
<path d="M40.8813 33.9952C42.3904 33.9952 43.6218 32.7678 43.6218 31.2595C43.6218 29.7512 42.3904 28.5237 40.8813 28.5237C39.3756 28.5237 38.144 29.7512 38.144 31.2595C38.144 32.7678 39.3756 33.9952 40.8813 33.9952Z" stroke="white" stroke-width="2" stroke-miterlimit="10" stroke-linecap="round" stroke-linejoin="round"/>
<path d="M38.7159 47.7624L36.4097 57.413" stroke="white" stroke-width="2" stroke-miterlimit="10" stroke-linecap="round" stroke-linejoin="round"/>
<path d="M44.0273 56.5414L47.2904 52.8783C47.4341 52.7184 47.4341 52.4572 47.2904 52.2973L44.0273 48.6342" stroke="white" stroke-width="2" stroke-miterlimit="10" stroke-linecap="round" stroke-linejoin="round"/>
<path d="M31.0985 56.5414L27.8354 52.8783C27.6916 52.7184 27.6916 52.4572 27.8354 52.2973L31.0985 48.6342" stroke="white" stroke-width="2" stroke-miterlimit="10" stroke-linecap="round" stroke-linejoin="round"/>
<path d="M66.6146 52.8554C67.8754 53.1362 69.0546 53.6324 70.1162 54.2984L71.0602 53.3582C71.6188 52.7966 72.5366 52.7966 73.0985 53.3582L74.5847 54.8436C75.1464 55.4052 75.1464 56.3226 74.5847 56.8809L73.6439 57.8243C74.3071 58.8756 74.7969 60.0444 75.0812 61.2915H76.404C77.1978 61.2915 77.8478 61.9412 77.8478 62.7312V64.837C77.8478 65.6269 77.1978 66.2766 76.404 66.2766H75.0746C74.7904 67.5172 74.3005 68.6795 73.6439 69.7242L74.5847 70.6644C75.1464 71.2259 75.1464 72.1433 74.5847 72.7016L73.0985 74.1903C72.5366 74.7519 71.6188 74.7519 71.0602 74.1903L70.1162 73.25C69.0677 73.9095 67.9015 74.3993 66.6538 74.6833V76.0218C66.6538 76.8152 66.0037 77.4648 65.2133 77.4648H63.1065C62.3159 77.4648 61.666 76.8152 61.666 76.0218V74.6801C60.4247 74.3993 59.2586 73.9063 58.21 73.25L57.2693 74.1903C56.7074 74.7519 55.7897 74.7519 55.231 74.1903L53.7416 72.7016C53.183 72.1433 53.183 71.2259 53.7416 70.6644L54.6855 69.7242C54.0258 68.6795 53.5358 67.5172 53.2517 66.2766H51.9156C51.122 66.2766 50.4751 65.6269 50.4751 64.837V62.7312C50.4751 61.9412 51.122 61.2915 51.9156 61.2915H53.2484C53.5293 60.0574 54.0128 58.9017 54.6627 57.8603L53.7155 56.9103C53.1537 56.3519 53.1537 55.4346 53.7155 54.873L55.2017 53.3875C55.7635 52.826 56.6814 52.826 57.2399 53.3875L58.1774 54.3213C59.2228 53.6586 60.3855 53.1655 61.6268 52.875V51.5463C61.6268 50.7529 62.2735 50.1033 63.0672 50.1033H65.1708C65.9646 50.1033 66.6146 50.7529 66.6146 51.5463V52.8554Z" stroke="white" stroke-width="2" stroke-miterlimit="10" stroke-linecap="round" stroke-linejoin="round"/>
<path d="M64.1614 57.8472C67.4409 57.8472 70.0998 60.5047 70.0998 63.7857C70.0998 67.0635 67.4409 69.7209 64.1614 69.7209C60.8788 69.7209 58.2197 67.0635 58.2197 63.7857C58.2197 60.5047 60.8788 57.8472 64.1614 57.8472Z" stroke="white" stroke-width="2" stroke-miterlimit="10" stroke-linecap="round" stroke-linejoin="round"/>
<path d="M32.2647 66.2766H25.4444C23.0862 66.2766 21.1523 63.9686 21.1523 61.1511V28.6607C21.1523 25.8401 23.0827 23.5351 25.4444 23.5351H30.4159H69.3518C71.7134 23.5351 73.6438 25.8433 73.6438 28.6607V53.9034M51.9155 66.2766H42.5638" stroke="white" stroke-width="2" stroke-miterlimit="10" stroke-linecap="round" stroke-linejoin="round"/>
<path d="M37.4258 66.2766H37.4478" stroke="white" stroke-width="2" stroke-miterlimit="10" stroke-linecap="round" stroke-linejoin="round"/>
</g>
</g>
<defs>
<clipPath id="clip0_1054_212">
<rect width="98" height="98" fill="white"/>
</clipPath>
</defs>
</svg>
