<svg width="98" height="98" viewBox="0 0 98 98" fill="none" xmlns="http://www.w3.org/2000/svg">
<g clip-path="url(#clip0_1054_303)">
<path d="M96.504 7.649V89.353C96.504 93.3013 93.3032 96.502 89.355 96.502H7.64998C3.70169 96.502 0.500977 93.3013 0.500977 89.353V7.649C0.500977 3.70071 3.70169 0.5 7.64998 0.5H89.355C93.3032 0.5 96.504 3.70071 96.504 7.649Z" stroke="black"/>
<g clip-path="url(#clip1_1054_303)">
<path d="M49.5009 29C38.1965 29 29.0005 38.1956 29.0005 49.4991C29.0005 60.8035 38.1969 70 49.5005 70C60.8036 70 69.9992 60.8035 69.9992 49.4991C69.9996 38.196 60.804 29 49.5009 29ZM31.0692 49.4991C31.0692 46.8276 31.6422 44.2902 32.6651 41.9987L41.4573 66.0874C35.3094 63.0994 31.0692 56.7947 31.0692 49.4991ZM49.5009 67.9317C47.6916 67.9317 45.9454 67.6663 44.2941 67.1806L49.8238 51.1116L55.4903 66.6328C55.5269 66.7243 55.5717 66.8078 55.6215 66.8867C53.7057 67.5606 51.6472 67.9317 49.5009 67.9317ZM52.0404 40.8578C53.1498 40.7994 54.1505 40.6823 54.1505 40.6823C55.1431 40.5647 55.0268 39.1056 54.0325 39.1639C54.0325 39.1639 51.0474 39.3978 49.1196 39.3978C47.3091 39.3978 44.2647 39.1639 44.2647 39.1639C43.2712 39.1056 43.1554 40.6239 44.1484 40.6823C44.1484 40.6823 45.0891 40.7994 46.0813 40.8578L48.9526 48.7259L44.9191 60.8227L38.2084 40.8582C39.3195 40.8003 40.3181 40.6827 40.3181 40.6827C41.3107 40.5655 41.1936 39.1056 40.1997 39.1652C40.1997 39.1652 37.2158 39.3991 35.2877 39.3991C34.9413 39.3991 34.5336 39.3902 34.1016 39.377C37.3965 34.3725 43.0621 31.0687 49.5009 31.0687C54.3 31.0687 58.6684 32.9032 61.947 35.907C61.8674 35.9028 61.7903 35.8921 61.7076 35.8921C59.8979 35.8921 58.613 37.4692 58.613 39.1635C58.613 40.6818 59.4885 41.9676 60.4227 43.4859C61.1244 44.7137 61.9424 46.2912 61.9424 48.5692C61.9424 50.1471 61.3366 51.9773 60.5395 54.5274L58.7012 60.6711L52.0404 40.8578ZM58.7664 65.4314L64.3962 49.1541C65.4489 46.5251 65.7978 44.4227 65.7978 42.5521C65.7978 41.8743 65.7535 41.2442 65.6734 40.6567C67.1134 43.2823 67.9326 46.2955 67.9317 49.5C67.9313 56.2993 64.2454 62.2362 58.7664 65.4314Z" fill="black"/>
</g>
</g>
<defs>
<clipPath id="clip0_1054_303">
<rect width="98" height="98" fill="white"/>
</clipPath>
<clipPath id="clip1_1054_303">
<rect width="41" height="41" fill="white" transform="translate(29 29)"/>
</clipPath>
</defs>
</svg>
