<svg width="350" height="110" viewBox="0 0 350 110" fill="none" xmlns="http://www.w3.org/2000/svg">
<rect width="349.516" height="109.55" rx="7" fill="white"/>
<mask id="mask0_411_841" style="mask-type:luminance" maskUnits="userSpaceOnUse" x="50" y="39" width="257" height="30">
<path d="M306.046 39.9961H50.4297V68.7775H306.046V39.9961Z" fill="white"/>
</mask>
<g mask="url(#mask0_411_841)">
<path d="M204.463 59.7971C206.253 58.8491 207.28 57.2165 207.991 55.3733C206.069 54.9256 204.147 54.8466 202.356 55.8209C200.566 56.7689 199.539 58.4015 198.828 60.2448C200.75 60.6924 202.646 60.7714 204.463 59.7971Z" fill="#313131"/>
<path d="M201.937 53.7958C200.357 56.2974 198.25 57.298 196.407 57.851C196.091 55.9287 196.091 53.6378 197.671 51.1099C199.251 48.6083 201.331 47.6077 203.201 47.0547C203.517 48.977 203.517 51.2679 201.937 53.7958Z" fill="#313131"/>
<path d="M195.801 49.5015C195.854 45.9202 194.142 43.208 193.01 41.707C191.772 43.2606 190.035 45.8412 189.982 49.3961C189.929 52.6877 191.351 55.3209 192.773 57.1906C194.221 55.3473 195.748 52.793 195.801 49.5015Z" fill="#313131"/>
<path d="M187.061 47.4745C184.902 43.472 181.4 41.2864 179.109 39.9961C178.978 42.682 178.793 46.6319 181.005 50.7398C183.006 54.479 186.061 56.5329 188.931 58.2182C189.141 54.9003 189.01 51.1347 187.035 47.4745H187.061Z" fill="#313131"/>
<path d="M176.236 50.3441C171.233 47.5265 165.546 46.8682 161.807 46.9208C163.597 50.0281 167.073 54.6363 172.181 57.5328C177.105 60.3241 182.66 61.0087 186.61 60.9561C184.503 57.4538 181.16 53.1353 176.236 50.3441Z" fill="#313131"/>
<path d="M166.763 59.9531C160.549 59.9531 153.598 61.7964 148.068 64.377C153.703 66.9312 160.391 68.8008 166.763 68.8008C171.845 68.8008 177.927 67.8002 185.458 64.377C177.216 60.6641 171.502 59.9531 166.763 59.9531Z" fill="#313131"/>
<path d="M120.363 48.2129C116.545 48.2129 114.755 51.0569 114.755 54.5591C114.755 58.2983 117.072 60.8526 120.837 60.8526C123.365 60.8526 124.892 59.8519 125.103 59.7466L124.102 57.5083C123.944 57.6137 122.865 58.351 121.18 58.351C119.257 58.351 117.994 57.2187 117.862 55.6124H125.682C125.708 55.3754 125.866 54.6644 125.866 54.0061C125.866 50.6355 123.865 48.2129 120.363 48.2129ZM117.862 53.3215C117.862 51.9522 118.626 50.6092 120.363 50.6092C121.996 50.6092 122.838 51.7942 122.865 53.3215H117.888H117.862ZM234.822 53.0055C234.085 52.2155 232.584 51.0305 230.714 51.5308C226.87 52.5578 224.527 61.2739 231.215 61.2739C231.583 61.2739 234.058 61.2739 234.48 61.2739C234.085 62.8802 231.162 64.0915 226.449 64.0915C220.682 64.0915 217.918 60.0363 221.446 54.1904L219.129 53.0318C216.206 57.9823 215.574 67.0144 226.449 67.0144C234.19 67.0144 237.402 64.0388 237.402 59.5623C237.402 56.0864 236.191 54.4801 234.822 53.0055ZM231.925 58.43C228.608 58.43 228.66 54.9804 230.978 54.5328C231.899 54.3484 233.663 55.3227 234.48 58.43H231.899H231.925ZM67.7551 52.3998V60.5892H64.8588V53.0055C64.8588 51.6625 64.1479 50.7672 62.726 50.7672C61.6728 50.7672 60.6459 51.3202 60.4879 51.3992C60.4879 51.5308 60.6722 52.1628 60.6722 53.2425V60.5892H57.7759V52.9791C57.7759 51.6362 57.0386 50.7672 55.6431 50.7672C54.5636 50.7672 53.6157 51.2412 53.484 51.2939C53.484 51.3729 53.5893 51.7678 53.5893 52.4788V60.6156H50.6667V51.0305C50.6667 50.3459 50.4823 49.6086 50.4297 49.4769C50.7193 49.3716 53.5367 48.2393 55.9064 48.2393C58.4078 48.2393 59.303 49.2926 59.4347 49.4242C59.6453 49.2926 61.3042 48.2393 63.2 48.2393C65.912 48.2393 67.7288 49.7929 67.7288 52.4262L67.7551 52.3998ZM258.598 48.0813L256.65 46.1063L258.572 44.0787L260.468 45.9747L262.39 44.0524L264.417 46.0274L262.442 48.1076L260.468 46.1853L258.598 48.1076V48.0813ZM306.046 61.3002H303.149V43.6838L306.046 42.9991V61.3002ZM260.468 44.8424L258.519 42.8938L260.441 40.8398L262.416 42.8411L260.468 44.8687V44.8424ZM229.398 48.0813L227.449 46.1327L229.371 44.0787L231.267 45.9747L233.163 44.0524L235.19 46.0274L233.242 48.0813L231.267 46.159L229.398 48.0813ZM91.3999 57.0607C91.3999 59.7203 89.1091 60.8526 86.5814 60.8526C84.5276 60.8526 82.7898 60.1416 82.5792 60.0626L83.4217 57.798C83.4217 57.798 84.7646 58.509 86.0548 58.509C87.4503 58.509 88.1612 57.9296 88.1612 57.1397C88.1612 56.5604 87.7926 56.06 86.792 55.6651C86.4761 55.5334 85.9495 55.3227 85.5808 55.1911C84.317 54.7171 82.8951 53.8744 82.8951 51.8468C82.8951 49.4506 85.1069 48.2393 87.3186 48.2393C89.2934 48.2393 90.5573 48.8186 90.8733 48.9766L90.057 51.2149C90.057 51.2149 88.7405 50.6619 87.3976 50.6619C86.5814 50.6619 85.8968 50.9779 85.8968 51.7152C85.8968 52.3735 86.3707 52.7421 87.266 53.0845C87.6083 53.2161 88.1086 53.4005 88.5035 53.5585C90.057 54.1641 91.4262 55.1647 91.4262 57.087L91.3999 57.0607ZM300.016 58.2983V43.0254L297.12 43.7101V55.3754C297.12 57.1397 297.357 57.8243 297.383 58.0086C297.278 58.0613 296.461 58.4563 294.855 58.4563H289.063C289.142 58.2983 289.378 56.9817 288.431 55.2964C286.877 52.5578 285.982 50.2932 283.77 50.2932C281.032 50.2932 279.9 52.9528 277.977 56.139C277.451 57.008 276.924 58.4563 274.712 58.4563H269.973C269.973 58.4563 269.683 58.0086 269.683 57.4293C269.683 53.7164 268.209 51.5572 266.682 50.3722L264.707 52.3472C266.234 53.4531 266.892 54.6907 266.892 57.008C266.892 58.035 267.103 58.272 267.182 58.43H263.812C263.706 58.193 263.548 57.8506 263.548 57.1397C263.548 54.1904 261.916 52.8475 260.915 52.0312L258.993 54.0061C259.335 54.2694 260.863 55.0857 260.863 57.0607C260.863 58.0086 261.047 58.3246 261.1 58.4563H257.914C257.835 58.272 257.677 57.877 257.677 57.166C257.677 54.2168 256.044 52.8738 255.044 52.0575L253.121 54.0324C253.49 54.3484 254.991 55.2701 254.991 57.1923C254.991 57.8243 255.149 58.351 255.228 58.4826H247.724C247.539 55.981 246.276 54.0061 244.854 52.9791L242.826 55.0331C244.09 56.4024 244.801 57.9296 244.801 60.1152C244.801 63.4331 242.721 65.4871 239.087 66.0927L239.351 68.015C245.091 67.6463 247.539 64.4601 247.724 61.3529H275.502C277.582 61.3529 278.557 60.2469 278.794 59.7993C279.057 60.0889 280.163 61.3529 283.112 61.3529H294.75C297.989 61.3529 300.2 60.4312 300.358 60.3786C300.332 60.2469 300.042 59.4833 300.042 58.351L300.016 58.2983ZM285.245 58.4563H284.06C281.69 58.4563 280.847 57.482 280.347 57.008C281.69 54.6118 282.19 53.4531 283.375 53.4531C284.376 53.4531 284.771 54.5064 285.982 56.692C286.535 57.6927 285.982 58.4563 285.271 58.4563H285.245ZM134.082 48.2393C130.106 48.2393 127.578 50.8199 127.578 54.5328C127.578 58.2456 130.29 60.8789 133.555 60.8789C134.292 60.8789 135.029 60.7209 135.767 60.4576V66.0401L138.663 65.6714V51.2412C138.663 50.4249 138.742 49.3452 138.821 49.0819C138.531 48.9766 136.267 48.2129 134.082 48.2129V48.2393ZM135.767 52.5841V58.0086C135.293 58.2193 134.713 58.351 134.187 58.351C132.028 58.351 130.817 56.5604 130.817 54.5591C130.817 52.5578 131.738 50.7672 134.003 50.7672C135.082 50.7672 135.767 51.0305 135.872 51.0832C135.872 51.1885 135.767 51.8468 135.767 52.5841ZM104.223 52.5315V60.6156H101.326V53.0581C101.326 51.6098 100.51 50.7672 99.0884 50.7672C98.0088 50.7672 96.9293 51.3728 96.508 51.6625V60.6156H93.6116V42.9991L96.508 42.3145V49.1873C96.666 49.1083 98.0351 48.2393 99.9046 48.2393C102.696 48.2393 104.223 49.8982 104.223 52.5315ZM80.2621 52.6631C80.2621 49.7929 78.4979 48.2393 75.4963 48.2393C73.2845 48.2393 71.1781 49.1873 70.9674 49.2926L71.968 51.5045C72.126 51.4518 73.6795 50.7145 75.3383 50.7145C76.5758 50.7145 77.3657 51.1885 77.3657 51.8468C77.3657 52.5578 76.6811 52.8211 75.6279 53.0845C73.4162 53.6111 69.8616 53.8481 69.8616 57.1397C69.8616 59.9836 72.6526 60.9052 75.2856 60.9052C77.9187 60.9052 80.3147 60.0099 80.4991 59.9573C80.4464 59.7466 80.2884 59.2199 80.2884 57.9823V52.6895L80.2621 52.6631ZM75.233 58.4826C74.1008 58.4826 73.0475 58.0876 73.0475 56.9553C73.0475 56.06 74.0218 55.6914 75.075 55.4544C75.9702 55.2437 76.9444 54.9804 77.3657 54.6644V56.7184C77.3657 57.5347 77.4447 57.9823 77.4711 58.0876C77.3657 58.114 76.4178 58.4563 75.2593 58.4563L75.233 58.4826ZM112.28 48.2393C113.017 48.2393 113.86 48.3446 114.492 48.5026L113.623 51.0042C113.228 50.8989 112.57 50.7672 112.017 50.7672C110.832 50.7672 109.858 51.0569 109.726 51.0832C109.726 51.1622 109.858 51.7152 109.858 52.7421V60.5892H106.961V51.9258C106.961 50.5302 106.751 49.6349 106.751 49.5559C107.066 49.4242 109.673 48.2129 112.28 48.2129V48.2393Z" fill="#313131"/>
</g>
</svg>
