<svg width="350" height="110" viewBox="0 0 350 110" fill="none" xmlns="http://www.w3.org/2000/svg">
<rect x="0.1875" width="349.516" height="109.55" rx="7" fill="white"/>
<mask id="mask0_411_933" style="mask-type:luminance" maskUnits="userSpaceOnUse" x="104" y="38" width="134" height="32">
<path d="M104.521 53.8396C104.521 62.4703 111.913 69.4461 121.02 69.4461C123.575 69.4461 125.983 68.9015 128.139 67.9169V69.5299H133.437V53.9862H122.067L122.947 56.5H128.16C128.16 57.0866 128.16 60.3126 128.16 64.4185C127.218 64.9841 126.192 65.445 125.103 65.7592C124.014 66.0734 122.863 66.241 121.69 66.241C114.823 66.241 109.253 60.6897 109.253 53.8605C109.253 47.0313 114.823 41.48 121.69 41.48C125.02 41.48 128.014 42.7788 130.254 44.8736C130.777 43.9309 131.28 42.9882 131.803 42.0456C128.914 39.6784 125.145 38.2539 121.041 38.2539C111.912 38.2539 104.542 45.2297 104.542 53.8605M162.205 38.2539C162.205 45.0831 162.205 53.8605 162.205 57.317C162.163 62.6588 158.08 66.241 152.155 66.1991C147.318 66.1991 143.926 62.6169 143.885 57.4636V38.2539H138.504C138.504 43.7424 138.504 52.1008 138.504 56.2486C138.504 60.5849 140.22 64.0624 143.717 66.5762C148.093 69.7394 152.909 70.4936 157.829 68.0426C162.603 65.6545 164.843 61.6324 164.78 56.3115V38.2539H162.205ZM169.785 38.2539V68.7129C171.292 68.2311 172.904 67.8959 174.872 67.6865C175.249 67.6446 175.626 67.6027 176.024 67.5817C178.997 67.3513 181.656 67.9588 184.295 68.5453C189.738 69.7604 195.119 70.9963 203.034 65.047L203.097 65.0051C200.793 64.209 199.244 64.7746 198.783 65.0051C193.005 67.9588 188.691 66.9114 184.295 65.864C181.677 65.2355 179.039 64.607 176.024 64.8375C175.626 64.8584 175.249 64.9003 174.872 64.9422V38.2749H169.785V38.2539ZM220.852 43.0301L227.447 59.3071H214.236L220.852 43.0301ZM220.077 38.2539L219.512 39.6784L207.389 69.5509H210.132L213.21 62.0094H228.557C229.395 64.0833 230.776 67.456 231.635 69.5509H237.121L224.39 38.2539H220.119H220.077ZM191.288 38.2539V64.8584C192.963 64.8584 194.575 64.5232 196.229 63.8738V52.0589H205.149C205.505 51.1791 205.861 50.3202 206.216 49.4404H196.292V40.8096H209.964C210.299 39.9717 210.655 39.0918 210.99 38.2539H191.309H191.288Z" fill="white"/>
</mask>
<g mask="url(#mask0_411_933)">
<path d="M237.058 38.2148H104.521V70.9363H237.058V38.2148Z" fill="#313131"/>
</g>
</svg>
