<svg width="350" height="110" viewBox="0 0 350 110" fill="none" xmlns="http://www.w3.org/2000/svg">
<rect x="0.25" width="349.516" height="109.55" rx="7" fill="white"/>
<path d="M246.734 27.1959C245.091 25.8387 243.333 24.6343 241.461 23.5829C240.926 23.2771 240.372 22.9904 239.837 22.7227C238.098 21.8816 236.283 21.1552 234.411 20.6008C231.22 19.645 227.819 19.1289 224.303 19.1289C204.948 19.1289 189.281 34.6894 189.281 53.9011C189.281 62.0637 192.109 69.5572 196.847 75.4832C202.828 82.9767 211.846 87.947 222.049 88.5969C222.794 88.6351 223.539 88.6734 224.303 88.6734C225.794 88.6734 227.265 88.5778 228.698 88.4057C235.442 87.5646 241.595 84.8119 246.601 80.7211C254.377 74.3363 259.344 64.7018 259.344 53.9011C259.344 43.1005 254.434 33.5807 246.734 27.1959Z" fill="#313131"/>
<path d="M180.147 35.1882C180.147 36.0675 179.421 36.7748 178.542 36.7748C177.664 36.7748 176.938 36.0675 176.938 35.1882C176.938 34.3088 177.664 33.6016 178.542 33.6016C179.421 33.6016 180.147 34.3088 180.147 35.1882Z" fill="#313131"/>
<path d="M169.065 35.1882C169.065 36.0675 168.339 36.7748 167.46 36.7748C166.582 36.7748 165.855 36.0675 165.855 35.1882C165.855 34.3088 166.582 33.6016 167.46 33.6016C168.339 33.6016 169.065 34.3088 169.065 35.1882Z" fill="#313131"/>
<path d="M88.9512 67.491C88.9512 71.1995 92.0082 74.2007 95.7149 74.2007C99.4215 74.2007 102.478 71.2186 102.478 67.491C102.478 63.7633 99.4788 60.7812 95.7339 60.7812C91.9891 60.7812 88.9512 63.8016 88.9512 67.491ZM92.0082 67.491C92.0082 65.35 93.6896 63.5531 95.7149 63.5531C97.7401 63.5531 99.4215 65.3691 99.4215 67.5483C99.4215 69.7276 97.7974 71.4672 95.7339 71.4672C93.6704 71.4672 91.9891 69.7467 91.9891 67.5101" fill="#313131"/>
<path d="M104.582 61.1827H107.372V62.234C108.155 61.2591 109.225 60.7812 110.753 60.7812C112.282 60.7812 113.581 61.4885 114.422 62.7502C115.358 61.4121 116.715 60.7812 118.511 60.7812C121.797 60.7812 123.669 62.8267 123.669 66.4587V73.7993H120.612V66.841C120.612 64.6618 119.791 63.5531 118.205 63.5531C116.428 63.5531 115.645 64.7574 115.645 67.5101V73.7993H112.588V66.841C112.588 64.7191 111.69 63.5531 110.047 63.5531C108.403 63.5531 107.639 64.7192 107.639 67.5101V73.7993H104.582V61.1827Z" fill="#313131"/>
<path d="M139.221 61.1827H136.432V62.8076C135.496 61.6032 133.757 60.7812 132.171 60.7812C128.56 60.7812 125.809 63.6486 125.809 67.4336C125.809 71.2186 128.426 74.2007 131.98 74.2007C133.566 74.2007 135.457 73.3597 136.432 72.2509V73.7802H139.221V61.1635M136.355 67.4528C136.355 69.7658 134.789 71.4672 132.61 71.4672C130.432 71.4672 128.847 69.7467 128.847 67.5483C128.847 65.35 130.471 63.5339 132.61 63.5339C134.75 63.5339 136.355 65.1779 136.355 67.4528Z" fill="#313131"/>
<path d="M142.316 61.1827H145.163V62.2723C146.233 61.24 147.265 60.7812 148.622 60.7812C150.456 60.7812 152.214 61.8135 152.978 63.3237C153.494 64.3368 153.647 65.1971 153.647 66.9749V73.7802H150.59V67.5675C150.59 64.8338 149.749 63.5339 148.029 63.5339C147.036 63.5339 146.042 64.1839 145.717 65.0632C145.469 65.7132 145.393 66.3058 145.393 67.7968V73.7802H142.336V61.1635" fill="#313131"/>
<path d="M155.537 67.491C155.537 71.1995 158.594 74.2007 162.301 74.2007C166.007 74.2007 169.064 71.2186 169.064 67.491C169.064 63.7633 166.065 60.7812 162.32 60.7812C158.575 60.7812 155.537 63.8016 155.537 67.491ZM158.594 67.491C158.594 65.35 160.275 63.5531 162.301 63.5531C164.326 63.5531 166.007 65.3691 166.007 67.5483C166.007 69.7276 164.383 71.4672 162.32 71.4672C160.256 71.4672 158.594 69.7467 158.594 67.5101" fill="#313131"/>
<path d="M174.188 61.1875H171.131V73.8042H174.188V61.1875Z" fill="#313131"/>
<path d="M180.09 56.9961H177.033V73.7992H180.09V56.9961Z" fill="#313131"/>
<path d="M174.263 58.3953C174.263 59.2746 173.537 59.9819 172.658 59.9819C171.779 59.9819 171.053 59.2746 171.053 58.3953C171.053 57.5159 171.779 56.8086 172.658 56.8086C173.537 56.8086 174.263 57.5159 174.263 58.3953Z" fill="#313131"/>
<path d="M167.48 48.3576C165.378 48.3576 163.735 46.6372 163.735 44.4006C163.735 42.164 165.416 40.4627 167.442 40.4627C169.467 40.4627 171.148 42.2787 171.148 44.4388C171.148 46.5989 169.524 48.3576 167.461 48.3576M145.546 44.6491C145.584 41.992 148.163 40.5964 150.685 40.5964C152.978 40.5964 154.239 41.5332 155.195 43.1007C155.825 44.133 156.035 45.2226 156.035 47.1915V48.0326H145.546V44.6682V44.6491ZM176.995 38.0922V43.9036C176.995 46.6372 176.154 48.0135 174.435 48.0135H173.518C173.231 48.0135 173.097 48.0709 173.097 48.0709C173.785 47.0577 174.186 45.7387 174.186 44.4006C174.186 40.6729 171.187 37.6908 167.461 37.6908C163.735 37.6908 160.678 40.7112 160.678 44.4006C160.678 45.7387 161.118 47.0959 161.805 48.0709C161.805 48.0709 161.672 48.0135 161.366 48.0135H158.958V47.3062C158.958 45.3373 158.806 44.0947 158.328 42.7566C157.258 39.7362 154.526 37.6908 150.666 37.6908C148.488 37.6908 146.348 38.4937 145.336 39.7936V33.8867H142.489V47.9944H141.018V50.6898H167.423H175.027C176.861 50.6898 178.619 49.6575 179.383 48.1473C179.899 47.1342 180.052 46.2739 180.052 44.4961V38.0922H176.995Z" fill="#313131"/>
<path d="M97.3388 39.2781C97.3388 40.1574 96.6127 40.8647 95.7338 40.8647C94.8549 40.8647 94.1289 40.1574 94.1289 39.2781C94.1289 38.3987 94.8549 37.6914 95.7338 37.6914C96.6127 37.6914 97.3388 38.3987 97.3388 39.2781Z" fill="#313131"/>
<path d="M133.816 48.0135C131.618 48.0135 130.013 46.3313 130.013 44.1712C130.013 42.0111 131.561 40.4435 133.701 40.4435C134.809 40.4435 135.593 40.7876 136.185 41.6479L138.382 39.5833C137.178 38.3407 135.497 37.6526 133.72 37.6526C130.013 37.6526 126.976 40.6538 126.976 44.3432C126.976 45.6814 127.396 47.0195 128.122 48.0709C128.122 48.0709 127.988 48.0135 127.644 48.0135H125.428C124.797 48.0135 124.282 47.8224 123.88 47.44C124.339 46.5225 124.606 45.4902 124.606 44.4006C124.606 40.6729 121.607 37.6908 117.862 37.6908C114.117 37.6908 111.079 40.7112 111.079 44.4006C111.079 45.4902 111.346 46.5225 111.805 47.4209C111.404 47.8032 110.888 47.9944 110.238 47.9944H107.85V33.8867H104.793V50.6898H110.85C111.92 50.6898 112.97 50.3457 113.716 49.6766C114.824 50.5559 116.333 51.0912 117.843 51.0912C119.428 51.0912 120.9 50.556 121.989 49.6957C122.715 50.3266 123.67 50.6898 124.816 50.6898H138.974V47.9944H133.816M117.843 48.3385C115.741 48.3385 114.098 46.618 114.098 44.3815C114.098 42.1449 115.779 40.4435 117.804 40.4435C119.83 40.4435 121.511 42.2596 121.511 44.4388C121.511 46.618 119.887 48.3576 117.824 48.3576" fill="#313131"/>
<path d="M100.78 39.9258L98.6397 41.933L98.6014 41.9712C99.1173 42.6593 99.423 43.5196 99.423 44.4563C99.423 46.6546 97.799 48.356 95.7355 48.356C93.672 48.356 91.9906 46.6355 91.9906 44.3989C91.9906 43.4814 92.2964 42.6402 92.7931 41.9712H92.774L90.6532 39.964C89.5832 41.1492 88.9336 42.7167 88.9336 44.3989C88.9336 48.1075 91.9906 51.1087 95.6973 51.1087C99.4039 51.1087 102.461 48.1266 102.461 44.3989C102.461 42.6785 101.811 41.111 100.76 39.9258" fill="#313131"/>
<path d="M239.281 23.8306C237.6 23.0086 235.861 22.3204 234.046 21.7852C186.719 28.5331 190.368 58.5455 197.82 74.7177C203.59 81.9436 212.283 86.7418 222.123 87.3535C206.762 73.0355 182.267 38.0339 239.281 23.8306Z" fill="#313131"/>
<path d="M234.048 21.7857C230.953 20.8681 227.685 20.3711 224.304 20.3711C205.637 20.3711 190.523 35.3773 190.523 53.9008C190.523 61.7575 193.256 69.0025 197.822 74.7182C190.39 58.546 186.74 28.5337 234.048 21.7857Z" fill="#313131"/>
<path d="M240.849 24.654C240.333 24.3673 239.798 24.0997 239.282 23.832C182.288 38.0353 206.763 73.037 222.125 87.3549C222.851 87.3932 223.577 87.4314 224.303 87.4314C225.736 87.4314 227.15 87.3358 228.544 87.1638C214.062 75.2735 182.307 39.3734 240.849 24.654Z" fill="#313131"/>
<path d="M245.93 28.151C244.344 26.8511 242.644 25.6659 240.848 24.6719C182.306 39.3722 214.061 75.2914 228.543 87.1816C235.059 86.3787 240.982 83.7216 245.796 79.7836C224.837 62.8085 203.304 38.8942 245.93 28.1701" fill="#313131"/>
<path d="M258.083 53.9018C258.083 43.5599 253.364 34.3077 245.931 28.1523C203.305 38.8956 224.838 62.7908 245.798 79.7659C253.307 73.6105 258.083 64.3201 258.083 53.9018Z" fill="#C5C5C2"/>
</svg>
