<svg width="350" height="110" viewBox="0 0 350 110" fill="none" xmlns="http://www.w3.org/2000/svg">
<rect x="0.125" width="349.516" height="109.55" rx="7" fill="white"/>
<path d="M100.279 33.0611C87.1923 33.0611 76.6348 43.6194 76.6348 56.7074C76.6348 62.0745 78.3724 67.1117 81.5176 71.0491L101.225 45.1812H97.134C94.9345 45.1812 92.713 45.3351 91.3053 45.6651C90.3596 45.8191 89.5677 46.149 88.9299 46.6109C88.1381 47.0949 87.1923 48.3487 86.5545 49.4485C86.5545 49.6025 86.4005 49.7564 86.2465 50.0864L84.8168 49.9324L86.7084 42.5196H111.299L91.7452 68.5415C92.9989 68.3875 93.4828 68.3875 94.5826 68.3875C95.3744 68.3875 96.6281 68.3875 98.2117 68.5415L101.687 68.6955C102.941 68.6955 104.062 68.8495 104.832 68.8495C106.57 68.8495 107.823 68.6955 108.923 68.3655C109.869 68.0576 110.661 67.7276 111.453 67.1117C112.882 66.1659 114.136 64.5821 114.928 63.1744C114.928 63.0204 115.082 62.8664 115.236 62.5365L116.335 62.8444C116.028 64.0982 115.852 64.5821 115.236 65.8359C114.136 68.2116 113.036 69.7733 111.299 71.0491C109.561 72.3249 107.823 72.9408 105.624 72.9408H105.316C103.732 72.9408 102.479 72.7868 98.5416 72.1489C94.6045 71.511 92.5591 71.3571 90.4915 71.3571C89.2378 71.3571 87.9621 71.511 86.7084 71.665C84.9708 71.973 84.333 72.1489 82.7713 72.7649C87.0383 77.4941 93.3288 80.4856 100.279 80.4856C113.366 80.4856 123.924 69.9273 123.924 56.8393C123.924 43.7514 113.366 33.0391 100.279 33.0391" fill="#404040"/>
<path d="M203.699 55.2964C202.907 55.7803 201.962 56.0883 200.862 56.2423C200.378 56.2423 199.916 56.3962 199.608 56.3962H199.3V47.8836H199.938C201.038 47.8836 202.138 48.0375 203.083 48.1915C203.721 48.3455 204.183 48.6754 204.667 48.9834C205.459 49.6213 205.921 50.5671 205.921 51.821C205.921 52.9208 205.613 53.7127 204.975 54.3506C204.491 54.8345 204.029 55.1424 203.721 55.2964M212.387 66.6466C211.595 65.8547 210.803 65.0629 209.704 63.9631C209.066 63.1712 208.45 62.5333 207.966 62.0714L204.337 57.804C204.821 57.65 204.975 57.65 205.283 57.4961C206.382 57.0121 207.328 56.5502 208.12 55.9123C209.066 55.1204 209.55 54.3286 210.012 53.2287C210.166 52.5908 210.32 52.1289 210.32 51.491C210.32 50.0612 209.836 48.8074 208.736 47.7076C207.79 46.7618 206.536 45.9699 204.953 45.6619C203.853 45.354 202.907 45.354 201.016 45.178H192.812C193.296 45.486 193.296 45.6619 193.603 46.1239C193.757 46.4318 193.911 46.7618 194.087 46.9157C194.241 47.3997 194.241 48.1695 194.241 49.4453V64.579C194.241 65.6788 194.241 66.3167 193.933 66.7786C193.779 67.0866 193.779 67.2625 193.625 67.5705C193.472 67.8784 193.318 68.0544 192.834 68.3624H200.092C199.784 68.0544 199.608 67.8784 199.454 67.5705C199.3 67.4165 199.146 67.0866 199.146 66.9326C198.992 66.4487 198.838 65.8328 198.838 64.7329V58.4199L203.105 63.4571C203.259 63.7651 203.589 64.095 204.051 64.557C204.535 65.1949 204.997 65.5028 205.151 65.8108C205.943 66.6026 206.734 67.2405 207.526 67.7025C208.164 68.0104 208.78 68.1864 209.726 68.1864H213.817C213.509 67.8784 213.333 67.7025 213.025 67.5485C213.179 67.2405 212.871 66.9106 212.387 66.6026M222.153 49.4233C222.153 47.8396 222.153 47.5316 222.461 46.8937C222.461 46.5858 222.461 46.4098 222.615 46.1018C222.923 45.7939 223.099 45.4639 223.406 45.156H216.148C216.632 45.6399 216.786 45.7939 216.94 46.1018C217.094 46.4098 217.248 46.5858 217.248 46.8937C217.402 47.5316 217.402 47.9936 217.556 49.4233V64.557C217.556 65.3488 217.402 66.2947 217.248 66.7566C217.094 66.9106 217.094 67.2405 216.94 67.3945C216.786 67.7025 216.632 67.7025 216.302 68.1864H223.56C223.253 67.8784 223.077 67.7025 222.923 67.3945C222.769 67.2405 222.615 66.9106 222.615 66.7566C222.461 66.2727 222.307 65.5028 222.307 64.7109V50.8311L222.153 49.4013V49.4233ZM244.214 64.8649C242.784 65.5028 241.53 65.6568 240.123 65.6568C237.747 65.6568 235.702 64.8649 234.14 63.1272C232.71 61.5434 231.764 59.3438 231.764 56.8142C231.764 54.4385 232.556 52.0849 233.81 50.6551C234.448 50.0172 235.064 49.4013 235.856 48.9174C237.109 48.1255 238.693 47.8176 240.276 47.8176C241.706 47.8176 243.114 48.1255 244.368 48.6095C245.159 48.9174 245.467 49.0934 246.259 49.7093V45.288C245.621 45.134 245.467 44.98 244.829 44.98C243.576 44.6721 242.146 44.4961 240.738 44.4961C238.209 44.4961 236.163 44.98 234.118 45.7499C233.018 46.2338 231.918 46.8497 230.973 47.6416C228.135 49.8413 226.552 53.1627 226.552 57.1001C226.552 60.7296 227.981 64.029 230.819 66.0967C233.018 67.8344 236.031 68.7803 239.485 68.7803C241.684 68.7803 243.752 68.4723 245.951 67.6805C246.054 67.6805 246.156 67.6291 246.259 67.5265V63.4351C245.621 63.7431 245.467 63.9191 245.159 64.073C245.159 64.381 244.675 64.7109 244.214 64.8649ZM271.333 49.4233C271.333 48.4775 271.487 47.6856 271.641 47.0477C271.795 46.7398 271.795 46.4098 271.949 46.2558C272.257 45.9479 272.433 45.6179 272.895 45.31H265.329C265.812 45.6179 265.966 45.7939 266.12 46.2558C266.274 46.5638 266.428 46.7398 266.428 47.0477C266.582 47.5316 266.736 48.3015 266.736 49.4233V54.9445H256.333V48.0156C256.333 47.7076 256.487 47.3777 256.487 47.0697C256.641 46.5858 257.125 45.8159 257.432 45.4859L257.74 45.178H250.328C250.812 45.6619 250.966 45.8159 251.12 46.1239C251.274 46.2778 251.428 46.6078 251.604 46.9157C251.758 47.5536 251.758 47.8616 251.912 49.2913V63.3252C251.912 64.579 251.912 65.2169 251.758 65.7008C251.758 66.0087 251.604 66.3387 251.604 66.6466C251.45 67.1305 251.12 67.5925 250.658 67.9004C250.658 67.9004 250.504 68.0544 250.35 68.0544H257.608C257.3 67.7465 257.125 67.5705 256.971 67.2625C256.817 67.1086 256.663 66.7786 256.663 66.4707C256.509 65.8328 256.355 65.3708 256.355 64.425V57.4961H266.758V63.1712C266.758 64.425 266.758 64.9089 266.604 65.5468C266.604 65.8547 266.45 66.1847 266.296 66.4926C266.142 66.9766 265.812 67.2845 265.505 67.7465L265.197 68.0544H272.609C272.301 67.7465 272.125 67.5705 271.971 67.2625C271.817 66.9546 271.663 66.7786 271.487 66.4707C271.333 65.9867 271.179 65.5248 271.179 64.425V50.5451L271.333 49.4453V49.4233ZM157.664 65.0409C156.718 65.1949 155.464 65.3488 154.035 65.3488H148.668L162.701 45.178H144.577L142.378 50.0612C143.169 49.7533 143.477 49.5773 144.115 49.2694C145.215 48.7854 146.315 48.4775 147.436 48.3235C148.382 48.1695 149.328 48.0156 150.758 48.0156H155.178L140.838 68.1864H160.699L163.075 62.9732C162.283 63.4571 161.975 63.6111 161.337 63.9191C160.237 64.403 158.962 64.7109 157.708 65.0189M182.936 46.1018C183.09 46.4098 183.244 46.5858 183.244 46.8937C183.398 47.5316 183.398 47.9936 183.398 49.2694V58.09C183.398 59.9817 183.398 61.0815 183.244 62.0273C183.09 62.6652 182.936 63.2812 182.606 63.7651C181.968 64.7109 181.022 65.3488 179.769 65.6568C179.285 65.8108 178.669 65.8108 178.185 65.8108C176.14 65.8108 174.556 65.0189 173.61 63.9191C172.972 62.9732 172.818 62.0274 172.818 59.6517V48.1475C172.818 47.6636 172.972 47.3557 172.972 47.0477C173.126 46.5638 173.456 45.7939 173.918 45.31L174.072 45.156H166.66C167.144 45.4639 167.298 45.7939 167.606 46.1018C167.76 46.4098 167.914 46.5858 167.914 46.8937C168.067 47.2017 168.067 47.5316 168.067 47.9936V57.2981C168.067 59.8277 168.068 60.2896 168.221 61.3894C168.375 63.1272 168.859 64.381 169.805 65.6568C171.543 67.8564 174.38 68.9783 178.009 68.9783C179.747 68.9783 181.33 68.6703 182.584 68.1864C183.838 67.7025 185.113 66.9326 186.059 65.8108C187.159 64.557 187.797 63.1272 187.951 61.3894C188.105 60.2896 188.105 59.0138 188.105 57.2981V49.0934C188.105 48.1475 188.105 47.5096 188.259 47.0477C188.413 46.7398 188.413 46.4098 188.743 46.1018C189.051 45.7939 189.226 45.4639 189.688 45.156H182.276C182.584 45.4639 182.76 45.6399 182.914 46.1018" fill="#404040"/>
</svg>
