<svg width="350" height="110" viewBox="0 0 350 110" fill="none" xmlns="http://www.w3.org/2000/svg">
<rect x="0.3125" width="349.516" height="109.55" rx="7" fill="white"/>
<path fill-rule="evenodd" clip-rule="evenodd" d="M113.377 93.7636V88.1109H109.043V93.7636H106.384V79.9961H109.043V85.6489H113.377V79.9961H116.056V93.7636H113.377Z" fill="#313131"/>
<path fill-rule="evenodd" clip-rule="evenodd" d="M126.911 86.9671V82.437H123.247C122.893 82.437 122.597 82.693 122.577 83.0475V83.0869V86.9474H126.911V86.9671ZM119.918 93.7622V83.3233C119.918 82.8703 120.016 82.437 120.194 82.0234C120.529 81.2355 121.159 80.5855 121.967 80.2507C122.38 80.0734 122.814 79.975 123.267 79.9947H129.591V93.7622H126.931V89.4094H122.597V93.7622H119.918Z" fill="#313131"/>
<path fill-rule="evenodd" clip-rule="evenodd" d="M136.131 82.4386V86.9687H139.342C139.697 86.9687 139.993 86.6732 140.012 86.299V83.1082C140.012 82.7537 139.717 82.4583 139.342 82.4386H136.131ZM139.342 79.9963C139.795 79.9963 140.229 80.0751 140.623 80.272C141.411 80.6266 142.061 81.2568 142.396 82.0447C142.573 82.4583 142.672 82.8916 142.672 83.3249V86.0626C142.672 86.752 142.455 87.4414 142.041 88.0126C141.647 88.5838 141.056 89.0171 140.406 89.214L142.849 93.7441H139.835L137.471 89.3913H136.112V93.7441H133.452V79.9766H139.342V79.9963Z" fill="#313131"/>
<path fill-rule="evenodd" clip-rule="evenodd" d="M149.191 79.9963V86.8899C149.191 87.6975 149.368 88.4853 149.742 89.1944C150.117 89.9034 150.688 90.4943 151.358 90.9276C152.028 90.4943 152.579 89.8837 152.954 89.1746C153.328 88.4656 153.525 87.6777 153.505 86.8702V79.9766H156.165V86.8702C156.165 87.658 156.046 88.4262 155.79 89.1746C155.554 89.8837 155.199 90.5534 154.766 91.1442C154.333 91.7351 153.82 92.2669 153.229 92.7396C152.638 93.1926 152.008 93.5866 151.338 93.9017C150.629 93.5866 149.959 93.173 149.368 92.7003C148.797 92.2276 148.285 91.6957 147.851 91.0852C147.418 90.4943 147.103 89.8443 146.866 89.1353C146.63 88.4065 146.512 87.6384 146.512 86.8899V79.9963H149.191Z" fill="#313131"/>
<path fill-rule="evenodd" clip-rule="evenodd" d="M166.49 88.2885H162.747V90.6717C162.747 90.849 162.825 91.0065 162.944 91.1247C163.062 91.2429 163.239 91.3217 163.416 91.3217H168.42V93.764H163.416C162.963 93.764 162.53 93.6852 162.116 93.4882C161.328 93.1534 160.678 92.5231 160.343 91.7156C160.166 91.302 160.067 90.8687 160.067 90.4157V83.3054C160.067 82.8524 160.146 82.419 160.343 82.0054C160.678 81.2176 161.308 80.5873 162.116 80.2328C162.53 80.0555 162.963 79.957 163.416 79.957H168.42V82.3993H163.416C163.062 82.3993 162.766 82.6948 162.747 83.069V85.8068H167.612L166.47 88.2491L166.49 88.2885Z" fill="#313131"/>
<path fill-rule="evenodd" clip-rule="evenodd" d="M180.968 82.4386H175.196C174.841 82.4386 174.546 82.734 174.526 83.1082V84.9991C174.526 85.3536 174.822 85.649 175.196 85.6687H178.19C178.643 85.6687 179.077 85.7672 179.491 85.9445C179.885 86.1217 180.239 86.3778 180.554 86.6733C180.85 86.9884 181.086 87.3429 181.264 87.7368C181.441 88.1308 181.539 88.5641 181.539 88.9974V90.4352C181.539 90.8882 181.441 91.3215 181.264 91.7351C180.929 92.523 180.298 93.1532 179.491 93.5078C179.077 93.685 178.643 93.7835 178.19 93.7835H172.32V91.3412H178.19C178.545 91.3412 178.84 91.0458 178.86 90.6716V88.7807C178.86 88.6035 178.781 88.4262 178.663 88.308C178.545 88.1701 178.368 88.1111 178.19 88.1111H175.196C174.743 88.1111 174.31 88.0323 173.896 87.855C173.502 87.6974 173.147 87.4611 172.832 87.1459C172.537 86.8505 172.3 86.496 172.123 86.1217C171.946 85.7278 171.847 85.3142 171.867 84.8809V83.3249C171.867 82.8719 171.946 82.4386 172.123 82.025C172.458 81.2371 173.088 80.6068 173.896 80.2523C174.31 80.075 174.743 79.9766 175.196 79.9766H180.968V82.4189V82.4386Z" fill="#313131"/>
<path fill-rule="evenodd" clip-rule="evenodd" d="M187.804 93.7636V82.4384H184.632V79.9961H193.654V82.4384H190.483V93.7636H187.804Z" fill="#313131"/>
<path fill-rule="evenodd" clip-rule="evenodd" d="M199.878 88.0715V91.3214H203.542C203.897 91.3214 204.193 91.0456 204.212 90.6911C204.212 90.6911 204.212 90.6714 204.212 90.6517V88.7411C204.212 88.3669 203.917 88.0912 203.542 88.0715H199.878ZM199.878 82.4384V85.6291H203.345C203.582 85.6291 203.779 85.4322 203.798 85.1761V83.0884C203.798 82.7338 203.503 82.4384 203.129 82.4187H199.878V82.4384ZM197.219 79.9961H203.129C203.582 79.9961 204.015 80.0749 204.409 80.2718C205.197 80.6264 205.847 81.2566 206.182 82.0445C206.359 82.4581 206.458 82.8914 206.458 83.3247V84.8807C206.458 85.2156 206.379 85.5307 206.281 85.8261C206.162 86.1807 205.906 86.4761 205.591 86.6534C206.025 86.8306 206.379 87.1458 206.576 87.5791C206.793 87.973 206.891 88.426 206.911 88.879V90.435C206.911 90.888 206.832 91.3213 206.635 91.735C206.3 92.5228 205.67 93.1728 204.862 93.5076C204.449 93.6849 204.015 93.7834 203.562 93.7834H197.219V80.0158V79.9961Z" fill="#313131"/>
<path fill-rule="evenodd" clip-rule="evenodd" d="M217.157 88.2883H213.434V90.6716C213.434 91.0261 213.729 91.3215 214.104 91.3412H219.107V93.7835H214.104C213.651 93.7835 213.217 93.685 212.823 93.5078C212.035 93.1729 211.385 92.5427 211.05 91.7351C210.873 91.3215 210.774 90.8882 210.774 90.4352V83.3249C210.774 82.8719 210.853 82.4386 211.03 82.025C211.365 81.2371 211.996 80.5871 212.803 80.2523C213.217 80.075 213.651 79.9766 214.084 79.9766H219.088V82.4189H214.104C213.749 82.4189 213.454 82.7143 213.434 83.0886V85.8263H218.3L217.157 88.2686V88.2883Z" fill="#313131"/>
<path fill-rule="evenodd" clip-rule="evenodd" d="M230.906 93.7638H226.296C225.843 93.7638 225.41 93.685 224.996 93.4881C224.602 93.3108 224.247 93.0745 223.932 92.779C223.637 92.4836 223.381 92.1094 223.223 91.7155C223.046 91.3018 222.947 90.8685 222.947 90.4155V79.9766H225.607V90.6322C225.607 90.9867 225.902 91.2821 226.277 91.3018H230.886V93.7441L230.906 93.7638Z" fill="#313131"/>
<path fill-rule="evenodd" clip-rule="evenodd" d="M235.083 93.7636V82.4384H231.911V79.9961H240.934V82.4384H237.762V93.7636H235.083Z" fill="#313131"/>
<path d="M164.283 63.2526L172.281 54.4287V43.8125H164.283V63.2526Z" fill="#313131"/>
<path d="M161.523 43.8125H147.3V63.9813H161.523V43.8125Z" fill="#313131"/>
<path d="M164.283 41.0378H172.281V30.402L164.283 21.5781V41.0378Z" fill="#313131"/>
<path d="M161.523 20.8672H147.3V41.036H161.523V20.8672Z" fill="#313131"/>
<path d="M183.055 43.8125H175.057V54.4287L183.055 63.2526V43.8125Z" fill="#313131"/>
<path d="M200.056 43.8125H185.833V63.9813H200.056V43.8125Z" fill="#313131"/>
<path d="M175.057 41.0378H183.055V21.5781L175.057 30.402V41.0378Z" fill="#313131"/>
<path d="M200.056 20.8672H185.833V41.036H200.056V20.8672Z" fill="#313131"/>
</svg>
