<svg width="98" height="98" viewBox="0 0 98 98" fill="none" xmlns="http://www.w3.org/2000/svg">
<g clip-path="url(#clip0_1_244)">
<path d="M97.003 89.353V7.649C97.003 3.42457 93.5784 0 89.354 0L7.64899 0C3.42457 0 -7.62939e-06 3.42457 -7.62939e-06 7.649V89.353C-7.62939e-06 93.5774 3.42457 97.002 7.64899 97.002H89.354C93.5784 97.002 97.003 93.5774 97.003 89.353Z" fill="black"/>
<path d="M74.7734 34.1342C74.9094 34.0558 75.0221 33.9428 75.1003 33.8067C75.1785 33.6706 75.2194 33.5163 75.2188 33.3594V26.2344C75.2194 26.0774 75.1785 25.9231 75.1003 25.7871C75.0221 25.651 74.9094 25.538 74.7734 25.4595L68.5391 21.897C68.4037 21.8189 68.2501 21.7777 68.0938 21.7777C67.9374 21.7777 67.7838 21.8189 67.6484 21.897L61.4141 25.4595C61.2782 25.538 61.1654 25.651 61.0872 25.7871C61.009 25.9231 60.9681 26.0774 60.9688 26.2344V28.9063H36.0313V26.2344C36.0319 26.0774 35.991 25.9231 35.9128 25.7871C35.8346 25.651 35.7219 25.538 35.5859 25.4595L29.3516 21.897C29.2162 21.8189 29.0626 21.7777 28.9063 21.7777C28.7499 21.7777 28.5963 21.8189 28.4609 21.897L22.2266 25.4595C22.0907 25.538 21.9779 25.651 21.8997 25.7871C21.8215 25.9231 21.7806 26.0774 21.7813 26.2344V33.3594C21.7806 33.5163 21.8215 33.6706 21.8997 33.8067C21.9779 33.9428 22.0907 34.0558 22.2266 34.1342L28.0156 37.4384V59.5616L22.2266 62.8658C22.0907 62.9443 21.9779 63.0572 21.8997 63.1933C21.8215 63.3294 21.7806 63.4837 21.7813 63.6406V70.7656C21.7806 70.9226 21.8215 71.0769 21.8997 71.2129C21.9779 71.349 22.0907 71.462 22.2266 71.5405L28.4609 75.103C28.5963 75.1811 28.7499 75.2223 28.9063 75.2223C29.0626 75.2223 29.2162 75.1811 29.3516 75.103L35.5859 71.5405C35.7219 71.462 35.8346 71.349 35.9128 71.2129C35.991 71.0769 36.0319 70.9226 36.0313 70.7656V68.0938H60.9688V70.7656C60.9681 70.9226 61.009 71.0769 61.0872 71.2129C61.1654 71.349 61.2782 71.462 61.4141 71.5405L67.6484 75.103C67.7838 75.1811 67.9374 75.2223 68.0938 75.2223C68.2501 75.2223 68.4037 75.1811 68.5391 75.103L74.7734 71.5405C74.9094 71.462 75.0221 71.349 75.1003 71.2129C75.1785 71.0769 75.2194 70.9226 75.2188 70.7656V63.6406C75.2194 63.4837 75.1785 63.3294 75.1003 63.1933C75.0221 63.0572 74.9094 62.9443 74.7734 62.8658L68.9844 59.5616V37.4384L74.7734 34.1342ZM72.5469 63.6406L68.0938 66.1789L63.6406 63.6406L68.0938 61.1023L72.5469 63.6406ZM68.0938 35.8977L62.75 32.8428V27.7662L67.6484 30.5717C67.7838 30.6499 67.9374 30.691 68.0938 30.691C68.2501 30.691 68.4037 30.6499 68.5391 30.5717L73.4375 27.7662V32.8428L68.0938 35.8977ZM72.5469 26.2344L68.0938 28.7727L63.6406 26.2344L68.0938 23.6961L72.5469 26.2344ZM33.3594 26.2344L28.9063 28.7727L24.4531 26.2344L28.9063 23.6961L33.3594 26.2344ZM23.5625 27.7662L28.4609 30.5717C28.5963 30.6499 28.7499 30.691 28.9063 30.691C29.0626 30.691 29.2162 30.6499 29.3516 30.5717L34.25 27.7662V32.8428L28.9063 35.8977L23.5625 32.8428V27.7662ZM33.3594 63.6406L28.9063 66.1789L24.4531 63.6406L28.9063 61.1023L33.3594 63.6406ZM34.25 70.2491L28.9063 73.3039L23.5625 70.2491V65.1725L28.4609 67.978C28.5963 68.0561 28.7499 68.0973 28.9063 68.0973C29.0626 68.0973 29.2162 68.0561 29.3516 67.978L34.25 65.1725V70.2491ZM36.0313 66.3125V63.6406C36.0319 63.4837 35.991 63.3294 35.9128 63.1933C35.8346 63.0572 35.7219 62.9443 35.5859 62.8658L29.7969 59.5616V37.4384L35.5859 34.1342C35.7219 34.0558 35.8346 33.9428 35.9128 33.8067C35.991 33.6706 36.0319 33.5163 36.0313 33.3594V30.6875H60.9688V33.3594C60.9681 33.5163 61.009 33.6706 61.0872 33.8067C61.1654 33.9428 61.2782 34.0558 61.4141 34.1342L67.2031 37.4384V59.5616L61.4141 62.8658C61.2782 62.9443 61.1654 63.0572 61.0872 63.1933C61.009 63.3294 60.9681 63.4837 60.9688 63.6406V66.3125H36.0313ZM68.0938 73.3039L62.75 70.2491V65.1725L67.6484 67.978C67.7838 68.0561 67.9374 68.0973 68.0938 68.0973C68.2501 68.0973 68.4037 68.0561 68.5391 67.978L73.4375 65.1725V70.2491L68.0938 73.3039Z" fill="white"/>
<path d="M62.75 54.672V42.328C62.7462 41.5395 62.5331 40.7662 62.1325 40.0871C61.7319 39.408 61.1582 38.8474 60.47 38.4627L50.6731 33.012C50.0199 32.6566 49.2882 32.4704 48.5445 32.4704C47.8009 32.4704 47.0691 32.6566 46.4159 33.012L36.5211 38.4716C35.8359 38.8567 35.2648 39.4164 34.8659 40.0937C34.467 40.7711 34.2545 41.5419 34.25 42.328V54.672C34.2538 55.4605 34.4669 56.2338 34.8675 56.9129C35.2681 57.592 35.8418 58.1526 36.53 58.5373L46.3714 63.988C47.0246 64.3434 47.7564 64.5296 48.5 64.5296C49.2436 64.5296 49.9754 64.3434 50.6286 63.988L54.5117 61.8594C54.6141 61.8027 54.7043 61.7264 54.7772 61.6348C54.85 61.5432 54.9041 61.4382 54.9364 61.3257C54.9687 61.2132 54.9784 61.0955 54.9652 60.9792C54.9519 60.863 54.9158 60.7504 54.8591 60.6481C54.7446 60.4437 54.5542 60.2927 54.3292 60.2277C54.1041 60.1627 53.8625 60.1889 53.6567 60.3008L49.7736 62.4383C49.3826 62.6503 48.9448 62.7614 48.5 62.7614C48.0552 62.7614 47.6174 62.6503 47.2264 62.4383L37.4295 56.9966C37.0102 56.7692 36.6593 56.4337 36.4134 56.0249C36.1676 55.6162 36.0356 55.149 36.0312 54.672V42.328C36.0343 41.8584 36.1611 41.398 36.3987 40.993C36.6364 40.5881 36.9766 40.2529 37.385 40.0212L47.2264 34.5795C47.6174 34.3675 48.0552 34.2565 48.5 34.2565C48.9448 34.2565 49.3826 34.3675 49.7736 34.5795L59.5705 40.0212C59.9872 40.2471 60.3363 40.5798 60.5821 40.9852C60.8278 41.3906 60.9613 41.854 60.9688 42.328V54.672C60.9657 55.1416 60.8389 55.602 60.6013 56.007C60.3636 56.4119 60.0234 56.7471 59.615 56.9787L56.9431 58.4839C56.7376 58.602 56.5875 58.7969 56.5257 59.0257C56.4639 59.2546 56.4955 59.4986 56.6136 59.7041C56.7317 59.9096 56.9266 60.0597 57.1554 60.1215C57.3842 60.1833 57.6282 60.1517 57.8337 60.0336L60.5591 58.5284C61.2294 58.1331 61.7844 57.569 62.1688 56.8924C62.5532 56.2158 62.7536 55.4502 62.75 54.672Z" fill="white"/>
<path d="M44.0469 52.9531C44.2831 52.9531 44.5096 52.8593 44.6766 52.6923C44.8437 52.5252 44.9375 52.2987 44.9375 52.0625V44.9375C44.9375 44.7013 44.8437 44.4748 44.6766 44.3077C44.5096 44.1407 44.2831 44.0469 44.0469 44.0469C43.8107 44.0469 43.5841 44.1407 43.4171 44.3077C43.2501 44.4748 43.1562 44.7013 43.1562 44.9375V49.3906L39.4423 44.4388C39.4637 44.4725 39.4816 44.5083 39.4958 44.5456C39.423 44.3971 39.3103 44.2717 39.1703 44.1837C39.0303 44.0956 38.8685 44.0482 38.7031 44.0469C38.4669 44.0469 38.2404 44.1407 38.0734 44.3077C37.9063 44.4748 37.8125 44.7013 37.8125 44.9375V52.0625C37.8125 52.2987 37.9063 52.5252 38.0734 52.6923C38.2404 52.8593 38.4669 52.9531 38.7031 52.9531C38.9393 52.9531 39.1659 52.8593 39.3329 52.6923C39.4999 52.5252 39.5938 52.2987 39.5938 52.0625V47.6094L43.3077 52.5613C43.2863 52.5275 43.2684 52.4917 43.2542 52.4544C43.327 52.6029 43.4397 52.7283 43.5797 52.8163C43.7197 52.9044 43.8815 52.9518 44.0469 52.9531Z" fill="white"/>
<path d="M51.1719 45.8281C51.4081 45.8281 51.6346 45.7343 51.8016 45.5673C51.9687 45.4002 52.0625 45.1737 52.0625 44.9375C52.0625 44.7013 51.9687 44.4748 51.8016 44.3077C51.6346 44.1407 51.4081 44.0469 51.1719 44.0469H47.6094C47.3732 44.0469 47.1466 44.1407 46.9796 44.3077C46.8126 44.4748 46.7188 44.7013 46.7188 44.9375V52.0625C46.7188 52.2987 46.8126 52.5252 46.9796 52.6923C47.1466 52.8593 47.3732 52.9531 47.6094 52.9531C47.8456 52.9531 48.0721 52.8593 48.2391 52.6923C48.4062 52.5252 48.5 52.2987 48.5 52.0625V49.3906H51.1719C51.4081 49.3906 51.6346 49.2968 51.8016 49.1298C51.9687 48.9627 52.0625 48.7362 52.0625 48.5C52.0625 48.2638 51.9687 48.0373 51.8016 47.8702C51.6346 47.7032 51.4081 47.6094 51.1719 47.6094H48.5V45.8281H51.1719Z" fill="white"/>
<path d="M57.4062 52.0625V45.8281H58.2969C58.5331 45.8281 58.7596 45.7343 58.9266 45.5673C59.0937 45.4002 59.1875 45.1737 59.1875 44.9375C59.1875 44.7013 59.0937 44.4748 58.9266 44.3077C58.7596 44.1407 58.5331 44.0469 58.2969 44.0469H54.7344C54.4982 44.0469 54.2716 44.1407 54.1046 44.3077C53.9376 44.4748 53.8438 44.7013 53.8438 44.9375C53.8438 45.1737 53.9376 45.4002 54.1046 45.5673C54.2716 45.7343 54.4982 45.8281 54.7344 45.8281H55.625V52.0625C55.625 52.2987 55.7188 52.5252 55.8859 52.6923C56.0529 52.8593 56.2794 52.9531 56.5156 52.9531C56.7518 52.9531 56.9784 52.8593 57.1454 52.6923C57.3124 52.5252 57.4062 52.2987 57.4062 52.0625Z" fill="white"/>
<path d="M39.5938 23.5625H43.1562V27.125H39.5938V23.5625Z" fill="white"/>
<path d="M52.9531 69.875H56.5156V73.4375H52.9531V69.875Z" fill="white"/>
</g>
<defs>
<clipPath id="clip0_1_244">
<rect width="97.003" height="97.002" fill="white"/>
</clipPath>
</defs>
</svg>
