<svg width="98" height="98" viewBox="0 0 98 98" fill="none" xmlns="http://www.w3.org/2000/svg">
<g clip-path="url(#clip0_1_245)">
<path d="M97.003 89.353V7.649C97.003 3.42457 93.5784 0 89.354 0L7.64899 0C3.42457 0 -7.62939e-06 3.42457 -7.62939e-06 7.649V89.353C-7.62939e-06 93.5774 3.42457 97.002 7.64899 97.002H89.354C93.5784 97.002 97.003 93.5774 97.003 89.353Z" fill="black"/>
<path d="M74.1785 32.0838L68.8348 24.0682C68.7534 23.9463 68.6432 23.8463 68.5139 23.7772C68.3847 23.708 68.2403 23.6719 68.0938 23.6719H28.9062C28.7597 23.6719 28.6153 23.708 28.4861 23.7772C28.3568 23.8463 28.2466 23.9463 28.1653 24.0682L22.8215 32.0838C22.7242 32.2303 22.6722 32.4022 22.6719 32.5781V35.25C22.6732 36.2762 23.0282 37.2705 23.6771 38.0655C24.3261 38.8604 25.2292 39.4074 26.2344 39.6141V69.9844C26.2344 70.2206 26.3282 70.4471 26.4952 70.6141C26.6623 70.7812 26.8888 70.875 27.125 70.875H38.525L47.1641 75.8625C47.5702 76.097 48.031 76.2205 48.5 76.2205C48.969 76.2205 49.4298 76.097 49.8359 75.8625L58.475 70.875H69.875C70.1112 70.875 70.3377 70.7812 70.5048 70.6141C70.6718 70.4471 70.7656 70.2206 70.7656 69.9844V39.6141C71.7708 39.4074 72.6739 38.8604 73.3229 38.0655C73.9718 37.2705 74.3268 36.2762 74.3281 35.25V32.5781C74.3278 32.4022 74.2758 32.2303 74.1785 32.0838ZM29.3827 25.4531H67.6173L71.7738 31.6875H25.2262L29.3827 25.4531ZM65.4219 33.4687V35.25C65.4219 35.9586 65.1404 36.6382 64.6393 37.1393C64.1382 37.6404 63.4586 37.9219 62.75 37.9219C62.0414 37.9219 61.3618 37.6404 60.8607 37.1393C60.3596 36.6382 60.0781 35.9586 60.0781 35.25V33.4687H65.4219ZM58.2969 33.4687V35.25C58.2969 35.9586 58.0154 36.6382 57.5143 37.1393C57.0132 37.6404 56.3336 37.9219 55.625 37.9219C54.9164 37.9219 54.2368 37.6404 53.7357 37.1393C53.2346 36.6382 52.9531 35.9586 52.9531 35.25V33.4687H58.2969ZM51.1719 33.4687V35.25C51.1719 35.9586 50.8904 36.6382 50.3893 37.1393C49.8882 37.6404 49.2086 37.9219 48.5 37.9219C47.7914 37.9219 47.1118 37.6404 46.6107 37.1393C46.1096 36.6382 45.8281 35.9586 45.8281 35.25V33.4687H51.1719ZM44.0469 33.4687V35.25C44.0469 35.9586 43.7654 36.6382 43.2643 37.1393C42.7632 37.6404 42.0836 37.9219 41.375 37.9219C40.6664 37.9219 39.9868 37.6404 39.4857 37.1393C38.9846 36.6382 38.7031 35.9586 38.7031 35.25V33.4687H44.0469ZM36.9219 33.4687V35.25C36.9219 35.9586 36.6404 36.6382 36.1393 37.1393C35.6382 37.6404 34.9586 37.9219 34.25 37.9219C33.5414 37.9219 32.8618 37.6404 32.3607 37.1393C31.8596 36.6382 31.5781 35.9586 31.5781 35.25V33.4687H36.9219ZM24.4531 35.25V33.4687H29.7969V35.25C29.7969 35.9586 29.5154 36.6382 29.0143 37.1393C28.5132 37.6404 27.8336 37.9219 27.125 37.9219C26.4164 37.9219 25.7368 37.6404 25.2357 37.1393C24.7346 36.6382 24.4531 35.9586 24.4531 35.25ZM48.9453 74.3182C48.8099 74.3963 48.6563 74.4375 48.5 74.4375C48.3437 74.4375 48.1901 74.3963 48.0547 74.3182L35.5859 67.1192C35.4505 67.0411 35.3381 66.9286 35.26 66.7932C35.1818 66.6579 35.1406 66.5043 35.1406 66.348V52.2458C35.1405 52.0893 35.1816 51.9355 35.2597 51.8C35.3379 51.6644 35.4504 51.5519 35.5859 51.4736L48.0547 44.2756C48.1901 44.1974 48.3437 44.1563 48.5 44.1563C48.6563 44.1563 48.8099 44.1974 48.9453 44.2756L61.4141 51.4736C61.5496 51.5519 61.6621 51.6644 61.7403 51.8C61.8184 51.9355 61.8595 52.0893 61.8594 52.2458V66.348C61.8594 66.5043 61.8182 66.6579 61.74 66.7932C61.6619 66.9286 61.5495 67.0411 61.4141 67.1192L48.9453 74.3182ZM61.5566 69.0937L62.3047 68.6618C62.7111 68.4271 63.0486 68.0896 63.2831 67.6831C63.5176 67.2766 63.6409 66.8155 63.6406 66.3462V52.2458C63.6409 51.7765 63.5176 51.3154 63.2831 50.9089C63.0486 50.5024 62.7111 50.1648 62.3047 49.9302L49.8359 42.7312C49.4298 42.4967 48.969 42.3733 48.5 42.3733C48.031 42.3733 47.5702 42.4967 47.1641 42.7312L34.6953 49.9302C34.2889 50.1648 33.9514 50.5024 33.7169 50.9089C33.4824 51.3154 33.3591 51.7765 33.3594 52.2458V66.348C33.3591 66.8173 33.4824 67.2784 33.7169 67.6849C33.9514 68.0914 34.2889 68.4289 34.6953 68.6636L35.4434 69.0955H28.0156V39.6052C29.0857 39.3814 30.0365 38.7726 30.6875 37.8943C31.0971 38.4548 31.6332 38.9108 32.2522 39.2252C32.8713 39.5396 33.5557 39.7034 34.25 39.7034C34.9443 39.7034 35.6287 39.5396 36.2478 39.2252C36.8668 38.9108 37.4029 38.4548 37.8125 37.8943C38.2221 38.4548 38.7582 38.9108 39.3772 39.2252C39.9963 39.5396 40.6807 39.7034 41.375 39.7034C42.0693 39.7034 42.7537 39.5396 43.3728 39.2252C43.9918 38.9108 44.5279 38.4548 44.9375 37.8943C45.3471 38.4548 45.8832 38.9108 46.5022 39.2252C47.1213 39.5396 47.8057 39.7034 48.5 39.7034C49.1943 39.7034 49.8787 39.5396 50.4978 39.2252C51.1168 38.9108 51.6529 38.4548 52.0625 37.8943C52.4721 38.4548 53.0082 38.9108 53.6272 39.2252C54.2463 39.5396 54.9307 39.7034 55.625 39.7034C56.3193 39.7034 57.0037 39.5396 57.6228 39.2252C58.2418 38.9108 58.7779 38.4548 59.1875 37.8943C59.5971 38.4548 60.1332 38.9108 60.7522 39.2252C61.3713 39.5396 62.0557 39.7034 62.75 39.7034C63.4443 39.7034 64.1287 39.5396 64.7478 39.2252C65.3668 38.9108 65.9029 38.4548 66.3125 37.8943C66.9635 38.7726 67.9143 39.3814 68.9844 39.6052V69.0937H61.5566ZM72.5469 35.25C72.5469 35.9586 72.2654 36.6382 71.7643 37.1393C71.2632 37.6404 70.5836 37.9219 69.875 37.9219C69.1664 37.9219 68.4868 37.6404 67.9857 37.1393C67.4846 36.6382 67.2031 35.9586 67.2031 35.25V33.4687H72.5469V35.25Z" fill="white"/>
<path d="M52.5078 49.4492L48.9453 47.3928C48.8099 47.3146 48.6563 47.2735 48.5 47.2735C48.3437 47.2735 48.1901 47.3146 48.0547 47.3928L47.1641 47.9067C47.0287 47.9848 46.9162 48.0973 46.8381 48.2327C46.7599 48.3681 46.7188 48.5216 46.7188 48.678V69.9844C46.7188 70.2206 46.8126 70.4471 46.9796 70.6141C47.1466 70.7812 47.3732 70.875 47.6094 70.875C47.8456 70.875 48.0721 70.7812 48.2391 70.6141C48.4062 70.4471 48.5 70.2206 48.5 69.9844V60.6328H51.6172C51.8534 60.6328 52.0799 60.539 52.247 60.372C52.414 60.2049 52.5078 59.9784 52.5078 59.7422C52.5078 59.506 52.414 59.2795 52.247 59.1124C52.0799 58.9454 51.8534 58.8516 51.6172 58.8516H48.5V49.1927L51.6172 50.9918C51.8217 51.1099 52.0648 51.1419 52.293 51.0808C52.5211 51.0196 52.7157 50.8704 52.8338 50.6658C52.9519 50.4613 52.9839 50.2182 52.9228 49.99C52.8616 49.7619 52.7124 49.5674 52.5078 49.4492Z" fill="white"/>
<path d="M59.6328 53.563L55.1797 50.9918C54.975 50.8737 54.7318 50.8417 54.5036 50.9029C54.2753 50.9642 54.0808 51.1135 53.9627 51.3182C53.8445 51.5229 53.8126 51.7661 53.8738 51.9943C53.935 52.2226 54.0844 52.4171 54.2891 52.5352L55.625 53.3065V66.4219C55.625 66.6581 55.7188 66.8846 55.8859 67.0516C56.0529 67.2187 56.2794 67.3125 56.5156 67.3125C56.7518 67.3125 56.9784 67.2187 57.1454 67.0516C57.3124 66.8846 57.4063 66.6581 57.4063 66.4219V54.3343L58.7422 55.1056C58.8435 55.165 58.9556 55.2038 59.072 55.2197C59.1883 55.2356 59.3067 55.2283 59.4203 55.1983C59.5338 55.1683 59.6403 55.1161 59.7336 55.0447C59.8269 54.9734 59.9052 54.8843 59.9639 54.7826C60.0226 54.6809 60.0607 54.5685 60.0758 54.4521C60.091 54.3356 60.0829 54.2173 60.0521 54.1039C60.0214 53.9906 59.9685 53.8844 59.8965 53.7916C59.8245 53.6988 59.7349 53.6211 59.6328 53.563Z" fill="white"/>
<path d="M43.6016 50.8359C43.3654 50.8359 43.1388 50.9298 42.9718 51.0968C42.8048 51.2638 42.7109 51.4904 42.7109 51.7266V63.1328L39.0843 54.068C39.0073 53.8761 38.8659 53.717 38.6844 53.618C38.5029 53.519 38.2926 53.4862 38.0895 53.5253C37.8865 53.5643 37.7034 53.6728 37.5716 53.8321C37.4398 53.9915 37.3675 54.1917 37.3672 54.3984V65.9766C37.3672 66.2128 37.461 66.4393 37.628 66.6063C37.7951 66.7734 38.0216 66.8672 38.2578 66.8672C38.494 66.8672 38.7206 66.7734 38.8876 66.6063C39.0546 66.4393 39.1484 66.2128 39.1484 65.9766V59.0226L42.7751 68.0882C42.8521 68.2801 42.9935 68.4392 43.175 68.5382C43.3565 68.6373 43.5668 68.6701 43.7699 68.631C43.9729 68.5919 44.156 68.4834 44.2878 68.3241C44.4196 68.1648 44.4919 67.9646 44.4922 67.7578V51.7266C44.4922 51.4904 44.3984 51.2638 44.2313 51.0968C44.0643 50.9298 43.8378 50.8359 43.6016 50.8359Z" fill="white"/>
</g>
<defs>
<clipPath id="clip0_1_245">
<rect width="97.003" height="97.002" fill="white"/>
</clipPath>
</defs>
</svg>
