<svg width="98" height="98" viewBox="0 0 98 98" fill="none" xmlns="http://www.w3.org/2000/svg">
<g clip-path="url(#clip0_1_13)">
<path d="M97.003 89.353V7.649C97.003 3.42457 93.5784 0 89.354 0L7.64899 0C3.42457 0 -7.62939e-06 3.42457 -7.62939e-06 7.649V89.353C-7.62939e-06 93.5774 3.42457 97.002 7.64899 97.002H89.354C93.5784 97.002 97.003 93.5774 97.003 89.353Z" fill="black"/>
<path fill-rule="evenodd" clip-rule="evenodd" d="M60.5786 57.2989C60.8915 57.148 61.1057 56.8277 61.1057 56.4589V41.5595C61.1057 41.2075 60.9064 40.8853 60.5916 40.7269L49.417 35.1396C49.1544 35.0093 48.8453 35.0093 48.5827 35.1396L37.4081 40.7269C37.0933 40.8853 36.894 41.2075 36.894 41.5595V56.4589C36.894 56.8277 37.1082 57.148 37.4211 57.2989L48.5827 62.8787C48.8453 63.0109 49.1544 63.0109 49.417 62.8787L60.5786 57.2989ZM59.2432 43.0662L49.9311 47.7222V60.5395L59.2432 55.8834V43.0662ZM38.7565 43.0662V55.8834L48.0686 60.5395V47.7222L38.7565 43.0662ZM39.9075 41.5595L48.9999 37.0133L58.0922 41.5595L48.9999 46.1056L39.9075 41.5595Z" fill="white"/>
<path fill-rule="evenodd" clip-rule="evenodd" d="M33.1561 33.1561C30.7257 34.4319 28.6025 35.9908 26.8853 37.7619C26.6097 38.045 26.3452 38.3337 26.0901 38.6298C26.8295 36.9946 27.7532 35.4209 28.8614 33.9421C29.1687 33.5305 29.0849 32.9476 28.6751 32.6384C28.2635 32.3311 27.6787 32.413 27.3714 32.8246C19.4468 43.3995 20.2905 58.4815 29.9043 68.0954C40.4438 78.6349 57.5559 78.6349 68.0954 68.0954C78.6349 57.5559 78.6349 40.4438 68.0954 29.9043C58.4815 20.2905 43.3995 19.4468 32.8246 27.3714C32.413 27.6787 32.3311 28.2635 32.6384 28.6751C32.9476 29.0849 33.5305 29.1687 33.9421 28.8614C35.4209 27.7532 36.9946 26.8295 38.6298 26.0901C38.3337 26.3452 38.0432 26.6116 37.7601 26.8872C35.9889 28.6062 34.4319 30.7275 33.1561 33.1561ZM46.3347 68.4623C42.6564 68.2015 39.196 67.4063 36.1062 66.1882C36.9928 67.5292 37.9817 68.7342 39.0582 69.7771C41.7569 72.3957 44.9975 73.9937 48.5007 74.1334C48.8341 74.139 49.1675 74.139 49.499 74.1334C53.0022 73.9937 56.2429 72.3957 58.9415 69.7771C60.018 68.7342 61.007 67.5292 61.8935 66.1882C58.8037 67.4063 55.3433 68.2015 51.665 68.4623C51.3093 69.5946 50.2495 70.4178 48.9999 70.4178C47.7502 70.4178 46.6904 69.5946 46.3347 68.4623ZM26.0901 59.3699C27.3044 62.0574 29.016 64.5717 31.2211 66.7786C33.4262 68.9838 35.9423 70.6935 38.628 71.9096C38.3337 71.6545 38.045 71.39 37.7619 71.1144C35.9908 69.3972 34.4319 67.274 33.1561 64.8436C30.7257 63.5678 28.6025 62.0089 26.8853 60.2378C26.6097 59.9547 26.3452 59.6641 26.0901 59.3699ZM71.9096 59.3717C71.6545 59.666 71.39 59.9547 71.1144 60.2378C69.3972 62.0089 67.274 63.5678 64.8436 64.8436C63.5678 67.274 62.0089 69.3972 60.2378 71.1144C59.9547 71.39 59.666 71.6545 59.3717 71.9096C62.0574 70.6935 64.5735 68.9838 66.7786 66.7786C68.9838 64.5735 70.6935 62.0574 71.9096 59.3717ZM48.9999 66.693C49.5139 66.693 49.9311 67.1101 49.9311 67.6242C49.9311 68.1382 49.5139 68.5554 48.9999 68.5554C48.4858 68.5554 48.0686 68.1382 48.0686 67.6242C48.0686 67.1101 48.4858 66.693 48.9999 66.693ZM46.3999 31.4017C42.0213 31.7184 37.9687 32.8321 34.5381 34.5381C32.8321 37.9668 31.7184 42.0195 31.4017 46.3999C32.4354 46.8096 33.1692 47.8191 33.1692 48.9999C33.1692 50.1806 32.4354 51.1901 31.4017 51.5998C31.7184 55.9784 32.8321 60.031 34.5381 63.4616C37.9687 65.1676 42.0213 66.2814 46.3999 66.598C46.8096 65.5643 47.8191 64.8305 48.9999 64.8305C50.1806 64.8305 51.1901 65.5643 51.5998 66.598C55.9784 66.2814 60.031 65.1676 63.4616 63.4616C65.1676 60.031 66.2814 55.9784 66.598 51.5998C65.5643 51.1901 64.8305 50.1806 64.8305 48.9999C64.8305 47.8191 65.5643 46.8096 66.598 46.3999C66.2814 42.0213 65.1676 37.9687 63.4616 34.5381C60.031 32.8321 55.9784 31.7184 51.5998 31.4017C51.1901 32.4354 50.1806 33.1692 48.9999 33.1692C47.8191 33.1692 46.8096 32.4354 46.3999 31.4017ZM29.5374 46.3347C29.7982 42.6564 30.5934 39.196 31.8115 36.1062C30.4705 36.9928 29.2655 37.9817 28.2226 39.0582C25.6003 41.7606 24.0004 45.0068 23.8663 48.5175C23.8608 48.8397 23.8608 49.1619 23.8663 49.4841C24.0004 52.9929 25.6003 56.2391 28.2226 58.9415C29.2655 60.018 30.4705 61.007 31.8115 61.8935C30.5934 58.8037 29.7982 55.3433 29.5374 51.665C28.4051 51.3093 27.5819 50.2495 27.5819 48.9999C27.5819 47.7502 28.4051 46.6904 29.5374 46.3347ZM68.4623 51.665C68.2015 55.3433 67.4063 58.8037 66.1882 61.8935C67.5292 61.007 68.7342 60.018 69.7771 58.9415C72.3957 56.2429 73.9937 53.0022 74.1334 49.499C74.139 49.1656 74.139 48.8322 74.1334 48.5007C73.9937 44.9975 72.3957 41.7569 69.7771 39.0582C68.7342 37.9817 67.5292 36.9928 66.1882 36.1062C67.4063 39.196 68.2015 42.6564 68.4623 46.3347C69.5946 46.6904 70.4178 47.7502 70.4178 48.9999C70.4178 50.2495 69.5946 51.3093 68.4623 51.665ZM31.3068 48.9999C31.3068 49.5139 30.8896 49.9311 30.3755 49.9311C29.8615 49.9311 29.4443 49.5139 29.4443 48.9999C29.4443 48.4858 29.8615 48.0686 30.3755 48.0686C30.8896 48.0686 31.3068 48.4858 31.3068 48.9999ZM68.5554 48.9999C68.5554 49.5139 68.1382 49.9311 67.6242 49.9311C67.1101 49.9311 66.693 49.5139 66.693 48.9999C66.693 48.4858 67.1101 48.0686 67.6242 48.0686C68.1382 48.0686 68.5554 48.4858 68.5554 48.9999ZM71.9096 38.628C70.6935 35.9423 68.9838 33.4262 66.7786 31.2211C64.5717 29.016 62.0574 27.3044 59.3699 26.0901C59.666 26.3452 59.9547 26.6097 60.2378 26.8853C62.0089 28.6025 63.5678 30.7257 64.8436 33.1561C67.274 34.4319 69.3972 35.9908 71.1144 37.7619C71.39 38.045 71.6545 38.3337 71.9096 38.628ZM51.665 29.5374C55.3433 29.7982 58.8037 30.5934 61.8935 31.8115C61.007 30.4705 60.018 29.2655 58.9415 28.2226C56.2391 25.6003 52.9929 24.0023 49.4841 23.8663C49.1619 23.8608 48.8397 23.8608 48.5175 23.8663C45.0068 24.0004 41.7587 25.6021 39.0563 28.2244C37.9817 29.2674 36.9928 30.4724 36.1062 31.8115C39.196 30.5934 42.6564 29.7982 46.3347 29.5374C46.6904 28.4051 47.7502 27.5819 48.9999 27.5819C50.2495 27.5819 51.3093 28.4051 51.665 29.5374ZM31.2211 29.9043C31.5843 30.2675 31.5843 30.8579 31.2211 31.2211C30.8579 31.5843 30.2675 31.5843 29.9043 31.2211C29.5412 30.8579 29.5412 30.2675 29.9043 29.9043C30.2675 29.5412 30.8579 29.5412 31.2211 29.9043ZM48.9999 29.4443C49.5139 29.4443 49.9311 29.8615 49.9311 30.3755C49.9311 30.8896 49.5139 31.3068 48.9999 31.3068C48.4858 31.3068 48.0686 30.8896 48.0686 30.3755C48.0686 29.8615 48.4858 29.4443 48.9999 29.4443Z" fill="white"/>
</g>
<defs>
<clipPath id="clip0_1_13">
<rect width="97.003" height="97.002" fill="white"/>
</clipPath>
</defs>
</svg>
